<?xml version='1.0' encoding='ASCII' standalone='yes'?>
<svg xmlns="http://www.w3.org/2000/svg" xmlns:xlink="http://www.w3.org/1999/xlink" width="863.94" height="283.44" viewBox="-39.99 -47.24 287.98 94.48">
<defs>
<style type="text/css">
.l36d0 {stroke: #E25822; fill: #E25822; fill-opacity: 0.5;}
.l38d0 {stroke: #F3C300; fill: #F3C300; fill-opacity: 0.5;}
.l33d0 {stroke: #882D17; fill: #882D17; fill-opacity: 0.5;}
.l35d0 {stroke: #654522; fill: #654522; fill-opacity: 0.5;}
.l34d0 {stroke: #8DB600; fill: #8DB600; fill-opacity: 0.5;}
.l42d0 {stroke: #BE0032; fill: #BE0032; fill-opacity: 0.5;}
.l21d0 {stroke: #A1CAF1; fill: #A1CAF1; fill-opacity: 0.5;}
.l22d0 {stroke: #BE0032; fill: #BE0032; fill-opacity: 0.5;}
.l31d0 {stroke: #B3446C; fill: #B3446C; fill-opacity: 0.5;}
.l30d0 {stroke: #F6A600; fill: #F6A600; fill-opacity: 0.5;}
</style>
<g id="Unnamed_772fb118">
<polygon id="00000223BBFDD310" class="l21d0" points="-17.3,-34.15 17.3,-34.15 17.3,34.15 -17.3,34.15"/>
<polygon id="00000223BBFDCBA0" class="l30d0" points="-7.8,-24.95 -7.8,19.85 -2.8,19.85 -2.8,-24.95"/>
<polygon id="00000223BBFDD850" class="l33d0" points="-1.1,-18.65 -1.1,-16.45 1.1,-16.45 1.1,-18.65"/>
<polygon id="00000223BBFDDE70" class="l34d0" points="-2.3,-19.85 -2.3,-15.25 2.3,-15.25 2.3,-19.85"/>
<polygon id="00000223BBFDD8C0" class="l34d0" points="-2.3,-14.85 -2.3,-10.25 2.3,-10.25 2.3,-14.85"/>
<polygon id="00000223BBFDC580" class="l33d0" points="-1.1,11.35 -1.1,13.55 1.1,13.55 1.1,11.35"/>
<polygon id="00000223BBFDD0E0" class="l34d0" points="-2.3,10.15 -2.3,14.75 2.3,14.75 2.3,10.15"/>
<polygon id="00000223BBFDD150" class="l33d0" points="-1.1,-13.65 -1.1,-11.45 1.1,-11.45 1.1,-13.65"/>
<polygon id="00000223BBFDDA10" class="l33d0" points="-1.1,6.35 -1.1,8.55 1.1,8.55 1.1,6.35"/>
<polygon id="00000223BBFDCAC0" class="l34d0" points="-2.3,5.15 -2.3,9.75 2.3,9.75 2.3,5.15"/>
<polygon id="00000223BBFDDB60" class="l34d0" points="-2.3,-9.85 -2.3,-5.25 2.3,-5.25 2.3,-9.85"/>
<polygon id="00000223BBFDD380" class="l33d0" points="-1.1,1.35 -1.1,3.55 1.1,3.55 1.1,1.35"/>
<polygon id="00000223BBFDD460" class="l34d0" points="-2.3,0.15 -2.3,4.75 2.3,4.75 2.3,0.15"/>
<polygon id="00000223BBFDCC80" class="l33d0" points="-1.1,-8.65 -1.1,-6.45 1.1,-6.45 1.1,-8.65"/>
<polygon id="00000223BBFDD540" class="l33d0" points="-1.1,-3.65 -1.1,-1.45 1.1,-1.45 1.1,-3.65"/>
<polygon id="00000223BBFDDBD0" class="l34d0" points="-2.3,-4.85 -2.3,-0.25 2.3,-0.25 2.3,-4.85"/>
<polygon id="00000223BBFDC740" class="l34d0" points="-2.3,-22.55 -2.3,17.45 2.3,17.45 2.3,-22.55"/>
<polygon id="00000223BBFDC7B0" class="l35d0" points="-1.3,-15.85 -1.3,-13.25 1.3,-13.25 1.3,-15.85"/>
<polygon id="00000223BBFDD5B0" class="l36d0" points="-2.5,-17.05 -2.5,-12.05 2.5,-12.05 2.5,-17.05"/>
<polygon id="00000223BBFDDE00" class="l34d0" points="-2.5,-17.05 -2.5,-12.05 2.5,-12.05 2.5,-17.05"/>
<polygon id="00000223BBFDDC40" class="l35d0" points="-1.3,8.15 -1.3,10.75 1.3,10.75 1.3,8.15"/>
<polygon id="00000223BBFDDEE0" class="l36d0" points="-2.5,6.95 -2.5,11.95 2.5,11.95 2.5,6.95"/>
<polygon id="00000223BBFDC9E0" class="l34d0" points="-2.5,6.95 -2.5,11.95 2.5,11.95 2.5,6.95"/>
<polygon id="00000223BBFDCD60" class="l35d0" points="-1.3,0.15 -1.3,2.75 1.3,2.75 1.3,0.15"/>
<polygon id="00000223BBFDDCB0" class="l36d0" points="-2.5,-1.05 -2.5,3.95 2.5,3.95 2.5,-1.05"/>
<polygon id="00000223BBFDDF50" class="l34d0" points="-2.5,-1.05 -2.5,3.95 2.5,3.95 2.5,-1.05"/>
<polygon id="00000223BBFDDFC0" class="l35d0" points="-1.3,-7.85 -1.3,-5.25 1.3,-5.25 1.3,-7.85"/>
<polygon id="00000223BBFDCA50" class="l36d0" points="-2.5,-9.05 -2.5,-4.05 2.5,-4.05 2.5,-9.05"/>
<polygon id="00000223BBFDCCF0" class="l34d0" points="-2.5,-9.05 -2.5,-4.05 2.5,-4.05 2.5,-9.05"/>
<polygon id="00000223BBFDE030" class="l36d0" points="-2.5,-22.55 -2.5,17.45 2.5,17.45 2.5,-22.55"/>
<polygon id="00000223BBFDC820" class="l34d0" points="-2.5,-17.05 -2.5,11.95 2.5,11.95 2.5,-17.05"/>
<polygon id="00000223BBFDC970" class="l30d0" points="2.8,-24.95 2.8,19.85 7.8,19.85 7.8,-24.95"/>
<polygon id="00000223BBFDCC10" class="l33d0" points="9.5,-18.65 9.5,-16.45 11.7,-16.45 11.7,-18.65"/>
<polygon id="00000223BBFDCDD0" class="l34d0" points="8.3,-19.85 8.3,-15.25 12.9,-15.25 12.9,-19.85"/>
<polygon id="00000223BBFDCE40" class="l34d0" points="8.3,-14.85 8.3,-10.25 12.9,-10.25 12.9,-14.85"/>
<polygon id="00000223BBFDCF90" class="l33d0" points="9.5,11.35 9.5,13.55 11.7,13.55 11.7,11.35"/>
<polygon id="00000223BBFDFC30" class="l34d0" points="8.3,10.15 8.3,14.75 12.9,14.75 12.9,10.15"/>
<polygon id="00000223BBFDF840" class="l33d0" points="9.5,-13.65 9.5,-11.45 11.7,-11.45 11.7,-13.65"/>
<polygon id="00000223BBFDEEA0" class="l33d0" points="9.5,6.35 9.5,8.55 11.7,8.55 11.7,6.35"/>
<polygon id="00000223BBFDF610" class="l34d0" points="8.3,5.15 8.3,9.75 12.9,9.75 12.9,5.15"/>
<polygon id="00000223BBFDF680" class="l34d0" points="8.3,-9.85 8.3,-5.25 12.9,-5.25 12.9,-9.85"/>
<polygon id="00000223BBFDF0D0" class="l33d0" points="9.5,1.35 9.5,3.55 11.7,3.55 11.7,1.35"/>
<polygon id="00000223BBFDE570" class="l34d0" points="8.3,0.15 8.3,4.75 12.9,4.75 12.9,0.15"/>
<polygon id="00000223BBFDEE30" class="l33d0" points="9.5,-8.65 9.5,-6.45 11.7,-6.45 11.7,-8.65"/>
<polygon id="00000223BBFDE880" class="l33d0" points="9.5,-3.65 9.5,-1.45 11.7,-1.45 11.7,-3.65"/>
<polygon id="00000223BBFDF5A0" class="l34d0" points="8.3,-4.85 8.3,-0.25 12.9,-0.25 12.9,-4.85"/>
<polygon id="00000223BBFDF060" class="l34d0" points="8.3,-22.55 8.3,17.45 12.9,17.45 12.9,-22.55"/>
<polygon id="00000223BBFDE2D0" class="l35d0" points="9.3,-15.85 9.3,-13.25 11.9,-13.25 11.9,-15.85"/>
<polygon id="00000223BBFDE340" class="l36d0" points="8.1,-17.05 8.1,-12.05 13.1,-12.05 13.1,-17.05"/>
<polygon id="00000223BBFDEF10" class="l34d0" points="8.1,-17.05 8.1,-12.05 13.1,-12.05 13.1,-17.05"/>
<polygon id="00000223BBFDEC00" class="l35d0" points="9.3,8.15 9.3,10.75 11.9,10.75 11.9,8.15"/>
<polygon id="00000223BBFDE810" class="l36d0" points="8.1,6.95 8.1,11.95 13.1,11.95 13.1,6.95"/>
<polygon id="00000223BBFDF450" class="l34d0" points="8.1,6.95 8.1,11.95 13.1,11.95 13.1,6.95"/>
<polygon id="00000223BBFDE9D0" class="l35d0" points="9.3,0.15 9.3,2.75 11.9,2.75 11.9,0.15"/>
<polygon id="00000223BBFDF370" class="l36d0" points="8.1,-1.05 8.1,3.95 13.1,3.95 13.1,-1.05"/>
<polygon id="00000223BBFDF6F0" class="l34d0" points="8.1,-1.05 8.1,3.95 13.1,3.95 13.1,-1.05"/>
<polygon id="00000223BBFDF7D0" class="l35d0" points="9.3,-7.85 9.3,-5.25 11.9,-5.25 11.9,-7.85"/>
<polygon id="00000223BBFDF4C0" class="l36d0" points="8.1,-9.05 8.1,-4.05 13.1,-4.05 13.1,-9.05"/>
<polygon id="00000223BBFDF1B0" class="l34d0" points="8.1,-9.05 8.1,-4.05 13.1,-4.05 13.1,-9.05"/>
<polygon id="00000223BBFDF140" class="l36d0" points="8.1,-22.55 8.1,17.45 13.1,17.45 13.1,-22.55"/>
<polygon id="00000223BBFDE650" class="l34d0" points="8.1,-17.05 8.1,11.95 13.1,11.95 13.1,-17.05"/>
<polygon id="00000223BBFDE5E0" class="l33d0" points="-11.7,-18.65 -11.7,-16.45 -9.5,-16.45 -9.5,-18.65"/>
<polygon id="00000223BBFDFCA0" class="l34d0" points="-12.9,-19.85 -12.9,-15.25 -8.3,-15.25 -8.3,-19.85"/>
<polygon id="00000223BBFDF300" class="l34d0" points="-12.9,-14.85 -12.9,-10.25 -8.3,-10.25 -8.3,-14.85"/>
<polygon id="00000223BBFDEC70" class="l33d0" points="-11.7,11.35 -11.7,13.55 -9.5,13.55 -9.5,11.35"/>
<polygon id="00000223BBFDFA00" class="l34d0" points="-12.9,10.15 -12.9,14.75 -8.3,14.75 -8.3,10.15"/>
<polygon id="00000223BBFDE3B0" class="l33d0" points="-11.7,-13.65 -11.7,-11.45 -9.5,-11.45 -9.5,-13.65"/>
<polygon id="00000223BBFDEB90" class="l33d0" points="-11.7,6.35 -11.7,8.55 -9.5,8.55 -9.5,6.35"/>
<polygon id="00000223BBFDE180" class="l34d0" points="-12.9,5.15 -12.9,9.75 -8.3,9.75 -8.3,5.15"/>
<polygon id="00000223BBFDF760" class="l34d0" points="-12.9,-9.85 -12.9,-5.25 -8.3,-5.25 -8.3,-9.85"/>
<polygon id="00000223BBFDF8B0" class="l33d0" points="-11.7,1.35 -11.7,3.55 -9.5,3.55 -9.5,1.35"/>
<polygon id="00000223BBFDF920" class="l34d0" points="-12.9,0.15 -12.9,4.75 -8.3,4.75 -8.3,0.15"/>
<polygon id="00000223BBFDFB50" class="l33d0" points="-11.7,-8.65 -11.7,-6.45 -9.5,-6.45 -9.5,-8.65"/>
<polygon id="00000223BBFDE6C0" class="l33d0" points="-11.7,-3.65 -11.7,-1.45 -9.5,-1.45 -9.5,-3.65"/>
<polygon id="00000223BBFDE110" class="l34d0" points="-12.9,-4.85 -12.9,-0.25 -8.3,-0.25 -8.3,-4.85"/>
<polygon id="00000223BBFDE1F0" class="l34d0" points="-12.9,-22.55 -12.9,17.45 -8.3,17.45 -8.3,-22.55"/>
<polygon id="00000223BBFDF990" class="l35d0" points="-11.9,-15.85 -11.9,-13.25 -9.3,-13.25 -9.3,-15.85"/>
<polygon id="00000223BBFDEA40" class="l36d0" points="-13.1,-17.05 -13.1,-12.05 -8.1,-12.05 -8.1,-17.05"/>
<polygon id="00000223BBFDEDC0" class="l34d0" points="-13.1,-17.05 -13.1,-12.05 -8.1,-12.05 -8.1,-17.05"/>
<polygon id="00000223BBFDE8F0" class="l35d0" points="-11.9,8.15 -11.9,10.75 -9.3,10.75 -9.3,8.15"/>
<polygon id="00000223BBFDED50" class="l36d0" points="-13.1,6.95 -13.1,11.95 -8.1,11.95 -8.1,6.95"/>
<polygon id="00000223BBFDE960" class="l34d0" points="-13.1,6.95 -13.1,11.95 -8.1,11.95 -8.1,6.95"/>
<polygon id="00000223BBFDFA70" class="l35d0" points="-11.9,0.15 -11.9,2.75 -9.3,2.75 -9.3,0.15"/>
<polygon id="00000223BBFDF3E0" class="l36d0" points="-13.1,-1.05 -13.1,3.95 -8.1,3.95 -8.1,-1.05"/>
<polygon id="00000223BBFDF220" class="l34d0" points="-13.1,-1.05 -13.1,3.95 -8.1,3.95 -8.1,-1.05"/>
<polygon id="00000223BBFDE260" class="l35d0" points="-11.9,-7.85 -11.9,-5.25 -9.3,-5.25 -9.3,-7.85"/>
<polygon id="00000223BBFDF290" class="l36d0" points="-13.1,-9.05 -13.1,-4.05 -8.1,-4.05 -8.1,-9.05"/>
<polygon id="00000223BBFDF530" class="l34d0" points="-13.1,-9.05 -13.1,-4.05 -8.1,-4.05 -8.1,-9.05"/>
<polygon id="00000223BBFDFAE0" class="l36d0" points="-13.1,-22.55 -13.1,17.45 -8.1,17.45 -8.1,-22.55"/>
<polygon id="00000223BBFDE420" class="l34d0" points="-13.1,-17.05 -13.1,11.95 -8.1,11.95 -8.1,-17.05"/>
<polygon id="00000223BBFDEF80" class="l31d0" points="-16.1,-24.85 -16.1,19.75 16.1,19.75 16.1,-24.85"/>
<polygon id="00000223BBFDE490" class="l22d0" points="-13.8,-22.55 -13.8,17.45 13.8,17.45 13.8,-22.55"/>
<polygon id="00000223BBFDEFF0" class="l35d0" points="-11.9,21.15 -11.9,23.75 -9.3,23.75 -9.3,21.15"/>
<polygon id="00000223BBFDE500" class="l36d0" points="-13.1,19.95 -13.1,24.95 -8.1,24.95 -8.1,19.95"/>
<polygon id="00000223BBFDE730" class="l34d0" points="-13.1,19.95 -13.1,24.95 -8.1,24.95 -8.1,19.95"/>
<polygon id="00000223BBFDE7A0" class="l36d0" points="-13.1,27.95 -13.1,32.95 13.1,32.95 13.1,27.95"/>
<polygon id="00000223BBFDEAB0" class="l36d0" points="-13.1,19.95 -13.1,24.95 13.1,24.95 13.1,19.95"/>
<polygon id="00000223BBFDEB20" class="l33d0" points="-1.1,-31.55 -1.1,-29.35 1.1,-29.35 1.1,-31.55"/>
<polygon id="00000223BBFE0F70" class="l36d0" points="-2.5,-32.95 -2.5,-27.95 2.5,-27.95 2.5,-32.95"/>
<polygon id="00000223BBFE0BF0" class="l34d0" points="-2.5,-32.95 -2.5,-27.95 2.5,-27.95 2.5,-32.95"/>
<polygon id="00000223BBFE11A0" class="l35d0" points="-1.3,-31.75 -1.3,-29.15 1.3,-29.15 1.3,-31.75"/>
<polygon id="00000223BBFE0FE0" class="l30d0" points="-1.8,-32.25 -1.8,-28.65 1.8,-28.65 1.8,-32.25"/>
<polygon id="00000223BBFE17C0" class="l36d0" points="-7.8,-32.95 -7.8,-27.95 7.8,-27.95 7.8,-32.95"/>
<polygon id="00000223BBFE0B80" class="l30d0" points="-7.8,-32.95 -7.8,-27.95 7.8,-27.95 7.8,-32.95"/>
<polygon id="00000223BBFE0950" class="l34d0" points="8.3,17.45 12.9,17.45 12.9,24.95 8.3,24.95"/>
<polygon id="00000223BBFE1050" class="l35d0" points="9.3,21.15 9.3,23.75 11.9,23.75 11.9,21.15"/>
<polygon id="00000223BBFE1210" class="l36d0" points="8.1,19.95 8.1,24.95 13.1,24.95 13.1,19.95"/>
<polygon id="00000223BBFE0D40" class="l34d0" points="8.1,19.95 8.1,24.95 13.1,24.95 13.1,19.95"/>
<polygon id="00000223BBFE0330" class="l30d0" points="2.8,-27.95 7.8,-27.95 7.8,-24.95 2.8,-24.95"/>
<polygon id="00000223BBFE0F00" class="l34d0" points="-2.3,17.45 2.3,17.45 2.3,32.95 -2.3,32.95"/>
<polygon id="00000223BBFE1670" class="l35d0" points="-1.3,29.15 -1.3,31.75 1.3,31.75 1.3,29.15"/>
<polygon id="00000223BBFE10C0" class="l36d0" points="-2.5,27.95 -2.5,32.95 2.5,32.95 2.5,27.95"/>
<polygon id="00000223BBFDFED0" class="l34d0" points="-2.5,27.95 -2.5,32.95 2.5,32.95 2.5,27.95"/>
<polygon id="00000223BBFE0720" class="l30d0" points="-7.8,-27.95 -2.8,-27.95 -2.8,-24.95 -7.8,-24.95"/>
<polygon id="00000223BBFE0020" class="l34d0" points="-12.9,17.45 -8.3,17.45 -8.3,24.95 -12.9,24.95"/>
</g>
<g id="straight_route_bffc7de1$2">
<polygon id="00000223BBFE1830" class="l36d0" points="158.3,-32.95 200.2,-32.95 200.2,-27.95 158.3,-27.95"/>
</g>
<g id="straight_route_cd1fb00b$6">
<polygon id="00000223BBFDFE60" class="l36d0" points="110.3,-32.95 158.3,-32.95 158.3,-27.95 110.3,-27.95"/>
</g>
<g id="Unnamed_41bc7375">
<polygon id="00000223BBFE0AA0" class="l21d0" points="-29.9,-34.15 29.9,-34.15 29.9,34.15 -29.9,34.15"/>
<polygon id="00000223BBFE12F0" class="l30d0" points="4.8,-24.95 4.8,19.85 9.8,19.85 9.8,-24.95"/>
<polygon id="00000223BBFDFF40" class="l33d0" points="11.5,-18.65 11.5,-16.45 13.7,-16.45 13.7,-18.65"/>
<polygon id="00000223BBFE1520" class="l34d0" points="10.3,-19.85 10.3,-15.25 14.9,-15.25 14.9,-19.85"/>
<polygon id="00000223BBFE0790" class="l34d0" points="10.3,-14.85 10.3,-10.25 14.9,-10.25 14.9,-14.85"/>
<polygon id="00000223BBFE1590" class="l33d0" points="11.5,11.35 11.5,13.55 13.7,13.55 13.7,11.35"/>
<polygon id="00000223BBFE08E0" class="l34d0" points="10.3,10.15 10.3,14.75 14.9,14.75 14.9,10.15"/>
<polygon id="00000223BBFE1600" class="l33d0" points="11.5,-13.65 11.5,-11.45 13.7,-11.45 13.7,-13.65"/>
<polygon id="00000223BBFE03A0" class="l33d0" points="11.5,6.35 11.5,8.55 13.7,8.55 13.7,6.35"/>
<polygon id="00000223BBFE13D0" class="l34d0" points="10.3,5.15 10.3,9.75 14.9,9.75 14.9,5.15"/>
<polygon id="00000223BBFE1440" class="l34d0" points="10.3,-9.85 10.3,-5.25 14.9,-5.25 14.9,-9.85"/>
<polygon id="00000223BBFE16E0" class="l33d0" points="11.5,1.35 11.5,3.55 13.7,3.55 13.7,1.35"/>
<polygon id="00000223BBFE0A30" class="l34d0" points="10.3,0.15 10.3,4.75 14.9,4.75 14.9,0.15"/>
<polygon id="00000223BBFE04F0" class="l33d0" points="11.5,-8.65 11.5,-6.45 13.7,-6.45 13.7,-8.65"/>
<polygon id="00000223BBFE18A0" class="l33d0" points="11.5,-3.65 11.5,-1.45 13.7,-1.45 13.7,-3.65"/>
<polygon id="00000223BBFE0870" class="l34d0" points="10.3,-4.85 10.3,-0.25 14.9,-0.25 14.9,-4.85"/>
<polygon id="00000223BBFE1130" class="l34d0" points="10.3,-22.55 10.3,17.45 14.9,17.45 14.9,-22.55"/>
<polygon id="00000223BBFDFD80" class="l35d0" points="11.3,-15.85 11.3,-13.25 13.9,-13.25 13.9,-15.85"/>
<polygon id="00000223BBFE0DB0" class="l36d0" points="10.1,-17.05 10.1,-12.05 15.1,-12.05 15.1,-17.05"/>
<polygon id="00000223BBFE0E20" class="l34d0" points="10.1,-17.05 10.1,-12.05 15.1,-12.05 15.1,-17.05"/>
<polygon id="00000223BBFE0090" class="l35d0" points="11.3,8.15 11.3,10.75 13.9,10.75 13.9,8.15"/>
<polygon id="00000223BBFE1280" class="l36d0" points="10.1,6.95 10.1,11.95 15.1,11.95 15.1,6.95"/>
<polygon id="00000223BBFE09C0" class="l34d0" points="10.1,6.95 10.1,11.95 15.1,11.95 15.1,6.95"/>
<polygon id="00000223BBFE0560" class="l35d0" points="11.3,0.15 11.3,2.75 13.9,2.75 13.9,0.15"/>
<polygon id="00000223BBFDFDF0" class="l36d0" points="10.1,-1.05 10.1,3.95 15.1,3.95 15.1,-1.05"/>
<polygon id="00000223BBFE05D0" class="l34d0" points="10.1,-1.05 10.1,3.95 15.1,3.95 15.1,-1.05"/>
<polygon id="00000223BBFE0C60" class="l35d0" points="11.3,-7.85 11.3,-5.25 13.9,-5.25 13.9,-7.85"/>
<polygon id="00000223BBFE0640" class="l36d0" points="10.1,-9.05 10.1,-4.05 15.1,-4.05 15.1,-9.05"/>
<polygon id="00000223BBFE1360" class="l34d0" points="10.1,-9.05 10.1,-4.05 15.1,-4.05 15.1,-9.05"/>
<polygon id="00000223BBFE0B10" class="l36d0" points="10.1,-22.55 10.1,17.45 15.1,17.45 15.1,-22.55"/>
<polygon id="00000223BBFE06B0" class="l34d0" points="10.1,-17.05 10.1,11.95 15.1,11.95 15.1,-17.05"/>
<polygon id="00000223BBFE0CD0" class="l30d0" points="15.4,-24.95 15.4,19.85 20.4,19.85 20.4,-24.95"/>
<polygon id="00000223BBFE0E90" class="l33d0" points="22.1,-18.65 22.1,-16.45 24.3,-16.45 24.3,-18.65"/>
<polygon id="00000223BBFE2EF0" class="l34d0" points="20.9,-19.85 20.9,-15.25 25.5,-15.25 25.5,-19.85"/>
<polygon id="00000223BBFE26A0" class="l34d0" points="20.9,-14.85 20.9,-10.25 25.5,-10.25 25.5,-14.85"/>
<polygon id="00000223BBFE24E0" class="l33d0" points="22.1,11.35 22.1,13.55 24.3,13.55 24.3,11.35"/>
<polygon id="00000223BBFE2320" class="l34d0" points="20.9,10.15 20.9,14.75 25.5,14.75 25.5,10.15"/>
<polygon id="00000223BBFE2F60" class="l33d0" points="22.1,-13.65 22.1,-11.45 24.3,-11.45 24.3,-13.65"/>
<polygon id="00000223BBFE32E0" class="l33d0" points="22.1,6.35 22.1,8.55 24.3,8.55 24.3,6.35"/>
<polygon id="00000223BBFE2CC0" class="l34d0" points="20.9,5.15 20.9,9.75 25.5,9.75 25.5,5.15"/>
<polygon id="00000223BBFE1980" class="l34d0" points="20.9,-9.85 20.9,-5.25 25.5,-5.25 25.5,-9.85"/>
<polygon id="00000223BBFE1C90" class="l33d0" points="22.1,1.35 22.1,3.55 24.3,3.55 24.3,1.35"/>
<polygon id="00000223BBFE28D0" class="l34d0" points="20.9,0.15 20.9,4.75 25.5,4.75 25.5,0.15"/>
<polygon id="00000223BBFE3350" class="l33d0" points="22.1,-8.65 22.1,-6.45 24.3,-6.45 24.3,-8.65"/>
<polygon id="00000223BBFE2390" class="l33d0" points="22.1,-3.65 22.1,-1.45 24.3,-1.45 24.3,-3.65"/>
<polygon id="00000223BBFE2080" class="l34d0" points="20.9,-4.85 20.9,-0.25 25.5,-0.25 25.5,-4.85"/>
<polygon id="00000223BBFE1DE0" class="l34d0" points="20.9,-22.55 20.9,17.45 25.5,17.45 25.5,-22.55"/>
<polygon id="00000223BBFE1D00" class="l35d0" points="21.9,-15.85 21.9,-13.25 24.5,-13.25 24.5,-15.85"/>
<polygon id="00000223BBFE34A0" class="l36d0" points="20.7,-17.05 20.7,-12.05 25.7,-12.05 25.7,-17.05"/>
<polygon id="00000223BBFE3120" class="l34d0" points="20.7,-17.05 20.7,-12.05 25.7,-12.05 25.7,-17.05"/>
<polygon id="00000223BBFE33C0" class="l35d0" points="21.9,8.15 21.9,10.75 24.5,10.75 24.5,8.15"/>
<polygon id="00000223BBFE3040" class="l36d0" points="20.7,6.95 20.7,11.95 25.7,11.95 25.7,6.95"/>
<polygon id="00000223BBFE2400" class="l34d0" points="20.7,6.95 20.7,11.95 25.7,11.95 25.7,6.95"/>
<polygon id="00000223BBFE2A90" class="l35d0" points="21.9,0.15 21.9,2.75 24.5,2.75 24.5,0.15"/>
<polygon id="00000223BBFE30B0" class="l36d0" points="20.7,-1.05 20.7,3.95 25.7,3.95 25.7,-1.05"/>
<polygon id="00000223BBFE1910" class="l34d0" points="20.7,-1.05 20.7,3.95 25.7,3.95 25.7,-1.05"/>
<polygon id="00000223BBFE20F0" class="l35d0" points="21.9,-7.85 21.9,-5.25 24.5,-5.25 24.5,-7.85"/>
<polygon id="00000223BBFE1E50" class="l36d0" points="20.7,-9.05 20.7,-4.05 25.7,-4.05 25.7,-9.05"/>
<polygon id="00000223BBFE29B0" class="l34d0" points="20.7,-9.05 20.7,-4.05 25.7,-4.05 25.7,-9.05"/>
<polygon id="00000223BBFE2160" class="l36d0" points="20.7,-22.55 20.7,17.45 25.7,17.45 25.7,-22.55"/>
<polygon id="00000223BBFE1B40" class="l34d0" points="20.7,-17.05 20.7,11.95 25.7,11.95 25.7,-17.05"/>
<polygon id="00000223BBFE19F0" class="l33d0" points="0.9,-18.65 0.9,-16.45 3.1,-16.45 3.1,-18.65"/>
<polygon id="00000223BBFE3190" class="l34d0" points="-0.3,-19.85 -0.3,-15.25 4.3,-15.25 4.3,-19.85"/>
<polygon id="00000223BBFE2DA0" class="l34d0" points="-0.3,-14.85 -0.3,-10.25 4.3,-10.25 4.3,-14.85"/>
<polygon id="00000223BBFE2550" class="l33d0" points="0.9,11.35 0.9,13.55 3.1,13.55 3.1,11.35"/>
<polygon id="00000223BBFE2A20" class="l34d0" points="-0.3,10.15 -0.3,14.75 4.3,14.75 4.3,10.15"/>
<polygon id="00000223BBFE2B00" class="l33d0" points="0.9,-13.65 0.9,-11.45 3.1,-11.45 3.1,-13.65"/>
<polygon id="00000223BBFE1EC0" class="l33d0" points="0.9,6.35 0.9,8.55 3.1,8.55 3.1,6.35"/>
<polygon id="00000223BBFE1F30" class="l34d0" points="-0.3,5.15 -0.3,9.75 4.3,9.75 4.3,5.15"/>
<polygon id="00000223BBFE1AD0" class="l34d0" points="-0.3,-9.85 -0.3,-5.25 4.3,-5.25 4.3,-9.85"/>
<polygon id="00000223BBFE2B70" class="l33d0" points="0.9,1.35 0.9,3.55 3.1,3.55 3.1,1.35"/>
<polygon id="00000223BBFE2470" class="l34d0" points="-0.3,0.15 -0.3,4.75 4.3,4.75 4.3,0.15"/>
<polygon id="00000223BBFE25C0" class="l33d0" points="0.9,-8.65 0.9,-6.45 3.1,-6.45 3.1,-8.65"/>
<polygon id="00000223BBFE2780" class="l33d0" points="0.9,-3.65 0.9,-1.45 3.1,-1.45 3.1,-3.65"/>
<polygon id="00000223BBFE1BB0" class="l34d0" points="-0.3,-4.85 -0.3,-0.25 4.3,-0.25 4.3,-4.85"/>
<polygon id="00000223BBFE21D0" class="l34d0" points="-0.3,-22.55 -0.3,17.45 4.3,17.45 4.3,-22.55"/>
<polygon id="00000223BBFE2BE0" class="l35d0" points="0.7,-15.85 0.7,-13.25 3.3,-13.25 3.3,-15.85"/>
<polygon id="00000223BBFE2C50" class="l36d0" points="-0.5,-17.05 -0.5,-12.05 4.5,-12.05 4.5,-17.05"/>
<polygon id="00000223BBFE3200" class="l34d0" points="-0.5,-17.05 -0.5,-12.05 4.5,-12.05 4.5,-17.05"/>
<polygon id="00000223BBFE2240" class="l35d0" points="0.7,8.15 0.7,10.75 3.3,10.75 3.3,8.15"/>
<polygon id="00000223BBFE1C20" class="l36d0" points="-0.5,6.95 -0.5,11.95 4.5,11.95 4.5,6.95"/>
<polygon id="00000223BBFE2630" class="l34d0" points="-0.5,6.95 -0.5,11.95 4.5,11.95 4.5,6.95"/>
<polygon id="00000223BBFE27F0" class="l35d0" points="0.7,0.15 0.7,2.75 3.3,2.75 3.3,0.15"/>
<polygon id="00000223BBFE2D30" class="l36d0" points="-0.5,-1.05 -0.5,3.95 4.5,3.95 4.5,-1.05"/>
<polygon id="00000223BBFE1FA0" class="l34d0" points="-0.5,-1.05 -0.5,3.95 4.5,3.95 4.5,-1.05"/>
<polygon id="00000223BBFE22B0" class="l35d0" points="0.7,-7.85 0.7,-5.25 3.3,-5.25 3.3,-7.85"/>
<polygon id="00000223BBFE2860" class="l36d0" points="-0.5,-9.05 -0.5,-4.05 4.5,-4.05 4.5,-9.05"/>
<polygon id="00000223BBFE4850" class="l34d0" points="-0.5,-9.05 -0.5,-4.05 4.5,-4.05 4.5,-9.05"/>
<polygon id="00000223BBFE3C10" class="l36d0" points="-0.5,-22.55 -0.5,17.45 4.5,17.45 4.5,-22.55"/>
<polygon id="00000223BBFE48C0" class="l34d0" points="-0.5,-17.05 -0.5,11.95 4.5,11.95 4.5,-17.05"/>
<polygon id="00000223BBFE4E70" class="l31d0" points="-3.5,-24.85 -3.5,19.75 28.7,19.75 28.7,-24.85"/>
<polygon id="00000223BBFE4930" class="l22d0" points="-1.2,-22.55 -1.2,17.45 26.4,17.45 26.4,-22.55"/>
<polygon id="00000223BBFE4150" class="l35d0" points="0.7,21.15 0.7,23.75 3.3,23.75 3.3,21.15"/>
<polygon id="00000223BBFE4CB0" class="l36d0" points="-0.5,19.95 -0.5,24.95 4.5,24.95 4.5,19.95"/>
<polygon id="00000223BBFE49A0" class="l34d0" points="-0.5,19.95 -0.5,24.95 4.5,24.95 4.5,19.95"/>
<polygon id="00000223BBFE3B30" class="l30d0" points="-20.6,-24.95 -20.6,19.85 -15.6,19.85 -15.6,-24.95"/>
<polygon id="00000223BBFE4BD0" class="l33d0" points="-13.9,-18.65 -13.9,-16.45 -11.7,-16.45 -11.7,-18.65"/>
<polygon id="00000223BBFE43F0" class="l34d0" points="-15.1,-19.85 -15.1,-15.25 -10.5,-15.25 -10.5,-19.85"/>
<polygon id="00000223BBFE3890" class="l34d0" points="-15.1,-14.85 -15.1,-10.25 -10.5,-10.25 -10.5,-14.85"/>
<polygon id="00000223BBFE3970" class="l33d0" points="-13.9,11.35 -13.9,13.55 -11.7,13.55 -11.7,11.35"/>
<polygon id="00000223BBFE39E0" class="l34d0" points="-15.1,10.15 -15.1,14.75 -10.5,14.75 -10.5,10.15"/>
<polygon id="00000223BBFE4070" class="l33d0" points="-13.9,-13.65 -13.9,-11.45 -11.7,-11.45 -11.7,-13.65"/>
<polygon id="00000223BBFE3BA0" class="l33d0" points="-13.9,6.35 -13.9,8.55 -11.7,8.55 -11.7,6.35"/>
<polygon id="00000223BBFE3C80" class="l34d0" points="-15.1,5.15 -15.1,9.75 -10.5,9.75 -10.5,5.15"/>
<polygon id="00000223BBFE4A80" class="l34d0" points="-15.1,-9.85 -15.1,-5.25 -10.5,-5.25 -10.5,-9.85"/>
<polygon id="00000223BBFE42A0" class="l33d0" points="-13.9,1.35 -13.9,3.55 -11.7,3.55 -11.7,1.35"/>
<polygon id="00000223BBFE4AF0" class="l34d0" points="-15.1,0.15 -15.1,4.75 -10.5,4.75 -10.5,0.15"/>
<polygon id="00000223BBFE4B60" class="l33d0" points="-13.9,-8.65 -13.9,-6.45 -11.7,-6.45 -11.7,-8.65"/>
<polygon id="00000223BBFE4D20" class="l33d0" points="-13.9,-3.65 -13.9,-1.45 -11.7,-1.45 -11.7,-3.65"/>
<polygon id="00000223BBFE3CF0" class="l34d0" points="-15.1,-4.85 -15.1,-0.25 -10.5,-0.25 -10.5,-4.85"/>
<polygon id="00000223BBFE4D90" class="l34d0" points="-15.1,-22.55 -15.1,17.45 -10.5,17.45 -10.5,-22.55"/>
<polygon id="00000223BBFE4EE0" class="l33d0" points="-24.5,-18.65 -24.5,-16.45 -22.3,-16.45 -22.3,-18.65"/>
<polygon id="00000223BBFE3EB0" class="l34d0" points="-25.7,-19.85 -25.7,-15.25 -21.1,-15.25 -21.1,-19.85"/>
<polygon id="00000223BBFE4380" class="l34d0" points="-25.7,-14.85 -25.7,-10.25 -21.1,-10.25 -21.1,-14.85"/>
<polygon id="00000223BBFE4540" class="l33d0" points="-24.5,11.35 -24.5,13.55 -22.3,13.55 -22.3,11.35"/>
<polygon id="00000223BBFE41C0" class="l34d0" points="-25.7,10.15 -25.7,14.75 -21.1,14.75 -21.1,10.15"/>
<polygon id="00000223BBFE4230" class="l33d0" points="-24.5,-13.65 -24.5,-11.45 -22.3,-11.45 -22.3,-13.65"/>
<polygon id="00000223BBFE3D60" class="l33d0" points="-24.5,6.35 -24.5,8.55 -22.3,8.55 -22.3,6.35"/>
<polygon id="00000223BBFE4000" class="l34d0" points="-25.7,5.15 -25.7,9.75 -21.1,9.75 -21.1,5.15"/>
<polygon id="00000223BBFE40E0" class="l34d0" points="-25.7,-9.85 -25.7,-5.25 -21.1,-5.25 -21.1,-9.85"/>
<polygon id="00000223BBFE3580" class="l33d0" points="-24.5,1.35 -24.5,3.55 -22.3,3.55 -22.3,1.35"/>
<polygon id="00000223BBFE4E00" class="l34d0" points="-25.7,0.15 -25.7,4.75 -21.1,4.75 -21.1,0.15"/>
<polygon id="00000223BBFE4F50" class="l33d0" points="-24.5,-8.65 -24.5,-6.45 -22.3,-6.45 -22.3,-8.65"/>
<polygon id="00000223BBFE5030" class="l33d0" points="-24.5,-3.65 -24.5,-1.45 -22.3,-1.45 -22.3,-3.65"/>
<polygon id="00000223BBFE50A0" class="l34d0" points="-25.7,-4.85 -25.7,-0.25 -21.1,-0.25 -21.1,-4.85"/>
<polygon id="00000223BBFE3510" class="l34d0" points="-25.7,-22.55 -25.7,17.45 -21.1,17.45 -21.1,-22.55"/>
<polygon id="00000223BBFE35F0" class="l31d0" points="-28.7,-24.85 -28.7,19.75 -7.5,19.75 -7.5,-24.85"/>
<polygon id="00000223BBFE6060" class="l22d0" points="-26.4,-22.55 -26.4,17.45 -9.8,17.45 -9.8,-22.55"/>
<polygon id="00000223BBFE67D0" class="l33d0" points="-19.2,-28.35 -19.2,-26.15 -17,-26.15 -17,-28.35"/>
<polygon id="00000223BBFE60D0" class="l30d0" points="-20.4,-29.55 -20.4,-24.95 -15.8,-24.95 -15.8,-29.55"/>
<polygon id="00000223BBFE6760" class="l34d0" points="-20.4,-29.55 -20.4,-24.95 -15.8,-24.95 -15.8,-29.55"/>
<polygon id="00000223BBFE5340" class="l30d0" points="-19.9,-29.05 -19.9,-25.45 -16.3,-25.45 -16.3,-29.05"/>
<polygon id="00000223BBFE6920" class="l34d0" points="-25.7,-29.55 -20.4,-29.55 -20.4,-24.95 -25.7,-24.95"/>
<polygon id="00000223BBFE5B20" class="l34d0" points="-25.7,-29.55 -21.1,-29.55 -21.1,-22.55 -25.7,-22.55"/>
<polygon id="00000223BBFE5F10" class="l34d0" points="-15.8,-29.55 -10.5,-29.55 -10.5,-24.95 -15.8,-24.95"/>
<polygon id="00000223BBFE6220" class="l34d0" points="-15.1,-29.55 -10.5,-29.55 -10.5,-22.55 -15.1,-22.55"/>
<polygon id="00000223BBFE5F80" class="l36d0" points="-0.5,27.95 -0.5,32.95 25.7,32.95 25.7,27.95"/>
<polygon id="00000223BBFE68B0" class="l36d0" points="-0.5,19.95 -0.5,24.95 25.7,24.95 25.7,19.95"/>
<polygon id="00000223BBFE5A40" class="l33d0" points="11.5,-31.55 11.5,-29.35 13.7,-29.35 13.7,-31.55"/>
<polygon id="00000223BBFE6840" class="l36d0" points="10.1,-32.95 10.1,-27.95 15.1,-27.95 15.1,-32.95"/>
<polygon id="00000223BBFE6A00" class="l34d0" points="10.1,-32.95 10.1,-27.95 15.1,-27.95 15.1,-32.95"/>
<polygon id="00000223BBFE6A70" class="l35d0" points="11.3,-31.75 11.3,-29.15 13.9,-29.15 13.9,-31.75"/>
<polygon id="00000223BBFE5E30" class="l30d0" points="10.8,-32.25 10.8,-28.65 14.4,-28.65 14.4,-32.25"/>
<polygon id="00000223BBFE58F0" class="l36d0" points="4.8,-32.95 4.8,-27.95 20.4,-27.95 20.4,-32.95"/>
<polygon id="00000223BBFE6B50" class="l30d0" points="4.8,-32.95 4.8,-27.95 20.4,-27.95 20.4,-32.95"/>
<polygon id="00000223BBFE5C00" class="l34d0" points="20.9,17.45 25.5,17.45 25.5,24.95 20.9,24.95"/>
<polygon id="00000223BBFE6530" class="l35d0" points="21.9,21.15 21.9,23.75 24.5,23.75 24.5,21.15"/>
<polygon id="00000223BBFE5C70" class="l36d0" points="20.7,19.95 20.7,24.95 25.7,24.95 25.7,19.95"/>
<polygon id="00000223BBFE6BC0" class="l34d0" points="20.7,19.95 20.7,24.95 25.7,24.95 25.7,19.95"/>
<polygon id="00000223BBFE5490" class="l30d0" points="15.4,-27.95 20.4,-27.95 20.4,-24.95 15.4,-24.95"/>
<polygon id="00000223BBFE6C30" class="l34d0" points="10.3,17.45 14.9,17.45 14.9,32.95 10.3,32.95"/>
<polygon id="00000223BBFE6680" class="l35d0" points="11.3,29.15 11.3,31.75 13.9,31.75 13.9,29.15"/>
<polygon id="00000223BBFE6CA0" class="l36d0" points="10.1,27.95 10.1,32.95 15.1,32.95 15.1,27.95"/>
<polygon id="00000223BBFE5180" class="l34d0" points="10.1,27.95 10.1,32.95 15.1,32.95 15.1,27.95"/>
<polygon id="00000223BBFE51F0" class="l30d0" points="4.8,-27.95 9.8,-27.95 9.8,-24.95 4.8,-24.95"/>
<polygon id="00000223BBFE5500" class="l34d0" points="-0.3,17.45 4.3,17.45 4.3,24.95 -0.3,24.95"/>
</g>
<g id="Unnamed_53f1817a">
<polygon id="00000223BBFE5810" class="l21d0" points="-17.3,-34.15 17.3,-34.15 17.3,34.15 -17.3,34.15"/>
<polygon id="00000223BBFE65A0" class="l30d0" points="-7.8,-24.95 -7.8,19.85 -2.8,19.85 -2.8,-24.95"/>
<polygon id="00000223BBFE5D50" class="l33d0" points="-1.1,-18.65 -1.1,-16.45 1.1,-16.45 1.1,-18.65"/>
<polygon id="00000223BBFE52D0" class="l34d0" points="-2.3,-19.85 -2.3,-15.25 2.3,-15.25 2.3,-19.85"/>
<polygon id="00000223BBFE5570" class="l34d0" points="-2.3,-14.85 -2.3,-10.25 2.3,-10.25 2.3,-14.85"/>
<polygon id="00000223BBFE5880" class="l33d0" points="-1.1,11.35 -1.1,13.55 1.1,13.55 1.1,11.35"/>
<polygon id="00000223BBFE55E0" class="l34d0" points="-2.3,10.15 -2.3,14.75 2.3,14.75 2.3,10.15"/>
<polygon id="00000223BBFE5CE0" class="l33d0" points="-1.1,-13.65 -1.1,-11.45 1.1,-11.45 1.1,-13.65"/>
<polygon id="00000223BBFE5650" class="l33d0" points="-1.1,6.35 -1.1,8.55 1.1,8.55 1.1,6.35"/>
<polygon id="00000223BBFE56C0" class="l34d0" points="-2.3,5.15 -2.3,9.75 2.3,9.75 2.3,5.15"/>
<polygon id="00000223BBFE6300" class="l34d0" points="-2.3,-9.85 -2.3,-5.25 2.3,-5.25 2.3,-9.85"/>
<polygon id="00000223BBFE5DC0" class="l33d0" points="-1.1,1.35 -1.1,3.55 1.1,3.55 1.1,1.35"/>
<polygon id="00000223BBFE5EA0" class="l34d0" points="-2.3,0.15 -2.3,4.75 2.3,4.75 2.3,0.15"/>
<polygon id="00000223BBFE5FF0" class="l33d0" points="-1.1,-8.65 -1.1,-6.45 1.1,-6.45 1.1,-8.65"/>
<polygon id="00000223BBFE5730" class="l33d0" points="-1.1,-3.65 -1.1,-1.45 1.1,-1.45 1.1,-3.65"/>
<polygon id="00000223BBFE5960" class="l34d0" points="-2.3,-4.85 -2.3,-0.25 2.3,-0.25 2.3,-4.85"/>
<polygon id="00000223BBFE61B0" class="l34d0" points="-2.3,-22.55 -2.3,17.45 2.3,17.45 2.3,-22.55"/>
<polygon id="00000223BBFE57A0" class="l35d0" points="-1.3,-15.85 -1.3,-13.25 1.3,-13.25 1.3,-15.85"/>
<polygon id="00000223BBFE59D0" class="l36d0" points="-2.5,-17.05 -2.5,-12.05 2.5,-12.05 2.5,-17.05"/>
<polygon id="00000223BBFE5B90" class="l34d0" points="-2.5,-17.05 -2.5,-12.05 2.5,-12.05 2.5,-17.05"/>
<polygon id="00000223BBFE6290" class="l35d0" points="-1.3,8.15 -1.3,10.75 1.3,10.75 1.3,8.15"/>
<polygon id="00000223BBFE6370" class="l36d0" points="-2.5,6.95 -2.5,11.95 2.5,11.95 2.5,6.95"/>
<polygon id="00000223BBFE63E0" class="l34d0" points="-2.5,6.95 -2.5,11.95 2.5,11.95 2.5,6.95"/>
<polygon id="00000223BBFE6450" class="l35d0" points="-1.3,0.15 -1.3,2.75 1.3,2.75 1.3,0.15"/>
<polygon id="00000223BBFE7640" class="l36d0" points="-2.5,-1.05 -2.5,3.95 2.5,3.95 2.5,-1.05"/>
<polygon id="00000223BBFE79C0" class="l34d0" points="-2.5,-1.05 -2.5,3.95 2.5,3.95 2.5,-1.05"/>
<polygon id="00000223BBFE7480" class="l35d0" points="-1.3,-7.85 -1.3,-5.25 1.3,-5.25 1.3,-7.85"/>
<polygon id="00000223BBFE7790" class="l36d0" points="-2.5,-9.05 -2.5,-4.05 2.5,-4.05 2.5,-9.05"/>
<polygon id="00000223BBFE7410" class="l34d0" points="-2.5,-9.05 -2.5,-4.05 2.5,-4.05 2.5,-9.05"/>
<polygon id="00000223BBFE8600" class="l36d0" points="-2.5,-22.55 -2.5,17.45 2.5,17.45 2.5,-22.55"/>
<polygon id="00000223BBFE7F00" class="l34d0" points="-2.5,-17.05 -2.5,11.95 2.5,11.95 2.5,-17.05"/>
<polygon id="00000223BBFE7D40" class="l30d0" points="2.8,-24.95 2.8,19.85 7.8,19.85 7.8,-24.95"/>
<polygon id="00000223BBFE6E60" class="l33d0" points="9.5,-18.65 9.5,-16.45 11.7,-16.45 11.7,-18.65"/>
<polygon id="00000223BBFE7E20" class="l34d0" points="8.3,-19.85 8.3,-15.25 12.9,-15.25 12.9,-19.85"/>
<polygon id="00000223BBFE73A0" class="l34d0" points="8.3,-14.85 8.3,-10.25 12.9,-10.25 12.9,-14.85"/>
<polygon id="00000223BBFE8520" class="l33d0" points="9.5,11.35 9.5,13.55 11.7,13.55 11.7,11.35"/>
<polygon id="00000223BBFE7C60" class="l34d0" points="8.3,10.15 8.3,14.75 12.9,14.75 12.9,10.15"/>
<polygon id="00000223BBFE6ED0" class="l33d0" points="9.5,-13.65 9.5,-11.45 11.7,-11.45 11.7,-13.65"/>
<polygon id="00000223BBFE6FB0" class="l33d0" points="9.5,6.35 9.5,8.55 11.7,8.55 11.7,6.35"/>
<polygon id="00000223BBFE71E0" class="l34d0" points="8.3,5.15 8.3,9.75 12.9,9.75 12.9,5.15"/>
<polygon id="00000223BBFE7870" class="l34d0" points="8.3,-9.85 8.3,-5.25 12.9,-5.25 12.9,-9.85"/>
<polygon id="00000223BBFE7100" class="l33d0" points="9.5,1.35 9.5,3.55 11.7,3.55 11.7,1.35"/>
<polygon id="00000223BBFE7250" class="l34d0" points="8.3,0.15 8.3,4.75 12.9,4.75 12.9,0.15"/>
<polygon id="00000223BBFE8050" class="l33d0" points="9.5,-8.65 9.5,-6.45 11.7,-6.45 11.7,-8.65"/>
<polygon id="00000223BBFE7AA0" class="l33d0" points="9.5,-3.65 9.5,-1.45 11.7,-1.45 11.7,-3.65"/>
<polygon id="00000223BBFE82F0" class="l34d0" points="8.3,-4.85 8.3,-0.25 12.9,-0.25 12.9,-4.85"/>
<polygon id="00000223BBFE7E90" class="l34d0" points="8.3,-22.55 8.3,17.45 12.9,17.45 12.9,-22.55"/>
<polygon id="00000223BBFE7FE0" class="l35d0" points="9.3,-15.85 9.3,-13.25 11.9,-13.25 11.9,-15.85"/>
<polygon id="00000223BBFE74F0" class="l36d0" points="8.1,-17.05 8.1,-12.05 13.1,-12.05 13.1,-17.05"/>
<polygon id="00000223BBFE8360" class="l34d0" points="8.1,-17.05 8.1,-12.05 13.1,-12.05 13.1,-17.05"/>
<polygon id="00000223BBFE86E0" class="l35d0" points="9.3,8.15 9.3,10.75 11.9,10.75 11.9,8.15"/>
<polygon id="00000223BBFE7800" class="l36d0" points="8.1,6.95 8.1,11.95 13.1,11.95 13.1,6.95"/>
<polygon id="00000223BBFE7B80" class="l34d0" points="8.1,6.95 8.1,11.95 13.1,11.95 13.1,6.95"/>
<polygon id="00000223BBFE7B10" class="l35d0" points="9.3,0.15 9.3,2.75 11.9,2.75 11.9,0.15"/>
<polygon id="00000223BBFE7950" class="l36d0" points="8.1,-1.05 8.1,3.95 13.1,3.95 13.1,-1.05"/>
<polygon id="00000223BBFE7A30" class="l34d0" points="8.1,-1.05 8.1,3.95 13.1,3.95 13.1,-1.05"/>
<polygon id="00000223BBFE78E0" class="l35d0" points="9.3,-7.85 9.3,-5.25 11.9,-5.25 11.9,-7.85"/>
<polygon id="00000223BBFE7020" class="l36d0" points="8.1,-9.05 8.1,-4.05 13.1,-4.05 13.1,-9.05"/>
<polygon id="00000223BBFE7CD0" class="l34d0" points="8.1,-9.05 8.1,-4.05 13.1,-4.05 13.1,-9.05"/>
<polygon id="00000223BBFE6D80" class="l36d0" points="8.1,-22.55 8.1,17.45 13.1,17.45 13.1,-22.55"/>
<polygon id="00000223BBFE7DB0" class="l34d0" points="8.1,-17.05 8.1,11.95 13.1,11.95 13.1,-17.05"/>
<polygon id="00000223BBFE7F70" class="l33d0" points="-11.7,-18.65 -11.7,-16.45 -9.5,-16.45 -9.5,-18.65"/>
<polygon id="00000223BBFE8590" class="l34d0" points="-12.9,-19.85 -12.9,-15.25 -8.3,-15.25 -8.3,-19.85"/>
<polygon id="00000223BBFE8670" class="l34d0" points="-12.9,-14.85 -12.9,-10.25 -8.3,-10.25 -8.3,-14.85"/>
<polygon id="00000223BBFE87C0" class="l33d0" points="-11.7,11.35 -11.7,13.55 -9.5,13.55 -9.5,11.35"/>
<polygon id="00000223BBFE8830" class="l34d0" points="-12.9,10.15 -12.9,14.75 -8.3,14.75 -8.3,10.15"/>
<polygon id="00000223BBFE88A0" class="l33d0" points="-11.7,-13.65 -11.7,-11.45 -9.5,-11.45 -9.5,-13.65"/>
<polygon id="00000223BBFE6D10" class="l33d0" points="-11.7,6.35 -11.7,8.55 -9.5,8.55 -9.5,6.35"/>
<polygon id="00000223BBFE6DF0" class="l34d0" points="-12.9,5.15 -12.9,9.75 -8.3,9.75 -8.3,5.15"/>
<polygon id="00000223BBFE6F40" class="l34d0" points="-12.9,-9.85 -12.9,-5.25 -8.3,-5.25 -8.3,-9.85"/>
<polygon id="00000223BBFE7090" class="l33d0" points="-11.7,1.35 -11.7,3.55 -9.5,3.55 -9.5,1.35"/>
<polygon id="00000223BBFE7170" class="l34d0" points="-12.9,0.15 -12.9,4.75 -8.3,4.75 -8.3,0.15"/>
<polygon id="00000223BBFE9390" class="l33d0" points="-11.7,-8.65 -11.7,-6.45 -9.5,-6.45 -9.5,-8.65"/>
<polygon id="00000223BBFE9780" class="l33d0" points="-11.7,-3.65 -11.7,-1.45 -9.5,-1.45 -9.5,-3.65"/>
<polygon id="00000223BBFE9A20" class="l34d0" points="-12.9,-4.85 -12.9,-0.25 -8.3,-0.25 -8.3,-4.85"/>
<polygon id="00000223BBFE97F0" class="l34d0" points="-12.9,-22.55 -12.9,17.45 -8.3,17.45 -8.3,-22.55"/>
<polygon id="00000223BBFEA0B0" class="l35d0" points="-11.9,-15.85 -11.9,-13.25 -9.3,-13.25 -9.3,-15.85"/>
<polygon id="00000223BBFE9400" class="l36d0" points="-13.1,-17.05 -13.1,-12.05 -8.1,-12.05 -8.1,-17.05"/>
<polygon id="00000223BBFE9FD0" class="l34d0" points="-13.1,-17.05 -13.1,-12.05 -8.1,-12.05 -8.1,-17.05"/>
<polygon id="00000223BBFEA040" class="l35d0" points="-11.9,8.15 -11.9,10.75 -9.3,10.75 -9.3,8.15"/>
<polygon id="00000223BBFEA120" class="l36d0" points="-13.1,6.95 -13.1,11.95 -8.1,11.95 -8.1,6.95"/>
<polygon id="00000223BBFE9630" class="l34d0" points="-13.1,6.95 -13.1,11.95 -8.1,11.95 -8.1,6.95"/>
<polygon id="00000223BBFE90F0" class="l35d0" points="-11.9,0.15 -11.9,2.75 -9.3,2.75 -9.3,0.15"/>
<polygon id="00000223BBFEA200" class="l36d0" points="-13.1,-1.05 -13.1,3.95 -8.1,3.95 -8.1,-1.05"/>
<polygon id="00000223BBFE9470" class="l34d0" points="-13.1,-1.05 -13.1,3.95 -8.1,3.95 -8.1,-1.05"/>
<polygon id="00000223BBFE9D30" class="l35d0" points="-11.9,-7.85 -11.9,-5.25 -9.3,-5.25 -9.3,-7.85"/>
<polygon id="00000223BBFE9550" class="l36d0" points="-13.1,-9.05 -13.1,-4.05 -8.1,-4.05 -8.1,-9.05"/>
<polygon id="00000223BBFEA3C0" class="l34d0" points="-13.1,-9.05 -13.1,-4.05 -8.1,-4.05 -8.1,-9.05"/>
<polygon id="00000223BBFE8C90" class="l36d0" points="-13.1,-22.55 -13.1,17.45 -8.1,17.45 -8.1,-22.55"/>
<polygon id="00000223BBFEA350" class="l34d0" points="-13.1,-17.05 -13.1,11.95 -8.1,11.95 -8.1,-17.05"/>
<polygon id="00000223BBFE9E10" class="l31d0" points="-16.1,-24.85 -16.1,19.75 16.1,19.75 16.1,-24.85"/>
<polygon id="00000223BBFEA430" class="l22d0" points="-13.8,-22.55 -13.8,17.45 13.8,17.45 13.8,-22.55"/>
<polygon id="00000223BBFEA190" class="l35d0" points="-11.9,21.15 -11.9,23.75 -9.3,23.75 -9.3,21.15"/>
<polygon id="00000223BBFEA2E0" class="l36d0" points="-13.1,19.95 -13.1,24.95 -8.1,24.95 -8.1,19.95"/>
<polygon id="00000223BBFE8D00" class="l34d0" points="-13.1,19.95 -13.1,24.95 -8.1,24.95 -8.1,19.95"/>
<polygon id="00000223BBFE8EC0" class="l36d0" points="-13.1,27.95 -13.1,32.95 13.1,32.95 13.1,27.95"/>
<polygon id="00000223BBFE9010" class="l36d0" points="-13.1,19.95 -13.1,24.95 13.1,24.95 13.1,19.95"/>
<polygon id="00000223BBFEA4A0" class="l33d0" points="-1.1,-31.55 -1.1,-29.35 1.1,-29.35 1.1,-31.55"/>
<polygon id="00000223BBFE98D0" class="l36d0" points="-2.5,-32.95 -2.5,-27.95 2.5,-27.95 2.5,-32.95"/>
<polygon id="00000223BBFE9EF0" class="l34d0" points="-2.5,-32.95 -2.5,-27.95 2.5,-27.95 2.5,-32.95"/>
<polygon id="00000223BBFE9860" class="l35d0" points="-1.3,-31.75 -1.3,-29.15 1.3,-29.15 1.3,-31.75"/>
<polygon id="00000223BBFE95C0" class="l30d0" points="-1.8,-32.25 -1.8,-28.65 1.8,-28.65 1.8,-32.25"/>
<polygon id="00000223BBFE9940" class="l36d0" points="-7.8,-32.95 -7.8,-27.95 7.8,-27.95 7.8,-32.95"/>
<polygon id="00000223BBFE9F60" class="l30d0" points="-7.8,-32.95 -7.8,-27.95 7.8,-27.95 7.8,-32.95"/>
<polygon id="00000223BBFE8980" class="l34d0" points="8.3,17.45 12.9,17.45 12.9,24.95 8.3,24.95"/>
<polygon id="00000223BBFE9DA0" class="l35d0" points="9.3,21.15 9.3,23.75 11.9,23.75 11.9,21.15"/>
<polygon id="00000223BBFE89F0" class="l36d0" points="8.1,19.95 8.1,24.95 13.1,24.95 13.1,19.95"/>
<polygon id="00000223BBFE8E50" class="l34d0" points="8.1,19.95 8.1,24.95 13.1,24.95 13.1,19.95"/>
<polygon id="00000223BBFE99B0" class="l30d0" points="2.8,-27.95 7.8,-27.95 7.8,-24.95 2.8,-24.95"/>
<polygon id="00000223BBFE8A60" class="l34d0" points="-2.3,17.45 2.3,17.45 2.3,32.95 -2.3,32.95"/>
<polygon id="00000223BBFE9A90" class="l35d0" points="-1.3,29.15 -1.3,31.75 1.3,31.75 1.3,29.15"/>
<polygon id="00000223BBFE9160" class="l36d0" points="-2.5,27.95 -2.5,32.95 2.5,32.95 2.5,27.95"/>
<polygon id="00000223BBFE8F30" class="l34d0" points="-2.5,27.95 -2.5,32.95 2.5,32.95 2.5,27.95"/>
<polygon id="00000223BBFE8FA0" class="l30d0" points="-7.8,-27.95 -2.8,-27.95 -2.8,-24.95 -7.8,-24.95"/>
<polygon id="00000223BBFE8AD0" class="l34d0" points="-12.9,17.45 -8.3,17.45 -8.3,24.95 -12.9,24.95"/>
</g>
<g id="straight_route_972a9a5e$11">
<polygon id="00000223BBFE8B40" class="l36d0" points="2.5,19.95 46.4,19.95 46.4,24.95 2.5,24.95"/>
</g>
<g id="straight_route_276cea24$2">
<polygon id="00000223BBFE9E80" class="l36d0" points="137.4,19.95 179.3,19.95 179.3,24.95 137.4,24.95"/>
</g>
<g id="straight_route_b5cc9ba1$9">
<polygon id="00000223BBFE8BB0" class="l36d0" points="67.3,-32.95 110.3,-32.95 110.3,-27.95 67.3,-27.95"/>
</g>
<g id="straight_route_5887be18$9">
<polygon id="00000223BBFE9B00" class="l36d0" points="46.4,19.95 89.4,19.95 89.4,24.95 46.4,24.95"/>
</g>
<g id="Unnamed_45c7a214">
<polygon id="00000223BBFE9BE0" class="l21d0" points="-17.3,-34.15 17.3,-34.15 17.3,34.15 -17.3,34.15"/>
<polygon id="00000223BBFE8C20" class="l30d0" points="-7.8,-24.95 -7.8,19.85 -2.8,19.85 -2.8,-24.95"/>
<polygon id="00000223BBFE9C50" class="l33d0" points="-1.1,-18.65 -1.1,-16.45 1.1,-16.45 1.1,-18.65"/>
<polygon id="00000223BBFEA890" class="l34d0" points="-2.3,-19.85 -2.3,-15.25 2.3,-15.25 2.3,-19.85"/>
<polygon id="00000223BBFEB4D0" class="l34d0" points="-2.3,-14.85 -2.3,-10.25 2.3,-10.25 2.3,-14.85"/>
<polygon id="00000223BBFEBFC0" class="l33d0" points="-1.1,11.35 -1.1,13.55 1.1,13.55 1.1,11.35"/>
<polygon id="00000223BBFEBC40" class="l34d0" points="-2.3,10.15 -2.3,14.75 2.3,14.75 2.3,10.15"/>
<polygon id="00000223BBFEB380" class="l33d0" points="-1.1,-13.65 -1.1,-11.45 1.1,-11.45 1.1,-13.65"/>
<polygon id="00000223BBFEBA10" class="l33d0" points="-1.1,6.35 -1.1,8.55 1.1,8.55 1.1,6.35"/>
<polygon id="00000223BBFEC030" class="l34d0" points="-2.3,5.15 -2.3,9.75 2.3,9.75 2.3,5.15"/>
<polygon id="00000223BBFEBD20" class="l34d0" points="-2.3,-9.85 -2.3,-5.25 2.3,-5.25 2.3,-9.85"/>
<polygon id="00000223BBFEC0A0" class="l33d0" points="-1.1,1.35 -1.1,3.55 1.1,3.55 1.1,1.35"/>
<polygon id="00000223BBFEBAF0" class="l34d0" points="-2.3,0.15 -2.3,4.75 2.3,4.75 2.3,0.15"/>
<polygon id="00000223BBFEAF20" class="l33d0" points="-1.1,-8.65 -1.1,-6.45 1.1,-6.45 1.1,-8.65"/>
<polygon id="00000223BBFEB690" class="l33d0" points="-1.1,-3.65 -1.1,-1.45 1.1,-1.45 1.1,-3.65"/>
<polygon id="00000223BBFEBB60" class="l34d0" points="-2.3,-4.85 -2.3,-0.25 2.3,-0.25 2.3,-4.85"/>
<polygon id="00000223BBFEA510" class="l34d0" points="-2.3,-22.55 -2.3,17.45 2.3,17.45 2.3,-22.55"/>
<polygon id="00000223BBFEB3F0" class="l35d0" points="-1.3,-15.85 -1.3,-13.25 1.3,-13.25 1.3,-15.85"/>
<polygon id="00000223BBFEB0E0" class="l36d0" points="-2.5,-17.05 -2.5,-12.05 2.5,-12.05 2.5,-17.05"/>
<polygon id="00000223BBFEAC10" class="l34d0" points="-2.5,-17.05 -2.5,-12.05 2.5,-12.05 2.5,-17.05"/>
<polygon id="00000223BBFEB850" class="l35d0" points="-1.3,8.15 -1.3,10.75 1.3,10.75 1.3,8.15"/>
<polygon id="00000223BBFEADD0" class="l36d0" points="-2.5,6.95 -2.5,11.95 2.5,11.95 2.5,6.95"/>
<polygon id="00000223BBFEB770" class="l34d0" points="-2.5,6.95 -2.5,11.95 2.5,11.95 2.5,6.95"/>
<polygon id="00000223BBFEBBD0" class="l35d0" points="-1.3,0.15 -1.3,2.75 1.3,2.75 1.3,0.15"/>
<polygon id="00000223BBFEBCB0" class="l36d0" points="-2.5,-1.05 -2.5,3.95 2.5,3.95 2.5,-1.05"/>
<polygon id="00000223BBFEB8C0" class="l34d0" points="-2.5,-1.05 -2.5,3.95 2.5,3.95 2.5,-1.05"/>
<polygon id="00000223BBFEB5B0" class="l35d0" points="-1.3,-7.85 -1.3,-5.25 1.3,-5.25 1.3,-7.85"/>
<polygon id="00000223BBFEB540" class="l36d0" points="-2.5,-9.05 -2.5,-4.05 2.5,-4.05 2.5,-9.05"/>
<polygon id="00000223BBFEAA50" class="l34d0" points="-2.5,-9.05 -2.5,-4.05 2.5,-4.05 2.5,-9.05"/>
<polygon id="00000223BBFEA9E0" class="l36d0" points="-2.5,-22.55 -2.5,17.45 2.5,17.45 2.5,-22.55"/>
<polygon id="00000223BBFEA580" class="l34d0" points="-2.5,-17.05 -2.5,11.95 2.5,11.95 2.5,-17.05"/>
<polygon id="00000223BBFEB700" class="l30d0" points="2.8,-24.95 2.8,19.85 7.8,19.85 7.8,-24.95"/>
<polygon id="00000223BBFEB150" class="l33d0" points="9.5,-18.65 9.5,-16.45 11.7,-16.45 11.7,-18.65"/>
<polygon id="00000223BBFEBE00" class="l34d0" points="8.3,-19.85 8.3,-15.25 12.9,-15.25 12.9,-19.85"/>
<polygon id="00000223BBFEA6D0" class="l34d0" points="8.3,-14.85 8.3,-10.25 12.9,-10.25 12.9,-14.85"/>
<polygon id="00000223BBFEB1C0" class="l33d0" points="9.5,11.35 9.5,13.55 11.7,13.55 11.7,11.35"/>
<polygon id="00000223BBFEA5F0" class="l34d0" points="8.3,10.15 8.3,14.75 12.9,14.75 12.9,10.15"/>
<polygon id="00000223BBFEB9A0" class="l33d0" points="9.5,-13.65 9.5,-11.45 11.7,-11.45 11.7,-13.65"/>
<polygon id="00000223BBFEBD90" class="l33d0" points="9.5,6.35 9.5,8.55 11.7,8.55 11.7,6.35"/>
<polygon id="00000223BBFEBE70" class="l34d0" points="8.3,5.15 8.3,9.75 12.9,9.75 12.9,5.15"/>
<polygon id="00000223BBFEBF50" class="l34d0" points="8.3,-9.85 8.3,-5.25 12.9,-5.25 12.9,-9.85"/>
<polygon id="00000223BBFEA660" class="l33d0" points="9.5,1.35 9.5,3.55 11.7,3.55 11.7,1.35"/>
<polygon id="00000223BBFEB930" class="l34d0" points="8.3,0.15 8.3,4.75 12.9,4.75 12.9,0.15"/>
<polygon id="00000223BBFEB7E0" class="l33d0" points="9.5,-8.65 9.5,-6.45 11.7,-6.45 11.7,-8.65"/>
<polygon id="00000223BBFEBEE0" class="l33d0" points="9.5,-3.65 9.5,-1.45 11.7,-1.45 11.7,-3.65"/>
<polygon id="00000223BBFEA7B0" class="l34d0" points="8.3,-4.85 8.3,-0.25 12.9,-0.25 12.9,-4.85"/>
<polygon id="00000223BBFEA820" class="l34d0" points="8.3,-22.55 8.3,17.45 12.9,17.45 12.9,-22.55"/>
<polygon id="00000223BBFEA900" class="l35d0" points="9.3,-15.85 9.3,-13.25 11.9,-13.25 11.9,-15.85"/>
<polygon id="00000223BBFEAC80" class="l36d0" points="8.1,-17.05 8.1,-12.05 13.1,-12.05 13.1,-17.05"/>
<polygon id="00000223BBFEA970" class="l34d0" points="8.1,-17.05 8.1,-12.05 13.1,-12.05 13.1,-17.05"/>
<polygon id="00000223BBFEAAC0" class="l35d0" points="9.3,8.15 9.3,10.75 11.9,10.75 11.9,8.15"/>
<polygon id="00000223BBFEABA0" class="l36d0" points="8.1,6.95 8.1,11.95 13.1,11.95 13.1,6.95"/>
<polygon id="00000223BBFEB460" class="l34d0" points="8.1,6.95 8.1,11.95 13.1,11.95 13.1,6.95"/>
<polygon id="00000223BBFEACF0" class="l35d0" points="9.3,0.15 9.3,2.75 11.9,2.75 11.9,0.15"/>
<polygon id="00000223BBFEAD60" class="l36d0" points="8.1,-1.05 8.1,3.95 13.1,3.95 13.1,-1.05"/>
<polygon id="00000223BBFEAE40" class="l34d0" points="8.1,-1.05 8.1,3.95 13.1,3.95 13.1,-1.05"/>
<polygon id="00000223BBFEAEB0" class="l35d0" points="9.3,-7.85 9.3,-5.25 11.9,-5.25 11.9,-7.85"/>
<polygon id="00000223BBFECFF0" class="l36d0" points="8.1,-9.05 8.1,-4.05 13.1,-4.05 13.1,-9.05"/>
<polygon id="00000223BBFEC2D0" class="l34d0" points="8.1,-9.05 8.1,-4.05 13.1,-4.05 13.1,-9.05"/>
<polygon id="00000223BBFEC500" class="l36d0" points="8.1,-22.55 8.1,17.45 13.1,17.45 13.1,-22.55"/>
<polygon id="00000223BBFEC5E0" class="l34d0" points="8.1,-17.05 8.1,11.95 13.1,11.95 13.1,-17.05"/>
<polygon id="00000223BBFECD50" class="l33d0" points="-11.7,-18.65 -11.7,-16.45 -9.5,-16.45 -9.5,-18.65"/>
<polygon id="00000223BBFEC730" class="l34d0" points="-12.9,-19.85 -12.9,-15.25 -8.3,-15.25 -8.3,-19.85"/>
<polygon id="00000223BBFEC7A0" class="l34d0" points="-12.9,-14.85 -12.9,-10.25 -8.3,-10.25 -8.3,-14.85"/>
<polygon id="00000223BBFED450" class="l33d0" points="-11.7,11.35 -11.7,13.55 -9.5,13.55 -9.5,11.35"/>
<polygon id="00000223BBFED370" class="l34d0" points="-12.9,10.15 -12.9,14.75 -8.3,14.75 -8.3,10.15"/>
<polygon id="00000223BBFED060" class="l33d0" points="-11.7,-13.65 -11.7,-11.45 -9.5,-11.45 -9.5,-13.65"/>
<polygon id="00000223BBFED610" class="l33d0" points="-11.7,6.35 -11.7,8.55 -9.5,8.55 -9.5,6.35"/>
<polygon id="00000223BBFED3E0" class="l34d0" points="-12.9,5.15 -12.9,9.75 -8.3,9.75 -8.3,5.15"/>
<polygon id="00000223BBFEDBC0" class="l34d0" points="-12.9,-9.85 -12.9,-5.25 -8.3,-5.25 -8.3,-9.85"/>
<polygon id="00000223BBFECF80" class="l33d0" points="-11.7,1.35 -11.7,3.55 -9.5,3.55 -9.5,1.35"/>
<polygon id="00000223BBFECDC0" class="l34d0" points="-12.9,0.15 -12.9,4.75 -8.3,4.75 -8.3,0.15"/>
<polygon id="00000223BBFED4C0" class="l33d0" points="-11.7,-8.65 -11.7,-6.45 -9.5,-6.45 -9.5,-8.65"/>
<polygon id="00000223BBFED680" class="l33d0" points="-11.7,-3.65 -11.7,-1.45 -9.5,-1.45 -9.5,-3.65"/>
<polygon id="00000223BBFED140" class="l34d0" points="-12.9,-4.85 -12.9,-0.25 -8.3,-0.25 -8.3,-4.85"/>
<polygon id="00000223BBFEC880" class="l34d0" points="-12.9,-22.55 -12.9,17.45 -8.3,17.45 -8.3,-22.55"/>
<polygon id="00000223BBFED530" class="l35d0" points="-11.9,-15.85 -11.9,-13.25 -9.3,-13.25 -9.3,-15.85"/>
<polygon id="00000223BBFEDC30" class="l36d0" points="-13.1,-17.05 -13.1,-12.05 -8.1,-12.05 -8.1,-17.05"/>
<polygon id="00000223BBFED6F0" class="l34d0" points="-13.1,-17.05 -13.1,-12.05 -8.1,-12.05 -8.1,-17.05"/>
<polygon id="00000223BBFEC8F0" class="l35d0" points="-11.9,8.15 -11.9,10.75 -9.3,10.75 -9.3,8.15"/>
<polygon id="00000223BBFECB20" class="l36d0" points="-13.1,6.95 -13.1,11.95 -8.1,11.95 -8.1,6.95"/>
<polygon id="00000223BBFEC960" class="l34d0" points="-13.1,6.95 -13.1,11.95 -8.1,11.95 -8.1,6.95"/>
<polygon id="00000223BBFECAB0" class="l35d0" points="-11.9,0.15 -11.9,2.75 -9.3,2.75 -9.3,0.15"/>
<polygon id="00000223BBFEDCA0" class="l36d0" points="-13.1,-1.05 -13.1,3.95 -8.1,3.95 -8.1,-1.05"/>
<polygon id="00000223BBFECE30" class="l34d0" points="-13.1,-1.05 -13.1,3.95 -8.1,3.95 -8.1,-1.05"/>
<polygon id="00000223BBFED760" class="l35d0" points="-11.9,-7.85 -11.9,-5.25 -9.3,-5.25 -9.3,-7.85"/>
<polygon id="00000223BBFECEA0" class="l36d0" points="-13.1,-9.05 -13.1,-4.05 -8.1,-4.05 -8.1,-9.05"/>
<polygon id="00000223BBFED0D0" class="l34d0" points="-13.1,-9.05 -13.1,-4.05 -8.1,-4.05 -8.1,-9.05"/>
<polygon id="00000223BBFED1B0" class="l36d0" points="-13.1,-22.55 -13.1,17.45 -8.1,17.45 -8.1,-22.55"/>
<polygon id="00000223BBFED220" class="l34d0" points="-13.1,-17.05 -13.1,11.95 -8.1,11.95 -8.1,-17.05"/>
<polygon id="00000223BBFED7D0" class="l31d0" points="-16.1,-24.85 -16.1,19.75 16.1,19.75 16.1,-24.85"/>
<polygon id="00000223BBFED290" class="l22d0" points="-13.8,-22.55 -13.8,17.45 13.8,17.45 13.8,-22.55"/>
<polygon id="00000223BBFED990" class="l35d0" points="-11.9,21.15 -11.9,23.75 -9.3,23.75 -9.3,21.15"/>
<polygon id="00000223BBFED8B0" class="l36d0" points="-13.1,19.95 -13.1,24.95 -8.1,24.95 -8.1,19.95"/>
<polygon id="00000223BBFEC110" class="l34d0" points="-13.1,19.95 -13.1,24.95 -8.1,24.95 -8.1,19.95"/>
<polygon id="00000223BBFEC180" class="l36d0" points="-13.1,27.95 -13.1,32.95 13.1,32.95 13.1,27.95"/>
<polygon id="00000223BBFEC1F0" class="l36d0" points="-13.1,19.95 -13.1,24.95 13.1,24.95 13.1,19.95"/>
<polygon id="00000223BBFEC260" class="l33d0" points="-1.1,-31.55 -1.1,-29.35 1.1,-29.35 1.1,-31.55"/>
<polygon id="00000223BBFEE640" class="l36d0" points="-2.5,-32.95 -2.5,-27.95 2.5,-27.95 2.5,-32.95"/>
<polygon id="00000223BBFEF3D0" class="l34d0" points="-2.5,-32.95 -2.5,-27.95 2.5,-27.95 2.5,-32.95"/>
<polygon id="00000223BBFEF440" class="l35d0" points="-1.3,-31.75 -1.3,-29.15 1.3,-29.15 1.3,-31.75"/>
<polygon id="00000223BBFEF4B0" class="l30d0" points="-1.8,-32.25 -1.8,-28.65 1.8,-28.65 1.8,-32.25"/>
<polygon id="00000223BBFEEA30" class="l36d0" points="-7.8,-32.95 -7.8,-27.95 7.8,-27.95 7.8,-32.95"/>
<polygon id="00000223BBFEE4F0" class="l30d0" points="-7.8,-32.95 -7.8,-27.95 7.8,-27.95 7.8,-32.95"/>
<polygon id="00000223BBFEF600" class="l34d0" points="8.3,17.45 12.9,17.45 12.9,24.95 8.3,24.95"/>
<polygon id="00000223BBFEE800" class="l35d0" points="9.3,21.15 9.3,23.75 11.9,23.75 11.9,21.15"/>
<polygon id="00000223BBFEF130" class="l36d0" points="8.1,19.95 8.1,24.95 13.1,24.95 13.1,19.95"/>
<polygon id="00000223BBFEE870" class="l34d0" points="8.1,19.95 8.1,24.95 13.1,24.95 13.1,19.95"/>
<polygon id="00000223BBFEF7C0" class="l30d0" points="2.8,-27.95 7.8,-27.95 7.8,-24.95 2.8,-24.95"/>
<polygon id="00000223BBFEE090" class="l34d0" points="-2.3,17.45 2.3,17.45 2.3,32.95 -2.3,32.95"/>
<polygon id="00000223BBFEF830" class="l35d0" points="-1.3,29.15 -1.3,31.75 1.3,31.75 1.3,29.15"/>
<polygon id="00000223BBFEF210" class="l36d0" points="-2.5,27.95 -2.5,32.95 2.5,32.95 2.5,27.95"/>
<polygon id="00000223BBFEF8A0" class="l34d0" points="-2.5,27.95 -2.5,32.95 2.5,32.95 2.5,27.95"/>
<polygon id="00000223BBFEF520" class="l30d0" points="-7.8,-27.95 -2.8,-27.95 -2.8,-24.95 -7.8,-24.95"/>
<polygon id="00000223BBFEDD10" class="l34d0" points="-12.9,17.45 -8.3,17.45 -8.3,24.95 -12.9,24.95"/>
</g>
<g id="straight_route_1a6abb47$6">
<polygon id="00000223BBFEE2C0" class="l36d0" points="89.4,19.95 137.4,19.95 137.4,24.95 89.4,24.95"/>
</g>
<g id="Unnamed_9c785c52">
<polygon id="00000223BBFEF1A0" class="l21d0" points="-29.9,-34.15 29.9,-34.15 29.9,34.15 -29.9,34.15"/>
<polygon id="00000223BBFEF2F0" class="l30d0" points="-20.4,-24.95 -20.4,19.85 -15.4,19.85 -15.4,-24.95"/>
<polygon id="00000223BBFEEAA0" class="l33d0" points="-13.7,-18.65 -13.7,-16.45 -11.5,-16.45 -11.5,-18.65"/>
<polygon id="00000223BBFEE9C0" class="l34d0" points="-14.9,-19.85 -14.9,-15.25 -10.3,-15.25 -10.3,-19.85"/>
<polygon id="00000223BBFEE790" class="l34d0" points="-14.9,-14.85 -14.9,-10.25 -10.3,-10.25 -10.3,-14.85"/>
<polygon id="00000223BBFEE5D0" class="l33d0" points="-13.7,11.35 -13.7,13.55 -11.5,13.55 -11.5,11.35"/>
<polygon id="00000223BBFEDD80" class="l34d0" points="-14.9,10.15 -14.9,14.75 -10.3,14.75 -10.3,10.15"/>
<polygon id="00000223BBFEEE20" class="l33d0" points="-13.7,-13.65 -13.7,-11.45 -11.5,-11.45 -11.5,-13.65"/>
<polygon id="00000223BBFEEB10" class="l33d0" points="-13.7,6.35 -13.7,8.55 -11.5,8.55 -11.5,6.35"/>
<polygon id="00000223BBFEEE90" class="l34d0" points="-14.9,5.15 -14.9,9.75 -10.3,9.75 -10.3,5.15"/>
<polygon id="00000223BBFEF050" class="l34d0" points="-14.9,-9.85 -14.9,-5.25 -10.3,-5.25 -10.3,-9.85"/>
<polygon id="00000223BBFEDDF0" class="l33d0" points="-13.7,1.35 -13.7,3.55 -11.5,3.55 -11.5,1.35"/>
<polygon id="00000223BBFEEF70" class="l34d0" points="-14.9,0.15 -14.9,4.75 -10.3,4.75 -10.3,0.15"/>
<polygon id="00000223BBFEEB80" class="l33d0" points="-13.7,-8.65 -13.7,-6.45 -11.5,-6.45 -11.5,-8.65"/>
<polygon id="00000223BBFEDE60" class="l33d0" points="-13.7,-3.65 -13.7,-1.45 -11.5,-1.45 -11.5,-3.65"/>
<polygon id="00000223BBFEEF00" class="l34d0" points="-14.9,-4.85 -14.9,-0.25 -10.3,-0.25 -10.3,-4.85"/>
<polygon id="00000223BBFEF0C0" class="l34d0" points="-14.9,-22.55 -14.9,17.45 -10.3,17.45 -10.3,-22.55"/>
<polygon id="00000223BBFEE100" class="l35d0" points="-13.9,-15.85 -13.9,-13.25 -11.3,-13.25 -11.3,-15.85"/>
<polygon id="00000223BBFEE250" class="l36d0" points="-15.1,-17.05 -15.1,-12.05 -10.1,-12.05 -10.1,-17.05"/>
<polygon id="00000223BBFEF360" class="l34d0" points="-15.1,-17.05 -15.1,-12.05 -10.1,-12.05 -10.1,-17.05"/>
<polygon id="00000223BBFEF590" class="l35d0" points="-13.9,8.15 -13.9,10.75 -11.3,10.75 -11.3,8.15"/>
<polygon id="00000223BBFEDED0" class="l36d0" points="-15.1,6.95 -15.1,11.95 -10.1,11.95 -10.1,6.95"/>
<polygon id="00000223BBFEDF40" class="l34d0" points="-15.1,6.95 -15.1,11.95 -10.1,11.95 -10.1,6.95"/>
<polygon id="00000223BBFEDFB0" class="l35d0" points="-13.9,0.15 -13.9,2.75 -11.3,2.75 -11.3,0.15"/>
<polygon id="00000223BBFEE410" class="l36d0" points="-15.1,-1.05 -15.1,3.95 -10.1,3.95 -10.1,-1.05"/>
<polygon id="00000223BBFEE020" class="l34d0" points="-15.1,-1.05 -15.1,3.95 -10.1,3.95 -10.1,-1.05"/>
<polygon id="00000223BBFEE170" class="l35d0" points="-13.9,-7.85 -13.9,-5.25 -11.3,-5.25 -11.3,-7.85"/>
<polygon id="00000223BBFEE6B0" class="l36d0" points="-15.1,-9.05 -15.1,-4.05 -10.1,-4.05 -10.1,-9.05"/>
<polygon id="00000223BBFEE3A0" class="l34d0" points="-15.1,-9.05 -15.1,-4.05 -10.1,-4.05 -10.1,-9.05"/>
<polygon id="00000223BBFEE480" class="l36d0" points="-15.1,-22.55 -15.1,17.45 -10.1,17.45 -10.1,-22.55"/>
<polygon id="00000223BBFEE560" class="l34d0" points="-15.1,-17.05 -15.1,11.95 -10.1,11.95 -10.1,-17.05"/>
<polygon id="00000223BBFF05C0" class="l30d0" points="-9.8,-24.95 -9.8,19.85 -4.8,19.85 -4.8,-24.95"/>
<polygon id="00000223BBFEFEC0" class="l33d0" points="-3.1,-18.65 -3.1,-16.45 -0.9,-16.45 -0.9,-18.65"/>
<polygon id="00000223BBFF0BE0" class="l34d0" points="-4.3,-19.85 -4.3,-15.25 0.3,-15.25 0.3,-19.85"/>
<polygon id="00000223BBFEFAD0" class="l34d0" points="-4.3,-14.85 -4.3,-10.25 0.3,-10.25 0.3,-14.85"/>
<polygon id="00000223BBFF0320" class="l33d0" points="-3.1,11.35 -3.1,13.55 -0.9,13.55 -0.9,11.35"/>
<polygon id="00000223BBFEFC20" class="l34d0" points="-4.3,10.15 -4.3,14.75 0.3,14.75 0.3,10.15"/>
<polygon id="00000223BBFF0240" class="l33d0" points="-3.1,-13.65 -3.1,-11.45 -0.9,-11.45 -0.9,-13.65"/>
<polygon id="00000223BBFF13C0" class="l33d0" points="-3.1,6.35 -3.1,8.55 -0.9,8.55 -0.9,6.35"/>
<polygon id="00000223BBFEFF30" class="l34d0" points="-4.3,5.15 -4.3,9.75 0.3,9.75 0.3,5.15"/>
<polygon id="00000223BBFF0DA0" class="l34d0" points="-4.3,-9.85 -4.3,-5.25 0.3,-5.25 0.3,-9.85"/>
<polygon id="00000223BBFF0630" class="l33d0" points="-3.1,1.35 -3.1,3.55 -0.9,3.55 -0.9,1.35"/>
<polygon id="00000223BBFF04E0" class="l34d0" points="-4.3,0.15 -4.3,4.75 0.3,4.75 0.3,0.15"/>
<polygon id="00000223BBFF0080" class="l33d0" points="-3.1,-8.65 -3.1,-6.45 -0.9,-6.45 -0.9,-8.65"/>
<polygon id="00000223BBFF08D0" class="l33d0" points="-3.1,-3.65 -3.1,-1.45 -0.9,-1.45 -0.9,-3.65"/>
<polygon id="00000223BBFF0EF0" class="l34d0" points="-4.3,-4.85 -4.3,-0.25 0.3,-0.25 0.3,-4.85"/>
<polygon id="00000223BBFEFB40" class="l34d0" points="-4.3,-22.55 -4.3,17.45 0.3,17.45 0.3,-22.55"/>
<polygon id="00000223BBFF1120" class="l35d0" points="-3.3,-15.85 -3.3,-13.25 -0.7,-13.25 -0.7,-15.85"/>
<polygon id="00000223BBFF0390" class="l36d0" points="-4.5,-17.05 -4.5,-12.05 0.5,-12.05 0.5,-17.05"/>
<polygon id="00000223BBFF0710" class="l34d0" points="-4.5,-17.05 -4.5,-12.05 0.5,-12.05 0.5,-17.05"/>
<polygon id="00000223BBFF0A20" class="l35d0" points="-3.3,8.15 -3.3,10.75 -0.7,10.75 -0.7,8.15"/>
<polygon id="00000223BBFF0780" class="l36d0" points="-4.5,6.95 -4.5,11.95 0.5,11.95 0.5,6.95"/>
<polygon id="00000223BBFF10B0" class="l34d0" points="-4.5,6.95 -4.5,11.95 0.5,11.95 0.5,6.95"/>
<polygon id="00000223BBFF02B0" class="l35d0" points="-3.3,0.15 -3.3,2.75 -0.7,2.75 -0.7,0.15"/>
<polygon id="00000223BBFF0FD0" class="l36d0" points="-4.5,-1.05 -4.5,3.95 0.5,3.95 0.5,-1.05"/>
<polygon id="00000223BBFF1040" class="l34d0" points="-4.5,-1.05 -4.5,3.95 0.5,3.95 0.5,-1.05"/>
<polygon id="00000223BBFF1190" class="l35d0" points="-3.3,-7.85 -3.3,-5.25 -0.7,-5.25 -0.7,-7.85"/>
<polygon id="00000223BBFF06A0" class="l36d0" points="-4.5,-9.05 -4.5,-4.05 0.5,-4.05 0.5,-9.05"/>
<polygon id="00000223BBFF00F0" class="l34d0" points="-4.5,-9.05 -4.5,-4.05 0.5,-4.05 0.5,-9.05"/>
<polygon id="00000223BBFF1200" class="l36d0" points="-4.5,-22.55 -4.5,17.45 0.5,17.45 0.5,-22.55"/>
<polygon id="00000223BBFF0400" class="l34d0" points="-4.5,-17.05 -4.5,11.95 0.5,11.95 0.5,-17.05"/>
<polygon id="00000223BBFF0D30" class="l33d0" points="-24.3,-18.65 -24.3,-16.45 -22.1,-16.45 -22.1,-18.65"/>
<polygon id="00000223BBFF0470" class="l34d0" points="-25.5,-19.85 -25.5,-15.25 -20.9,-15.25 -20.9,-19.85"/>
<polygon id="00000223BBFF1430" class="l34d0" points="-25.5,-14.85 -25.5,-10.25 -20.9,-10.25 -20.9,-14.85"/>
<polygon id="00000223BBFEFC90" class="l33d0" points="-24.3,11.35 -24.3,13.55 -22.1,13.55 -22.1,11.35"/>
<polygon id="00000223BBFEFA60" class="l34d0" points="-25.5,10.15 -25.5,14.75 -20.9,14.75 -20.9,10.15"/>
<polygon id="00000223BBFF0E10" class="l33d0" points="-24.3,-13.65 -24.3,-11.45 -22.1,-11.45 -22.1,-13.65"/>
<polygon id="00000223BBFF0550" class="l33d0" points="-24.3,6.35 -24.3,8.55 -22.1,8.55 -22.1,6.35"/>
<polygon id="00000223BBFF0010" class="l34d0" points="-25.5,5.15 -25.5,9.75 -20.9,9.75 -20.9,5.15"/>
<polygon id="00000223BBFEF9F0" class="l34d0" points="-25.5,-9.85 -25.5,-5.25 -20.9,-5.25 -20.9,-9.85"/>
<polygon id="00000223BBFEFD00" class="l33d0" points="-24.3,1.35 -24.3,3.55 -22.1,3.55 -22.1,1.35"/>
<polygon id="00000223BBFF0860" class="l34d0" points="-25.5,0.15 -25.5,4.75 -20.9,4.75 -20.9,0.15"/>
<polygon id="00000223BBFF1270" class="l33d0" points="-24.3,-8.65 -24.3,-6.45 -22.1,-6.45 -22.1,-8.65"/>
<polygon id="00000223BBFF0E80" class="l33d0" points="-24.3,-3.65 -24.3,-1.45 -22.1,-1.45 -22.1,-3.65"/>
<polygon id="00000223BBFF07F0" class="l34d0" points="-25.5,-4.85 -25.5,-0.25 -20.9,-0.25 -20.9,-4.85"/>
<polygon id="00000223BBFEFBB0" class="l34d0" points="-25.5,-22.55 -25.5,17.45 -20.9,17.45 -20.9,-22.55"/>
<polygon id="00000223BBFEFD70" class="l35d0" points="-24.5,-15.85 -24.5,-13.25 -21.9,-13.25 -21.9,-15.85"/>
<polygon id="00000223BBFF0B70" class="l36d0" points="-25.7,-17.05 -25.7,-12.05 -20.7,-12.05 -20.7,-17.05"/>
<polygon id="00000223BBFF12E0" class="l34d0" points="-25.7,-17.05 -25.7,-12.05 -20.7,-12.05 -20.7,-17.05"/>
<polygon id="00000223BBFF01D0" class="l35d0" points="-24.5,8.15 -24.5,10.75 -21.9,10.75 -21.9,8.15"/>
<polygon id="00000223BBFEF980" class="l36d0" points="-25.7,6.95 -25.7,11.95 -20.7,11.95 -20.7,6.95"/>
<polygon id="00000223BBFF0940" class="l34d0" points="-25.7,6.95 -25.7,11.95 -20.7,11.95 -20.7,6.95"/>
<polygon id="00000223BBFF09B0" class="l35d0" points="-24.5,0.15 -24.5,2.75 -21.9,2.75 -21.9,0.15"/>
<polygon id="00000223BBFEFDE0" class="l36d0" points="-25.7,-1.05 -25.7,3.95 -20.7,3.95 -20.7,-1.05"/>
<polygon id="00000223BBFEFFA0" class="l34d0" points="-25.7,-1.05 -25.7,3.95 -20.7,3.95 -20.7,-1.05"/>
<polygon id="00000223BBFF14A0" class="l35d0" points="-24.5,-7.85 -24.5,-5.25 -21.9,-5.25 -21.9,-7.85"/>
<polygon id="00000223BBFEF910" class="l36d0" points="-25.7,-9.05 -25.7,-4.05 -20.7,-4.05 -20.7,-9.05"/>
<polygon id="00000223BBFF0A90" class="l34d0" points="-25.7,-9.05 -25.7,-4.05 -20.7,-4.05 -20.7,-9.05"/>
<polygon id="00000223BBFF0F60" class="l36d0" points="-25.7,-22.55 -25.7,17.45 -20.7,17.45 -20.7,-22.55"/>
<polygon id="00000223BBFEFE50" class="l34d0" points="-25.7,-17.05 -25.7,11.95 -20.7,11.95 -20.7,-17.05"/>
<polygon id="00000223BBFF0B00" class="l31d0" points="-28.7,-24.85 -28.7,19.75 3.5,19.75 3.5,-24.85"/>
<polygon id="00000223BBFF0160" class="l22d0" points="-26.4,-22.55 -26.4,17.45 1.2,17.45 1.2,-22.55"/>
<polygon id="00000223BBFF0C50" class="l35d0" points="-24.5,21.15 -24.5,23.75 -21.9,23.75 -21.9,21.15"/>
<polygon id="00000223BBFF0CC0" class="l36d0" points="-25.7,19.95 -25.7,24.95 -20.7,24.95 -20.7,19.95"/>
<polygon id="00000223BBFF29A0" class="l34d0" points="-25.7,19.95 -25.7,24.95 -20.7,24.95 -20.7,19.95"/>
<polygon id="00000223BBFF24D0" class="l30d0" points="15.6,-24.95 15.6,19.85 20.6,19.85 20.6,-24.95"/>
<polygon id="00000223BBFF16D0" class="l33d0" points="22.3,-18.65 22.3,-16.45 24.5,-16.45 24.5,-18.65"/>
<polygon id="00000223BBFF1740" class="l34d0" points="21.1,-19.85 21.1,-15.25 25.7,-15.25 25.7,-19.85"/>
<polygon id="00000223BBFF2230" class="l34d0" points="21.1,-14.85 21.1,-10.25 25.7,-10.25 25.7,-14.85"/>
<polygon id="00000223BBFF2000" class="l33d0" points="22.3,11.35 22.3,13.55 24.5,13.55 24.5,11.35"/>
<polygon id="00000223BBFF1C10" class="l34d0" points="21.1,10.15 21.1,14.75 25.7,14.75 25.7,10.15"/>
<polygon id="00000223BBFF2850" class="l33d0" points="22.3,-13.65 22.3,-11.45 24.5,-11.45 24.5,-13.65"/>
<polygon id="00000223BBFF1DD0" class="l33d0" points="22.3,6.35 22.3,8.55 24.5,8.55 24.5,6.35"/>
<polygon id="00000223BBFF2770" class="l34d0" points="21.1,5.15 21.1,9.75 25.7,9.75 25.7,5.15"/>
<polygon id="00000223BBFF2A80" class="l34d0" points="21.1,-9.85 21.1,-5.25 25.7,-5.25 25.7,-9.85"/>
<polygon id="00000223BBFF2C40" class="l33d0" points="22.3,1.35 22.3,3.55 24.5,3.55 24.5,1.35"/>
<polygon id="00000223BBFF28C0" class="l34d0" points="21.1,0.15 21.1,4.75 25.7,4.75 25.7,0.15"/>
<polygon id="00000223BBFF25B0" class="l33d0" points="22.3,-8.65 22.3,-6.45 24.5,-6.45 24.5,-8.65"/>
<polygon id="00000223BBFF2540" class="l33d0" points="22.3,-3.65 22.3,-1.45 24.5,-1.45 24.5,-3.65"/>
<polygon id="00000223BBFF1A50" class="l34d0" points="21.1,-4.85 21.1,-0.25 25.7,-0.25 25.7,-4.85"/>
<polygon id="00000223BBFF19E0" class="l34d0" points="21.1,-22.55 21.1,17.45 25.7,17.45 25.7,-22.55"/>
<polygon id="00000223BBFF2FC0" class="l33d0" points="11.7,-18.65 11.7,-16.45 13.9,-16.45 13.9,-18.65"/>
<polygon id="00000223BBFF2700" class="l34d0" points="10.5,-19.85 10.5,-15.25 15.1,-15.25 15.1,-19.85"/>
<polygon id="00000223BBFF2070" class="l34d0" points="10.5,-14.85 10.5,-10.25 15.1,-10.25 15.1,-14.85"/>
<polygon id="00000223BBFF20E0" class="l33d0" points="11.7,11.35 11.7,13.55 13.9,13.55 13.9,11.35"/>
<polygon id="00000223BBFF2310" class="l34d0" points="10.5,10.15 10.5,14.75 15.1,14.75 15.1,10.15"/>
<polygon id="00000223BBFF15F0" class="l33d0" points="11.7,-13.65 11.7,-11.45 13.9,-11.45 13.9,-13.65"/>
<polygon id="00000223BBFF1C80" class="l33d0" points="11.7,6.35 11.7,8.55 13.9,8.55 13.9,6.35"/>
<polygon id="00000223BBFF2620" class="l34d0" points="10.5,5.15 10.5,9.75 15.1,9.75 15.1,5.15"/>
<polygon id="00000223BBFF2690" class="l34d0" points="10.5,-9.85 10.5,-5.25 15.1,-5.25 15.1,-9.85"/>
<polygon id="00000223BBFF2E70" class="l33d0" points="11.7,1.35 11.7,3.55 13.9,3.55 13.9,1.35"/>
<polygon id="00000223BBFF1CF0" class="l34d0" points="10.5,0.15 10.5,4.75 15.1,4.75 15.1,0.15"/>
<polygon id="00000223BBFF1580" class="l33d0" points="11.7,-8.65 11.7,-6.45 13.9,-6.45 13.9,-8.65"/>
<polygon id="00000223BBFF1660" class="l33d0" points="11.7,-3.65 11.7,-1.45 13.9,-1.45 13.9,-3.65"/>
<polygon id="00000223BBFF2930" class="l34d0" points="10.5,-4.85 10.5,-0.25 15.1,-0.25 15.1,-4.85"/>
<polygon id="00000223BBFF27E0" class="l34d0" points="10.5,-22.55 10.5,17.45 15.1,17.45 15.1,-22.55"/>
<polygon id="00000223BBFF2AF0" class="l31d0" points="7.5,-24.85 7.5,19.75 28.7,19.75 28.7,-24.85"/>
<polygon id="00000223BBFF2A10" class="l22d0" points="9.8,-22.55 9.8,17.45 26.4,17.45 26.4,-22.55"/>
<polygon id="00000223BBFF2EE0" class="l33d0" points="17,-28.35 17,-26.15 19.2,-26.15 19.2,-28.35"/>
<polygon id="00000223BBFF1F90" class="l30d0" points="15.8,-29.55 15.8,-24.95 20.4,-24.95 20.4,-29.55"/>
<polygon id="00000223BBFF1D60" class="l34d0" points="15.8,-29.55 15.8,-24.95 20.4,-24.95 20.4,-29.55"/>
<polygon id="00000223BBFF2F50" class="l30d0" points="16.3,-29.05 16.3,-25.45 19.9,-25.45 19.9,-29.05"/>
<polygon id="00000223BBFF17B0" class="l34d0" points="10.5,-29.55 15.8,-29.55 15.8,-24.95 10.5,-24.95"/>
<polygon id="00000223BBFF21C0" class="l34d0" points="10.5,-29.55 15.1,-29.55 15.1,-22.55 10.5,-22.55"/>
<polygon id="00000223BBFF1820" class="l34d0" points="20.4,-29.55 25.7,-29.55 25.7,-24.95 20.4,-24.95"/>
<polygon id="00000223BBFF2B60" class="l34d0" points="21.1,-29.55 25.7,-29.55 25.7,-22.55 21.1,-22.55"/>
<polygon id="00000223BBFF2CB0" class="l36d0" points="-25.7,27.95 -25.7,32.95 0.5,32.95 0.5,27.95"/>
<polygon id="00000223BBFF1890" class="l36d0" points="-25.7,19.95 -25.7,24.95 0.5,24.95 0.5,19.95"/>
<polygon id="00000223BBFF2D20" class="l33d0" points="-13.7,-31.55 -13.7,-29.35 -11.5,-29.35 -11.5,-31.55"/>
<polygon id="00000223BBFF22A0" class="l36d0" points="-15.1,-32.95 -15.1,-27.95 -10.1,-27.95 -10.1,-32.95"/>
<polygon id="00000223BBFF2D90" class="l34d0" points="-15.1,-32.95 -15.1,-27.95 -10.1,-27.95 -10.1,-32.95"/>
<polygon id="00000223BBFF3030" class="l35d0" points="-13.9,-31.75 -13.9,-29.15 -11.3,-29.15 -11.3,-31.75"/>
<polygon id="00000223BBFF30A0" class="l30d0" points="-14.4,-32.25 -14.4,-28.65 -10.8,-28.65 -10.8,-32.25"/>
<polygon id="00000223BBFF1E40" class="l36d0" points="-20.4,-32.95 -20.4,-27.95 -4.8,-27.95 -4.8,-32.95"/>
<polygon id="00000223BBFF2380" class="l30d0" points="-20.4,-32.95 -20.4,-27.95 -4.8,-27.95 -4.8,-32.95"/>
<polygon id="00000223BBFF1EB0" class="l34d0" points="-4.3,17.45 0.3,17.45 0.3,24.95 -4.3,24.95"/>
<polygon id="00000223BBFF23F0" class="l35d0" points="-3.3,21.15 -3.3,23.75 -0.7,23.75 -0.7,21.15"/>
<polygon id="00000223BBFF1F20" class="l36d0" points="-4.5,19.95 -4.5,24.95 0.5,24.95 0.5,19.95"/>
<polygon id="00000223BBFF1510" class="l34d0" points="-4.5,19.95 -4.5,24.95 0.5,24.95 0.5,19.95"/>
<polygon id="00000223BBFF1900" class="l30d0" points="-9.8,-27.95 -4.8,-27.95 -4.8,-24.95 -9.8,-24.95"/>
<polygon id="00000223BBFF1970" class="l34d0" points="-14.9,17.45 -10.3,17.45 -10.3,32.95 -14.9,32.95"/>
<polygon id="00000223BBFF1AC0" class="l35d0" points="-13.9,29.15 -13.9,31.75 -11.3,31.75 -11.3,29.15"/>
<polygon id="00000223BBFF1B30" class="l36d0" points="-15.1,27.95 -15.1,32.95 -10.1,32.95 -10.1,27.95"/>
<polygon id="00000223BBFF1BA0" class="l34d0" points="-15.1,27.95 -15.1,32.95 -10.1,32.95 -10.1,27.95"/>
<polygon id="00000223BBFF4A70" class="l30d0" points="-20.4,-27.95 -15.4,-27.95 -15.4,-24.95 -20.4,-24.95"/>
<polygon id="00000223BBFF4370" class="l34d0" points="-25.5,17.45 -20.9,17.45 -20.9,24.95 -25.5,24.95"/>
</g>
<g id="straight_route_2829e4ba$11">
<polygon id="00000223BBFF3110" class="l36d0" points="23.4,-32.95 67.3,-32.95 67.3,-27.95 23.4,-27.95"/>
</g>
<g id="c_route_9aa1326b$9">
<polygon id="00000223BBFF3C70" class="l36d0" points="110.3,-32.95 125.6,-32.95 125.6,-27.95 110.3,-27.95"/>
<polygon id="00000223BBFF4060" class="l38d0" points="121.8,-31.75 121.8,-29.15 124.4,-29.15 124.4,-31.75"/>
<polygon id="00000223BBFF33B0" class="l42d0" points="120.6,-32.95 120.6,-27.95 125.6,-27.95 125.6,-32.95"/>
<polygon id="00000223BBFF3E30" class="l36d0" points="120.6,-32.95 120.6,-27.95 125.6,-27.95 125.6,-32.95"/>
<polygon id="00000223BBFF43E0" class="l42d0" points="125.6,-32.95 125.6,-32.95 125.6,-27.95 125.6,-27.95"/>
<polygon id="00000223BBFF4290" class="l42d0" points="125.6,27.95 125.6,27.95 125.6,32.95 125.6,32.95"/>
<polygon id="00000223BBFF44C0" class="l42d0" points="120.6,-32.95 125.6,-32.95 125.6,32.95 120.6,32.95"/>
<polygon id="00000223BBFF3810" class="l36d0" points="115.6,27.95 125.6,27.95 125.6,32.95 115.6,32.95"/>
<polygon id="00000223BBFF4680" class="l38d0" points="121.8,29.15 121.8,31.75 124.4,31.75 124.4,29.15"/>
<polygon id="00000223BBFF3D50" class="l42d0" points="120.6,27.95 120.6,32.95 125.6,32.95 125.6,27.95"/>
<polygon id="00000223BBFF4530" class="l36d0" points="120.6,27.95 120.6,32.95 125.6,32.95 125.6,27.95"/>
</g>
</defs>
<rect x="-39.99" y="-47.24" width="287.98" height="94.48" fill="#222222" stroke="none"/>
<g id="Unnamed_f3a62345" transform="scale(1 -1)">
<use transform="translate(3 0)" xlink:href="#Unnamed_41bc7375"/>
<use transform="translate(102.5 0)" xlink:href="#Unnamed_53f1817a"/>
<use transform="translate(59.5 0)" xlink:href="#Unnamed_45c7a214"/>
<use transform="translate(150.5 0)" xlink:href="#Unnamed_772fb118"/>
<use transform="translate(205 0)" xlink:href="#Unnamed_9c785c52"/>
<use transform="translate(0 0)" xlink:href="#c_route_9aa1326b$9"/>
<use transform="translate(0 0)" xlink:href="#straight_route_2829e4ba$11"/>
<use transform="translate(0 0)" xlink:href="#straight_route_b5cc9ba1$9"/>
<use transform="translate(0 0)" xlink:href="#straight_route_cd1fb00b$6"/>
<use transform="translate(0 0)" xlink:href="#straight_route_bffc7de1$2"/>
<use transform="translate(0 0)" xlink:href="#straight_route_972a9a5e$11"/>
<use transform="translate(0 0)" xlink:href="#straight_route_5887be18$9"/>
<use transform="translate(0 0)" xlink:href="#straight_route_1a6abb47$6"/>
<use transform="translate(0 0)" xlink:href="#straight_route_276cea24$2"/>
</g>
</svg>
