<?xml version='1.0' encoding='ASCII' standalone='yes'?>
<svg xmlns="http://www.w3.org/2000/svg" xmlns:xlink="http://www.w3.org/1999/xlink" width="390.15000000000003" height="496.65000000000003" viewBox="-65.025 -79.425 130.05 165.55">
<defs>
<style type="text/css">
.l64d44 {stroke: #E25822; fill: #E25822; fill-opacity: 0.5;}
.l67d44 {stroke: #875692; fill: #875692; fill-opacity: 0.5;}
.l66d44 {stroke: #F3C300; fill: #F3C300; fill-opacity: 0.5;}
.l68d44 {stroke: #F38400; fill: #F38400; fill-opacity: 0.5;}
.l95d20 {stroke: #654522; fill: #654522; fill-opacity: 0.5;}
.l65d20 {stroke: #008856; fill: #008856; fill-opacity: 0.5;}
.l67d20 {stroke: #0067A5; fill: #0067A5; fill-opacity: 0.5;}
.l66d20 {stroke: #E68FAC; fill: #E68FAC; fill-opacity: 0.5;}
.l93d44 {stroke: #008856; fill: #008856; fill-opacity: 0.5;}
.l68d20 {stroke: #F99379; fill: #F99379; fill-opacity: 0.5;}
.l69d20 {stroke: #604E97; fill: #604E97; fill-opacity: 0.5;}
</style>
</defs>
<rect x="-65.025" y="-79.425" width="130.05" height="165.55" fill="#222222" stroke="none"/>
<g id="diff_pair_471429cf$1" transform="scale(1 -1)">
<polygon id="00000190DB8A0940" class="l64d44" points="-57.5,-78.6 57.5,-78.6 57.5,71.9 -57.5,71.9"/>
<polygon id="00000190DB8A08D0" class="l64d44" points="-34.7,8.25 -0.1,8.25 -0.1,60.5 -34.7,60.5"/>
<polygon id="00000190DB8A0320" class="l66d20" points="-9.45,17.55 -9.45,52.55 -7.95,52.55 -7.95,17.55"/>
<polygon id="00000190DB8A1120" class="l66d44" points="-6.3,24 -6.3,25.7 -4.6,25.7 -4.6,24"/>
<polygon id="00000190DB8A0780" class="l67d20" points="-7.1,23.2 -7.1,26.5 -3.8,26.5 -3.8,23.2"/>
<polygon id="00000190DB8A1820" class="l67d20" points="-7.1,26.6 -7.1,29.9 -3.8,29.9 -3.8,26.6"/>
<polygon id="00000190DB89FEC0" class="l66d44" points="-6.3,44.4 -6.3,46.1 -4.6,46.1 -4.6,44.4"/>
<polygon id="00000190DB8A1580" class="l67d20" points="-7.1,43.6 -7.1,46.9 -3.8,46.9 -3.8,43.6"/>
<polygon id="00000190DB8A17B0" class="l66d44" points="-6.3,27.4 -6.3,29.1 -4.6,29.1 -4.6,27.4"/>
<polygon id="00000190DB8A1890" class="l66d44" points="-6.3,41 -6.3,42.7 -4.6,42.7 -4.6,41"/>
<polygon id="00000190DB8A14A0" class="l67d20" points="-7.1,40.2 -7.1,43.5 -3.8,43.5 -3.8,40.2"/>
<polygon id="00000190DB8A0010" class="l67d20" points="-7.1,30 -7.1,33.3 -3.8,33.3 -3.8,30"/>
<polygon id="00000190DB8A1190" class="l66d44" points="-6.3,37.6 -6.3,39.3 -4.6,39.3 -4.6,37.6"/>
<polygon id="00000190DB8A1510" class="l67d20" points="-7.1,36.8 -7.1,40.1 -3.8,40.1 -3.8,36.8"/>
<polygon id="00000190DB8A0D30" class="l66d44" points="-6.3,30.8 -6.3,32.5 -4.6,32.5 -4.6,30.8"/>
<polygon id="00000190DB8A0550" class="l66d44" points="-6.3,34.2 -6.3,35.9 -4.6,35.9 -4.6,34.2"/>
<polygon id="00000190DB8A0A20" class="l67d20" points="-7.1,33.4 -7.1,36.7 -3.8,36.7 -3.8,33.4"/>
<polygon id="00000190DB89FD00" class="l67d20" points="-7.1,20.05 -7.1,50.05 -3.8,50.05 -3.8,20.05"/>
<polygon id="00000190DB8A0630" class="l67d44" points="-6.3,21.6 -6.3,23.3 -4.6,23.3 -4.6,21.6"/>
<polygon id="00000190DB8A0E10" class="l68d20" points="-6.9,21 -6.9,23.9 -4,23.9 -4,21"/>
<polygon id="00000190DB8A0390" class="l67d20" points="-6.3,21.6 -6.3,23.3 -4.6,23.3 -4.6,21.6"/>
<polygon id="00000190DB89FF30" class="l67d44" points="-6.3,46.8 -6.3,48.5 -4.6,48.5 -4.6,46.8"/>
<polygon id="00000190DB8A0B00" class="l68d20" points="-6.9,46.2 -6.9,49.1 -4,49.1 -4,46.2"/>
<polygon id="00000190DB8A0400" class="l67d20" points="-6.3,46.8 -6.3,48.5 -4.6,48.5 -4.6,46.8"/>
<polygon id="00000190DB8A05C0" class="l67d44" points="-6.3,43.2 -6.3,44.9 -4.6,44.9 -4.6,43.2"/>
<polygon id="00000190DB8A0470" class="l68d20" points="-6.9,42.6 -6.9,45.5 -4,45.5 -4,42.6"/>
<polygon id="00000190DB89FDE0" class="l67d20" points="-6.3,43.2 -6.3,44.9 -4.6,44.9 -4.6,43.2"/>
<polygon id="00000190DB8A15F0" class="l67d44" points="-6.3,39.6 -6.3,41.3 -4.6,41.3 -4.6,39.6"/>
<polygon id="00000190DB8A12E0" class="l68d20" points="-6.9,39 -6.9,41.9 -4,41.9 -4,39"/>
<polygon id="00000190DB8A0BE0" class="l67d20" points="-6.3,39.6 -6.3,41.3 -4.6,41.3 -4.6,39.6"/>
<polygon id="00000190DB8A1350" class="l67d44" points="-6.3,36 -6.3,37.7 -4.6,37.7 -4.6,36"/>
<polygon id="00000190DB89FD70" class="l68d20" points="-6.9,35.4 -6.9,38.3 -4,38.3 -4,35.4"/>
<polygon id="00000190DB8A13C0" class="l67d20" points="-6.3,36 -6.3,37.7 -4.6,37.7 -4.6,36"/>
<polygon id="00000190DB8A04E0" class="l67d44" points="-6.3,32.4 -6.3,34.1 -4.6,34.1 -4.6,32.4"/>
<polygon id="00000190DB8A0710" class="l68d20" points="-6.9,31.8 -6.9,34.7 -4,34.7 -4,31.8"/>
<polygon id="00000190DB8A1660" class="l67d20" points="-6.3,32.4 -6.3,34.1 -4.6,34.1 -4.6,32.4"/>
<polygon id="00000190DB8A06A0" class="l67d44" points="-6.3,28.8 -6.3,30.5 -4.6,30.5 -4.6,28.8"/>
<polygon id="00000190DB8A1430" class="l68d20" points="-6.9,28.2 -6.9,31.1 -4,31.1 -4,28.2"/>
<polygon id="00000190DB8A16D0" class="l67d20" points="-6.3,28.8 -6.3,30.5 -4.6,30.5 -4.6,28.8"/>
<polygon id="00000190DB8A0A90" class="l67d44" points="-6.3,25.2 -6.3,26.9 -4.6,26.9 -4.6,25.2"/>
<polygon id="00000190DB8A0B70" class="l68d20" points="-6.9,24.6 -6.9,27.5 -4,27.5 -4,24.6"/>
<polygon id="00000190DB8A1270" class="l67d20" points="-6.3,25.2 -6.3,26.9 -4.6,26.9 -4.6,25.2"/>
<polygon id="00000190DB8A07F0" class="l68d20" points="-6.9,20.05 -6.9,50.05 -4,50.05 -4,20.05"/>
<polygon id="00000190DB8A0160" class="l67d20" points="-6.3,21.6 -6.3,48.5 -4.6,48.5 -4.6,21.6"/>
<polygon id="00000190DB8A0C50" class="l66d44" points="-12.8,24 -12.8,25.7 -11.1,25.7 -11.1,24"/>
<polygon id="00000190DB8A0860" class="l67d20" points="-13.6,23.2 -13.6,26.5 -10.3,26.5 -10.3,23.2"/>
<polygon id="00000190DB8A0080" class="l67d20" points="-13.6,26.6 -13.6,29.9 -10.3,29.9 -10.3,26.6"/>
<polygon id="00000190DB8A1740" class="l66d44" points="-12.8,44.4 -12.8,46.1 -11.1,46.1 -11.1,44.4"/>
<polygon id="00000190DB8A09B0" class="l67d20" points="-13.6,43.6 -13.6,46.9 -10.3,46.9 -10.3,43.6"/>
<polygon id="00000190DB89FE50" class="l66d44" points="-12.8,27.4 -12.8,29.1 -11.1,29.1 -11.1,27.4"/>
<polygon id="00000190DB8A0CC0" class="l66d44" points="-12.8,41 -12.8,42.7 -11.1,42.7 -11.1,41"/>
<polygon id="00000190DB8A0DA0" class="l67d20" points="-13.6,40.2 -13.6,43.5 -10.3,43.5 -10.3,40.2"/>
<polygon id="00000190DB89FFA0" class="l67d20" points="-13.6,30 -13.6,33.3 -10.3,33.3 -10.3,30"/>
<polygon id="00000190DB8A01D0" class="l66d44" points="-12.8,37.6 -12.8,39.3 -11.1,39.3 -11.1,37.6"/>
<polygon id="00000190DB8A00F0" class="l67d20" points="-13.6,36.8 -13.6,40.1 -10.3,40.1 -10.3,36.8"/>
<polygon id="00000190DB8A02B0" class="l66d44" points="-12.8,30.8 -12.8,32.5 -11.1,32.5 -11.1,30.8"/>
<polygon id="00000190DB8A0E80" class="l66d44" points="-12.8,34.2 -12.8,35.9 -11.1,35.9 -11.1,34.2"/>
<polygon id="00000190DB8A0EF0" class="l67d20" points="-13.6,33.4 -13.6,36.7 -10.3,36.7 -10.3,33.4"/>
<polygon id="00000190DB8A0F60" class="l67d20" points="-13.6,20.05 -13.6,50.05 -10.3,50.05 -10.3,20.05"/>
<polygon id="00000190DB8A0FD0" class="l67d44" points="-12.8,21.6 -12.8,23.3 -11.1,23.3 -11.1,21.6"/>
<polygon id="00000190DB8A1040" class="l68d20" points="-13.4,21 -13.4,23.9 -10.5,23.9 -10.5,21"/>
<polygon id="00000190DB8A10B0" class="l67d20" points="-12.8,21.6 -12.8,23.3 -11.1,23.3 -11.1,21.6"/>
<polygon id="00000190DB8A1200" class="l67d44" points="-12.8,46.8 -12.8,48.5 -11.1,48.5 -11.1,46.8"/>
<polygon id="00000190DB8A0240" class="l68d20" points="-13.4,46.2 -13.4,49.1 -10.5,49.1 -10.5,46.2"/>
<polygon id="00000190DB8A3260" class="l67d20" points="-12.8,46.8 -12.8,48.5 -11.1,48.5 -11.1,46.8"/>
<polygon id="00000190DB8A2EE0" class="l67d44" points="-12.8,43.2 -12.8,44.9 -11.1,44.9 -11.1,43.2"/>
<polygon id="00000190DB8A23F0" class="l68d20" points="-13.4,42.6 -13.4,45.5 -10.5,45.5 -10.5,42.6"/>
<polygon id="00000190DB8A33B0" class="l67d20" points="-12.8,43.2 -12.8,44.9 -11.1,44.9 -11.1,43.2"/>
<polygon id="00000190DB8A3180" class="l67d44" points="-12.8,39.6 -12.8,41.3 -11.1,41.3 -11.1,39.6"/>
<polygon id="00000190DB8A2C40" class="l68d20" points="-13.4,39 -13.4,41.9 -10.5,41.9 -10.5,39"/>
<polygon id="00000190DB8A2620" class="l67d20" points="-12.8,39.6 -12.8,41.3 -11.1,41.3 -11.1,39.6"/>
<polygon id="00000190DB8A2AF0" class="l67d44" points="-12.8,36 -12.8,37.7 -11.1,37.7 -11.1,36"/>
<polygon id="00000190DB8A29A0" class="l68d20" points="-13.4,35.4 -13.4,38.3 -10.5,38.3 -10.5,35.4"/>
<polygon id="00000190DB8A2070" class="l67d20" points="-12.8,36 -12.8,37.7 -11.1,37.7 -11.1,36"/>
<polygon id="00000190DB8A2F50" class="l67d44" points="-12.8,32.4 -12.8,34.1 -11.1,34.1 -11.1,32.4"/>
<polygon id="00000190DB8A2FC0" class="l68d20" points="-13.4,31.8 -13.4,34.7 -10.5,34.7 -10.5,31.8"/>
<polygon id="00000190DB8A24D0" class="l67d20" points="-12.8,32.4 -12.8,34.1 -11.1,34.1 -11.1,32.4"/>
<polygon id="00000190DB8A30A0" class="l67d44" points="-12.8,28.8 -12.8,30.5 -11.1,30.5 -11.1,28.8"/>
<polygon id="00000190DB8A2B60" class="l68d20" points="-13.4,28.2 -13.4,31.1 -10.5,31.1 -10.5,28.2"/>
<polygon id="00000190DB8A2BD0" class="l67d20" points="-12.8,28.8 -12.8,30.5 -11.1,30.5 -11.1,28.8"/>
<polygon id="00000190DB8A1CF0" class="l67d44" points="-12.8,25.2 -12.8,26.9 -11.1,26.9 -11.1,25.2"/>
<polygon id="00000190DB8A21C0" class="l68d20" points="-13.4,24.6 -13.4,27.5 -10.5,27.5 -10.5,24.6"/>
<polygon id="00000190DB8A31F0" class="l67d20" points="-12.8,25.2 -12.8,26.9 -11.1,26.9 -11.1,25.2"/>
<polygon id="00000190DB8A3030" class="l68d20" points="-13.4,20.05 -13.4,50.05 -10.5,50.05 -10.5,20.05"/>
<polygon id="00000190DB8A2930" class="l67d20" points="-12.8,21.6 -12.8,48.5 -11.1,48.5 -11.1,21.6"/>
<polygon id="00000190DB8A2460" class="l93d44" points="-15.5,18.75 -15.5,51.35 -1.9,51.35 -1.9,18.75"/>
<polygon id="00000190DB8A1BA0" class="l65d20" points="-14.2,20.05 -14.2,50.05 -3.2,50.05 -3.2,20.05"/>
<polygon id="00000190DB8A20E0" class="l67d44" points="-12.8,52.1 -12.8,53.8 -11.1,53.8 -11.1,52.1"/>
<polygon id="00000190DB8A2A10" class="l68d20" points="-13.4,51.5 -13.4,54.4 -10.5,54.4 -10.5,51.5"/>
<polygon id="00000190DB8A1F90" class="l67d20" points="-12.8,52.1 -12.8,53.8 -11.1,53.8 -11.1,52.1"/>
<polygon id="00000190DB8A2540" class="l66d20" points="-26.85,17.55 -26.85,52.55 -25.35,52.55 -25.35,17.55"/>
<polygon id="00000190DB8A2A80" class="l66d44" points="-23.7,24 -23.7,25.7 -22,25.7 -22,24"/>
<polygon id="00000190DB8A2150" class="l67d20" points="-24.5,23.2 -24.5,26.5 -21.2,26.5 -21.2,23.2"/>
<polygon id="00000190DB8A32D0" class="l67d20" points="-24.5,26.6 -24.5,29.9 -21.2,29.9 -21.2,26.6"/>
<polygon id="00000190DB8A2770" class="l66d44" points="-23.7,44.4 -23.7,46.1 -22,46.1 -22,44.4"/>
<polygon id="00000190DB8A25B0" class="l67d20" points="-24.5,43.6 -24.5,46.9 -21.2,46.9 -21.2,43.6"/>
<polygon id="00000190DB8A2690" class="l66d44" points="-23.7,27.4 -23.7,29.1 -22,29.1 -22,27.4"/>
<polygon id="00000190DB8A2310" class="l66d44" points="-23.7,41 -23.7,42.7 -22,42.7 -22,41"/>
<polygon id="00000190DB8A1D60" class="l67d20" points="-24.5,40.2 -24.5,43.5 -21.2,43.5 -21.2,40.2"/>
<polygon id="00000190DB8A1C10" class="l67d20" points="-24.5,30 -24.5,33.3 -21.2,33.3 -21.2,30"/>
<polygon id="00000190DB8A2230" class="l66d44" points="-23.7,37.6 -23.7,39.3 -22,39.3 -22,37.6"/>
<polygon id="00000190DB8A2700" class="l67d20" points="-24.5,36.8 -24.5,40.1 -21.2,40.1 -21.2,36.8"/>
<polygon id="00000190DB8A3110" class="l66d44" points="-23.7,30.8 -23.7,32.5 -22,32.5 -22,30.8"/>
<polygon id="00000190DB8A2CB0" class="l66d44" points="-23.7,34.2 -23.7,35.9 -22,35.9 -22,34.2"/>
<polygon id="00000190DB8A27E0" class="l67d20" points="-24.5,33.4 -24.5,36.7 -21.2,36.7 -21.2,33.4"/>
<polygon id="00000190DB8A2E00" class="l67d20" points="-24.5,20.05 -24.5,50.05 -21.2,50.05 -21.2,20.05"/>
<polygon id="00000190DB8A3340" class="l66d44" points="-30.2,24 -30.2,25.7 -28.5,25.7 -28.5,24"/>
<polygon id="00000190DB8A1A50" class="l67d20" points="-31,23.2 -31,26.5 -27.7,26.5 -27.7,23.2"/>
<polygon id="00000190DB8A2D20" class="l67d20" points="-31,26.6 -31,29.9 -27.7,29.9 -27.7,26.6"/>
<polygon id="00000190DB8A2380" class="l66d44" points="-30.2,44.4 -30.2,46.1 -28.5,46.1 -28.5,44.4"/>
<polygon id="00000190DB8A22A0" class="l67d20" points="-31,43.6 -31,46.9 -27.7,46.9 -27.7,43.6"/>
<polygon id="00000190DB8A1EB0" class="l66d44" points="-30.2,27.4 -30.2,29.1 -28.5,29.1 -28.5,27.4"/>
<polygon id="00000190DB8A2850" class="l66d44" points="-30.2,41 -30.2,42.7 -28.5,42.7 -28.5,41"/>
<polygon id="00000190DB8A2D90" class="l67d20" points="-31,40.2 -31,43.5 -27.7,43.5 -27.7,40.2"/>
<polygon id="00000190DB8A28C0" class="l67d20" points="-31,30 -31,33.3 -27.7,33.3 -27.7,30"/>
<polygon id="00000190DB8A1C80" class="l66d44" points="-30.2,37.6 -30.2,39.3 -28.5,39.3 -28.5,37.6"/>
<polygon id="00000190DB8A2E70" class="l67d20" points="-31,36.8 -31,40.1 -27.7,40.1 -27.7,36.8"/>
<polygon id="00000190DB8A3420" class="l66d44" points="-30.2,30.8 -30.2,32.5 -28.5,32.5 -28.5,30.8"/>
<polygon id="00000190DB8A3490" class="l66d44" points="-30.2,34.2 -30.2,35.9 -28.5,35.9 -28.5,34.2"/>
<polygon id="00000190DB8A1900" class="l67d20" points="-31,33.4 -31,36.7 -27.7,36.7 -27.7,33.4"/>
<polygon id="00000190DB8A1970" class="l67d20" points="-31,20.05 -31,50.05 -27.7,50.05 -27.7,20.05"/>
<polygon id="00000190DB8A19E0" class="l93d44" points="-32.9,18.75 -32.9,51.35 -19.3,51.35 -19.3,18.75"/>
<polygon id="00000190DB8A1AC0" class="l65d20" points="-31.6,20.05 -31.6,50.05 -20.6,50.05 -20.6,20.05"/>
<polygon id="00000190DB8A1B30" class="l66d44" points="-26.95,15.05 -26.95,16.75 -25.25,16.75 -25.25,15.05"/>
<polygon id="00000190DB8A1DD0" class="l66d20" points="-27.75,14.25 -27.75,17.55 -24.45,17.55 -24.45,14.25"/>
<polygon id="00000190DB8A1E40" class="l67d20" points="-27.75,14.25 -27.75,17.55 -24.45,17.55 -24.45,14.25"/>
<polygon id="00000190DB8A1F20" class="l66d20" points="-27.75,14.25 -27.75,17.55 -24.45,17.55 -24.45,14.25"/>
<polygon id="00000190DB8A2000" class="l95d20" points="-27.95,14.05 -24.25,14.05 -24.25,17.75 -27.95,17.75"/>
<polygon id="00000190DB8A3AB0" class="l67d20" points="-31,14.25 -27.75,14.25 -27.75,17.55 -31,17.55"/>
<polygon id="00000190DB8A4530" class="l67d20" points="-31,14.25 -27.7,14.25 -27.7,20.05 -31,20.05"/>
<polygon id="00000190DB8A3B90" class="l67d20" points="-24.45,14.25 -21.2,14.25 -21.2,17.55 -24.45,17.55"/>
<polygon id="00000190DB8A4060" class="l67d20" points="-24.5,14.25 -21.2,14.25 -21.2,20.05 -24.5,20.05"/>
<polygon id="00000190DB8A45A0" class="l68d20" points="-13.4,55.8 -13.4,58.7 -4,58.7 -4,55.8"/>
<polygon id="00000190DB8A3D50" class="l68d20" points="-13.4,51.5 -13.4,54.4 -4,54.4 -4,51.5"/>
<polygon id="00000190DB8A4ED0" class="l66d44" points="-9.55,11.05 -9.55,12.75 -7.85,12.75 -7.85,11.05"/>
<polygon id="00000190DB8A4370" class="l68d20" points="-10.15,10.45 -10.15,13.35 -7.25,13.35 -7.25,10.45"/>
<polygon id="00000190DB8A4140" class="l67d20" points="-10.35,10.25 -10.35,13.55 -7.05,13.55 -7.05,10.25"/>
<polygon id="00000190DB8A41B0" class="l67d44" points="-9.55,11.05 -9.55,12.75 -7.85,12.75 -7.85,11.05"/>
<polygon id="00000190DB8A3F10" class="l66d20" points="-10.35,10.25 -10.35,13.55 -7.05,13.55 -7.05,10.25"/>
<polygon id="00000190DB8A3960" class="l68d20" points="-10.35,10.25 -10.35,13.55 -7.05,13.55 -7.05,10.25"/>
<polygon id="00000190DB8A3810" class="l66d20" points="-10.35,10.25 -10.35,13.55 -7.05,13.55 -7.05,10.25"/>
<polygon id="00000190DB8A3E30" class="l95d20" points="-10.55,10.05 -6.85,10.05 -6.85,13.75 -10.55,13.75"/>
<polygon id="00000190DB8A4220" class="l67d20" points="-7.1,50.05 -3.8,50.05 -3.8,58.1 -7.1,58.1"/>
<polygon id="00000190DB8A4B50" class="l67d44" points="-6.3,56.4 -6.3,58.1 -4.6,58.1 -4.6,56.4"/>
<polygon id="00000190DB8A4680" class="l68d20" points="-6.9,55.8 -6.9,58.7 -4,58.7 -4,55.8"/>
<polygon id="00000190DB8A4290" class="l67d20" points="-6.3,56.4 -6.3,58.1 -4.6,58.1 -4.6,56.4"/>
<polygon id="00000190DB8A4A00" class="l66d20" points="-9.45,13.55 -7.95,13.55 -7.95,17.55 -9.45,17.55"/>
<polygon id="00000190DB8A4AE0" class="l67d20" points="-13.6,50.05 -10.3,50.05 -10.3,53.8 -13.6,53.8"/>
<polygon id="00000190DB8A36C0" class="l68d20" points="7.05,-13.55 57.5,-13.55 57.5,-10.25 7.05,-10.25"/>
<polygon id="00000190DB8A4920" class="l68d44" points="54.6,-13.15 54.6,-11.65 56.1,-11.65 56.1,-13.15"/>
<polygon id="00000190DB8A3F80" class="l69d20" points="53.7,-14.05 53.7,-10.75 57,-10.75 57,-14.05"/>
<polygon id="00000190DB8A3C70" class="l68d20" points="53.2,-14.55 53.2,-10.25 57.5,-10.25 57.5,-14.55"/>
<polygon id="00000190DB8A3B20" class="l69d20" points="57,-14.05 57,-14.05 57,-10.75 57,-10.75"/>
<polygon id="00000190DB8A3DC0" class="l69d20" points="57,62.4 57,62.4 57,65.7 57,65.7"/>
<polygon id="00000190DB8A47D0" class="l69d20" points="53.7,-14.05 57,-14.05 57,65.7 53.7,65.7"/>
<polygon id="00000190DB8A40D0" class="l68d20" points="34.7,61.9 57.5,61.9 57.5,65.2 34.7,65.2"/>
<polygon id="00000190DB8A37A0" class="l68d44" points="54.6,63.3 54.6,64.8 56.1,64.8 56.1,63.3"/>
<polygon id="00000190DB8A46F0" class="l69d20" points="53.7,62.4 53.7,65.7 57,65.7 57,62.4"/>
<polygon id="00000190DB8A5020" class="l68d20" points="53.2,61.9 53.2,66.2 57.5,66.2 57.5,61.9"/>
<polygon id="00000190DB8A5090" class="l68d20" points="-57.5,-13.55 -7.05,-13.55 -7.05,-10.25 -57.5,-10.25"/>
<polygon id="00000190DB8A4A70" class="l68d44" points="-56.1,-13.15 -56.1,-11.65 -54.6,-11.65 -54.6,-13.15"/>
<polygon id="00000190DB8A3CE0" class="l69d20" points="-57,-14.05 -57,-10.75 -53.7,-10.75 -53.7,-14.05"/>
<polygon id="00000190DB8A43E0" class="l68d20" points="-57.5,-14.55 -57.5,-10.25 -53.2,-10.25 -53.2,-14.55"/>
<polygon id="00000190DB8A3FF0" class="l69d20" points="-53.7,-14.05 -53.7,-14.05 -53.7,-10.75 -53.7,-10.75"/>
<polygon id="00000190DB8A3880" class="l69d20" points="-53.7,68.1 -53.7,68.1 -53.7,71.4 -53.7,71.4"/>
<polygon id="00000190DB8A4C30" class="l69d20" points="-57,-14.05 -53.7,-14.05 -53.7,71.4 -57,71.4"/>
<polygon id="00000190DB8A39D0" class="l68d20" points="-57.5,67.6 -34.7,67.6 -34.7,70.9 -57.5,70.9"/>
<polygon id="00000190DB8A4300" class="l68d44" points="-56.1,69 -56.1,70.5 -54.6,70.5 -54.6,69"/>
<polygon id="00000190DB8A3C00" class="l69d20" points="-57,68.1 -57,71.4 -53.7,71.4 -53.7,68.1"/>
<polygon id="00000190DB8A4990" class="l68d20" points="-57.5,67.6 -57.5,71.9 -53.2,71.9 -53.2,67.6"/>
<polygon id="00000190DB8A4450" class="l68d20" points="10.35,10.25 51.8,10.25 51.8,13.55 10.35,13.55"/>
<polygon id="00000190DB8A44C0" class="l68d44" points="48.9,10.65 48.9,12.15 50.4,12.15 50.4,10.65"/>
<polygon id="00000190DB8A4BC0" class="l69d20" points="48,9.75 48,13.05 51.3,13.05 51.3,9.75"/>
<polygon id="00000190DB8A4760" class="l68d20" points="47.5,9.25 47.5,13.55 51.8,13.55 51.8,9.25"/>
<polygon id="00000190DB8A48B0" class="l69d20" points="51.3,9.75 51.3,9.75 51.3,13.05 51.3,13.05"/>
<polygon id="00000190DB8A4CA0" class="l69d20" points="51.3,68.1 51.3,68.1 51.3,71.4 51.3,71.4"/>
<polygon id="00000190DB8A3500" class="l69d20" points="48,9.75 51.3,9.75 51.3,71.4 48,71.4"/>
<polygon id="00000190DB8A4D10" class="l68d20" points="34.7,67.6 51.8,67.6 51.8,70.9 34.7,70.9"/>
<polygon id="00000190DB8A3EA0" class="l68d44" points="48.9,69 48.9,70.5 50.4,70.5 50.4,69"/>
<polygon id="00000190DB8A4DF0" class="l69d20" points="48,68.1 48,71.4 51.3,71.4 51.3,68.1"/>
<polygon id="00000190DB8A4F40" class="l68d20" points="47.5,67.6 47.5,71.9 51.8,71.9 51.8,67.6"/>
<polygon id="00000190DB8A3570" class="l68d20" points="-34.7,67.6 -34.7,70.9 34.7,70.9 34.7,67.6"/>
<polygon id="00000190DB8A35E0" class="l68d20" points="-51.8,10.25 -10.35,10.25 -10.35,13.55 -51.8,13.55"/>
<polygon id="00000190DB8A3730" class="l68d44" points="-50.4,10.65 -50.4,12.15 -48.9,12.15 -48.9,10.65"/>
<polygon id="00000190DB8A5F70" class="l69d20" points="-51.3,9.75 -51.3,13.05 -48,13.05 -48,9.75"/>
<polygon id="00000190DB8A5DB0" class="l68d20" points="-51.8,9.25 -51.8,13.55 -47.5,13.55 -47.5,9.25"/>
<polygon id="00000190DB8A67C0" class="l69d20" points="-48,9.75 -48,9.75 -48,13.05 -48,13.05"/>
<polygon id="00000190DB8A5100" class="l69d20" points="-48,62.4 -48,62.4 -48,65.7 -48,65.7"/>
<polygon id="00000190DB8A6C20" class="l69d20" points="-51.3,9.75 -48,9.75 -48,65.7 -51.3,65.7"/>
<polygon id="00000190DB8A53A0" class="l68d20" points="-51.8,61.9 -34.7,61.9 -34.7,65.2 -51.8,65.2"/>
<polygon id="00000190DB8A5950" class="l68d44" points="-50.4,63.3 -50.4,64.8 -48.9,64.8 -48.9,63.3"/>
<polygon id="00000190DB8A5BF0" class="l69d20" points="-51.3,62.4 -51.3,65.7 -48,65.7 -48,62.4"/>
<polygon id="00000190DB8A6750" class="l68d20" points="-51.8,61.9 -51.8,66.2 -47.5,66.2 -47.5,61.9"/>
<polygon id="00000190DB8A6520" class="l68d20" points="-34.7,61.9 -34.7,65.2 34.7,65.2 34.7,61.9"/>
<polygon id="00000190DB8A6050" class="l68d20" points="-46.1,-77.2 10.85,-77.2 10.85,-74.3 -46.1,-74.3"/>
<polygon id="00000190DB8A59C0" class="l68d44" points="-44.7,-77.2 -44.7,-75.7 -43.2,-75.7 -43.2,-77.2"/>
<polygon id="00000190DB8A62F0" class="l69d20" points="-45.6,-78.1 -45.6,-74.8 -42.3,-74.8 -42.3,-78.1"/>
<polygon id="00000190DB8A5FE0" class="l68d20" points="-46.1,-78.6 -46.1,-74.3 -41.8,-74.3 -41.8,-78.6"/>
<polygon id="00000190DB8A56B0" class="l69d20" points="-42.3,-78.1 -42.3,-78.1 -42.3,-74.8 -42.3,-74.8"/>
<polygon id="00000190DB8A5CD0" class="l69d20" points="-42.3,56.3 -42.3,56.3 -42.3,59.6 -42.3,59.6"/>
<polygon id="00000190DB8A6830" class="l69d20" points="-45.6,-78.1 -42.3,-78.1 -42.3,59.6 -45.6,59.6"/>
<polygon id="00000190DB8A5720" class="l68d20" points="-46.1,55.8 -13.4,55.8 -13.4,58.7 -46.1,58.7"/>
<polygon id="00000190DB8A5B10" class="l68d44" points="-44.7,57.2 -44.7,58.7 -43.2,58.7 -43.2,57.2"/>
<polygon id="00000190DB8A6980" class="l69d20" points="-45.6,56.3 -45.6,59.6 -42.3,59.6 -42.3,56.3"/>
<polygon id="00000190DB8A5870" class="l68d20" points="-46.1,55.8 -46.1,60.1 -41.8,60.1 -41.8,55.8"/>
<polygon id="00000190DB8A68A0" class="l68d20" points="-10.85,-71.5 46.1,-71.5 46.1,-68.6 -10.85,-68.6"/>
<polygon id="00000190DB8A6910" class="l68d44" points="43.2,-71.5 43.2,-70 44.7,-70 44.7,-71.5"/>
<polygon id="00000190DB8A5E20" class="l69d20" points="42.3,-72.4 42.3,-69.1 45.6,-69.1 45.6,-72.4"/>
<polygon id="00000190DB8A5E90" class="l68d20" points="41.8,-72.9 41.8,-68.6 46.1,-68.6 46.1,-72.9"/>
<polygon id="00000190DB8A6670" class="l69d20" points="45.6,-72.4 45.6,-72.4 45.6,-69.1 45.6,-69.1"/>
<polygon id="00000190DB8A5A30" class="l69d20" points="45.6,56.3 45.6,56.3 45.6,59.6 45.6,59.6"/>
<polygon id="00000190DB8A5560" class="l69d20" points="42.3,-72.4 45.6,-72.4 45.6,59.6 42.3,59.6"/>
<polygon id="00000190DB8A5F00" class="l68d20" points="13.4,55.8 46.1,55.8 46.1,58.7 13.4,58.7"/>
<polygon id="00000190DB8A5B80" class="l68d44" points="43.2,57.2 43.2,58.7 44.7,58.7 44.7,57.2"/>
<polygon id="00000190DB8A5410" class="l69d20" points="42.3,56.3 42.3,59.6 45.6,59.6 45.6,56.3"/>
<polygon id="00000190DB8A66E0" class="l68d20" points="41.8,55.8 41.8,60.1 46.1,60.1 46.1,55.8"/>
<polygon id="00000190DB8A5AA0" class="l69d20" points="-10.35,-66.3 -10.35,-62.5 -7.05,-62.5 -7.05,-66.3"/>
<polygon id="00000190DB8A6B40" class="l69d20" points="7.05,-74.8 7.05,-62.5 10.35,-62.5 10.35,-74.8"/>
<polygon id="00000190DB8A60C0" class="l68d44" points="-9.45,-68.7 -9.45,-67.2 -7.95,-67.2 -7.95,-68.7"/>
<polygon id="00000190DB8A5C60" class="l69d20" points="-10.35,-69.6 -10.35,-66.3 -7.05,-66.3 -7.05,-69.6"/>
<polygon id="00000190DB8A5330" class="l68d20" points="-10.85,-70.1 -10.85,-65.8 -6.55,-65.8 -6.55,-70.1"/>
<polygon id="00000190DB8A55D0" class="l68d44" points="7.95,-77.2 7.95,-75.7 9.45,-75.7 9.45,-77.2"/>
<polygon id="00000190DB8A69F0" class="l69d20" points="7.05,-78.1 7.05,-74.8 10.35,-74.8 10.35,-78.1"/>
<polygon id="00000190DB8A5D40" class="l68d20" points="6.55,-78.6 6.55,-74.3 10.85,-74.3 10.85,-78.6"/>
<polygon id="00000190DB8A6130" class="l68d44" points="-9.45,-61.6 -9.45,-60.1 -7.95,-60.1 -7.95,-61.6"/>
<polygon id="00000190DB8A6BB0" class="l69d20" points="-10.35,-62.5 -10.35,-59.2 -7.05,-59.2 -7.05,-62.5"/>
<polygon id="00000190DB8A61A0" class="l68d20" points="-10.85,-63 -10.85,-58.7 -6.55,-58.7 -6.55,-63"/>
<polygon id="00000190DB8A5480" class="l68d44" points="7.95,-61.6 7.95,-60.1 9.45,-60.1 9.45,-61.6"/>
<polygon id="00000190DB8A6210" class="l69d20" points="7.05,-62.5 7.05,-59.2 10.35,-59.2 10.35,-62.5"/>
<polygon id="00000190DB8A6A60" class="l68d20" points="6.55,-63 6.55,-58.7 10.85,-58.7 10.85,-63"/>
<polygon id="00000190DB8A54F0" class="l68d20" points="-39,51.5 -13.4,51.5 -13.4,54.4 -39,54.4"/>
<polygon id="00000190DB8A6360" class="l68d44" points="-37.6,51.5 -37.6,53 -36.1,53 -36.1,51.5"/>
<polygon id="00000190DB8A6600" class="l69d20" points="-38.5,50.6 -38.5,53.9 -35.2,53.9 -35.2,50.6"/>
<polygon id="00000190DB8A6AD0" class="l68d20" points="-39,50.1 -39,54.4 -34.7,54.4 -34.7,50.1"/>
<polygon id="00000190DB8A6C90" class="l69d20" points="-35.2,-53.9 -35.2,-53.9 -35.2,-50.6 -35.2,-50.6"/>
<polygon id="00000190DB8A6280" class="l69d20" points="-35.2,50.6 -35.2,50.6 -35.2,53.9 -35.2,53.9"/>
<polygon id="00000190DB8A5170" class="l69d20" points="-38.5,-53.9 -35.2,-53.9 -35.2,53.9 -38.5,53.9"/>
<polygon id="00000190DB8A51E0" class="l68d20" points="-39,-54.4 -13.4,-54.4 -13.4,-51.5 -39,-51.5"/>
<polygon id="00000190DB8A6440" class="l68d44" points="-37.6,-53 -37.6,-51.5 -36.1,-51.5 -36.1,-53"/>
<polygon id="00000190DB8A63D0" class="l69d20" points="-38.5,-53.9 -38.5,-50.6 -35.2,-50.6 -35.2,-53.9"/>
<polygon id="00000190DB8A64B0" class="l68d20" points="-39,-54.4 -39,-50.1 -34.7,-50.1 -34.7,-54.4"/>
<polygon id="00000190DB8A6590" class="l68d20" points="13.4,51.5 39,51.5 39,54.4 13.4,54.4"/>
<polygon id="00000190DB8A58E0" class="l68d44" points="36.1,51.5 36.1,53 37.6,53 37.6,51.5"/>
<polygon id="00000190DB8A5250" class="l69d20" points="35.2,50.6 35.2,53.9 38.5,53.9 38.5,50.6"/>
<polygon id="00000190DB8A52C0" class="l68d20" points="34.7,50.1 34.7,54.4 39,54.4 39,50.1"/>
<polygon id="00000190DB8A5640" class="l69d20" points="38.5,-53.9 38.5,-53.9 38.5,-50.6 38.5,-50.6"/>
<polygon id="00000190DB8A5790" class="l69d20" points="38.5,50.6 38.5,50.6 38.5,53.9 38.5,53.9"/>
<polygon id="00000190DB8A5800" class="l69d20" points="35.2,-53.9 38.5,-53.9 38.5,53.9 35.2,53.9"/>
<polygon id="00000190DB8A7C50" class="l68d20" points="13.4,-54.4 39,-54.4 39,-51.5 13.4,-51.5"/>
<polygon id="00000190DB8A75C0" class="l68d44" points="36.1,-53 36.1,-51.5 37.6,-51.5 37.6,-53"/>
<polygon id="00000190DB8A7EF0" class="l69d20" points="35.2,-53.9 35.2,-50.6 38.5,-50.6 38.5,-53.9"/>
<polygon id="00000190DB8A7BE0" class="l68d20" points="34.7,-54.4 34.7,-50.1 39,-50.1 39,-54.4"/>
<polygon id="00000190DB8A72B0" class="l68d20" points="-4,-54.4 -4,-51.5 4,-51.5 4,-54.4"/>
<polygon id="00000190DB8A78D0" class="l68d20" points="-4,51.5 -4,54.4 4,54.4 4,51.5"/>
<polygon id="00000190DB8A8430" class="l64d44" points="-34.7,-8.25 -0.1,-8.25 -0.1,-60.5 -34.7,-60.5"/>
<polygon id="00000190DB8A7320" class="l66d20" points="-9.45,-17.55 -9.45,-52.55 -7.95,-52.55 -7.95,-17.55"/>
<polygon id="00000190DB8A7710" class="l66d44" points="-6.3,-24 -6.3,-25.7 -4.6,-25.7 -4.6,-24"/>
<polygon id="00000190DB8A8350" class="l67d20" points="-7.1,-23.2 -7.1,-26.5 -3.8,-26.5 -3.8,-23.2"/>
<polygon id="00000190DB8A6E50" class="l67d20" points="-7.1,-26.6 -7.1,-29.9 -3.8,-29.9 -3.8,-26.6"/>
<polygon id="00000190DB8A7D30" class="l66d44" points="-6.3,-44.4 -6.3,-46.1 -4.6,-46.1 -4.6,-44.4"/>
<polygon id="00000190DB8A87B0" class="l67d20" points="-7.1,-43.6 -7.1,-46.9 -3.8,-46.9 -3.8,-43.6"/>
<polygon id="00000190DB8A6D70" class="l66d44" points="-6.3,-27.4 -6.3,-29.1 -4.6,-29.1 -4.6,-27.4"/>
<polygon id="00000190DB8A84A0" class="l66d44" points="-6.3,-41 -6.3,-42.7 -4.6,-42.7 -4.6,-41"/>
<polygon id="00000190DB8A8660" class="l67d20" points="-7.1,-40.2 -7.1,-43.5 -3.8,-43.5 -3.8,-40.2"/>
<polygon id="00000190DB8A7860" class="l67d20" points="-7.1,-30 -7.1,-33.3 -3.8,-33.3 -3.8,-30"/>
<polygon id="00000190DB8A7780" class="l66d44" points="-6.3,-37.6 -6.3,-39.3 -4.6,-39.3 -4.6,-37.6"/>
<polygon id="00000190DB8A85F0" class="l67d20" points="-7.1,-36.8 -7.1,-40.1 -3.8,-40.1 -3.8,-36.8"/>
<polygon id="00000190DB8A6F30" class="l66d44" points="-6.3,-30.8 -6.3,-32.5 -4.6,-32.5 -4.6,-30.8"/>
<polygon id="00000190DB8A7390" class="l66d44" points="-6.3,-34.2 -6.3,-35.9 -4.6,-35.9 -4.6,-34.2"/>
<polygon id="00000190DB8A8510" class="l67d20" points="-7.1,-33.4 -7.1,-36.7 -3.8,-36.7 -3.8,-33.4"/>
<polygon id="00000190DB8A83C0" class="l67d20" points="-7.1,-20.05 -7.1,-50.05 -3.8,-50.05 -3.8,-20.05"/>
<polygon id="00000190DB8A8740" class="l67d44" points="-6.3,-21.6 -6.3,-23.3 -4.6,-23.3 -4.6,-21.6"/>
<polygon id="00000190DB8A8190" class="l68d20" points="-6.9,-21 -6.9,-23.9 -4,-23.9 -4,-21"/>
<polygon id="00000190DB8A7B00" class="l67d20" points="-6.3,-21.6 -6.3,-23.3 -4.6,-23.3 -4.6,-21.6"/>
<polygon id="00000190DB8A8120" class="l67d44" points="-6.3,-46.8 -6.3,-48.5 -4.6,-48.5 -4.6,-46.8"/>
<polygon id="00000190DB8A80B0" class="l68d20" points="-6.9,-46.2 -6.9,-49.1 -4,-49.1 -4,-46.2"/>
<polygon id="00000190DB8A82E0" class="l67d20" points="-6.3,-46.8 -6.3,-48.5 -4.6,-48.5 -4.6,-46.8"/>
<polygon id="00000190DB8A7400" class="l67d44" points="-6.3,-43.2 -6.3,-44.9 -4.6,-44.9 -4.6,-43.2"/>
<polygon id="00000190DB8A7630" class="l68d20" points="-6.9,-42.6 -6.9,-45.5 -4,-45.5 -4,-42.6"/>
<polygon id="00000190DB8A7B70" class="l67d20" points="-6.3,-43.2 -6.3,-44.9 -4.6,-44.9 -4.6,-43.2"/>
<polygon id="00000190DB8A77F0" class="l67d44" points="-6.3,-39.6 -6.3,-41.3 -4.6,-41.3 -4.6,-39.6"/>
<polygon id="00000190DB8A79B0" class="l68d20" points="-6.9,-39 -6.9,-41.9 -4,-41.9 -4,-39"/>
<polygon id="00000190DB8A7470" class="l67d20" points="-6.3,-39.6 -6.3,-41.3 -4.6,-41.3 -4.6,-39.6"/>
<polygon id="00000190DB8A7940" class="l67d44" points="-6.3,-36 -6.3,-37.7 -4.6,-37.7 -4.6,-36"/>
<polygon id="00000190DB8A7A20" class="l68d20" points="-6.9,-35.4 -6.9,-38.3 -4,-38.3 -4,-35.4"/>
<polygon id="00000190DB8A7240" class="l67d20" points="-6.3,-36 -6.3,-37.7 -4.6,-37.7 -4.6,-36"/>
<polygon id="00000190DB8A86D0" class="l67d44" points="-6.3,-32.4 -6.3,-34.1 -4.6,-34.1 -4.6,-32.4"/>
<polygon id="00000190DB8A7E10" class="l68d20" points="-6.9,-31.8 -6.9,-34.7 -4,-34.7 -4,-31.8"/>
<polygon id="00000190DB8A6EC0" class="l67d20" points="-6.3,-32.4 -6.3,-34.1 -4.6,-34.1 -4.6,-32.4"/>
<polygon id="00000190DB8A8820" class="l67d44" points="-6.3,-28.8 -6.3,-30.5 -4.6,-30.5 -4.6,-28.8"/>
<polygon id="00000190DB8A8890" class="l68d20" points="-6.9,-28.2 -6.9,-31.1 -4,-31.1 -4,-28.2"/>
<polygon id="00000190DB8A8200" class="l67d20" points="-6.3,-28.8 -6.3,-30.5 -4.6,-30.5 -4.6,-28.8"/>
<polygon id="00000190DB8A8270" class="l67d44" points="-6.3,-25.2 -6.3,-26.9 -4.6,-26.9 -4.6,-25.2"/>
<polygon id="00000190DB8A6D00" class="l68d20" points="-6.9,-24.6 -6.9,-27.5 -4,-27.5 -4,-24.6"/>
<polygon id="00000190DB8A7550" class="l67d20" points="-6.3,-25.2 -6.3,-26.9 -4.6,-26.9 -4.6,-25.2"/>
<polygon id="00000190DB8A6FA0" class="l68d20" points="-6.9,-20.05 -6.9,-50.05 -4,-50.05 -4,-20.05"/>
<polygon id="00000190DB8A8580" class="l67d20" points="-6.3,-21.6 -6.3,-48.5 -4.6,-48.5 -4.6,-21.6"/>
<polygon id="00000190DB8A7A90" class="l66d44" points="-12.8,-24 -12.8,-25.7 -11.1,-25.7 -11.1,-24"/>
<polygon id="00000190DB8A6DE0" class="l67d20" points="-13.6,-23.2 -13.6,-26.5 -10.3,-26.5 -10.3,-23.2"/>
<polygon id="00000190DB8A7010" class="l67d20" points="-13.6,-26.6 -13.6,-29.9 -10.3,-29.9 -10.3,-26.6"/>
<polygon id="00000190DB8A7080" class="l66d44" points="-12.8,-44.4 -12.8,-46.1 -11.1,-46.1 -11.1,-44.4"/>
<polygon id="00000190DB8A70F0" class="l67d20" points="-13.6,-43.6 -13.6,-46.9 -10.3,-46.9 -10.3,-43.6"/>
<polygon id="00000190DB8A8040" class="l66d44" points="-12.8,-27.4 -12.8,-29.1 -11.1,-29.1 -11.1,-27.4"/>
<polygon id="00000190DB8A7CC0" class="l66d44" points="-12.8,-41 -12.8,-42.7 -11.1,-42.7 -11.1,-41"/>
<polygon id="00000190DB8A7E80" class="l67d20" points="-13.6,-40.2 -13.6,-43.5 -10.3,-43.5 -10.3,-40.2"/>
<polygon id="00000190DB8A7160" class="l67d20" points="-13.6,-30 -13.6,-33.3 -10.3,-33.3 -10.3,-30"/>
<polygon id="00000190DB8A7F60" class="l66d44" points="-12.8,-37.6 -12.8,-39.3 -11.1,-39.3 -11.1,-37.6"/>
<polygon id="00000190DB8A76A0" class="l67d20" points="-13.6,-36.8 -13.6,-40.1 -10.3,-40.1 -10.3,-36.8"/>
<polygon id="00000190DB8A7DA0" class="l66d44" points="-12.8,-30.8 -12.8,-32.5 -11.1,-32.5 -11.1,-30.8"/>
<polygon id="00000190DB8A74E0" class="l66d44" points="-12.8,-34.2 -12.8,-35.9 -11.1,-35.9 -11.1,-34.2"/>
<polygon id="00000190DB8A71D0" class="l67d20" points="-13.6,-33.4 -13.6,-36.7 -10.3,-36.7 -10.3,-33.4"/>
<polygon id="00000190DB8A7FD0" class="l67d20" points="-13.6,-20.05 -13.6,-50.05 -10.3,-50.05 -10.3,-20.05"/>
<polygon id="00000190DB8A9D90" class="l67d44" points="-12.8,-21.6 -12.8,-23.3 -11.1,-23.3 -11.1,-21.6"/>
<polygon id="00000190DB8A9150" class="l68d20" points="-13.4,-21 -13.4,-23.9 -10.5,-23.9 -10.5,-21"/>
<polygon id="00000190DB8AA1F0" class="l67d20" points="-12.8,-21.6 -12.8,-23.3 -11.1,-23.3 -11.1,-21.6"/>
<polygon id="00000190DB8A8970" class="l67d44" points="-12.8,-46.8 -12.8,-48.5 -11.1,-48.5 -11.1,-46.8"/>
<polygon id="00000190DB8A8CF0" class="l68d20" points="-13.4,-46.2 -13.4,-49.1 -10.5,-49.1 -10.5,-46.2"/>
<polygon id="00000190DB8A9770" class="l67d20" points="-12.8,-46.8 -12.8,-48.5 -11.1,-48.5 -11.1,-46.8"/>
<polygon id="00000190DB8A9380" class="l67d44" points="-12.8,-43.2 -12.8,-44.9 -11.1,-44.9 -11.1,-43.2"/>
<polygon id="00000190DB8A95B0" class="l68d20" points="-13.4,-42.6 -13.4,-45.5 -10.5,-45.5 -10.5,-42.6"/>
<polygon id="00000190DB8AA2D0" class="l67d20" points="-12.8,-43.2 -12.8,-44.9 -11.1,-44.9 -11.1,-43.2"/>
<polygon id="00000190DB8A9000" class="l67d44" points="-12.8,-39.6 -12.8,-41.3 -11.1,-41.3 -11.1,-39.6"/>
<polygon id="00000190DB8AA260" class="l68d20" points="-13.4,-39 -13.4,-41.9 -10.5,-41.9 -10.5,-39"/>
<polygon id="00000190DB8A9070" class="l67d20" points="-12.8,-39.6 -12.8,-41.3 -11.1,-41.3 -11.1,-39.6"/>
<polygon id="00000190DB8A9700" class="l67d44" points="-12.8,-36 -12.8,-37.7 -11.1,-37.7 -11.1,-36"/>
<polygon id="00000190DB8A9E70" class="l68d20" points="-13.4,-35.4 -13.4,-38.3 -10.5,-38.3 -10.5,-35.4"/>
<polygon id="00000190DB8A9C40" class="l67d20" points="-12.8,-36 -12.8,-37.7 -11.1,-37.7 -11.1,-36"/>
<polygon id="00000190DB8A9D20" class="l67d44" points="-12.8,-32.4 -12.8,-34.1 -11.1,-34.1 -11.1,-32.4"/>
<polygon id="00000190DB8A8D60" class="l68d20" points="-13.4,-31.8 -13.4,-34.7 -10.5,-34.7 -10.5,-31.8"/>
<polygon id="00000190DB8A9540" class="l67d20" points="-12.8,-32.4 -12.8,-34.1 -11.1,-34.1 -11.1,-32.4"/>
<polygon id="00000190DB8A8E40" class="l67d44" points="-12.8,-28.8 -12.8,-30.5 -11.1,-30.5 -11.1,-28.8"/>
<polygon id="00000190DB8A90E0" class="l68d20" points="-13.4,-28.2 -13.4,-31.1 -10.5,-31.1 -10.5,-28.2"/>
<polygon id="00000190DB8A8F20" class="l67d20" points="-12.8,-28.8 -12.8,-30.5 -11.1,-30.5 -11.1,-28.8"/>
<polygon id="00000190DB8A89E0" class="l67d44" points="-12.8,-25.2 -12.8,-26.9 -11.1,-26.9 -11.1,-25.2"/>
<polygon id="00000190DB8A9CB0" class="l68d20" points="-13.4,-24.6 -13.4,-27.5 -10.5,-27.5 -10.5,-24.6"/>
<polygon id="00000190DB8A9930" class="l67d20" points="-12.8,-25.2 -12.8,-26.9 -11.1,-26.9 -11.1,-25.2"/>
<polygon id="00000190DB8A9E00" class="l68d20" points="-13.4,-20.05 -13.4,-50.05 -10.5,-50.05 -10.5,-20.05"/>
<polygon id="00000190DB8A97E0" class="l67d20" points="-12.8,-21.6 -12.8,-48.5 -11.1,-48.5 -11.1,-21.6"/>
<polygon id="00000190DB8AA0A0" class="l93d44" points="-15.5,-18.75 -15.5,-51.35 -1.9,-51.35 -1.9,-18.75"/>
<polygon id="00000190DB8A9850" class="l65d20" points="-14.2,-20.05 -14.2,-50.05 -3.2,-50.05 -3.2,-20.05"/>
<polygon id="00000190DB8A8F90" class="l67d44" points="-12.8,-52.1 -12.8,-53.8 -11.1,-53.8 -11.1,-52.1"/>
<polygon id="00000190DB8A8AC0" class="l68d20" points="-13.4,-51.5 -13.4,-54.4 -10.5,-54.4 -10.5,-51.5"/>
<polygon id="00000190DB8AA420" class="l67d20" points="-12.8,-52.1 -12.8,-53.8 -11.1,-53.8 -11.1,-52.1"/>
<polygon id="00000190DB8A8A50" class="l66d20" points="-26.85,-17.55 -26.85,-52.55 -25.35,-52.55 -25.35,-17.55"/>
<polygon id="00000190DB8A9BD0" class="l66d44" points="-23.7,-24 -23.7,-25.7 -22,-25.7 -22,-24"/>
<polygon id="00000190DB8A9EE0" class="l67d20" points="-24.5,-23.2 -24.5,-26.5 -21.2,-26.5 -21.2,-23.2"/>
<polygon id="00000190DB8A8B30" class="l67d20" points="-24.5,-26.6 -24.5,-29.9 -21.2,-29.9 -21.2,-26.6"/>
<polygon id="00000190DB8A9620" class="l66d44" points="-23.7,-44.4 -23.7,-46.1 -22,-46.1 -22,-44.4"/>
<polygon id="00000190DB8A98C0" class="l67d20" points="-24.5,-43.6 -24.5,-46.9 -21.2,-46.9 -21.2,-43.6"/>
<polygon id="00000190DB8A8BA0" class="l66d44" points="-23.7,-27.4 -23.7,-29.1 -22,-29.1 -22,-27.4"/>
<polygon id="00000190DB8A9F50" class="l66d44" points="-23.7,-41 -23.7,-42.7 -22,-42.7 -22,-41"/>
<polygon id="00000190DB8A9FC0" class="l67d20" points="-24.5,-40.2 -24.5,-43.5 -21.2,-43.5 -21.2,-40.2"/>
<polygon id="00000190DB8A8900" class="l67d20" points="-24.5,-30 -24.5,-33.3 -21.2,-33.3 -21.2,-30"/>
<polygon id="00000190DB8AA490" class="l66d44" points="-23.7,-37.6 -23.7,-39.3 -22,-39.3 -22,-37.6"/>
<polygon id="00000190DB8A8C10" class="l67d20" points="-24.5,-36.8 -24.5,-40.1 -21.2,-40.1 -21.2,-36.8"/>
<polygon id="00000190DB8AA180" class="l66d44" points="-23.7,-30.8 -23.7,-32.5 -22,-32.5 -22,-30.8"/>
<polygon id="00000190DB8AA3B0" class="l66d44" points="-23.7,-34.2 -23.7,-35.9 -22,-35.9 -22,-34.2"/>
<polygon id="00000190DB8A8C80" class="l67d20" points="-24.5,-33.4 -24.5,-36.7 -21.2,-36.7 -21.2,-33.4"/>
<polygon id="00000190DB8AA340" class="l67d20" points="-24.5,-20.05 -24.5,-50.05 -21.2,-50.05 -21.2,-20.05"/>
<polygon id="00000190DB8A99A0" class="l66d44" points="-30.2,-24 -30.2,-25.7 -28.5,-25.7 -28.5,-24"/>
<polygon id="00000190DB8A8DD0" class="l67d20" points="-31,-23.2 -31,-26.5 -27.7,-26.5 -27.7,-23.2"/>
<polygon id="00000190DB8AA030" class="l67d20" points="-31,-26.6 -31,-29.9 -27.7,-29.9 -27.7,-26.6"/>
<polygon id="00000190DB8A8EB0" class="l66d44" points="-30.2,-44.4 -30.2,-46.1 -28.5,-46.1 -28.5,-44.4"/>
<polygon id="00000190DB8A91C0" class="l67d20" points="-31,-43.6 -31,-46.9 -27.7,-46.9 -27.7,-43.6"/>
<polygon id="00000190DB8A9A10" class="l66d44" points="-30.2,-27.4 -30.2,-29.1 -28.5,-29.1 -28.5,-27.4"/>
<polygon id="00000190DB8A94D0" class="l66d44" points="-30.2,-41 -30.2,-42.7 -28.5,-42.7 -28.5,-41"/>
<polygon id="00000190DB8A9230" class="l67d20" points="-31,-40.2 -31,-43.5 -27.7,-43.5 -27.7,-40.2"/>
<polygon id="00000190DB8A92A0" class="l67d20" points="-31,-30 -31,-33.3 -27.7,-33.3 -27.7,-30"/>
<polygon id="00000190DB8A9A80" class="l66d44" points="-30.2,-37.6 -30.2,-39.3 -28.5,-39.3 -28.5,-37.6"/>
<polygon id="00000190DB8A9310" class="l67d20" points="-31,-36.8 -31,-40.1 -27.7,-40.1 -27.7,-36.8"/>
<polygon id="00000190DB8A93F0" class="l66d44" points="-30.2,-30.8 -30.2,-32.5 -28.5,-32.5 -28.5,-30.8"/>
<polygon id="00000190DB8A9AF0" class="l66d44" points="-30.2,-34.2 -30.2,-35.9 -28.5,-35.9 -28.5,-34.2"/>
<polygon id="00000190DB8A9460" class="l67d20" points="-31,-33.4 -31,-36.7 -27.7,-36.7 -27.7,-33.4"/>
<polygon id="00000190DB8A9690" class="l67d20" points="-31,-20.05 -31,-50.05 -27.7,-50.05 -27.7,-20.05"/>
<polygon id="00000190DB8A9B60" class="l93d44" points="-32.9,-18.75 -32.9,-51.35 -19.3,-51.35 -19.3,-18.75"/>
<polygon id="00000190DB8AA110" class="l65d20" points="-31.6,-20.05 -31.6,-50.05 -20.6,-50.05 -20.6,-20.05"/>
<polygon id="00000190DB8AB5A0" class="l66d44" points="-26.95,-15.05 -26.95,-16.75 -25.25,-16.75 -25.25,-15.05"/>
<polygon id="00000190DB8AAC70" class="l66d20" points="-27.75,-14.25 -27.75,-17.55 -24.45,-17.55 -24.45,-14.25"/>
<polygon id="00000190DB8ABB50" class="l67d20" points="-27.75,-14.25 -27.75,-17.55 -24.45,-17.55 -24.45,-14.25"/>
<polygon id="00000190DB8ABAE0" class="l66d20" points="-27.75,-14.25 -27.75,-17.55 -24.45,-17.55 -24.45,-14.25"/>
<polygon id="00000190DB8AB0D0" class="l95d20" points="-27.95,-14.05 -24.25,-14.05 -24.25,-17.75 -27.95,-17.75"/>
<polygon id="00000190DB8ABCA0" class="l67d20" points="-31,-14.25 -27.75,-14.25 -27.75,-17.55 -31,-17.55"/>
<polygon id="00000190DB8AB6F0" class="l67d20" points="-31,-14.25 -27.7,-14.25 -27.7,-20.05 -31,-20.05"/>
<polygon id="00000190DB8AB760" class="l67d20" points="-24.45,-14.25 -21.2,-14.25 -21.2,-17.55 -24.45,-17.55"/>
<polygon id="00000190DB8AA8F0" class="l67d20" points="-24.5,-14.25 -21.2,-14.25 -21.2,-20.05 -24.5,-20.05"/>
<polygon id="00000190DB8AADC0" class="l68d20" points="-13.4,-55.8 -13.4,-58.7 -4,-58.7 -4,-55.8"/>
<polygon id="00000190DB8ABD80" class="l68d20" points="-13.4,-51.5 -13.4,-54.4 -4,-54.4 -4,-51.5"/>
<polygon id="00000190DB8ABC30" class="l66d44" points="-9.55,-11.05 -9.55,-12.75 -7.85,-12.75 -7.85,-11.05"/>
<polygon id="00000190DB8AB530" class="l68d20" points="-10.15,-10.45 -10.15,-13.35 -7.25,-13.35 -7.25,-10.45"/>
<polygon id="00000190DB8AB060" class="l67d20" points="-10.35,-10.25 -10.35,-13.55 -7.05,-13.55 -7.05,-10.25"/>
<polygon id="00000190DB8AA7A0" class="l67d44" points="-9.55,-11.05 -9.55,-12.75 -7.85,-12.75 -7.85,-11.05"/>
<polygon id="00000190DB8AACE0" class="l66d20" points="-10.35,-10.25 -10.35,-13.55 -7.05,-13.55 -7.05,-10.25"/>
<polygon id="00000190DB8AB610" class="l68d20" points="-10.35,-10.25 -10.35,-13.55 -7.05,-13.55 -7.05,-10.25"/>
<polygon id="00000190DB8AAB90" class="l66d20" points="-10.35,-10.25 -10.35,-13.55 -7.05,-13.55 -7.05,-10.25"/>
<polygon id="00000190DB8AB140" class="l95d20" points="-10.55,-10.05 -6.85,-10.05 -6.85,-13.75 -10.55,-13.75"/>
<polygon id="00000190DB8AB680" class="l67d20" points="-7.1,-50.05 -3.8,-50.05 -3.8,-58.1 -7.1,-58.1"/>
<polygon id="00000190DB8AAD50" class="l67d44" points="-6.3,-56.4 -6.3,-58.1 -4.6,-58.1 -4.6,-56.4"/>
<polygon id="00000190DB8ABE60" class="l68d20" points="-6.9,-55.8 -6.9,-58.7 -4,-58.7 -4,-55.8"/>
<polygon id="00000190DB8AB370" class="l67d20" points="-6.3,-56.4 -6.3,-58.1 -4.6,-58.1 -4.6,-56.4"/>
<polygon id="00000190DB8AB1B0" class="l66d20" points="-9.45,-13.55 -7.95,-13.55 -7.95,-17.55 -9.45,-17.55"/>
<polygon id="00000190DB8AB220" class="l67d20" points="-13.6,-50.05 -10.3,-50.05 -10.3,-53.8 -13.6,-53.8"/>
<polygon id="00000190DB8AAF10" class="l64d44" points="0.1,-8.25 34.7,-8.25 34.7,-60.5 0.1,-60.5"/>
<polygon id="00000190DB8AA960" class="l66d20" points="7.95,-17.55 7.95,-52.55 9.45,-52.55 9.45,-17.55"/>
<polygon id="00000190DB8AA810" class="l66d44" points="11.1,-24 11.1,-25.7 12.8,-25.7 12.8,-24"/>
<polygon id="00000190DB8AAE30" class="l67d20" points="10.3,-23.2 10.3,-26.5 13.6,-26.5 13.6,-23.2"/>
<polygon id="00000190DB8AB290" class="l67d20" points="10.3,-26.6 10.3,-29.9 13.6,-29.9 13.6,-26.6"/>
<polygon id="00000190DB8ABBC0" class="l66d44" points="11.1,-44.4 11.1,-46.1 12.8,-46.1 12.8,-44.4"/>
<polygon id="00000190DB8AB7D0" class="l67d20" points="10.3,-43.6 10.3,-46.9 13.6,-46.9 13.6,-43.6"/>
<polygon id="00000190DB8AB300" class="l66d44" points="11.1,-27.4 11.1,-29.1 12.8,-29.1 12.8,-27.4"/>
<polygon id="00000190DB8ABA00" class="l66d44" points="11.1,-41 11.1,-42.7 12.8,-42.7 12.8,-41"/>
<polygon id="00000190DB8ABD10" class="l67d20" points="10.3,-40.2 10.3,-43.5 13.6,-43.5 13.6,-40.2"/>
<polygon id="00000190DB8AA650" class="l67d20" points="10.3,-30 10.3,-33.3 13.6,-33.3 13.6,-30"/>
<polygon id="00000190DB8AB920" class="l66d44" points="11.1,-37.6 11.1,-39.3 12.8,-39.3 12.8,-37.6"/>
<polygon id="00000190DB8AAF80" class="l67d20" points="10.3,-36.8 10.3,-40.1 13.6,-40.1 13.6,-36.8"/>
<polygon id="00000190DB8AAEA0" class="l66d44" points="11.1,-30.8 11.1,-32.5 12.8,-32.5 12.8,-30.8"/>
<polygon id="00000190DB8AAAB0" class="l66d44" points="11.1,-34.2 11.1,-35.9 12.8,-35.9 12.8,-34.2"/>
<polygon id="00000190DB8AAFF0" class="l67d20" points="10.3,-33.4 10.3,-36.7 13.6,-36.7 13.6,-33.4"/>
<polygon id="00000190DB8AB840" class="l67d20" points="10.3,-20.05 10.3,-50.05 13.6,-50.05 13.6,-20.05"/>
<polygon id="00000190DB8AB3E0" class="l67d44" points="11.1,-21.6 11.1,-23.3 12.8,-23.3 12.8,-21.6"/>
<polygon id="00000190DB8AA880" class="l68d20" points="10.5,-21 10.5,-23.9 13.4,-23.9 13.4,-21"/>
<polygon id="00000190DB8AB8B0" class="l67d20" points="11.1,-21.6 11.1,-23.3 12.8,-23.3 12.8,-21.6"/>
<polygon id="00000190DB8AC020" class="l67d44" points="11.1,-46.8 11.1,-48.5 12.8,-48.5 12.8,-46.8"/>
<polygon id="00000190DB8AC090" class="l68d20" points="10.5,-46.2 10.5,-49.1 13.4,-49.1 13.4,-46.2"/>
<polygon id="00000190DB8ABA70" class="l67d20" points="11.1,-46.8 11.1,-48.5 12.8,-48.5 12.8,-46.8"/>
<polygon id="00000190DB8AB450" class="l67d44" points="11.1,-43.2 11.1,-44.9 12.8,-44.9 12.8,-43.2"/>
<polygon id="00000190DB8AB4C0" class="l68d20" points="10.5,-42.6 10.5,-45.5 13.4,-45.5 13.4,-42.6"/>
<polygon id="00000190DB8AB990" class="l67d20" points="11.1,-43.2 11.1,-44.9 12.8,-44.9 12.8,-43.2"/>
<polygon id="00000190DB8AA9D0" class="l67d44" points="11.1,-39.6 11.1,-41.3 12.8,-41.3 12.8,-39.6"/>
<polygon id="00000190DB8ABDF0" class="l68d20" points="10.5,-39 10.5,-41.9 13.4,-41.9 13.4,-39"/>
<polygon id="00000190DB8AAA40" class="l67d20" points="11.1,-39.6 11.1,-41.3 12.8,-41.3 12.8,-39.6"/>
<polygon id="00000190DB8ABED0" class="l67d44" points="11.1,-36 11.1,-37.7 12.8,-37.7 12.8,-36"/>
<polygon id="00000190DB8AAB20" class="l68d20" points="10.5,-35.4 10.5,-38.3 13.4,-38.3 13.4,-35.4"/>
<polygon id="00000190DB8ABF40" class="l67d20" points="11.1,-36 11.1,-37.7 12.8,-37.7 12.8,-36"/>
<polygon id="00000190DB8ABFB0" class="l67d44" points="11.1,-32.4 11.1,-34.1 12.8,-34.1 12.8,-32.4"/>
<polygon id="00000190DB8AA500" class="l68d20" points="10.5,-31.8 10.5,-34.7 13.4,-34.7 13.4,-31.8"/>
<polygon id="00000190DB8AA570" class="l67d20" points="11.1,-32.4 11.1,-34.1 12.8,-34.1 12.8,-32.4"/>
<polygon id="00000190DB8AA5E0" class="l67d44" points="11.1,-28.8 11.1,-30.5 12.8,-30.5 12.8,-28.8"/>
<polygon id="00000190DB8AA6C0" class="l68d20" points="10.5,-28.2 10.5,-31.1 13.4,-31.1 13.4,-28.2"/>
<polygon id="00000190DB8AA730" class="l67d20" points="11.1,-28.8 11.1,-30.5 12.8,-30.5 12.8,-28.8"/>
<polygon id="00000190DB8AAC00" class="l67d44" points="11.1,-25.2 11.1,-26.9 12.8,-26.9 12.8,-25.2"/>
<polygon id="00000190DB8AD8A0" class="l68d20" points="10.5,-24.6 10.5,-27.5 13.4,-27.5 13.4,-24.6"/>
<polygon id="00000190DB8AC410" class="l67d20" points="11.1,-25.2 11.1,-26.9 12.8,-26.9 12.8,-25.2"/>
<polygon id="00000190DB8AD590" class="l68d20" points="10.5,-20.05 10.5,-50.05 13.4,-50.05 13.4,-20.05"/>
<polygon id="00000190DB8AD910" class="l67d20" points="11.1,-21.6 11.1,-48.5 12.8,-48.5 12.8,-21.6"/>
<polygon id="00000190DB8AD130" class="l66d44" points="4.6,-24 4.6,-25.7 6.3,-25.7 6.3,-24"/>
<polygon id="00000190DB8AC950" class="l67d20" points="3.8,-23.2 3.8,-26.5 7.1,-26.5 7.1,-23.2"/>
<polygon id="00000190DB8ACE20" class="l67d20" points="3.8,-26.6 3.8,-29.9 7.1,-29.9 7.1,-26.6"/>
<polygon id="00000190DB8ACF70" class="l66d44" points="4.6,-44.4 4.6,-46.1 6.3,-46.1 6.3,-44.4"/>
<polygon id="00000190DB8ACDB0" class="l67d20" points="3.8,-43.6 3.8,-46.9 7.1,-46.9 7.1,-43.6"/>
<polygon id="00000190DB8AD7C0" class="l66d44" points="4.6,-27.4 4.6,-29.1 6.3,-29.1 6.3,-27.4"/>
<polygon id="00000190DB8AC100" class="l66d44" points="4.6,-41 4.6,-42.7 6.3,-42.7 6.3,-41"/>
<polygon id="00000190DB8ADC20" class="l67d20" points="3.8,-40.2 3.8,-43.5 7.1,-43.5 7.1,-40.2"/>
<polygon id="00000190DB8AC3A0" class="l67d20" points="3.8,-30 3.8,-33.3 7.1,-33.3 7.1,-30"/>
<polygon id="00000190DB8AC9C0" class="l66d44" points="4.6,-37.6 4.6,-39.3 6.3,-39.3 6.3,-37.6"/>
<polygon id="00000190DB8ACBF0" class="l67d20" points="3.8,-36.8 3.8,-40.1 7.1,-40.1 7.1,-36.8"/>
<polygon id="00000190DB8AD750" class="l66d44" points="4.6,-30.8 4.6,-32.5 6.3,-32.5 6.3,-30.8"/>
<polygon id="00000190DB8AD520" class="l66d44" points="4.6,-34.2 4.6,-35.9 6.3,-35.9 6.3,-34.2"/>
<polygon id="00000190DB8AD050" class="l67d20" points="3.8,-33.4 3.8,-36.7 7.1,-36.7 7.1,-33.4"/>
<polygon id="00000190DB8ACA30" class="l67d20" points="3.8,-20.05 3.8,-50.05 7.1,-50.05 7.1,-20.05"/>
<polygon id="00000190DB8AD2F0" class="l67d44" points="4.6,-21.6 4.6,-23.3 6.3,-23.3 6.3,-21.6"/>
<polygon id="00000190DB8ACFE0" class="l68d20" points="4,-21 4,-23.9 6.9,-23.9 6.9,-21"/>
<polygon id="00000190DB8AC6B0" class="l67d20" points="4.6,-21.6 4.6,-23.3 6.3,-23.3 6.3,-21.6"/>
<polygon id="00000190DB8ACCD0" class="l67d44" points="4.6,-46.8 4.6,-48.5 6.3,-48.5 6.3,-46.8"/>
<polygon id="00000190DB8AD830" class="l68d20" points="4,-46.2 4,-49.1 6.9,-49.1 6.9,-46.2"/>
<polygon id="00000190DB8AC720" class="l67d20" points="4.6,-46.8 4.6,-48.5 6.3,-48.5 6.3,-46.8"/>
<polygon id="00000190DB8ACB10" class="l67d44" points="4.6,-43.2 4.6,-44.9 6.3,-44.9 6.3,-43.2"/>
<polygon id="00000190DB8AD980" class="l68d20" points="4,-42.6 4,-45.5 6.9,-45.5 6.9,-42.6"/>
<polygon id="00000190DB8AC870" class="l67d20" points="4.6,-43.2 4.6,-44.9 6.3,-44.9 6.3,-43.2"/>
<polygon id="00000190DB8AD9F0" class="l67d44" points="4.6,-39.6 4.6,-41.3 6.3,-41.3 6.3,-39.6"/>
<polygon id="00000190DB8ADA60" class="l68d20" points="4,-39 4,-41.9 6.9,-41.9 6.9,-39"/>
<polygon id="00000190DB8ACE90" class="l67d20" points="4.6,-39.6 4.6,-41.3 6.3,-41.3 6.3,-39.6"/>
<polygon id="00000190DB8ACF00" class="l67d44" points="4.6,-36 4.6,-37.7 6.3,-37.7 6.3,-36"/>
<polygon id="00000190DB8AD670" class="l68d20" points="4,-35.4 4,-38.3 6.9,-38.3 6.9,-35.4"/>
<polygon id="00000190DB8ACAA0" class="l67d20" points="4.6,-36 4.6,-37.7 6.3,-37.7 6.3,-36"/>
<polygon id="00000190DB8AC560" class="l67d44" points="4.6,-32.4 4.6,-34.1 6.3,-34.1 6.3,-32.4"/>
<polygon id="00000190DB8AD0C0" class="l68d20" points="4,-31.8 4,-34.7 6.9,-34.7 6.9,-31.8"/>
<polygon id="00000190DB8ACB80" class="l67d20" points="4.6,-32.4 4.6,-34.1 6.3,-34.1 6.3,-32.4"/>
<polygon id="00000190DB8AC480" class="l67d44" points="4.6,-28.8 4.6,-30.5 6.3,-30.5 6.3,-28.8"/>
<polygon id="00000190DB8AD6E0" class="l68d20" points="4,-28.2 4,-31.1 6.9,-31.1 6.9,-28.2"/>
<polygon id="00000190DB8ACC60" class="l67d20" points="4.6,-28.8 4.6,-30.5 6.3,-30.5 6.3,-28.8"/>
<polygon id="00000190DB8ADB40" class="l67d44" points="4.6,-25.2 4.6,-26.9 6.3,-26.9 6.3,-25.2"/>
<polygon id="00000190DB8AD1A0" class="l68d20" points="4,-24.6 4,-27.5 6.9,-27.5 6.9,-24.6"/>
<polygon id="00000190DB8ACD40" class="l67d20" points="4.6,-25.2 4.6,-26.9 6.3,-26.9 6.3,-25.2"/>
<polygon id="00000190DB8AC330" class="l68d20" points="4,-20.05 4,-50.05 6.9,-50.05 6.9,-20.05"/>
<polygon id="00000190DB8AC5D0" class="l67d20" points="4.6,-21.6 4.6,-48.5 6.3,-48.5 6.3,-21.6"/>
<polygon id="00000190DB8ADAD0" class="l93d44" points="1.9,-18.75 1.9,-51.35 15.5,-51.35 15.5,-18.75"/>
<polygon id="00000190DB8AD210" class="l65d20" points="3.2,-20.05 3.2,-50.05 14.2,-50.05 14.2,-20.05"/>
<polygon id="00000190DB8AD280" class="l67d44" points="4.6,-52.1 4.6,-53.8 6.3,-53.8 6.3,-52.1"/>
<polygon id="00000190DB8ADBB0" class="l68d20" points="4,-51.5 4,-54.4 6.9,-54.4 6.9,-51.5"/>
<polygon id="00000190DB8AD360" class="l67d20" points="4.6,-52.1 4.6,-53.8 6.3,-53.8 6.3,-52.1"/>
<polygon id="00000190DB8AC4F0" class="l66d20" points="25.35,-17.55 25.35,-52.55 26.85,-52.55 26.85,-17.55"/>
<polygon id="00000190DB8AD3D0" class="l66d44" points="28.5,-24 28.5,-25.7 30.2,-25.7 30.2,-24"/>
<polygon id="00000190DB8ADC90" class="l67d20" points="27.7,-23.2 27.7,-26.5 31,-26.5 31,-23.2"/>
<polygon id="00000190DB8AC640" class="l67d20" points="27.7,-26.6 27.7,-29.9 31,-29.9 31,-26.6"/>
<polygon id="00000190DB8AD440" class="l66d44" points="28.5,-44.4 28.5,-46.1 30.2,-46.1 30.2,-44.4"/>
<polygon id="00000190DB8AD600" class="l67d20" points="27.7,-43.6 27.7,-46.9 31,-46.9 31,-43.6"/>
<polygon id="00000190DB8AC170" class="l66d44" points="28.5,-27.4 28.5,-29.1 30.2,-29.1 30.2,-27.4"/>
<polygon id="00000190DB8AC1E0" class="l66d44" points="28.5,-41 28.5,-42.7 30.2,-42.7 30.2,-41"/>
<polygon id="00000190DB8AD4B0" class="l67d20" points="27.7,-40.2 27.7,-43.5 31,-43.5 31,-40.2"/>
<polygon id="00000190DB8AC250" class="l67d20" points="27.7,-30 27.7,-33.3 31,-33.3 31,-30"/>
<polygon id="00000190DB8AC2C0" class="l66d44" points="28.5,-37.6 28.5,-39.3 30.2,-39.3 30.2,-37.6"/>
<polygon id="00000190DB8AC790" class="l67d20" points="27.7,-36.8 27.7,-40.1 31,-40.1 31,-36.8"/>
<polygon id="00000190DB8AC800" class="l66d44" points="28.5,-30.8 28.5,-32.5 30.2,-32.5 30.2,-30.8"/>
<polygon id="00000190DB8AC8E0" class="l66d44" points="28.5,-34.2 28.5,-35.9 30.2,-35.9 30.2,-34.2"/>
<polygon id="00000190DB8AEB70" class="l67d20" points="27.7,-33.4 27.7,-36.7 31,-36.7 31,-33.4"/>
<polygon id="00000190DB8AE710" class="l67d20" points="27.7,-20.05 27.7,-50.05 31,-50.05 31,-20.05"/>
<polygon id="00000190DB8AE080" class="l66d44" points="22,-24 22,-25.7 23.7,-25.7 23.7,-24"/>
<polygon id="00000190DB8AF430" class="l67d20" points="21.2,-23.2 21.2,-26.5 24.5,-26.5 24.5,-23.2"/>
<polygon id="00000190DB8AE1D0" class="l67d20" points="21.2,-26.6 21.2,-29.9 24.5,-29.9 24.5,-26.6"/>
<polygon id="00000190DB8AE8D0" class="l66d44" points="22,-44.4 22,-46.1 23.7,-46.1 23.7,-44.4"/>
<polygon id="00000190DB8AE320" class="l67d20" points="21.2,-43.6 21.2,-46.9 24.5,-46.9 24.5,-43.6"/>
<polygon id="00000190DB8AF120" class="l66d44" points="22,-27.4 22,-29.1 23.7,-29.1 23.7,-27.4"/>
<polygon id="00000190DB8AE780" class="l66d44" points="22,-41 22,-42.7 23.7,-42.7 23.7,-41"/>
<polygon id="00000190DB8AF820" class="l67d20" points="21.2,-40.2 21.2,-43.5 24.5,-43.5 24.5,-40.2"/>
<polygon id="00000190DB8ADEC0" class="l67d20" points="21.2,-30 21.2,-33.3 24.5,-33.3 24.5,-30"/>
<polygon id="00000190DB8AF580" class="l66d44" points="22,-37.6 22,-39.3 23.7,-39.3 23.7,-37.6"/>
<polygon id="00000190DB8AF7B0" class="l67d20" points="21.2,-36.8 21.2,-40.1 24.5,-40.1 24.5,-36.8"/>
<polygon id="00000190DB8AE0F0" class="l66d44" points="22,-30.8 22,-32.5 23.7,-32.5 23.7,-30.8"/>
<polygon id="00000190DB8AF5F0" class="l66d44" points="22,-34.2 22,-35.9 23.7,-35.9 23.7,-34.2"/>
<polygon id="00000190DB8AED30" class="l67d20" points="21.2,-33.4 21.2,-36.7 24.5,-36.7 24.5,-33.4"/>
<polygon id="00000190DB8AF660" class="l67d20" points="21.2,-20.05 21.2,-50.05 24.5,-50.05 24.5,-20.05"/>
<polygon id="00000190DB8AF3C0" class="l93d44" points="19.3,-18.75 19.3,-51.35 32.9,-51.35 32.9,-18.75"/>
<polygon id="00000190DB8AF890" class="l65d20" points="20.6,-20.05 20.6,-50.05 31.6,-50.05 31.6,-20.05"/>
<polygon id="00000190DB8AF6D0" class="l66d44" points="25.25,-15.05 25.25,-16.75 26.95,-16.75 26.95,-15.05"/>
<polygon id="00000190DB8AEE10" class="l66d20" points="24.45,-14.25 24.45,-17.55 27.75,-17.55 27.75,-14.25"/>
<polygon id="00000190DB8AE940" class="l67d20" points="24.45,-14.25 24.45,-17.55 27.75,-17.55 27.75,-14.25"/>
<polygon id="00000190DB8ADD00" class="l66d20" points="24.45,-14.25 24.45,-17.55 27.75,-17.55 27.75,-14.25"/>
<polygon id="00000190DB8AE630" class="l95d20" points="24.25,-14.05 27.95,-14.05 27.95,-17.75 24.25,-17.75"/>
<polygon id="00000190DB8AEE80" class="l67d20" points="21.2,-14.25 24.45,-14.25 24.45,-17.55 21.2,-17.55"/>
<polygon id="00000190DB8AE390" class="l67d20" points="21.2,-14.25 24.5,-14.25 24.5,-20.05 21.2,-20.05"/>
<polygon id="00000190DB8ADF30" class="l67d20" points="27.75,-14.25 31,-14.25 31,-17.55 27.75,-17.55"/>
<polygon id="00000190DB8AEB00" class="l67d20" points="27.7,-14.25 31,-14.25 31,-20.05 27.7,-20.05"/>
<polygon id="00000190DB8AE400" class="l68d20" points="4,-55.8 4,-58.7 13.4,-58.7 13.4,-55.8"/>
<polygon id="00000190DB8AE550" class="l68d20" points="4,-51.5 4,-54.4 13.4,-54.4 13.4,-51.5"/>
<polygon id="00000190DB8AE470" class="l66d44" points="7.85,-11.05 7.85,-12.75 9.55,-12.75 9.55,-11.05"/>
<polygon id="00000190DB8ADDE0" class="l68d20" points="7.25,-10.45 7.25,-13.35 10.15,-13.35 10.15,-10.45"/>
<polygon id="00000190DB8AF4A0" class="l67d20" points="7.05,-10.25 7.05,-13.55 10.35,-13.55 10.35,-10.25"/>
<polygon id="00000190DB8AF2E0" class="l67d44" points="7.85,-11.05 7.85,-12.75 9.55,-12.75 9.55,-11.05"/>
<polygon id="00000190DB8AEBE0" class="l66d20" points="7.05,-10.25 7.05,-13.55 10.35,-13.55 10.35,-10.25"/>
<polygon id="00000190DB8AF350" class="l68d20" points="7.05,-10.25 7.05,-13.55 10.35,-13.55 10.35,-10.25"/>
<polygon id="00000190DB8ADD70" class="l66d20" points="7.05,-10.25 7.05,-13.55 10.35,-13.55 10.35,-10.25"/>
<polygon id="00000190DB8AF510" class="l95d20" points="6.85,-10.05 10.55,-10.05 10.55,-13.75 6.85,-13.75"/>
<polygon id="00000190DB8AE9B0" class="l67d20" points="10.3,-50.05 13.6,-50.05 13.6,-58.1 10.3,-58.1"/>
<polygon id="00000190DB8AE160" class="l67d44" points="11.1,-56.4 11.1,-58.1 12.8,-58.1 12.8,-56.4"/>
<polygon id="00000190DB8AEEF0" class="l68d20" points="10.5,-55.8 10.5,-58.7 13.4,-58.7 13.4,-55.8"/>
<polygon id="00000190DB8AF740" class="l67d20" points="11.1,-56.4 11.1,-58.1 12.8,-58.1 12.8,-56.4"/>
<polygon id="00000190DB8ADE50" class="l66d20" points="7.95,-13.55 9.45,-13.55 9.45,-17.55 7.95,-17.55"/>
<polygon id="00000190DB8AEDA0" class="l67d20" points="3.8,-50.05 7.1,-50.05 7.1,-53.8 3.8,-53.8"/>
<polygon id="00000190DB8ADFA0" class="l64d44" points="0.1,8.25 34.7,8.25 34.7,60.5 0.1,60.5"/>
<polygon id="00000190DB8AE010" class="l66d20" points="7.95,17.55 7.95,52.55 9.45,52.55 9.45,17.55"/>
<polygon id="00000190DB8AE240" class="l66d44" points="11.1,24 11.1,25.7 12.8,25.7 12.8,24"/>
<polygon id="00000190DB8AE2B0" class="l67d20" points="10.3,23.2 10.3,26.5 13.6,26.5 13.6,23.2"/>
<polygon id="00000190DB8AE860" class="l67d20" points="10.3,26.6 10.3,29.9 13.6,29.9 13.6,26.6"/>
<polygon id="00000190DB8AE7F0" class="l66d44" points="11.1,44.4 11.1,46.1 12.8,46.1 12.8,44.4"/>
<polygon id="00000190DB8AE4E0" class="l67d20" points="10.3,43.6 10.3,46.9 13.6,46.9 13.6,43.6"/>
<polygon id="00000190DB8AE5C0" class="l66d44" points="11.1,27.4 11.1,29.1 12.8,29.1 12.8,27.4"/>
<polygon id="00000190DB8AE6A0" class="l66d44" points="11.1,41 11.1,42.7 12.8,42.7 12.8,41"/>
<polygon id="00000190DB8AEA20" class="l67d20" points="10.3,40.2 10.3,43.5 13.6,43.5 13.6,40.2"/>
<polygon id="00000190DB8AEA90" class="l67d20" points="10.3,30 10.3,33.3 13.6,33.3 13.6,30"/>
<polygon id="00000190DB8AEC50" class="l66d44" points="11.1,37.6 11.1,39.3 12.8,39.3 12.8,37.6"/>
<polygon id="00000190DB8AF190" class="l67d20" points="10.3,36.8 10.3,40.1 13.6,40.1 13.6,36.8"/>
<polygon id="00000190DB8AECC0" class="l66d44" points="11.1,30.8 11.1,32.5 12.8,32.5 12.8,30.8"/>
<polygon id="00000190DB8AF200" class="l66d44" points="11.1,34.2 11.1,35.9 12.8,35.9 12.8,34.2"/>
<polygon id="00000190DB8AF0B0" class="l67d20" points="10.3,33.4 10.3,36.7 13.6,36.7 13.6,33.4"/>
<polygon id="00000190DB8AEF60" class="l67d20" points="10.3,20.05 10.3,50.05 13.6,50.05 13.6,20.05"/>
<polygon id="00000190DB8AEFD0" class="l67d44" points="11.1,21.6 11.1,23.3 12.8,23.3 12.8,21.6"/>
<polygon id="00000190DB8AF040" class="l68d20" points="10.5,21 10.5,23.9 13.4,23.9 13.4,21"/>
<polygon id="00000190DB8AF270" class="l67d20" points="11.1,21.6 11.1,23.3 12.8,23.3 12.8,21.6"/>
<polygon id="00000190DB8AFBA0" class="l67d44" points="11.1,46.8 11.1,48.5 12.8,48.5 12.8,46.8"/>
<polygon id="00000190DB8AFC10" class="l68d20" points="10.5,46.2 10.5,49.1 13.4,49.1 13.4,46.2"/>
<polygon id="00000190DB8AFA50" class="l67d20" points="11.1,46.8 11.1,48.5 12.8,48.5 12.8,46.8"/>
<polygon id="00000190DB8AFC80" class="l67d44" points="11.1,43.2 11.1,44.9 12.8,44.9 12.8,43.2"/>
<polygon id="00000190DB8AFCF0" class="l68d20" points="10.5,42.6 10.5,45.5 13.4,45.5 13.4,42.6"/>
<polygon id="00000190DB8AFAC0" class="l67d20" points="11.1,43.2 11.1,44.9 12.8,44.9 12.8,43.2"/>
<polygon id="00000190DB8AFF20" class="l67d44" points="11.1,39.6 11.1,41.3 12.8,41.3 12.8,39.6"/>
<polygon id="00000190DB8AFD60" class="l68d20" points="10.5,39 10.5,41.9 13.4,41.9 13.4,39"/>
<polygon id="00000190DB8AF900" class="l67d20" points="11.1,39.6 11.1,41.3 12.8,41.3 12.8,39.6"/>
<polygon id="00000190DB8AF970" class="l67d44" points="11.1,36 11.1,37.7 12.8,37.7 12.8,36"/>
<polygon id="00000190DB8AF9E0" class="l68d20" points="10.5,35.4 10.5,38.3 13.4,38.3 13.4,35.4"/>
<polygon id="00000190DB8AFB30" class="l67d20" points="11.1,36 11.1,37.7 12.8,37.7 12.8,36"/>
<polygon id="00000190DB8AFDD0" class="l67d44" points="11.1,32.4 11.1,34.1 12.8,34.1 12.8,32.4"/>
<polygon id="00000190DB8AFE40" class="l68d20" points="10.5,31.8 10.5,34.7 13.4,34.7 13.4,31.8"/>
<polygon id="00000190DB8AFEB0" class="l67d20" points="11.1,32.4 11.1,34.1 12.8,34.1 12.8,32.4"/>
<polygon id="00000190DB8AFF90" class="l67d44" points="11.1,28.8 11.1,30.5 12.8,30.5 12.8,28.8"/>
<polygon id="00000190DB89BD90" class="l68d20" points="10.5,28.2 10.5,31.1 13.4,31.1 13.4,28.2"/>
<polygon id="00000190DB89B5B0" class="l67d20" points="11.1,28.8 11.1,30.5 12.8,30.5 12.8,28.8"/>
<polygon id="00000190DB89C420" class="l67d44" points="11.1,25.2 11.1,26.9 12.8,26.9 12.8,25.2"/>
<polygon id="00000190DB89C260" class="l68d20" points="10.5,24.6 10.5,27.5 13.4,27.5 13.4,24.6"/>
<polygon id="00000190DB89AE40" class="l67d20" points="11.1,25.2 11.1,26.9 12.8,26.9 12.8,25.2"/>
<polygon id="00000190DB89C2D0" class="l68d20" points="10.5,20.05 10.5,50.05 13.4,50.05 13.4,20.05"/>
<polygon id="00000190DB89BCB0" class="l67d20" points="11.1,21.6 11.1,48.5 12.8,48.5 12.8,21.6"/>
<polygon id="00000190DB89B8C0" class="l66d44" points="4.6,24 4.6,25.7 6.3,25.7 6.3,24"/>
<polygon id="00000190DB89BA80" class="l67d20" points="3.8,23.2 3.8,26.5 7.1,26.5 7.1,23.2"/>
<polygon id="00000190DB89C490" class="l67d20" points="3.8,26.6 3.8,29.9 7.1,29.9 7.1,26.6"/>
<polygon id="00000190DB89BBD0" class="l66d44" points="4.6,44.4 4.6,46.1 6.3,46.1 6.3,44.4"/>
<polygon id="00000190DB89B2A0" class="l67d20" points="3.8,43.6 3.8,46.9 7.1,46.9 7.1,43.6"/>
<polygon id="00000190DB89B930" class="l66d44" points="4.6,27.4 4.6,29.1 6.3,29.1 6.3,27.4"/>
<polygon id="00000190DB89AEB0" class="l66d44" points="4.6,41 4.6,42.7 6.3,42.7 6.3,41"/>
<polygon id="00000190DB89A900" class="l67d20" points="3.8,40.2 3.8,43.5 7.1,43.5 7.1,40.2"/>
<polygon id="00000190DB89A970" class="l67d20" points="3.8,30 3.8,33.3 7.1,33.3 7.1,30"/>
<polygon id="00000190DB89A9E0" class="l66d44" points="4.6,37.6 4.6,39.3 6.3,39.3 6.3,37.6"/>
<polygon id="00000190DB89B1C0" class="l67d20" points="3.8,36.8 3.8,40.1 7.1,40.1 7.1,36.8"/>
<polygon id="00000190DB89AA50" class="l66d44" points="4.6,30.8 4.6,32.5 6.3,32.5 6.3,30.8"/>
<polygon id="00000190DB89AAC0" class="l66d44" points="4.6,34.2 4.6,35.9 6.3,35.9 6.3,34.2"/>
<polygon id="00000190DB89AF20" class="l67d20" points="3.8,33.4 3.8,36.7 7.1,36.7 7.1,33.4"/>
<polygon id="00000190DB89ABA0" class="l67d20" points="3.8,20.05 3.8,50.05 7.1,50.05 7.1,20.05"/>
<polygon id="00000190DB89AF90" class="l67d44" points="4.6,21.6 4.6,23.3 6.3,23.3 6.3,21.6"/>
<polygon id="00000190DB89B000" class="l68d20" points="4,21 4,23.9 6.9,23.9 6.9,21"/>
<polygon id="00000190DB89B070" class="l67d20" points="4.6,21.6 4.6,23.3 6.3,23.3 6.3,21.6"/>
<polygon id="00000190DB89B0E0" class="l67d44" points="4.6,46.8 4.6,48.5 6.3,48.5 6.3,46.8"/>
<polygon id="00000190DB89DE60" class="l68d20" points="4,46.2 4,49.1 6.9,49.1 6.9,46.2"/>
<polygon id="00000190DB89CC00" class="l67d20" points="4.6,46.8 4.6,48.5 6.3,48.5 6.3,46.8"/>
<polygon id="00000190DB89D300" class="l67d44" points="4.6,43.2 4.6,44.9 6.3,44.9 6.3,43.2"/>
<polygon id="00000190DB89DA70" class="l68d20" points="4,42.6 4,45.5 6.9,45.5 6.9,42.6"/>
<polygon id="00000190DB89D840" class="l67d20" points="4.6,43.2 4.6,44.9 6.3,44.9 6.3,43.2"/>
<polygon id="00000190DB89D920" class="l67d44" points="4.6,39.6 4.6,41.3 6.3,41.3 6.3,39.6"/>
<polygon id="00000190DB89C8F0" class="l68d20" points="4,39 4,41.9 6.9,41.9 6.9,39"/>
<polygon id="00000190DB89D140" class="l67d20" points="4.6,39.6 4.6,41.3 6.3,41.3 6.3,39.6"/>
<polygon id="00000190DB89CA40" class="l67d44" points="4.6,36 4.6,37.7 6.3,37.7 6.3,36"/>
<polygon id="00000190DB89CCE0" class="l68d20" points="4,35.4 4,38.3 6.9,38.3 6.9,35.4"/>
<polygon id="00000190DB89CB20" class="l67d20" points="4.6,36 4.6,37.7 6.3,37.7 6.3,36"/>
<polygon id="00000190DB89C5E0" class="l67d44" points="4.6,32.4 4.6,34.1 6.3,34.1 6.3,32.4"/>
<polygon id="00000190DB89D8B0" class="l68d20" points="4,31.8 4,34.7 6.9,34.7 6.9,31.8"/>
<polygon id="00000190DB89D530" class="l67d20" points="4.6,32.4 4.6,34.1 6.3,34.1 6.3,32.4"/>
<polygon id="00000190DB89D990" class="l67d44" points="4.6,28.8 4.6,30.5 6.3,30.5 6.3,28.8"/>
<polygon id="00000190DB89D370" class="l68d20" points="4,28.2 4,31.1 6.9,31.1 6.9,28.2"/>
<polygon id="00000190DB89DCA0" class="l67d20" points="4.6,28.8 4.6,30.5 6.3,30.5 6.3,28.8"/>
<polygon id="00000190DB89D450" class="l67d44" points="4.6,25.2 4.6,26.9 6.3,26.9 6.3,25.2"/>
<polygon id="00000190DB89CB90" class="l68d20" points="4,24.6 4,27.5 6.9,27.5 6.9,24.6"/>
<polygon id="00000190DB89C6C0" class="l67d20" points="4.6,25.2 4.6,26.9 6.3,26.9 6.3,25.2"/>
<polygon id="00000190DB89E020" class="l68d20" points="4,20.05 4,50.05 6.9,50.05 6.9,20.05"/>
<polygon id="00000190DB89D0D0" class="l67d20" points="4.6,21.6 4.6,48.5 6.3,48.5 6.3,21.6"/>
<polygon id="00000190DB89C500" class="l93d44" points="1.9,18.75 1.9,51.35 15.5,51.35 15.5,18.75"/>
<polygon id="00000190DB89CE30" class="l65d20" points="3.2,20.05 3.2,50.05 14.2,50.05 14.2,20.05"/>
<polygon id="00000190DB89D610" class="l67d44" points="4.6,52.1 4.6,53.8 6.3,53.8 6.3,52.1"/>
<polygon id="00000190DB89CC70" class="l68d20" points="4,51.5 4,54.4 6.9,54.4 6.9,51.5"/>
<polygon id="00000190DB89C730" class="l67d20" points="4.6,52.1 4.6,53.8 6.3,53.8 6.3,52.1"/>
<polygon id="00000190DB89D3E0" class="l66d20" points="25.35,17.55 25.35,52.55 26.85,52.55 26.85,17.55"/>
<polygon id="00000190DB89CD50" class="l66d44" points="28.5,24 28.5,25.7 30.2,25.7 30.2,24"/>
<polygon id="00000190DB89CDC0" class="l67d20" points="27.7,23.2 27.7,26.5 31,26.5 31,23.2"/>
<polygon id="00000190DB89CEA0" class="l67d20" points="27.7,26.6 27.7,29.9 31,29.9 31,26.6"/>
<polygon id="00000190DB89C650" class="l66d44" points="28.5,44.4 28.5,46.1 30.2,46.1 30.2,44.4"/>
<polygon id="00000190DB89DD10" class="l67d20" points="27.7,43.6 27.7,46.9 31,46.9 31,43.6"/>
<polygon id="00000190DB89DAE0" class="l66d44" points="28.5,27.4 28.5,29.1 30.2,29.1 30.2,27.4"/>
<polygon id="00000190DB89D4C0" class="l66d44" points="28.5,41 28.5,42.7 30.2,42.7 30.2,41"/>
<polygon id="00000190DB89DB50" class="l67d20" points="27.7,40.2 27.7,43.5 31,43.5 31,40.2"/>
<polygon id="00000190DB89E090" class="l67d20" points="27.7,30 27.7,33.3 31,33.3 31,30"/>
<polygon id="00000190DB89DBC0" class="l66d44" points="28.5,37.6 28.5,39.3 30.2,39.3 30.2,37.6"/>
<polygon id="00000190DB89D1B0" class="l67d20" points="27.7,36.8 27.7,40.1 31,40.1 31,36.8"/>
<polygon id="00000190DB89C960" class="l66d44" points="28.5,30.8 28.5,32.5 30.2,32.5 30.2,30.8"/>
<polygon id="00000190DB89D680" class="l66d44" points="28.5,34.2 28.5,35.9 30.2,35.9 30.2,34.2"/>
<polygon id="00000190DB89DC30" class="l67d20" points="27.7,33.4 27.7,36.7 31,36.7 31,33.4"/>
<polygon id="00000190DB89C7A0" class="l67d20" points="27.7,20.05 27.7,50.05 31,50.05 31,20.05"/>
<polygon id="00000190DB89D5A0" class="l66d44" points="22,24 22,25.7 23.7,25.7 23.7,24"/>
<polygon id="00000190DB89DFB0" class="l67d20" points="21.2,23.2 21.2,26.5 24.5,26.5 24.5,23.2"/>
<polygon id="00000190DB89C570" class="l67d20" points="21.2,26.6 21.2,29.9 24.5,29.9 24.5,26.6"/>
<polygon id="00000190DB89DD80" class="l66d44" points="22,44.4 22,46.1 23.7,46.1 23.7,44.4"/>
<polygon id="00000190DB89DED0" class="l67d20" points="21.2,43.6 21.2,46.9 24.5,46.9 24.5,43.6"/>
<polygon id="00000190DB89D060" class="l66d44" points="22,27.4 22,29.1 23.7,29.1 23.7,27.4"/>
<polygon id="00000190DB89CF80" class="l66d44" points="22,41 22,42.7 23.7,42.7 23.7,41"/>
<polygon id="00000190DB89DDF0" class="l67d20" points="21.2,40.2 21.2,43.5 24.5,43.5 24.5,40.2"/>
<polygon id="00000190DB89C810" class="l67d20" points="21.2,30 21.2,33.3 24.5,33.3 24.5,30"/>
<polygon id="00000190DB89CF10" class="l66d44" points="22,37.6 22,39.3 23.7,39.3 23.7,37.6"/>
<polygon id="00000190DB89DF40" class="l67d20" points="21.2,36.8 21.2,40.1 24.5,40.1 24.5,36.8"/>
<polygon id="00000190DB89C880" class="l66d44" points="22,30.8 22,32.5 23.7,32.5 23.7,30.8"/>
<polygon id="00000190DB89C9D0" class="l66d44" points="22,34.2 22,35.9 23.7,35.9 23.7,34.2"/>
<polygon id="00000190DB89DA00" class="l67d20" points="21.2,33.4 21.2,36.7 24.5,36.7 24.5,33.4"/>
<polygon id="00000190DB89D6F0" class="l67d20" points="21.2,20.05 21.2,50.05 24.5,50.05 24.5,20.05"/>
<polygon id="00000190DB89CAB0" class="l93d44" points="19.3,18.75 19.3,51.35 32.9,51.35 32.9,18.75"/>
<polygon id="00000190DB89CFF0" class="l65d20" points="20.6,20.05 20.6,50.05 31.6,50.05 31.6,20.05"/>
<polygon id="00000190DB89D220" class="l66d44" points="25.25,15.05 25.25,16.75 26.95,16.75 26.95,15.05"/>
<polygon id="00000190DB89D290" class="l66d20" points="24.45,14.25 24.45,17.55 27.75,17.55 27.75,14.25"/>
<polygon id="00000190DB89D760" class="l67d20" points="24.45,14.25 24.45,17.55 27.75,17.55 27.75,14.25"/>
<polygon id="00000190DB89D7D0" class="l66d20" points="24.45,14.25 24.45,17.55 27.75,17.55 27.75,14.25"/>
<polygon id="00000190DB89EBF0" class="l95d20" points="24.25,14.05 27.95,14.05 27.95,17.75 24.25,17.75"/>
<polygon id="00000190DB89EDB0" class="l67d20" points="21.2,14.25 24.45,14.25 24.45,17.55 21.2,17.55"/>
<polygon id="00000190DB89E720" class="l67d20" points="21.2,14.25 24.5,14.25 24.5,20.05 21.2,20.05"/>
<polygon id="00000190DB89EC60" class="l67d20" points="27.75,14.25 31,14.25 31,17.55 27.75,17.55"/>
<polygon id="00000190DB89ED40" class="l67d20" points="27.7,14.25 31,14.25 31,20.05 27.7,20.05"/>
<polygon id="00000190DB89E640" class="l68d20" points="4,55.8 4,58.7 13.4,58.7 13.4,55.8"/>
<polygon id="00000190DB89FA60" class="l68d20" points="4,51.5 4,54.4 13.4,54.4 13.4,51.5"/>
<polygon id="00000190DB89F210" class="l66d44" points="7.85,11.05 7.85,12.75 9.55,12.75 9.55,11.05"/>
<polygon id="00000190DB89E250" class="l68d20" points="7.25,10.45 7.25,13.35 10.15,13.35 10.15,10.45"/>
<polygon id="00000190DB89FC20" class="l67d20" points="7.05,10.25 7.05,13.55 10.35,13.55 10.35,10.25"/>
<polygon id="00000190DB89FC90" class="l67d44" points="7.85,11.05 7.85,12.75 9.55,12.75 9.55,11.05"/>
<polygon id="00000190DB89F520" class="l66d20" points="7.05,10.25 7.05,13.55 10.35,13.55 10.35,10.25"/>
<polygon id="00000190DB89F590" class="l68d20" points="7.05,10.25 7.05,13.55 10.35,13.55 10.35,10.25"/>
<polygon id="00000190DB89F9F0" class="l66d20" points="7.05,10.25 7.05,13.55 10.35,13.55 10.35,10.25"/>
<polygon id="00000190DB89E950" class="l95d20" points="6.85,10.05 10.55,10.05 10.55,13.75 6.85,13.75"/>
<polygon id="00000190DB89E3A0" class="l67d20" points="10.3,50.05 13.6,50.05 13.6,58.1 10.3,58.1"/>
<polygon id="00000190DB89F600" class="l67d44" points="11.1,56.4 11.1,58.1 12.8,58.1 12.8,56.4"/>
<polygon id="00000190DB89EE20" class="l68d20" points="10.5,55.8 10.5,58.7 13.4,58.7 13.4,55.8"/>
<polygon id="00000190DB89FBB0" class="l67d20" points="11.1,56.4 11.1,58.1 12.8,58.1 12.8,56.4"/>
<polygon id="00000190DB89F750" class="l66d20" points="7.95,13.55 9.45,13.55 9.45,17.55 7.95,17.55"/>
<polygon id="00000190DB89E410" class="l67d20" points="3.8,50.05 7.1,50.05 7.1,53.8 3.8,53.8"/>
</g>
</svg>
