<?xml version='1.0' encoding='ASCII' standalone='yes'?>
<svg xmlns="http://www.w3.org/2000/svg" xmlns:xlink="http://www.w3.org/1999/xlink" width="228.325" height="251.07500000000002" viewBox="-45.665 -50.215 91.33 100.43">
<defs>
<style type="text/css">
.l64d44 {stroke: #E25822; fill: #E25822; fill-opacity: 0.5;}
.l67d44 {stroke: #875692; fill: #875692; fill-opacity: 0.5;}
.l66d44 {stroke: #F3C300; fill: #F3C300; fill-opacity: 0.5;}
.l95d20 {stroke: #654522; fill: #654522; fill-opacity: 0.5;}
.l94d20 {stroke: #8DB600; fill: #8DB600; fill-opacity: 0.5;}
.l65d20 {stroke: #008856; fill: #008856; fill-opacity: 0.5;}
.l67d20 {stroke: #0067A5; fill: #0067A5; fill-opacity: 0.5;}
.l66d20 {stroke: #E68FAC; fill: #E68FAC; fill-opacity: 0.5;}
.l93d44 {stroke: #008856; fill: #008856; fill-opacity: 0.5;}
.l68d20 {stroke: #F99379; fill: #F99379; fill-opacity: 0.5;}
.l64d18 {stroke: #F3C300; fill: #F3C300; fill-opacity: 0.5;}
</style>
</defs>
<rect x="-45.665" y="-50.215" width="91.33" height="100.43" fill="#222222" stroke="none"/>
<g id="Unnamed_07a33fa3" transform="scale(1 -1)">
<polygon id="000001DEB4F84F50" class="l64d44" points="-32.3,-36.85 32.3,-36.85 32.3,36.85 -32.3,36.85"/>
<polygon id="000001DEB4F850A0" class="l64d18" points="-32.3,-36.85 32.3,-36.85 32.3,36.85 -32.3,36.85"/>
<polygon id="000001DEB4F85B90" class="l66d20" points="-13.75,-16.8 -13.75,18.2 -12.25,18.2 -12.25,-16.8"/>
<polygon id="000001DEB4F84E00" class="l66d44" points="-10.6,-10.35 -10.6,-8.65 -8.9,-8.65 -8.9,-10.35"/>
<polygon id="000001DEB4F857A0" class="l67d20" points="-11.4,-11.15 -11.4,-7.85 -8.1,-7.85 -8.1,-11.15"/>
<polygon id="000001DEB4F85490" class="l67d20" points="-11.4,-7.75 -11.4,-4.45 -8.1,-4.45 -8.1,-7.75"/>
<polygon id="000001DEB4F845B0" class="l66d44" points="-10.6,10.05 -10.6,11.75 -8.9,11.75 -8.9,10.05"/>
<polygon id="000001DEB4F853B0" class="l67d20" points="-11.4,9.25 -11.4,12.55 -8.1,12.55 -8.1,9.25"/>
<polygon id="000001DEB4F85C00" class="l66d44" points="-10.6,-6.95 -10.6,-5.25 -8.9,-5.25 -8.9,-6.95"/>
<polygon id="000001DEB4F84850" class="l66d44" points="-10.6,6.65 -10.6,8.35 -8.9,8.35 -8.9,6.65"/>
<polygon id="000001DEB4F84FC0" class="l67d20" points="-11.4,5.85 -11.4,9.15 -8.1,9.15 -8.1,5.85"/>
<polygon id="000001DEB4F842A0" class="l67d20" points="-11.4,-4.35 -11.4,-1.05 -8.1,-1.05 -8.1,-4.35"/>
<polygon id="000001DEB4F85B20" class="l66d44" points="-10.6,3.25 -10.6,4.95 -8.9,4.95 -8.9,3.25"/>
<polygon id="000001DEB4F84690" class="l67d20" points="-11.4,2.45 -11.4,5.75 -8.1,5.75 -8.1,2.45"/>
<polygon id="000001DEB4F85420" class="l66d44" points="-10.6,-3.55 -10.6,-1.85 -8.9,-1.85 -8.9,-3.55"/>
<polygon id="000001DEB4F85110" class="l66d44" points="-10.6,-0.15 -10.6,1.55 -8.9,1.55 -8.9,-0.15"/>
<polygon id="000001DEB4F84700" class="l67d20" points="-11.4,-0.95 -11.4,2.35 -8.1,2.35 -8.1,-0.95"/>
<polygon id="000001DEB4F84A80" class="l67d20" points="-11.4,-14.3 -11.4,15.7 -8.1,15.7 -8.1,-14.3"/>
<polygon id="000001DEB4F84620" class="l67d44" points="-10.6,-12.75 -10.6,-11.05 -8.9,-11.05 -8.9,-12.75"/>
<polygon id="000001DEB4F84AF0" class="l68d20" points="-11.2,-13.35 -11.2,-10.45 -8.3,-10.45 -8.3,-13.35"/>
<polygon id="000001DEB4F84770" class="l67d20" points="-10.6,-12.75 -10.6,-11.05 -8.9,-11.05 -8.9,-12.75"/>
<polygon id="000001DEB4F85810" class="l67d44" points="-10.6,12.45 -10.6,14.15 -8.9,14.15 -8.9,12.45"/>
<polygon id="000001DEB4F84B60" class="l68d20" points="-11.2,11.85 -11.2,14.75 -8.3,14.75 -8.3,11.85"/>
<polygon id="000001DEB4F84C40" class="l67d20" points="-10.6,12.45 -10.6,14.15 -8.9,14.15 -8.9,12.45"/>
<polygon id="000001DEB4F852D0" class="l67d44" points="-10.6,8.85 -10.6,10.55 -8.9,10.55 -8.9,8.85"/>
<polygon id="000001DEB4F85180" class="l68d20" points="-11.2,8.25 -11.2,11.15 -8.3,11.15 -8.3,8.25"/>
<polygon id="000001DEB4F851F0" class="l67d20" points="-10.6,8.85 -10.6,10.55 -8.9,10.55 -8.9,8.85"/>
<polygon id="000001DEB4F85260" class="l67d44" points="-10.6,5.25 -10.6,6.95 -8.9,6.95 -8.9,5.25"/>
<polygon id="000001DEB4F85500" class="l68d20" points="-11.2,4.65 -11.2,7.55 -8.3,7.55 -8.3,4.65"/>
<polygon id="000001DEB4F84CB0" class="l67d20" points="-10.6,5.25 -10.6,6.95 -8.9,6.95 -8.9,5.25"/>
<polygon id="000001DEB4F855E0" class="l67d44" points="-10.6,1.65 -10.6,3.35 -8.9,3.35 -8.9,1.65"/>
<polygon id="000001DEB4F85650" class="l68d20" points="-11.2,1.05 -11.2,3.95 -8.3,3.95 -8.3,1.05"/>
<polygon id="000001DEB4F84070" class="l67d20" points="-10.6,1.65 -10.6,3.35 -8.9,3.35 -8.9,1.65"/>
<polygon id="000001DEB4F856C0" class="l67d44" points="-10.6,-1.95 -10.6,-0.25 -8.9,-0.25 -8.9,-1.95"/>
<polygon id="000001DEB4F85730" class="l68d20" points="-11.2,-2.55 -11.2,0.35 -8.3,0.35 -8.3,-2.55"/>
<polygon id="000001DEB4F85960" class="l67d20" points="-10.6,-1.95 -10.6,-0.25 -8.9,-0.25 -8.9,-1.95"/>
<polygon id="000001DEB4F84230" class="l67d44" points="-10.6,-5.55 -10.6,-3.85 -8.9,-3.85 -8.9,-5.55"/>
<polygon id="000001DEB4F84540" class="l68d20" points="-11.2,-6.15 -11.2,-3.25 -8.3,-3.25 -8.3,-6.15"/>
<polygon id="000001DEB4F859D0" class="l67d20" points="-10.6,-5.55 -10.6,-3.85 -8.9,-3.85 -8.9,-5.55"/>
<polygon id="000001DEB4F84380" class="l67d44" points="-10.6,-9.15 -10.6,-7.45 -8.9,-7.45 -8.9,-9.15"/>
<polygon id="000001DEB4F85A40" class="l68d20" points="-11.2,-9.75 -11.2,-6.85 -8.3,-6.85 -8.3,-9.75"/>
<polygon id="000001DEB4F85AB0" class="l67d20" points="-10.6,-9.15 -10.6,-7.45 -8.9,-7.45 -8.9,-9.15"/>
<polygon id="000001DEB4F841C0" class="l68d20" points="-11.2,-14.3 -11.2,15.7 -8.3,15.7 -8.3,-14.3"/>
<polygon id="000001DEB4F84310" class="l67d20" points="-10.6,-12.75 -10.6,14.15 -8.9,14.15 -8.9,-12.75"/>
<polygon id="000001DEB4F843F0" class="l66d20" points="12.25,-16.8 12.25,18.2 13.75,18.2 13.75,-16.8"/>
<polygon id="000001DEB4F84460" class="l66d44" points="15.4,-10.35 15.4,-8.65 17.1,-8.65 17.1,-10.35"/>
<polygon id="000001DEB4F844D0" class="l67d20" points="14.6,-11.15 14.6,-7.85 17.9,-7.85 17.9,-11.15"/>
<polygon id="000001DEB4F86060" class="l67d20" points="14.6,-7.75 14.6,-4.45 17.9,-4.45 17.9,-7.75"/>
<polygon id="000001DEB4F86DF0" class="l66d44" points="15.4,10.05 15.4,11.75 17.1,11.75 17.1,10.05"/>
<polygon id="000001DEB4F85C70" class="l67d20" points="14.6,9.25 14.6,12.55 17.9,12.55 17.9,9.25"/>
<polygon id="000001DEB4F86A00" class="l66d44" points="15.4,-6.95 15.4,-5.25 17.1,-5.25 17.1,-6.95"/>
<polygon id="000001DEB4F86990" class="l66d44" points="15.4,6.65 15.4,8.35 17.1,8.35 17.1,6.65"/>
<polygon id="000001DEB4F86B50" class="l67d20" points="14.6,5.85 14.6,9.15 17.9,9.15 17.9,5.85"/>
<polygon id="000001DEB4F871E0" class="l67d20" points="14.6,-4.35 14.6,-1.05 17.9,-1.05 17.9,-4.35"/>
<polygon id="000001DEB4F867D0" class="l66d44" points="15.4,3.25 15.4,4.95 17.1,4.95 17.1,3.25"/>
<polygon id="000001DEB4F86A70" class="l67d20" points="14.6,2.45 14.6,5.75 17.9,5.75 17.9,2.45"/>
<polygon id="000001DEB4F87170" class="l66d44" points="15.4,-3.55 15.4,-1.85 17.1,-1.85 17.1,-3.55"/>
<polygon id="000001DEB4F87250" class="l66d44" points="15.4,-0.15 15.4,1.55 17.1,1.55 17.1,-0.15"/>
<polygon id="000001DEB4F86840" class="l67d20" points="14.6,-0.95 14.6,2.35 17.9,2.35 17.9,-0.95"/>
<polygon id="000001DEB4F868B0" class="l67d20" points="14.6,-14.3 14.6,15.7 17.9,15.7 17.9,-14.3"/>
<polygon id="000001DEB4F86AE0" class="l67d44" points="15.4,-12.75 15.4,-11.05 17.1,-11.05 17.1,-12.75"/>
<polygon id="000001DEB4F86C30" class="l68d20" points="14.8,-13.35 14.8,-10.45 17.7,-10.45 17.7,-13.35"/>
<polygon id="000001DEB4F861B0" class="l67d20" points="15.4,-12.75 15.4,-11.05 17.1,-11.05 17.1,-12.75"/>
<polygon id="000001DEB4F86D10" class="l67d44" points="15.4,12.45 15.4,14.15 17.1,14.15 17.1,12.45"/>
<polygon id="000001DEB4F86680" class="l68d20" points="14.8,11.85 14.8,14.75 17.7,14.75 17.7,11.85"/>
<polygon id="000001DEB4F87720" class="l67d20" points="15.4,12.45 15.4,14.15 17.1,14.15 17.1,12.45"/>
<polygon id="000001DEB4F87330" class="l67d44" points="15.4,8.85 15.4,10.55 17.1,10.55 17.1,8.85"/>
<polygon id="000001DEB4F86BC0" class="l68d20" points="14.8,8.25 14.8,11.15 17.7,11.15 17.7,8.25"/>
<polygon id="000001DEB4F866F0" class="l67d20" points="15.4,8.85 15.4,10.55 17.1,10.55 17.1,8.85"/>
<polygon id="000001DEB4F876B0" class="l67d44" points="15.4,5.25 15.4,6.95 17.1,6.95 17.1,5.25"/>
<polygon id="000001DEB4F863E0" class="l68d20" points="14.8,4.65 14.8,7.55 17.7,7.55 17.7,4.65"/>
<polygon id="000001DEB4F86CA0" class="l67d20" points="15.4,5.25 15.4,6.95 17.1,6.95 17.1,5.25"/>
<polygon id="000001DEB4F85EA0" class="l67d44" points="15.4,1.65 15.4,3.35 17.1,3.35 17.1,1.65"/>
<polygon id="000001DEB4F87790" class="l68d20" points="14.8,1.05 14.8,3.95 17.7,3.95 17.7,1.05"/>
<polygon id="000001DEB4F86290" class="l67d20" points="15.4,1.65 15.4,3.35 17.1,3.35 17.1,1.65"/>
<polygon id="000001DEB4F86FB0" class="l67d44" points="15.4,-1.95 15.4,-0.25 17.1,-0.25 17.1,-1.95"/>
<polygon id="000001DEB4F86D80" class="l68d20" points="14.8,-2.55 14.8,0.35 17.7,0.35 17.7,-2.55"/>
<polygon id="000001DEB4F86300" class="l67d20" points="15.4,-1.95 15.4,-0.25 17.1,-0.25 17.1,-1.95"/>
<polygon id="000001DEB4F87800" class="l67d44" points="15.4,-5.55 15.4,-3.85 17.1,-3.85 17.1,-5.55"/>
<polygon id="000001DEB4F85CE0" class="l68d20" points="14.8,-6.15 14.8,-3.25 17.7,-3.25 17.7,-6.15"/>
<polygon id="000001DEB4F86ED0" class="l67d20" points="15.4,-5.55 15.4,-3.85 17.1,-3.85 17.1,-5.55"/>
<polygon id="000001DEB4F86F40" class="l67d44" points="15.4,-9.15 15.4,-7.45 17.1,-7.45 17.1,-9.15"/>
<polygon id="000001DEB4F872C0" class="l68d20" points="14.8,-9.75 14.8,-6.85 17.7,-6.85 17.7,-9.75"/>
<polygon id="000001DEB4F86E60" class="l67d20" points="15.4,-9.15 15.4,-7.45 17.1,-7.45 17.1,-9.15"/>
<polygon id="000001DEB4F87020" class="l68d20" points="14.8,-14.3 14.8,15.7 17.7,15.7 17.7,-14.3"/>
<polygon id="000001DEB4F86370" class="l67d20" points="15.4,-12.75 15.4,14.15 17.1,14.15 17.1,-12.75"/>
<polygon id="000001DEB4F87100" class="l66d20" points="5.75,-16.8 5.75,18.2 7.25,18.2 7.25,-16.8"/>
<polygon id="000001DEB4F87090" class="l66d44" points="8.9,-10.35 8.9,-8.65 10.6,-8.65 10.6,-10.35"/>
<polygon id="000001DEB4F873A0" class="l67d20" points="8.1,-11.15 8.1,-7.85 11.4,-7.85 11.4,-11.15"/>
<polygon id="000001DEB4F85D50" class="l67d20" points="8.1,-7.75 8.1,-4.45 11.4,-4.45 11.4,-7.75"/>
<polygon id="000001DEB4F87410" class="l66d44" points="8.9,10.05 8.9,11.75 10.6,11.75 10.6,10.05"/>
<polygon id="000001DEB4F87480" class="l67d20" points="8.1,9.25 8.1,12.55 11.4,12.55 11.4,9.25"/>
<polygon id="000001DEB4F85DC0" class="l66d44" points="8.9,-6.95 8.9,-5.25 10.6,-5.25 10.6,-6.95"/>
<polygon id="000001DEB4F86450" class="l66d44" points="8.9,6.65 8.9,8.35 10.6,8.35 10.6,6.65"/>
<polygon id="000001DEB4F874F0" class="l67d20" points="8.1,5.85 8.1,9.15 11.4,9.15 11.4,5.85"/>
<polygon id="000001DEB4F87560" class="l67d20" points="8.1,-4.35 8.1,-1.05 11.4,-1.05 11.4,-4.35"/>
<polygon id="000001DEB4F875D0" class="l66d44" points="8.9,3.25 8.9,4.95 10.6,4.95 10.6,3.25"/>
<polygon id="000001DEB4F87640" class="l67d20" points="8.1,2.45 8.1,5.75 11.4,5.75 11.4,2.45"/>
<polygon id="000001DEB4F85E30" class="l66d44" points="8.9,-3.55 8.9,-1.85 10.6,-1.85 10.6,-3.55"/>
<polygon id="000001DEB4F86140" class="l66d44" points="8.9,-0.15 8.9,1.55 10.6,1.55 10.6,-0.15"/>
<polygon id="000001DEB4F85F10" class="l67d20" points="8.1,-0.95 8.1,2.35 11.4,2.35 11.4,-0.95"/>
<polygon id="000001DEB4F85FF0" class="l67d20" points="8.1,-14.3 8.1,15.7 11.4,15.7 11.4,-14.3"/>
<polygon id="000001DEB4F860D0" class="l67d44" points="8.9,-12.75 8.9,-11.05 10.6,-11.05 10.6,-12.75"/>
<polygon id="000001DEB4F864C0" class="l68d20" points="8.3,-13.35 8.3,-10.45 11.2,-10.45 11.2,-13.35"/>
<polygon id="000001DEB4F86220" class="l67d20" points="8.9,-12.75 8.9,-11.05 10.6,-11.05 10.6,-12.75"/>
<polygon id="000001DEB4F86760" class="l67d44" points="8.9,12.45 8.9,14.15 10.6,14.15 10.6,12.45"/>
<polygon id="000001DEB4F86530" class="l68d20" points="8.3,11.85 8.3,14.75 11.2,14.75 11.2,11.85"/>
<polygon id="000001DEB4F865A0" class="l67d20" points="8.9,12.45 8.9,14.15 10.6,14.15 10.6,12.45"/>
<polygon id="000001DEB4F86610" class="l67d44" points="8.9,8.85 8.9,10.55 10.6,10.55 10.6,8.85"/>
<polygon id="000001DEB4F87CD0" class="l68d20" points="8.3,8.25 8.3,11.15 11.2,11.15 11.2,8.25"/>
<polygon id="000001DEB4F87BF0" class="l67d20" points="8.9,8.85 8.9,10.55 10.6,10.55 10.6,8.85"/>
<polygon id="000001DEB4F87A30" class="l67d44" points="8.9,5.25 8.9,6.95 10.6,6.95 10.6,5.25"/>
<polygon id="000001DEB4F87AA0" class="l68d20" points="8.3,4.65 8.3,7.55 11.2,7.55 11.2,4.65"/>
<polygon id="000001DEB4F87B10" class="l67d20" points="8.9,5.25 8.9,6.95 10.6,6.95 10.6,5.25"/>
<polygon id="000001DEB4F87E20" class="l67d44" points="8.9,1.65 8.9,3.35 10.6,3.35 10.6,1.65"/>
<polygon id="000001DEB4F879C0" class="l68d20" points="8.3,1.05 8.3,3.95 11.2,3.95 11.2,1.05"/>
<polygon id="000001DEB4F87E90" class="l67d20" points="8.9,1.65 8.9,3.35 10.6,3.35 10.6,1.65"/>
<polygon id="000001DEB4F87F00" class="l67d44" points="8.9,-1.95 8.9,-0.25 10.6,-0.25 10.6,-1.95"/>
<polygon id="000001DEB4F87F70" class="l68d20" points="8.3,-2.55 8.3,0.35 11.2,0.35 11.2,-2.55"/>
<polygon id="000001DEB4F87D40" class="l67d20" points="8.9,-1.95 8.9,-0.25 10.6,-0.25 10.6,-1.95"/>
<polygon id="000001DEB4F87DB0" class="l67d44" points="8.9,-5.55 8.9,-3.85 10.6,-3.85 10.6,-5.55"/>
<polygon id="000001DEB4F87870" class="l68d20" points="8.3,-6.15 8.3,-3.25 11.2,-3.25 11.2,-6.15"/>
<polygon id="000001DEB4F87B80" class="l67d20" points="8.9,-5.55 8.9,-3.85 10.6,-3.85 10.6,-5.55"/>
<polygon id="000001DEB4F878E0" class="l67d44" points="8.9,-9.15 8.9,-7.45 10.6,-7.45 10.6,-9.15"/>
<polygon id="000001DEB4F87950" class="l68d20" points="8.3,-9.75 8.3,-6.85 11.2,-6.85 11.2,-9.75"/>
<polygon id="000001DEB4F87C60" class="l67d20" points="8.9,-9.15 8.9,-7.45 10.6,-7.45 10.6,-9.15"/>
<polygon id="000001DEB4DE8BA0" class="l68d20" points="8.3,-14.3 8.3,15.7 11.2,15.7 11.2,-14.3"/>
<polygon id="000001DEB4DE97E0" class="l67d20" points="8.9,-12.75 8.9,14.15 10.6,14.15 10.6,-12.75"/>
<polygon id="000001DEB4DE9B60" class="l66d20" points="-0.75,-16.8 -0.75,18.2 0.75,18.2 0.75,-16.8"/>
<polygon id="000001DEB4DE98C0" class="l66d44" points="2.4,-10.35 2.4,-8.65 4.1,-8.65 4.1,-10.35"/>
<polygon id="000001DEB4DE8CF0" class="l67d20" points="1.6,-11.15 1.6,-7.85 4.9,-7.85 4.9,-11.15"/>
<polygon id="000001DEB4DE8D60" class="l67d20" points="1.6,-7.75 1.6,-4.45 4.9,-4.45 4.9,-7.75"/>
<polygon id="000001DEB4DEA030" class="l66d44" points="2.4,10.05 2.4,11.75 4.1,11.75 4.1,10.05"/>
<polygon id="000001DEB4DE8DD0" class="l67d20" points="1.6,9.25 1.6,12.55 4.9,12.55 4.9,9.25"/>
<polygon id="000001DEB4DE8970" class="l66d44" points="2.4,-6.95 2.4,-5.25 4.1,-5.25 4.1,-6.95"/>
<polygon id="000001DEB4DEA260" class="l66d44" points="2.4,6.65 2.4,8.35 4.1,8.35 4.1,6.65"/>
<polygon id="000001DEB4DE9380" class="l67d20" points="1.6,5.85 1.6,9.15 4.9,9.15 4.9,5.85"/>
<polygon id="000001DEB4DE9310" class="l67d20" points="1.6,-4.35 1.6,-1.05 4.9,-1.05 4.9,-4.35"/>
<polygon id="000001DEB4DE9D90" class="l66d44" points="2.4,3.25 2.4,4.95 4.1,4.95 4.1,3.25"/>
<polygon id="000001DEB4DE89E0" class="l67d20" points="1.6,2.45 1.6,5.75 4.9,5.75 4.9,2.45"/>
<polygon id="000001DEB4DE8E40" class="l66d44" points="2.4,-3.55 2.4,-1.85 4.1,-1.85 4.1,-3.55"/>
<polygon id="000001DEB4DE8EB0" class="l66d44" points="2.4,-0.15 2.4,1.55 4.1,1.55 4.1,-0.15"/>
<polygon id="000001DEB4DE9AF0" class="l67d20" points="1.6,-0.95 1.6,2.35 4.9,2.35 4.9,-0.95"/>
<polygon id="000001DEB4DE8F90" class="l67d20" points="1.6,-14.3 1.6,15.7 4.9,15.7 4.9,-14.3"/>
<polygon id="000001DEB4DE9BD0" class="l67d44" points="2.4,-12.75 2.4,-11.05 4.1,-11.05 4.1,-12.75"/>
<polygon id="000001DEB4DE8AC0" class="l68d20" points="1.8,-13.35 1.8,-10.45 4.7,-10.45 4.7,-13.35"/>
<polygon id="000001DEB4DE90E0" class="l67d20" points="2.4,-12.75 2.4,-11.05 4.1,-11.05 4.1,-12.75"/>
<polygon id="000001DEB4DE9930" class="l67d44" points="2.4,12.45 2.4,14.15 4.1,14.15 4.1,12.45"/>
<polygon id="000001DEB4DE91C0" class="l68d20" points="1.8,11.85 1.8,14.75 4.7,14.75 4.7,11.85"/>
<polygon id="000001DEB4DE9000" class="l67d20" points="2.4,12.45 2.4,14.15 4.1,14.15 4.1,12.45"/>
<polygon id="000001DEB4DE9540" class="l67d44" points="2.4,8.85 2.4,10.55 4.1,10.55 4.1,8.85"/>
<polygon id="000001DEB4DE9E70" class="l68d20" points="1.8,8.25 1.8,11.15 4.7,11.15 4.7,8.25"/>
<polygon id="000001DEB4DE9070" class="l67d20" points="2.4,8.85 2.4,10.55 4.1,10.55 4.1,8.85"/>
<polygon id="000001DEB4DE9C40" class="l67d44" points="2.4,5.25 2.4,6.95 4.1,6.95 4.1,5.25"/>
<polygon id="000001DEB4DE95B0" class="l68d20" points="1.8,4.65 1.8,7.55 4.7,7.55 4.7,4.65"/>
<polygon id="000001DEB4DE9CB0" class="l67d20" points="2.4,5.25 2.4,6.95 4.1,6.95 4.1,5.25"/>
<polygon id="000001DEB4DE93F0" class="l67d44" points="2.4,1.65 2.4,3.35 4.1,3.35 4.1,1.65"/>
<polygon id="000001DEB4DEA110" class="l68d20" points="1.8,1.05 1.8,3.95 4.7,3.95 4.7,1.05"/>
<polygon id="000001DEB4DE99A0" class="l67d20" points="2.4,1.65 2.4,3.35 4.1,3.35 4.1,1.65"/>
<polygon id="000001DEB4DE8B30" class="l67d44" points="2.4,-1.95 2.4,-0.25 4.1,-0.25 4.1,-1.95"/>
<polygon id="000001DEB4DE9620" class="l68d20" points="1.8,-2.55 1.8,0.35 4.7,0.35 4.7,-2.55"/>
<polygon id="000001DEB4DE9EE0" class="l67d20" points="2.4,-1.95 2.4,-0.25 4.1,-0.25 4.1,-1.95"/>
<polygon id="000001DEB4DE9F50" class="l67d44" points="2.4,-5.55 2.4,-3.85 4.1,-3.85 4.1,-5.55"/>
<polygon id="000001DEB4DE9230" class="l68d20" points="1.8,-6.15 1.8,-3.25 4.7,-3.25 4.7,-6.15"/>
<polygon id="000001DEB4DE9460" class="l67d20" points="2.4,-5.55 2.4,-3.85 4.1,-3.85 4.1,-5.55"/>
<polygon id="000001DEB4DE9A10" class="l67d44" points="2.4,-9.15 2.4,-7.45 4.1,-7.45 4.1,-9.15"/>
<polygon id="000001DEB4DEA0A0" class="l68d20" points="1.8,-9.75 1.8,-6.85 4.7,-6.85 4.7,-9.75"/>
<polygon id="000001DEB4DE8510" class="l67d20" points="2.4,-9.15 2.4,-7.45 4.1,-7.45 4.1,-9.15"/>
<polygon id="000001DEB4DE6C90" class="l68d20" points="1.8,-14.3 1.8,15.7 4.7,15.7 4.7,-14.3"/>
<polygon id="000001DEB4DE7FD0" class="l67d20" points="2.4,-12.75 2.4,14.15 4.1,14.15 4.1,-12.75"/>
<polygon id="000001DEB4DE7780" class="l66d20" points="-7.25,-16.8 -7.25,18.2 -5.75,18.2 -5.75,-16.8"/>
<polygon id="000001DEB4DE7B70" class="l66d44" points="-4.1,-10.35 -4.1,-8.65 -2.4,-8.65 -2.4,-10.35"/>
<polygon id="000001DEB4DE7E80" class="l67d20" points="-4.9,-11.15 -4.9,-7.85 -1.6,-7.85 -1.6,-11.15"/>
<polygon id="000001DEB4DE6D70" class="l67d20" points="-4.9,-7.75 -4.9,-4.45 -1.6,-4.45 -1.6,-7.75"/>
<polygon id="000001DEB4DE6DE0" class="l66d44" points="-4.1,10.05 -4.1,11.75 -2.4,11.75 -2.4,10.05"/>
<polygon id="000001DEB4DE7BE0" class="l67d20" points="-4.9,9.25 -4.9,12.55 -1.6,12.55 -1.6,9.25"/>
<polygon id="000001DEB4DE7E10" class="l66d44" points="-4.1,-6.95 -4.1,-5.25 -2.4,-5.25 -2.4,-6.95"/>
<polygon id="000001DEB4DE7940" class="l66d44" points="-4.1,6.65 -4.1,8.35 -2.4,8.35 -2.4,6.65"/>
<polygon id="000001DEB4DE8430" class="l67d20" points="-4.9,5.85 -4.9,9.15 -1.6,9.15 -1.6,5.85"/>
<polygon id="000001DEB4DE80B0" class="l67d20" points="-4.9,-4.35 -4.9,-1.05 -1.6,-1.05 -1.6,-4.35"/>
<polygon id="000001DEB4DE7EF0" class="l66d44" points="-4.1,3.25 -4.1,4.95 -2.4,4.95 -2.4,3.25"/>
<polygon id="000001DEB4DE8190" class="l67d20" points="-4.9,2.45 -4.9,5.75 -1.6,5.75 -1.6,2.45"/>
<polygon id="000001DEB4DE8270" class="l66d44" points="-4.1,-3.55 -4.1,-1.85 -2.4,-1.85 -2.4,-3.55"/>
<polygon id="000001DEB4DE6EC0" class="l66d44" points="-4.1,-0.15 -4.1,1.55 -2.4,1.55 -2.4,-0.15"/>
<polygon id="000001DEB4DE8580" class="l67d20" points="-4.9,-0.95 -4.9,2.35 -1.6,2.35 -1.6,-0.95"/>
<polygon id="000001DEB4DE86D0" class="l67d20" points="-4.9,-14.3 -4.9,15.7 -1.6,15.7 -1.6,-14.3"/>
<polygon id="000001DEB4DE8660" class="l67d44" points="-4.1,-12.75 -4.1,-11.05 -2.4,-11.05 -2.4,-12.75"/>
<polygon id="000001DEB4DE8740" class="l68d20" points="-4.7,-13.35 -4.7,-10.45 -1.8,-10.45 -1.8,-13.35"/>
<polygon id="000001DEB4DE74E0" class="l67d20" points="-4.1,-12.75 -4.1,-11.05 -2.4,-11.05 -2.4,-12.75"/>
<polygon id="000001DEB4DE7C50" class="l67d44" points="-4.1,12.45 -4.1,14.15 -2.4,14.15 -2.4,12.45"/>
<polygon id="000001DEB4DE6E50" class="l68d20" points="-4.7,11.85 -4.7,14.75 -1.8,14.75 -1.8,11.85"/>
<polygon id="000001DEB4DE7CC0" class="l67d20" points="-4.1,12.45 -4.1,14.15 -2.4,14.15 -2.4,12.45"/>
<polygon id="000001DEB4DE83C0" class="l67d44" points="-4.1,8.85 -4.1,10.55 -2.4,10.55 -2.4,8.85"/>
<polygon id="000001DEB4DE7080" class="l68d20" points="-4.7,8.25 -4.7,11.15 -1.8,11.15 -1.8,8.25"/>
<polygon id="000001DEB4DE8350" class="l67d20" points="-4.1,8.85 -4.1,10.55 -2.4,10.55 -2.4,8.85"/>
<polygon id="000001DEB4DE79B0" class="l67d44" points="-4.1,5.25 -4.1,6.95 -2.4,6.95 -2.4,5.25"/>
<polygon id="000001DEB4DE7710" class="l68d20" points="-4.7,4.65 -4.7,7.55 -1.8,7.55 -1.8,4.65"/>
<polygon id="000001DEB4DE70F0" class="l67d20" points="-4.1,5.25 -4.1,6.95 -2.4,6.95 -2.4,5.25"/>
<polygon id="000001DEB4DE7400" class="l67d44" points="-4.1,1.65 -4.1,3.35 -2.4,3.35 -2.4,1.65"/>
<polygon id="000001DEB4DE8200" class="l68d20" points="-4.7,1.05 -4.7,3.95 -1.8,3.95 -1.8,1.05"/>
<polygon id="000001DEB4DE7160" class="l67d20" points="-4.1,1.65 -4.1,3.35 -2.4,3.35 -2.4,1.65"/>
<polygon id="000001DEB4DE7240" class="l67d44" points="-4.1,-1.95 -4.1,-0.25 -2.4,-0.25 -2.4,-1.95"/>
<polygon id="000001DEB4DE72B0" class="l68d20" points="-4.7,-2.55 -4.7,0.35 -1.8,0.35 -1.8,-2.55"/>
<polygon id="000001DEB4DE82E0" class="l67d20" points="-4.1,-1.95 -4.1,-0.25 -2.4,-0.25 -2.4,-1.95"/>
<polygon id="000001DEB4DE7320" class="l67d44" points="-4.1,-5.55 -4.1,-3.85 -2.4,-3.85 -2.4,-5.55"/>
<polygon id="000001DEB4DE7550" class="l68d20" points="-4.7,-6.15 -4.7,-3.25 -1.8,-3.25 -1.8,-6.15"/>
<polygon id="000001DEB4DE75C0" class="l67d20" points="-4.1,-5.55 -4.1,-3.85 -2.4,-3.85 -2.4,-5.55"/>
<polygon id="000001DEB4DE76A0" class="l67d44" points="-4.1,-9.15 -4.1,-7.45 -2.4,-7.45 -2.4,-9.15"/>
<polygon id="000001DEB509ADC0" class="l68d20" points="-4.7,-9.75 -4.7,-6.85 -1.8,-6.85 -1.8,-9.75"/>
<polygon id="000001DEB509AEA0" class="l67d20" points="-4.1,-9.15 -4.1,-7.45 -2.4,-7.45 -2.4,-9.15"/>
<polygon id="000001DEB509B0D0" class="l68d20" points="-4.7,-14.3 -4.7,15.7 -1.8,15.7 -1.8,-14.3"/>
<polygon id="000001DEB509AD50" class="l67d20" points="-4.1,-12.75 -4.1,14.15 -2.4,14.15 -2.4,-12.75"/>
<polygon id="000001DEB509AC00" class="l66d44" points="-17.1,-10.35 -17.1,-8.65 -15.4,-8.65 -15.4,-10.35"/>
<polygon id="000001DEB509A260" class="l67d20" points="-17.9,-11.15 -17.9,-7.85 -14.6,-7.85 -14.6,-11.15"/>
<polygon id="000001DEB509AFF0" class="l67d20" points="-17.9,-7.75 -17.9,-4.45 -14.6,-4.45 -14.6,-7.75"/>
<polygon id="000001DEB509B060" class="l66d44" points="-17.1,10.05 -17.1,11.75 -15.4,11.75 -15.4,10.05"/>
<polygon id="000001DEB509AB20" class="l67d20" points="-17.9,9.25 -17.9,12.55 -14.6,12.55 -14.6,9.25"/>
<polygon id="000001DEB5099BD0" class="l66d44" points="-17.1,-6.95 -17.1,-5.25 -15.4,-5.25 -15.4,-6.95"/>
<polygon id="000001DEB509B1B0" class="l66d44" points="-17.1,6.65 -17.1,8.35 -15.4,8.35 -15.4,6.65"/>
<polygon id="000001DEB509B220" class="l67d20" points="-17.9,5.85 -17.9,9.15 -14.6,9.15 -14.6,5.85"/>
<polygon id="000001DEB5099C40" class="l67d20" points="-17.9,-4.35 -17.9,-1.05 -14.6,-1.05 -14.6,-4.35"/>
<polygon id="000001DEB509A2D0" class="l66d44" points="-17.1,3.25 -17.1,4.95 -15.4,4.95 -15.4,3.25"/>
<polygon id="000001DEB509B370" class="l67d20" points="-17.9,2.45 -17.9,5.75 -14.6,5.75 -14.6,2.45"/>
<polygon id="000001DEB509B290" class="l66d44" points="-17.1,-3.55 -17.1,-1.85 -15.4,-1.85 -15.4,-3.55"/>
<polygon id="000001DEB509B300" class="l66d44" points="-17.1,-0.15 -17.1,1.55 -15.4,1.55 -15.4,-0.15"/>
<polygon id="000001DEB509B3E0" class="l67d20" points="-17.9,-0.95 -17.9,2.35 -14.6,2.35 -14.6,-0.95"/>
<polygon id="000001DEB5099D20" class="l67d20" points="-17.9,-14.3 -17.9,15.7 -14.6,15.7 -14.6,-14.3"/>
<polygon id="000001DEB509A0A0" class="l67d44" points="-17.1,-12.75 -17.1,-11.05 -15.4,-11.05 -15.4,-12.75"/>
<polygon id="000001DEB509B4C0" class="l68d20" points="-17.7,-13.35 -17.7,-10.45 -14.8,-10.45 -14.8,-13.35"/>
<polygon id="000001DEB5099E70" class="l67d20" points="-17.1,-12.75 -17.1,-11.05 -15.4,-11.05 -15.4,-12.75"/>
<polygon id="000001DEB509B450" class="l67d44" points="-17.1,12.45 -17.1,14.15 -15.4,14.15 -15.4,12.45"/>
<polygon id="000001DEB509A3B0" class="l68d20" points="-17.7,11.85 -17.7,14.75 -14.8,14.75 -14.8,11.85"/>
<polygon id="000001DEB509B530" class="l67d20" points="-17.1,12.45 -17.1,14.15 -15.4,14.15 -15.4,12.45"/>
<polygon id="000001DEB509A5E0" class="l67d44" points="-17.1,8.85 -17.1,10.55 -15.4,10.55 -15.4,8.85"/>
<polygon id="000001DEB509A570" class="l68d20" points="-17.7,8.25 -17.7,11.15 -14.8,11.15 -14.8,8.25"/>
<polygon id="000001DEB5099EE0" class="l67d20" points="-17.1,8.85 -17.1,10.55 -15.4,10.55 -15.4,8.85"/>
<polygon id="000001DEB509B5A0" class="l67d44" points="-17.1,5.25 -17.1,6.95 -15.4,6.95 -15.4,5.25"/>
<polygon id="000001DEB509B610" class="l68d20" points="-17.7,4.65 -17.7,7.55 -14.8,7.55 -14.8,4.65"/>
<polygon id="000001DEB509A960" class="l67d20" points="-17.1,5.25 -17.1,6.95 -15.4,6.95 -15.4,5.25"/>
<polygon id="000001DEB509A340" class="l67d44" points="-17.1,1.65 -17.1,3.35 -15.4,3.35 -15.4,1.65"/>
<polygon id="000001DEB509A490" class="l68d20" points="-17.7,1.05 -17.7,3.95 -14.8,3.95 -14.8,1.05"/>
<polygon id="000001DEB509A650" class="l67d20" points="-17.1,1.65 -17.1,3.35 -15.4,3.35 -15.4,1.65"/>
<polygon id="000001DEB5099D90" class="l67d44" points="-17.1,-1.95 -17.1,-0.25 -15.4,-0.25 -15.4,-1.95"/>
<polygon id="000001DEB509A110" class="l68d20" points="-17.7,-2.55 -17.7,0.35 -14.8,0.35 -14.8,-2.55"/>
<polygon id="000001DEB5099F50" class="l67d20" points="-17.1,-1.95 -17.1,-0.25 -15.4,-0.25 -15.4,-1.95"/>
<polygon id="000001DEB5099FC0" class="l67d44" points="-17.1,-5.55 -17.1,-3.85 -15.4,-3.85 -15.4,-5.55"/>
<polygon id="000001DEB509A180" class="l68d20" points="-17.7,-6.15 -17.7,-3.25 -14.8,-3.25 -14.8,-6.15"/>
<polygon id="000001DEB509A1F0" class="l67d20" points="-17.1,-5.55 -17.1,-3.85 -15.4,-3.85 -15.4,-5.55"/>
<polygon id="000001DEB509A500" class="l67d44" points="-17.1,-9.15 -17.1,-7.45 -15.4,-7.45 -15.4,-9.15"/>
<polygon id="000001DEB509A6C0" class="l68d20" points="-17.7,-9.75 -17.7,-6.85 -14.8,-6.85 -14.8,-9.75"/>
<polygon id="000001DEB509A730" class="l67d20" points="-17.1,-9.15 -17.1,-7.45 -15.4,-7.45 -15.4,-9.15"/>
<polygon id="000001DEB509A7A0" class="l68d20" points="-17.7,-14.3 -17.7,15.7 -14.8,15.7 -14.8,-14.3"/>
<polygon id="000001DEB509A8F0" class="l67d20" points="-17.1,-12.75 -17.1,14.15 -15.4,14.15 -15.4,-12.75"/>
<polygon id="000001DEB50A11F0" class="l93d44" points="-19.8,-15.6 -19.8,17 19.8,17 19.8,-15.6"/>
<polygon id="000001DEB50A12D0" class="l65d20" points="-18.5,-14.3 -18.5,15.7 18.5,15.7 18.5,-14.3"/>
<polygon id="000001DEB50A16C0" class="l67d44" points="-17.1,17.75 -17.1,19.45 -15.4,19.45 -15.4,17.75"/>
<polygon id="000001DEB50A1730" class="l68d20" points="-17.7,17.15 -17.7,20.05 -14.8,20.05 -14.8,17.15"/>
<polygon id="000001DEB50A19D0" class="l67d20" points="-17.1,17.75 -17.1,19.45 -15.4,19.45 -15.4,17.75"/>
<polygon id="000001DEB50A1A40" class="l68d20" points="-17.7,21.45 -17.7,24.35 17.7,24.35 17.7,21.45"/>
<polygon id="000001DEB50A0B60" class="l68d20" points="-17.7,17.15 -17.7,20.05 17.7,20.05 17.7,17.15"/>
<polygon id="000001DEB50A0C40" class="l66d44" points="-10.85,-23.3 -10.85,-21.6 -9.15,-21.6 -9.15,-23.3"/>
<polygon id="000001DEB5027540" class="l68d20" points="-11.45,-23.9 -11.45,-21 -8.55,-21 -8.55,-23.9"/>
<polygon id="000001DEB5026EB0" class="l67d20" points="-11.65,-24.1 -11.65,-20.8 -8.35,-20.8 -8.35,-24.1"/>
<polygon id="000001DEB5027230" class="l67d44" points="-10.85,-23.3 -10.85,-21.6 -9.15,-21.6 -9.15,-23.3"/>
<polygon id="000001DEB50285E0" class="l66d20" points="-11.65,-24.1 -11.65,-20.8 -8.35,-20.8 -8.35,-24.1"/>
<polygon id="000001DEB5028260" class="l66d44" points="9.15,-23.3 9.15,-21.6 10.85,-21.6 10.85,-23.3"/>
<polygon id="000001DEB5026F90" class="l68d20" points="8.55,-23.9 8.55,-21 11.45,-21 11.45,-23.9"/>
<polygon id="000001DEB5027CB0" class="l67d20" points="8.35,-24.1 8.35,-20.8 11.65,-20.8 11.65,-24.1"/>
<polygon id="000001DEB50280A0" class="l67d44" points="9.15,-23.3 9.15,-21.6 10.85,-21.6 10.85,-23.3"/>
<polygon id="000001DEB5027930" class="l66d20" points="8.35,-24.1 8.35,-20.8 11.65,-20.8 11.65,-24.1"/>
<polygon id="000001DEB5027D20" class="l66d44" points="4.15,-23.3 4.15,-21.6 5.85,-21.6 5.85,-23.3"/>
<polygon id="000001DEB50273F0" class="l68d20" points="3.55,-23.9 3.55,-21 6.45,-21 6.45,-23.9"/>
<polygon id="000001DEB5027FC0" class="l67d20" points="3.35,-24.1 3.35,-20.8 6.65,-20.8 6.65,-24.1"/>
<polygon id="000001DEB50278C0" class="l67d44" points="4.15,-23.3 4.15,-21.6 5.85,-21.6 5.85,-23.3"/>
<polygon id="000001DEB5028110" class="l66d20" points="3.35,-24.1 3.35,-20.8 6.65,-20.8 6.65,-24.1"/>
<polygon id="000001DEB5027460" class="l66d44" points="-0.85,-23.3 -0.85,-21.6 0.85,-21.6 0.85,-23.3"/>
<polygon id="000001DEB5027EE0" class="l68d20" points="-1.45,-23.9 -1.45,-21 1.45,-21 1.45,-23.9"/>
<polygon id="000001DEB5028340" class="l67d20" points="-1.65,-24.1 -1.65,-20.8 1.65,-20.8 1.65,-24.1"/>
<polygon id="000001DEB50283B0" class="l67d44" points="-0.85,-23.3 -0.85,-21.6 0.85,-21.6 0.85,-23.3"/>
<polygon id="000001DEB50272A0" class="l66d20" points="-1.65,-24.1 -1.65,-20.8 1.65,-20.8 1.65,-24.1"/>
<polygon id="000001DEB5027690" class="l66d44" points="-5.85,-23.3 -5.85,-21.6 -4.15,-21.6 -4.15,-23.3"/>
<polygon id="000001DEB5027D90" class="l68d20" points="-6.45,-23.9 -6.45,-21 -3.55,-21 -3.55,-23.9"/>
<polygon id="000001DEB50282D0" class="l67d20" points="-6.65,-24.1 -6.65,-20.8 -3.35,-20.8 -3.35,-24.1"/>
<polygon id="000001DEB5028420" class="l67d44" points="-5.85,-23.3 -5.85,-21.6 -4.15,-21.6 -4.15,-23.3"/>
<polygon id="000001DEB5027E00" class="l66d20" points="-6.65,-24.1 -6.65,-20.8 -3.35,-20.8 -3.35,-24.1"/>
<polygon id="000001DEB50277E0" class="l68d20" points="-13.75,-24.1 -13.75,-20.8 13.75,-20.8 13.75,-24.1"/>
<polygon id="000001DEB50279A0" class="l66d20" points="-13.75,-24.1 -13.75,-20.8 13.75,-20.8 13.75,-24.1"/>
<polygon id="000001DEB5028490" class="l95d20" points="-6.85,-24.3 -3.15,-24.3 -3.15,-20.6 -6.85,-20.6"/>
<polygon id="000001DEB50275B0" class="l95d20" points="-1.85,-24.3 1.85,-24.3 1.85,-20.6 -1.85,-20.6"/>
<polygon id="000001DEB5026BA0" class="l95d20" points="3.15,-24.3 6.85,-24.3 6.85,-20.6 3.15,-20.6"/>
<polygon id="000001DEB50274D0" class="l95d20" points="8.15,-24.3 11.85,-24.3 11.85,-20.6 8.15,-20.6"/>
<polygon id="000001DEB5028650" class="l95d20" points="-11.85,-24.3 -8.15,-24.3 -8.15,-20.6 -11.85,-20.6"/>
<polygon id="000001DEB5028180" class="l95d20" points="-6.85,-24.3 1.85,-24.3 1.85,-20.6 -6.85,-20.6"/>
<polygon id="000001DEB5027850" class="l95d20" points="-11.85,-24.3 -3.15,-24.3 -3.15,-20.6 -11.85,-20.6"/>
<polygon id="000001DEB5027700" class="l95d20" points="-6.85,-24.3 1.85,-24.3 1.85,-20.6 -6.85,-20.6"/>
<polygon id="000001DEB50270E0" class="l95d20" points="-1.85,-24.3 6.85,-24.3 6.85,-20.6 -1.85,-20.6"/>
<polygon id="000001DEB5027770" class="l95d20" points="-1.85,-24.3 6.85,-24.3 6.85,-20.6 -1.85,-20.6"/>
<polygon id="000001DEB5027A10" class="l95d20" points="3.15,-24.3 11.85,-24.3 11.85,-20.6 3.15,-20.6"/>
<polygon id="000001DEB5027A80" class="l95d20" points="3.15,-24.3 11.85,-24.3 11.85,-20.6 3.15,-20.6"/>
<polygon id="000001DEB5027AF0" class="l95d20" points="-11.85,-24.3 -3.15,-24.3 -3.15,-20.6 -11.85,-20.6"/>
<polygon id="000001DEB5027B60" class="l67d20" points="14.6,15.7 17.9,15.7 17.9,23.75 14.6,23.75"/>
<polygon id="000001DEB50281F0" class="l67d44" points="15.4,22.05 15.4,23.75 17.1,23.75 17.1,22.05"/>
<polygon id="000001DEB5027BD0" class="l68d20" points="14.8,21.45 14.8,24.35 17.7,24.35 17.7,21.45"/>
<polygon id="000001DEB5027C40" class="l67d20" points="15.4,22.05 15.4,23.75 17.1,23.75 17.1,22.05"/>
<polygon id="000001DEB5028500" class="l66d20" points="12.25,-20.8 13.75,-20.8 13.75,-16.8 12.25,-16.8"/>
<polygon id="000001DEB5028570" class="l67d20" points="8.1,15.7 11.4,15.7 11.4,19.45 8.1,19.45"/>
<polygon id="000001DEB5027E70" class="l67d44" points="8.9,17.75 8.9,19.45 10.6,19.45 10.6,17.75"/>
<polygon id="000001DEB5027F50" class="l68d20" points="8.3,17.15 8.3,20.05 11.2,20.05 11.2,17.15"/>
<polygon id="000001DEB5028030" class="l67d20" points="8.9,17.75 8.9,19.45 10.6,19.45 10.6,17.75"/>
<polygon id="000001DEB50286C0" class="l66d20" points="5.75,-20.8 7.25,-20.8 7.25,-16.8 5.75,-16.8"/>
<polygon id="000001DEB5027150" class="l67d20" points="1.6,15.7 4.9,15.7 4.9,23.75 1.6,23.75"/>
<polygon id="000001DEB5028730" class="l67d44" points="2.4,22.05 2.4,23.75 4.1,23.75 4.1,22.05"/>
<polygon id="000001DEB5027620" class="l68d20" points="1.8,21.45 1.8,24.35 4.7,24.35 4.7,21.45"/>
<polygon id="000001DEB5026C10" class="l67d20" points="2.4,22.05 2.4,23.75 4.1,23.75 4.1,22.05"/>
<polygon id="000001DEB5026C80" class="l66d20" points="-0.75,-20.8 0.75,-20.8 0.75,-16.8 -0.75,-16.8"/>
<polygon id="000001DEB50271C0" class="l67d20" points="-4.9,15.7 -1.6,15.7 -1.6,19.45 -4.9,19.45"/>
<polygon id="000001DEB5026CF0" class="l67d44" points="-4.1,17.75 -4.1,19.45 -2.4,19.45 -2.4,17.75"/>
<polygon id="000001DEB5026D60" class="l68d20" points="-4.7,17.15 -4.7,20.05 -1.8,20.05 -1.8,17.15"/>
<polygon id="000001DEB5026F20" class="l67d20" points="-4.1,17.75 -4.1,19.45 -2.4,19.45 -2.4,17.75"/>
<polygon id="000001DEB5026DD0" class="l66d20" points="-7.25,-20.8 -5.75,-20.8 -5.75,-16.8 -7.25,-16.8"/>
<polygon id="000001DEB5026E40" class="l67d20" points="-11.4,15.7 -8.1,15.7 -8.1,23.75 -11.4,23.75"/>
<polygon id="000001DEB5027000" class="l67d44" points="-10.6,22.05 -10.6,23.75 -8.9,23.75 -8.9,22.05"/>
<polygon id="000001DEB5027070" class="l68d20" points="-11.2,21.45 -11.2,24.35 -8.3,24.35 -8.3,21.45"/>
<polygon id="000001DEB5027310" class="l67d20" points="-10.6,22.05 -10.6,23.75 -8.9,23.75 -8.9,22.05"/>
<polygon id="000001DEB5027380" class="l66d20" points="-13.75,-20.8 -12.25,-20.8 -12.25,-16.8 -13.75,-16.8"/>
<polygon id="000001DEB5028E30" class="l67d20" points="-17.9,15.7 -14.6,15.7 -14.6,19.45 -17.9,19.45"/>
<polygon id="000001DEB502A330" class="l65d20" points="39.8,44.35 -39.8,44.35 -39.8,-40.25 -35.7,-40.25 -35.7,40.25 35.7,40.25 35.7,-40.25 -35.7,-40.25 -39.8,-40.25 -39.8,-44.35 39.8,-44.35"/>
<polygon id="000001DEB50287A0" class="l68d20" points="35.7,-44.35 39.8,-44.35 39.8,-40.25 35.7,-40.25"/>
<polygon id="000001DEB5029A00" class="l67d44" points="36.9,-43.15 36.9,-41.45 38.6,-41.45 38.6,-43.15"/>
<polygon id="000001DEB5029A70" class="l68d20" points="36.3,-43.75 36.3,-40.85 39.2,-40.85 39.2,-43.75"/>
<polygon id="000001DEB5029D10" class="l67d20" points="36.9,-43.15 36.9,-41.45 38.6,-41.45 38.6,-43.15"/>
<polygon id="000001DEB50298B0" class="l68d20" points="35.7,-44.35 35.7,-40.25 39.8,-40.25 39.8,-44.35"/>
<polygon id="000001DEB50297D0" class="l67d20" points="36.9,-43.15 36.9,-41.45 38.6,-41.45 38.6,-43.15"/>
<polygon id="000001DEB5028EA0" class="l67d20" points="35.7,-44.35 39.8,-44.35 39.8,-40.25 35.7,-40.25"/>
<polygon id="000001DEB5029C30" class="l68d20" points="-39.8,-44.35 -35.7,-44.35 -35.7,-40.25 -39.8,-40.25"/>
<polygon id="000001DEB5029990" class="l67d44" points="-38.6,-43.15 -38.6,-41.45 -36.9,-41.45 -36.9,-43.15"/>
<polygon id="000001DEB5029610" class="l68d20" points="-39.2,-43.75 -39.2,-40.85 -36.3,-40.85 -36.3,-43.75"/>
<polygon id="000001DEB5028810" class="l67d20" points="-38.6,-43.15 -38.6,-41.45 -36.9,-41.45 -36.9,-43.15"/>
<polygon id="000001DEB5029840" class="l68d20" points="-39.8,-44.35 -39.8,-40.25 -35.7,-40.25 -35.7,-44.35"/>
<polygon id="000001DEB5029B50" class="l67d20" points="-38.6,-43.15 -38.6,-41.45 -36.9,-41.45 -36.9,-43.15"/>
<polygon id="000001DEB5028880" class="l67d20" points="-39.8,-44.35 -35.7,-44.35 -35.7,-40.25 -39.8,-40.25"/>
<polygon id="000001DEB5028F10" class="l68d20" points="35.7,40.25 39.8,40.25 39.8,44.35 35.7,44.35"/>
<polygon id="000001DEB5029FB0" class="l67d44" points="36.9,41.45 36.9,43.15 38.6,43.15 38.6,41.45"/>
<polygon id="000001DEB5029AE0" class="l68d20" points="36.3,40.85 36.3,43.75 39.2,43.75 39.2,40.85"/>
<polygon id="000001DEB5029BC0" class="l67d20" points="36.9,41.45 36.9,43.15 38.6,43.15 38.6,41.45"/>
<polygon id="000001DEB5029CA0" class="l68d20" points="35.7,40.25 35.7,44.35 39.8,44.35 39.8,40.25"/>
<polygon id="000001DEB5028960" class="l67d20" points="36.9,41.45 36.9,43.15 38.6,43.15 38.6,41.45"/>
<polygon id="000001DEB5028C70" class="l67d20" points="35.7,40.25 39.8,40.25 39.8,44.35 35.7,44.35"/>
<polygon id="000001DEB502A100" class="l68d20" points="-39.8,40.25 -35.7,40.25 -35.7,44.35 -39.8,44.35"/>
<polygon id="000001DEB5028AB0" class="l67d44" points="-38.6,41.45 -38.6,43.15 -36.9,43.15 -36.9,41.45"/>
<polygon id="000001DEB502A020" class="l68d20" points="-39.2,40.85 -39.2,43.75 -36.3,43.75 -36.3,40.85"/>
<polygon id="000001DEB5028FF0" class="l67d20" points="-38.6,41.45 -38.6,43.15 -36.9,43.15 -36.9,41.45"/>
<polygon id="000001DEB5029920" class="l68d20" points="-39.8,40.25 -39.8,44.35 -35.7,44.35 -35.7,40.25"/>
<polygon id="000001DEB5029220" class="l67d20" points="-38.6,41.45 -38.6,43.15 -36.9,43.15 -36.9,41.45"/>
<polygon id="000001DEB50291B0" class="l67d20" points="-39.8,40.25 -35.7,40.25 -35.7,44.35 -39.8,44.35"/>
<polygon id="000001DEB5028B20" class="l66d44" points="-38.6,-36.55 -38.6,-34.85 -36.9,-34.85 -36.9,-36.55"/>
<polygon id="000001DEB502A170" class="l67d20" points="-39.4,-37.35 -39.4,-34.05 -36.1,-34.05 -36.1,-37.35"/>
<polygon id="000001DEB5029D80" class="l65d20" points="-39.8,-37.75 -39.8,-33.65 -35.7,-33.65 -35.7,-37.75"/>
<polygon id="000001DEB50295A0" class="l66d44" points="-38.6,34.85 -38.6,36.55 -36.9,36.55 -36.9,34.85"/>
<polygon id="000001DEB5028F80" class="l67d20" points="-39.4,34.05 -39.4,37.35 -36.1,37.35 -36.1,34.05"/>
<polygon id="000001DEB5029060" class="l65d20" points="-39.8,33.65 -39.8,37.75 -35.7,37.75 -35.7,33.65"/>
<polygon id="000001DEB5029290" class="l66d44" points="-38.6,31.45 -38.6,33.15 -36.9,33.15 -36.9,31.45"/>
<polygon id="000001DEB5029DF0" class="l67d20" points="-39.4,30.65 -39.4,33.95 -36.1,33.95 -36.1,30.65"/>
<polygon id="000001DEB5028D50" class="l65d20" points="-39.8,30.25 -39.8,34.35 -35.7,34.35 -35.7,30.25"/>
<polygon id="000001DEB5029E60" class="l66d44" points="-38.6,28.05 -38.6,29.75 -36.9,29.75 -36.9,28.05"/>
<polygon id="000001DEB502A1E0" class="l67d20" points="-39.4,27.25 -39.4,30.55 -36.1,30.55 -36.1,27.25"/>
<polygon id="000001DEB5029ED0" class="l65d20" points="-39.8,26.85 -39.8,30.95 -35.7,30.95 -35.7,26.85"/>
<polygon id="000001DEB5029F40" class="l66d44" points="-38.6,24.65 -38.6,26.35 -36.9,26.35 -36.9,24.65"/>
<polygon id="000001DEB502A090" class="l67d20" points="-39.4,23.85 -39.4,27.15 -36.1,27.15 -36.1,23.85"/>
<polygon id="000001DEB502A250" class="l65d20" points="-39.8,23.45 -39.8,27.55 -35.7,27.55 -35.7,23.45"/>
<polygon id="000001DEB5029140" class="l66d44" points="-38.6,21.25 -38.6,22.95 -36.9,22.95 -36.9,21.25"/>
<polygon id="000001DEB502A2C0" class="l67d20" points="-39.4,20.45 -39.4,23.75 -36.1,23.75 -36.1,20.45"/>
<polygon id="000001DEB5029680" class="l65d20" points="-39.8,20.05 -39.8,24.15 -35.7,24.15 -35.7,20.05"/>
<polygon id="000001DEB5029370" class="l66d44" points="-38.6,17.85 -38.6,19.55 -36.9,19.55 -36.9,17.85"/>
<polygon id="000001DEB5028B90" class="l67d20" points="-39.4,17.05 -39.4,20.35 -36.1,20.35 -36.1,17.05"/>
<polygon id="000001DEB50296F0" class="l65d20" points="-39.8,16.65 -39.8,20.75 -35.7,20.75 -35.7,16.65"/>
<polygon id="000001DEB50288F0" class="l66d44" points="-38.6,14.45 -38.6,16.15 -36.9,16.15 -36.9,14.45"/>
<polygon id="000001DEB5029450" class="l67d20" points="-39.4,13.65 -39.4,16.95 -36.1,16.95 -36.1,13.65"/>
<polygon id="000001DEB50289D0" class="l65d20" points="-39.8,13.25 -39.8,17.35 -35.7,17.35 -35.7,13.25"/>
<polygon id="000001DEB50290D0" class="l66d44" points="-38.6,11.05 -38.6,12.75 -36.9,12.75 -36.9,11.05"/>
<polygon id="000001DEB5028A40" class="l67d20" points="-39.4,10.25 -39.4,13.55 -36.1,13.55 -36.1,10.25"/>
<polygon id="000001DEB50294C0" class="l65d20" points="-39.8,9.85 -39.8,13.95 -35.7,13.95 -35.7,9.85"/>
<polygon id="000001DEB5029300" class="l66d44" points="-38.6,7.65 -38.6,9.35 -36.9,9.35 -36.9,7.65"/>
<polygon id="000001DEB5028C00" class="l67d20" points="-39.4,6.85 -39.4,10.15 -36.1,10.15 -36.1,6.85"/>
<polygon id="000001DEB50293E0" class="l65d20" points="-39.8,6.45 -39.8,10.55 -35.7,10.55 -35.7,6.45"/>
<polygon id="000001DEB5028CE0" class="l66d44" points="-38.6,4.25 -38.6,5.95 -36.9,5.95 -36.9,4.25"/>
<polygon id="000001DEB5028DC0" class="l67d20" points="-39.4,3.45 -39.4,6.75 -36.1,6.75 -36.1,3.45"/>
<polygon id="000001DEB5029530" class="l65d20" points="-39.8,3.05 -39.8,7.15 -35.7,7.15 -35.7,3.05"/>
<polygon id="000001DEB5029760" class="l66d44" points="-38.6,0.85 -38.6,2.55 -36.9,2.55 -36.9,0.85"/>
<polygon id="000001DEB502B8A0" class="l67d20" points="-39.4,0.05 -39.4,3.35 -36.1,3.35 -36.1,0.05"/>
<polygon id="000001DEB502B130" class="l65d20" points="-39.8,-0.35 -39.8,3.75 -35.7,3.75 -35.7,-0.35"/>
<polygon id="000001DEB502B520" class="l66d44" points="-38.6,-2.55 -38.6,-0.85 -36.9,-0.85 -36.9,-2.55"/>
<polygon id="000001DEB502ABF0" class="l67d20" points="-39.4,-3.35 -39.4,-0.05 -36.1,-0.05 -36.1,-3.35"/>
<polygon id="000001DEB502B7C0" class="l65d20" points="-39.8,-3.75 -39.8,0.35 -35.7,0.35 -35.7,-3.75"/>
<polygon id="000001DEB502B0C0" class="l66d44" points="-38.6,-5.95 -38.6,-4.25 -36.9,-4.25 -36.9,-5.95"/>
<polygon id="000001DEB502B910" class="l67d20" points="-39.4,-6.75 -39.4,-3.45 -36.1,-3.45 -36.1,-6.75"/>
<polygon id="000001DEB502AC60" class="l65d20" points="-39.8,-7.15 -39.8,-3.05 -35.7,-3.05 -35.7,-7.15"/>
<polygon id="000001DEB502B6E0" class="l66d44" points="-38.6,-9.35 -38.6,-7.65 -36.9,-7.65 -36.9,-9.35"/>
<polygon id="000001DEB502BB40" class="l67d20" points="-39.4,-10.15 -39.4,-6.85 -36.1,-6.85 -36.1,-10.15"/>
<polygon id="000001DEB502BBB0" class="l65d20" points="-39.8,-10.55 -39.8,-6.45 -35.7,-6.45 -35.7,-10.55"/>
<polygon id="000001DEB502AAA0" class="l66d44" points="-38.6,-12.75 -38.6,-11.05 -36.9,-11.05 -36.9,-12.75"/>
<polygon id="000001DEB502AE90" class="l67d20" points="-39.4,-13.55 -39.4,-10.25 -36.1,-10.25 -36.1,-13.55"/>
<polygon id="000001DEB502B4B0" class="l65d20" points="-39.8,-13.95 -39.8,-9.85 -35.7,-9.85 -35.7,-13.95"/>
<polygon id="000001DEB502BAD0" class="l66d44" points="-38.6,-16.15 -38.6,-14.45 -36.9,-14.45 -36.9,-16.15"/>
<polygon id="000001DEB502BC20" class="l67d20" points="-39.4,-16.95 -39.4,-13.65 -36.1,-13.65 -36.1,-16.95"/>
<polygon id="000001DEB502B600" class="l65d20" points="-39.8,-17.35 -39.8,-13.25 -35.7,-13.25 -35.7,-17.35"/>
<polygon id="000001DEB502AFE0" class="l66d44" points="-38.6,-19.55 -38.6,-17.85 -36.9,-17.85 -36.9,-19.55"/>
<polygon id="000001DEB502B1A0" class="l67d20" points="-39.4,-20.35 -39.4,-17.05 -36.1,-17.05 -36.1,-20.35"/>
<polygon id="000001DEB502BA60" class="l65d20" points="-39.8,-20.75 -39.8,-16.65 -35.7,-16.65 -35.7,-20.75"/>
<polygon id="000001DEB502AD40" class="l66d44" points="-38.6,-22.95 -38.6,-21.25 -36.9,-21.25 -36.9,-22.95"/>
<polygon id="000001DEB502A3A0" class="l67d20" points="-39.4,-23.75 -39.4,-20.45 -36.1,-20.45 -36.1,-23.75"/>
<polygon id="000001DEB502ACD0" class="l65d20" points="-39.8,-24.15 -39.8,-20.05 -35.7,-20.05 -35.7,-24.15"/>
<polygon id="000001DEB502BE50" class="l66d44" points="-38.6,-26.35 -38.6,-24.65 -36.9,-24.65 -36.9,-26.35"/>
<polygon id="000001DEB502B980" class="l67d20" points="-39.4,-27.15 -39.4,-23.85 -36.1,-23.85 -36.1,-27.15"/>
<polygon id="000001DEB502B050" class="l65d20" points="-39.8,-27.55 -39.8,-23.45 -35.7,-23.45 -35.7,-27.55"/>
<polygon id="000001DEB502AF00" class="l66d44" points="-38.6,-29.75 -38.6,-28.05 -36.9,-28.05 -36.9,-29.75"/>
<polygon id="000001DEB502A8E0" class="l67d20" points="-39.4,-30.55 -39.4,-27.25 -36.1,-27.25 -36.1,-30.55"/>
<polygon id="000001DEB502AF70" class="l65d20" points="-39.8,-30.95 -39.8,-26.85 -35.7,-26.85 -35.7,-30.95"/>
<polygon id="000001DEB502B210" class="l66d44" points="-38.6,-33.15 -38.6,-31.45 -36.9,-31.45 -36.9,-33.15"/>
<polygon id="000001DEB502B280" class="l67d20" points="-39.4,-33.95 -39.4,-30.65 -36.1,-30.65 -36.1,-33.95"/>
<polygon id="000001DEB502B590" class="l65d20" points="-39.8,-34.35 -39.8,-30.25 -35.7,-30.25 -35.7,-34.35"/>
<polygon id="000001DEB502A410" class="l67d20" points="-39.8,-40.25 -39.8,40.25 -35.7,40.25 -35.7,-40.25"/>
<polygon id="000001DEB502A480" class="l65d20" points="-39.8,-37.75 -39.8,37.75 -35.7,37.75 -35.7,-37.75"/>
<polygon id="000001DEB502B2F0" class="l66d44" points="-30.85,-43.15 -30.85,-41.45 -29.15,-41.45 -29.15,-43.15"/>
<polygon id="000001DEB502B670" class="l68d20" points="-31.45,-43.75 -31.45,-40.85 -28.55,-40.85 -28.55,-43.75"/>
<polygon id="000001DEB502B360" class="l67d20" points="-31.65,-43.95 -31.65,-40.65 -28.35,-40.65 -28.35,-43.95"/>
<polygon id="000001DEB502BC90" class="l67d44" points="-30.85,-43.15 -30.85,-41.45 -29.15,-41.45 -29.15,-43.15"/>
<polygon id="000001DEB502B3D0" class="l65d20" points="-32.05,-44.35 -32.05,-40.25 -27.95,-40.25 -27.95,-44.35"/>
<polygon id="000001DEB502B9F0" class="l66d44" points="29.15,-43.15 29.15,-41.45 30.85,-41.45 30.85,-43.15"/>
<polygon id="000001DEB502B440" class="l68d20" points="28.55,-43.75 28.55,-40.85 31.45,-40.85 31.45,-43.75"/>
<polygon id="000001DEB502B750" class="l67d20" points="28.35,-43.95 28.35,-40.65 31.65,-40.65 31.65,-43.95"/>
<polygon id="000001DEB502BD00" class="l67d44" points="29.15,-43.15 29.15,-41.45 30.85,-41.45 30.85,-43.15"/>
<polygon id="000001DEB502BD70" class="l65d20" points="27.95,-44.35 27.95,-40.25 32.05,-40.25 32.05,-44.35"/>
<polygon id="000001DEB502B830" class="l66d44" points="24.15,-43.15 24.15,-41.45 25.85,-41.45 25.85,-43.15"/>
<polygon id="000001DEB502BDE0" class="l68d20" points="23.55,-43.75 23.55,-40.85 26.45,-40.85 26.45,-43.75"/>
<polygon id="000001DEB502BEC0" class="l67d20" points="23.35,-43.95 23.35,-40.65 26.65,-40.65 26.65,-43.95"/>
<polygon id="000001DEB502BF30" class="l67d44" points="24.15,-43.15 24.15,-41.45 25.85,-41.45 25.85,-43.15"/>
<polygon id="000001DEB502A950" class="l65d20" points="22.95,-44.35 22.95,-40.25 27.05,-40.25 27.05,-44.35"/>
<polygon id="000001DEB502A4F0" class="l66d44" points="19.15,-43.15 19.15,-41.45 20.85,-41.45 20.85,-43.15"/>
<polygon id="000001DEB502ADB0" class="l68d20" points="18.55,-43.75 18.55,-40.85 21.45,-40.85 21.45,-43.75"/>
<polygon id="000001DEB502A560" class="l67d20" points="18.35,-43.95 18.35,-40.65 21.65,-40.65 21.65,-43.95"/>
<polygon id="000001DEB502A5D0" class="l67d44" points="19.15,-43.15 19.15,-41.45 20.85,-41.45 20.85,-43.15"/>
<polygon id="000001DEB502A9C0" class="l65d20" points="17.95,-44.35 17.95,-40.25 22.05,-40.25 22.05,-44.35"/>
<polygon id="000001DEB502A640" class="l66d44" points="14.15,-43.15 14.15,-41.45 15.85,-41.45 15.85,-43.15"/>
<polygon id="000001DEB502A6B0" class="l68d20" points="13.55,-43.75 13.55,-40.85 16.45,-40.85 16.45,-43.75"/>
<polygon id="000001DEB502A720" class="l67d20" points="13.35,-43.95 13.35,-40.65 16.65,-40.65 16.65,-43.95"/>
<polygon id="000001DEB502A790" class="l67d44" points="14.15,-43.15 14.15,-41.45 15.85,-41.45 15.85,-43.15"/>
<polygon id="000001DEB502A800" class="l65d20" points="12.95,-44.35 12.95,-40.25 17.05,-40.25 17.05,-44.35"/>
<polygon id="000001DEB502AE20" class="l66d44" points="9.15,-43.15 9.15,-41.45 10.85,-41.45 10.85,-43.15"/>
<polygon id="000001DEB502A870" class="l68d20" points="8.55,-43.75 8.55,-40.85 11.45,-40.85 11.45,-43.75"/>
<polygon id="000001DEB502AA30" class="l67d20" points="8.35,-43.95 8.35,-40.65 11.65,-40.65 11.65,-43.95"/>
<polygon id="000001DEB502AB10" class="l67d44" points="9.15,-43.15 9.15,-41.45 10.85,-41.45 10.85,-43.15"/>
<polygon id="000001DEB502AB80" class="l65d20" points="7.95,-44.35 7.95,-40.25 12.05,-40.25 12.05,-44.35"/>
<polygon id="000001DEB502C2B0" class="l66d44" points="4.15,-43.15 4.15,-41.45 5.85,-41.45 5.85,-43.15"/>
<polygon id="000001DEB502C710" class="l68d20" points="3.55,-43.75 3.55,-40.85 6.45,-40.85 6.45,-43.75"/>
<polygon id="000001DEB502C4E0" class="l67d20" points="3.35,-43.95 3.35,-40.65 6.65,-40.65 6.65,-43.95"/>
<polygon id="000001DEB502C7F0" class="l67d44" points="4.15,-43.15 4.15,-41.45 5.85,-41.45 5.85,-43.15"/>
<polygon id="000001DEB502C5C0" class="l65d20" points="2.95,-44.35 2.95,-40.25 7.05,-40.25 7.05,-44.35"/>
<polygon id="000001DEB502D740" class="l66d44" points="-0.85,-43.15 -0.85,-41.45 0.85,-41.45 0.85,-43.15"/>
<polygon id="000001DEB502CA20" class="l68d20" points="-1.45,-43.75 -1.45,-40.85 1.45,-40.85 1.45,-43.75"/>
<polygon id="000001DEB502C860" class="l67d20" points="-1.65,-43.95 -1.65,-40.65 1.65,-40.65 1.65,-43.95"/>
<polygon id="000001DEB502D200" class="l67d44" points="-0.85,-43.15 -0.85,-41.45 0.85,-41.45 0.85,-43.15"/>
<polygon id="000001DEB502CE80" class="l65d20" points="-2.05,-44.35 -2.05,-40.25 2.05,-40.25 2.05,-44.35"/>
<polygon id="000001DEB502CE10" class="l66d44" points="-5.85,-43.15 -5.85,-41.45 -4.15,-41.45 -4.15,-43.15"/>
<polygon id="000001DEB502D0B0" class="l68d20" points="-6.45,-43.75 -6.45,-40.85 -3.55,-40.85 -3.55,-43.75"/>
<polygon id="000001DEB502CEF0" class="l67d20" points="-6.65,-43.95 -6.65,-40.65 -3.35,-40.65 -3.35,-43.95"/>
<polygon id="000001DEB502C550" class="l67d44" points="-5.85,-43.15 -5.85,-41.45 -4.15,-41.45 -4.15,-43.15"/>
<polygon id="000001DEB502D040" class="l65d20" points="-7.05,-44.35 -7.05,-40.25 -2.95,-40.25 -2.95,-44.35"/>
<polygon id="000001DEB502C780" class="l66d44" points="-10.85,-43.15 -10.85,-41.45 -9.15,-41.45 -9.15,-43.15"/>
<polygon id="000001DEB502DAC0" class="l68d20" points="-11.45,-43.75 -11.45,-40.85 -8.55,-40.85 -8.55,-43.75"/>
<polygon id="000001DEB502C400" class="l67d20" points="-11.65,-43.95 -11.65,-40.65 -8.35,-40.65 -8.35,-43.95"/>
<polygon id="000001DEB502C1D0" class="l67d44" points="-10.85,-43.15 -10.85,-41.45 -9.15,-41.45 -9.15,-43.15"/>
<polygon id="000001DEB502CF60" class="l65d20" points="-12.05,-44.35 -12.05,-40.25 -7.95,-40.25 -7.95,-44.35"/>
<polygon id="000001DEB502D900" class="l66d44" points="-15.85,-43.15 -15.85,-41.45 -14.15,-41.45 -14.15,-43.15"/>
<polygon id="000001DEB502D820" class="l68d20" points="-16.45,-43.75 -16.45,-40.85 -13.55,-40.85 -13.55,-43.75"/>
<polygon id="000001DEB502C240" class="l67d20" points="-16.65,-43.95 -16.65,-40.65 -13.35,-40.65 -13.35,-43.95"/>
<polygon id="000001DEB502D3C0" class="l67d44" points="-15.85,-43.15 -15.85,-41.45 -14.15,-41.45 -14.15,-43.15"/>
<polygon id="000001DEB502D4A0" class="l65d20" points="-17.05,-44.35 -17.05,-40.25 -12.95,-40.25 -12.95,-44.35"/>
<polygon id="000001DEB502C8D0" class="l66d44" points="-20.85,-43.15 -20.85,-41.45 -19.15,-41.45 -19.15,-43.15"/>
<polygon id="000001DEB502C470" class="l68d20" points="-21.45,-43.75 -21.45,-40.85 -18.55,-40.85 -18.55,-43.75"/>
<polygon id="000001DEB502C080" class="l67d20" points="-21.65,-43.95 -21.65,-40.65 -18.35,-40.65 -18.35,-43.95"/>
<polygon id="000001DEB502C630" class="l67d44" points="-20.85,-43.15 -20.85,-41.45 -19.15,-41.45 -19.15,-43.15"/>
<polygon id="000001DEB502CC50" class="l65d20" points="-22.05,-44.35 -22.05,-40.25 -17.95,-40.25 -17.95,-44.35"/>
<polygon id="000001DEB502D120" class="l66d44" points="-25.85,-43.15 -25.85,-41.45 -24.15,-41.45 -24.15,-43.15"/>
<polygon id="000001DEB502C6A0" class="l68d20" points="-26.45,-43.75 -26.45,-40.85 -23.55,-40.85 -23.55,-43.75"/>
<polygon id="000001DEB502C940" class="l67d20" points="-26.65,-43.95 -26.65,-40.65 -23.35,-40.65 -23.35,-43.95"/>
<polygon id="000001DEB502C9B0" class="l67d44" points="-25.85,-43.15 -25.85,-41.45 -24.15,-41.45 -24.15,-43.15"/>
<polygon id="000001DEB502CA90" class="l65d20" points="-27.05,-44.35 -27.05,-40.25 -22.95,-40.25 -22.95,-44.35"/>
<polygon id="000001DEB502D2E0" class="l67d20" points="-31.65,-43.95 -31.65,-40.65 31.65,-40.65 31.65,-43.95"/>
<polygon id="000001DEB502D5F0" class="l68d20" points="-35.7,-44.35 -35.7,-40.25 35.7,-40.25 35.7,-44.35"/>
<polygon id="000001DEB502CB00" class="l65d20" points="-32.05,-44.35 -32.05,-40.25 32.05,-40.25 32.05,-44.35"/>
<polygon id="000001DEB502D190" class="l66d44" points="36.9,-36.55 36.9,-34.85 38.6,-34.85 38.6,-36.55"/>
<polygon id="000001DEB502D890" class="l67d20" points="36.1,-37.35 36.1,-34.05 39.4,-34.05 39.4,-37.35"/>
<polygon id="000001DEB502D970" class="l65d20" points="35.7,-37.75 35.7,-33.65 39.8,-33.65 39.8,-37.75"/>
<polygon id="000001DEB502D430" class="l66d44" points="36.9,34.85 36.9,36.55 38.6,36.55 38.6,34.85"/>
<polygon id="000001DEB502C160" class="l67d20" points="36.1,34.05 36.1,37.35 39.4,37.35 39.4,34.05"/>
<polygon id="000001DEB502CB70" class="l65d20" points="35.7,33.65 35.7,37.75 39.8,37.75 39.8,33.65"/>
<polygon id="000001DEB502CBE0" class="l66d44" points="36.9,31.45 36.9,33.15 38.6,33.15 38.6,31.45"/>
<polygon id="000001DEB502DB30" class="l67d20" points="36.1,30.65 36.1,33.95 39.4,33.95 39.4,30.65"/>
<polygon id="000001DEB502D350" class="l65d20" points="35.7,30.25 35.7,34.35 39.8,34.35 39.8,30.25"/>
<polygon id="000001DEB502D510" class="l66d44" points="36.9,28.05 36.9,29.75 38.6,29.75 38.6,28.05"/>
<polygon id="000001DEB502D9E0" class="l67d20" points="36.1,27.25 36.1,30.55 39.4,30.55 39.4,27.25"/>
<polygon id="000001DEB502DA50" class="l65d20" points="35.7,26.85 35.7,30.95 39.8,30.95 39.8,26.85"/>
<polygon id="000001DEB502D580" class="l66d44" points="36.9,24.65 36.9,26.35 38.6,26.35 38.6,24.65"/>
<polygon id="000001DEB502CFD0" class="l67d20" points="36.1,23.85 36.1,27.15 39.4,27.15 39.4,23.85"/>
<polygon id="000001DEB502D270" class="l65d20" points="35.7,23.45 35.7,27.55 39.8,27.55 39.8,23.45"/>
<polygon id="000001DEB502C320" class="l66d44" points="36.9,21.25 36.9,22.95 38.6,22.95 38.6,21.25"/>
<polygon id="000001DEB502C0F0" class="l67d20" points="36.1,20.45 36.1,23.75 39.4,23.75 39.4,20.45"/>
<polygon id="000001DEB502D660" class="l65d20" points="35.7,20.05 35.7,24.15 39.8,24.15 39.8,20.05"/>
<polygon id="000001DEB502CCC0" class="l66d44" points="36.9,17.85 36.9,19.55 38.6,19.55 38.6,17.85"/>
<polygon id="000001DEB502C010" class="l67d20" points="36.1,17.05 36.1,20.35 39.4,20.35 39.4,17.05"/>
<polygon id="000001DEB502BFA0" class="l65d20" points="35.7,16.65 35.7,20.75 39.8,20.75 39.8,16.65"/>
<polygon id="000001DEB502CD30" class="l66d44" points="36.9,14.45 36.9,16.15 38.6,16.15 38.6,14.45"/>
<polygon id="000001DEB502D6D0" class="l67d20" points="36.1,13.65 36.1,16.95 39.4,16.95 39.4,13.65"/>
<polygon id="000001DEB502C390" class="l65d20" points="35.7,13.25 35.7,17.35 39.8,17.35 39.8,13.25"/>
<polygon id="000001DEB502D7B0" class="l66d44" points="36.9,11.05 36.9,12.75 38.6,12.75 38.6,11.05"/>
<polygon id="000001DEB502CDA0" class="l67d20" points="36.1,10.25 36.1,13.55 39.4,13.55 39.4,10.25"/>
<polygon id="000001DEB502E930" class="l65d20" points="35.7,9.85 35.7,13.95 39.8,13.95 39.8,9.85"/>
<polygon id="000001DEB502ED20" class="l66d44" points="36.9,7.65 36.9,9.35 38.6,9.35 38.6,7.65"/>
<polygon id="000001DEB502E3F0" class="l67d20" points="36.1,6.85 36.1,10.15 39.4,10.15 39.4,6.85"/>
<polygon id="000001DEB502EFC0" class="l65d20" points="35.7,6.45 35.7,10.55 39.8,10.55 39.8,6.45"/>
<polygon id="000001DEB502E8C0" class="l66d44" points="36.9,4.25 36.9,5.95 38.6,5.95 38.6,4.25"/>
<polygon id="000001DEB502F110" class="l67d20" points="36.1,3.45 36.1,6.75 39.4,6.75 39.4,3.45"/>
<polygon id="000001DEB502E460" class="l65d20" points="35.7,3.05 35.7,7.15 39.8,7.15 39.8,3.05"/>
<polygon id="000001DEB502EEE0" class="l66d44" points="36.9,0.85 36.9,2.55 38.6,2.55 38.6,0.85"/>
<polygon id="000001DEB502F340" class="l67d20" points="36.1,0.05 36.1,3.35 39.4,3.35 39.4,0.05"/>
<polygon id="000001DEB502F3B0" class="l65d20" points="35.7,-0.35 35.7,3.75 39.8,3.75 39.8,-0.35"/>
<polygon id="000001DEB502E2A0" class="l66d44" points="36.9,-2.55 36.9,-0.85 38.6,-0.85 38.6,-2.55"/>
<polygon id="000001DEB502E690" class="l67d20" points="36.1,-3.35 36.1,-0.05 39.4,-0.05 39.4,-3.35"/>
<polygon id="000001DEB502ECB0" class="l65d20" points="35.7,-3.75 35.7,0.35 39.8,0.35 39.8,-3.75"/>
<polygon id="000001DEB502F2D0" class="l66d44" points="36.9,-5.95 36.9,-4.25 38.6,-4.25 38.6,-5.95"/>
<polygon id="000001DEB502F420" class="l67d20" points="36.1,-6.75 36.1,-3.45 39.4,-3.45 39.4,-6.75"/>
<polygon id="000001DEB502EE00" class="l65d20" points="35.7,-7.15 35.7,-3.05 39.8,-3.05 39.8,-7.15"/>
<polygon id="000001DEB502E7E0" class="l66d44" points="36.9,-9.35 36.9,-7.65 38.6,-7.65 38.6,-9.35"/>
<polygon id="000001DEB502E9A0" class="l67d20" points="36.1,-10.15 36.1,-6.85 39.4,-6.85 39.4,-10.15"/>
<polygon id="000001DEB502F260" class="l65d20" points="35.7,-10.55 35.7,-6.45 39.8,-6.45 39.8,-10.55"/>
<polygon id="000001DEB502E540" class="l66d44" points="36.9,-12.75 36.9,-11.05 38.6,-11.05 38.6,-12.75"/>
<polygon id="000001DEB502DBA0" class="l67d20" points="36.1,-13.55 36.1,-10.25 39.4,-10.25 39.4,-13.55"/>
<polygon id="000001DEB502E4D0" class="l65d20" points="35.7,-13.95 35.7,-9.85 39.8,-9.85 39.8,-13.95"/>
<polygon id="000001DEB502F650" class="l66d44" points="36.9,-16.15 36.9,-14.45 38.6,-14.45 38.6,-16.15"/>
<polygon id="000001DEB502F0A0" class="l67d20" points="36.1,-16.95 36.1,-13.65 39.4,-13.65 39.4,-16.95"/>
<polygon id="000001DEB502E850" class="l65d20" points="35.7,-17.35 35.7,-13.25 39.8,-13.25 39.8,-17.35"/>
<polygon id="000001DEB502E700" class="l66d44" points="36.9,-19.55 36.9,-17.85 38.6,-17.85 38.6,-19.55"/>
<polygon id="000001DEB502E0E0" class="l67d20" points="36.1,-20.35 36.1,-17.05 39.4,-17.05 39.4,-20.35"/>
<polygon id="000001DEB502E770" class="l65d20" points="35.7,-20.75 35.7,-16.65 39.8,-16.65 39.8,-20.75"/>
<polygon id="000001DEB502EA10" class="l66d44" points="36.9,-22.95 36.9,-21.25 38.6,-21.25 38.6,-22.95"/>
<polygon id="000001DEB502EA80" class="l67d20" points="36.1,-23.75 36.1,-20.45 39.4,-20.45 39.4,-23.75"/>
<polygon id="000001DEB502ED90" class="l65d20" points="35.7,-24.15 35.7,-20.05 39.8,-20.05 39.8,-24.15"/>
<polygon id="000001DEB502DC10" class="l66d44" points="36.9,-26.35 36.9,-24.65 38.6,-24.65 38.6,-26.35"/>
<polygon id="000001DEB502DC80" class="l67d20" points="36.1,-27.15 36.1,-23.85 39.4,-23.85 39.4,-27.15"/>
<polygon id="000001DEB502EAF0" class="l65d20" points="35.7,-27.55 35.7,-23.45 39.8,-23.45 39.8,-27.55"/>
<polygon id="000001DEB502EE70" class="l66d44" points="36.9,-29.75 36.9,-28.05 38.6,-28.05 38.6,-29.75"/>
<polygon id="000001DEB502EB60" class="l67d20" points="36.1,-30.55 36.1,-27.25 39.4,-27.25 39.4,-30.55"/>
<polygon id="000001DEB502F490" class="l65d20" points="35.7,-30.95 35.7,-26.85 39.8,-26.85 39.8,-30.95"/>
<polygon id="000001DEB502EBD0" class="l66d44" points="36.9,-33.15 36.9,-31.45 38.6,-31.45 38.6,-33.15"/>
<polygon id="000001DEB502EC40" class="l67d20" points="36.1,-33.95 36.1,-30.65 39.4,-30.65 39.4,-33.95"/>
<polygon id="000001DEB502EF50" class="l65d20" points="35.7,-34.35 35.7,-30.25 39.8,-30.25 39.8,-34.35"/>
<polygon id="000001DEB502F030" class="l67d20" points="35.7,-40.25 35.7,40.25 39.8,40.25 39.8,-40.25"/>
<polygon id="000001DEB502DCF0" class="l65d20" points="35.7,-37.75 35.7,37.75 39.8,37.75 39.8,-37.75"/>
<polygon id="000001DEB502DD60" class="l66d44" points="-30.85,41.45 -30.85,43.15 -29.15,43.15 -29.15,41.45"/>
<polygon id="000001DEB502F180" class="l68d20" points="-31.45,40.85 -31.45,43.75 -28.55,43.75 -28.55,40.85"/>
<polygon id="000001DEB502F1F0" class="l67d20" points="-31.65,40.65 -31.65,43.95 -28.35,43.95 -28.35,40.65"/>
<polygon id="000001DEB502F500" class="l67d44" points="-30.85,41.45 -30.85,43.15 -29.15,43.15 -29.15,41.45"/>
<polygon id="000001DEB502F570" class="l65d20" points="-32.05,40.25 -32.05,44.35 -27.95,44.35 -27.95,40.25"/>
<polygon id="000001DEB502F5E0" class="l66d44" points="29.15,41.45 29.15,43.15 30.85,43.15 30.85,41.45"/>
<polygon id="000001DEB502F6C0" class="l68d20" points="28.55,40.85 28.55,43.75 31.45,43.75 31.45,40.85"/>
<polygon id="000001DEB502F730" class="l67d20" points="28.35,40.65 28.35,43.95 31.65,43.95 31.65,40.65"/>
<polygon id="000001DEB502DDD0" class="l67d44" points="29.15,41.45 29.15,43.15 30.85,43.15 30.85,41.45"/>
<polygon id="000001DEB502DE40" class="l65d20" points="27.95,40.25 27.95,44.35 32.05,44.35 32.05,40.25"/>
<polygon id="000001DEB502DEB0" class="l66d44" points="24.15,41.45 24.15,43.15 25.85,43.15 25.85,41.45"/>
<polygon id="000001DEB502DF20" class="l68d20" points="23.55,40.85 23.55,43.75 26.45,43.75 26.45,40.85"/>
<polygon id="000001DEB502DF90" class="l67d20" points="23.35,40.65 23.35,43.95 26.65,43.95 26.65,40.65"/>
<polygon id="000001DEB502E000" class="l67d44" points="24.15,41.45 24.15,43.15 25.85,43.15 25.85,41.45"/>
<polygon id="000001DEB502E380" class="l65d20" points="22.95,40.25 22.95,44.35 27.05,44.35 27.05,40.25"/>
<polygon id="000001DEB502E070" class="l66d44" points="19.15,41.45 19.15,43.15 20.85,43.15 20.85,41.45"/>
<polygon id="000001DEB502E150" class="l68d20" points="18.55,40.85 18.55,43.75 21.45,43.75 21.45,40.85"/>
<polygon id="000001DEB502E1C0" class="l67d20" points="18.35,40.65 18.35,43.95 21.65,43.95 21.65,40.65"/>
<polygon id="000001DEB502E230" class="l67d44" points="19.15,41.45 19.15,43.15 20.85,43.15 20.85,41.45"/>
<polygon id="000001DEB502E310" class="l65d20" points="17.95,40.25 17.95,44.35 22.05,44.35 22.05,40.25"/>
<polygon id="000001DEB502E5B0" class="l66d44" points="14.15,41.45 14.15,43.15 15.85,43.15 15.85,41.45"/>
<polygon id="000001DEB502E620" class="l68d20" points="13.55,40.85 13.55,43.75 16.45,43.75 16.45,40.85"/>
<polygon id="000001DEB5030220" class="l67d20" points="13.35,40.65 13.35,43.95 16.65,43.95 16.65,40.65"/>
<polygon id="000001DEB50311E0" class="l67d44" points="14.15,41.45 14.15,43.15 15.85,43.15 15.85,41.45"/>
<polygon id="000001DEB502FF10" class="l65d20" points="12.95,40.25 12.95,44.35 17.05,44.35 17.05,40.25"/>
<polygon id="000001DEB5030B50" class="l66d44" points="9.15,41.45 9.15,43.15 10.85,43.15 10.85,41.45"/>
<polygon id="000001DEB502FB20" class="l68d20" points="8.55,40.85 8.55,43.75 11.45,43.75 11.45,40.85"/>
<polygon id="000001DEB502FF80" class="l67d20" points="8.35,40.65 8.35,43.95 11.65,43.95 11.65,40.65"/>
<polygon id="000001DEB5030840" class="l67d44" points="9.15,41.45 9.15,43.15 10.85,43.15 10.85,41.45"/>
<polygon id="000001DEB5030AE0" class="l65d20" points="7.95,40.25 7.95,44.35 12.05,44.35 12.05,40.25"/>
<polygon id="000001DEB5030680" class="l66d44" points="4.15,41.45 4.15,43.15 5.85,43.15 5.85,41.45"/>
<polygon id="000001DEB502FE30" class="l68d20" points="3.55,40.85 3.55,43.75 6.45,43.75 6.45,40.85"/>
<polygon id="000001DEB5031330" class="l67d20" points="3.35,40.65 3.35,43.95 6.65,43.95 6.65,40.65"/>
<polygon id="000001DEB502F7A0" class="l67d44" points="4.15,41.45 4.15,43.15 5.85,43.15 5.85,41.45"/>
<polygon id="000001DEB5030A00" class="l65d20" points="2.95,40.25 2.95,44.35 7.05,44.35 7.05,40.25"/>
<polygon id="000001DEB5030A70" class="l66d44" points="-0.85,41.45 -0.85,43.15 0.85,43.15 0.85,41.45"/>
<polygon id="000001DEB5030D10" class="l68d20" points="-1.45,40.85 -1.45,43.75 1.45,43.75 1.45,40.85"/>
<polygon id="000001DEB50308B0" class="l67d20" points="-1.65,40.65 -1.65,43.95 1.65,43.95 1.65,40.65"/>
<polygon id="000001DEB50307D0" class="l67d44" points="-0.85,41.45 -0.85,43.15 0.85,43.15 0.85,41.45"/>
<polygon id="000001DEB502FEA0" class="l65d20" points="-2.05,40.25 -2.05,44.35 2.05,44.35 2.05,40.25"/>
<polygon id="000001DEB5030C30" class="l66d44" points="-5.85,41.45 -5.85,43.15 -4.15,43.15 -4.15,41.45"/>
<polygon id="000001DEB5030990" class="l68d20" points="-6.45,40.85 -6.45,43.75 -3.55,43.75 -3.55,40.85"/>
<polygon id="000001DEB5030610" class="l67d20" points="-6.65,40.65 -6.65,43.95 -3.35,43.95 -3.35,40.65"/>
<polygon id="000001DEB502F810" class="l67d44" points="-5.85,41.45 -5.85,43.15 -4.15,43.15 -4.15,41.45"/>
<polygon id="000001DEB5030920" class="l65d20" points="-7.05,40.25 -7.05,44.35 -2.95,44.35 -2.95,40.25"/>
<polygon id="000001DEB5030BC0" class="l66d44" points="-10.85,41.45 -10.85,43.15 -9.15,43.15 -9.15,41.45"/>
<polygon id="000001DEB502F880" class="l68d20" points="-11.45,40.85 -11.45,43.75 -8.55,43.75 -8.55,40.85"/>
<polygon id="000001DEB502FFF0" class="l67d20" points="-11.65,40.65 -11.65,43.95 -8.35,43.95 -8.35,40.65"/>
<polygon id="000001DEB5030FB0" class="l67d44" points="-10.85,41.45 -10.85,43.15 -9.15,43.15 -9.15,41.45"/>
<polygon id="000001DEB5030CA0" class="l65d20" points="-12.05,40.25 -12.05,44.35 -7.95,44.35 -7.95,40.25"/>
<polygon id="000001DEB5030D80" class="l66d44" points="-15.85,41.45 -15.85,43.15 -14.15,43.15 -14.15,41.45"/>
<polygon id="000001DEB5030DF0" class="l68d20" points="-16.45,40.85 -16.45,43.75 -13.55,43.75 -13.55,40.85"/>
<polygon id="000001DEB502F960" class="l67d20" points="-16.65,40.65 -16.65,43.95 -13.35,43.95 -13.35,40.65"/>
<polygon id="000001DEB502FC70" class="l67d44" points="-15.85,41.45 -15.85,43.15 -14.15,43.15 -14.15,41.45"/>
<polygon id="000001DEB5031100" class="l65d20" points="-17.05,40.25 -17.05,44.35 -12.95,44.35 -12.95,40.25"/>
<polygon id="000001DEB502FAB0" class="l66d44" points="-20.85,41.45 -20.85,43.15 -19.15,43.15 -19.15,41.45"/>
<polygon id="000001DEB5031020" class="l68d20" points="-21.45,40.85 -21.45,43.75 -18.55,43.75 -18.55,40.85"/>
<polygon id="000001DEB5030060" class="l67d20" points="-21.65,40.65 -21.65,43.95 -18.35,43.95 -18.35,40.65"/>
<polygon id="000001DEB5030E60" class="l67d44" points="-20.85,41.45 -20.85,43.15 -19.15,43.15 -19.15,41.45"/>
<polygon id="000001DEB5030290" class="l65d20" points="-22.05,40.25 -22.05,44.35 -17.95,44.35 -17.95,40.25"/>
<polygon id="000001DEB50301B0" class="l66d44" points="-25.85,41.45 -25.85,43.15 -24.15,43.15 -24.15,41.45"/>
<polygon id="000001DEB502FB90" class="l68d20" points="-26.45,40.85 -26.45,43.75 -23.55,43.75 -23.55,40.85"/>
<polygon id="000001DEB5031170" class="l67d20" points="-26.65,40.65 -26.65,43.95 -23.35,43.95 -23.35,40.65"/>
<polygon id="000001DEB5030ED0" class="l67d44" points="-25.85,41.45 -25.85,43.15 -24.15,43.15 -24.15,41.45"/>
<polygon id="000001DEB50305A0" class="l65d20" points="-27.05,40.25 -27.05,44.35 -22.95,44.35 -22.95,40.25"/>
<polygon id="000001DEB50300D0" class="l67d20" points="-31.65,40.65 -31.65,43.95 31.65,43.95 31.65,40.65"/>
<polygon id="000001DEB5030140" class="l68d20" points="-35.7,40.25 -35.7,44.35 35.7,44.35 35.7,40.25"/>
<polygon id="000001DEB5030300" class="l65d20" points="-32.05,40.25 -32.05,44.35 32.05,44.35 32.05,40.25"/>
<polygon id="000001DEB5030F40" class="l94d20" points="41.1,45.65 -41.1,45.65 -41.1,-38.95 -34.4,-38.95 -34.4,38.95 34.4,38.95 34.4,-38.95 -34.4,-38.95 -41.1,-38.95 -41.1,-45.65 41.1,-45.65"/>
<polygon id="000001DEB502FD50" class="l65d20" points="29.2,33.75 -29.2,33.75 -29.2,-29.65 -25.1,-29.65 -25.1,29.65 25.1,29.65 25.1,-29.65 -25.1,-29.65 -29.2,-29.65 -29.2,-33.75 29.2,-33.75"/>
<polygon id="000001DEB5031090" class="l68d20" points="25.1,-33.75 29.2,-33.75 29.2,-29.65 25.1,-29.65"/>
<polygon id="000001DEB5031250" class="l67d44" points="26.3,-32.55 26.3,-30.85 28,-30.85 28,-32.55"/>
<polygon id="000001DEB50312C0" class="l68d20" points="25.7,-33.15 25.7,-30.25 28.6,-30.25 28.6,-33.15"/>
<polygon id="000001DEB502F8F0" class="l67d20" points="26.3,-32.55 26.3,-30.85 28,-30.85 28,-32.55"/>
<polygon id="000001DEB502F9D0" class="l68d20" points="25.1,-33.75 25.1,-29.65 29.2,-29.65 29.2,-33.75"/>
<polygon id="000001DEB502FA40" class="l67d20" points="26.3,-32.55 26.3,-30.85 28,-30.85 28,-32.55"/>
<polygon id="000001DEB5030370" class="l67d20" points="25.1,-33.75 29.2,-33.75 29.2,-29.65 25.1,-29.65"/>
<polygon id="000001DEB502FC00" class="l68d20" points="-29.2,-33.75 -25.1,-33.75 -25.1,-29.65 -29.2,-29.65"/>
<polygon id="000001DEB50306F0" class="l67d44" points="-28,-32.55 -28,-30.85 -26.3,-30.85 -26.3,-32.55"/>
<polygon id="000001DEB50303E0" class="l68d20" points="-28.6,-33.15 -28.6,-30.25 -25.7,-30.25 -25.7,-33.15"/>
<polygon id="000001DEB502FCE0" class="l67d20" points="-28,-32.55 -28,-30.85 -26.3,-30.85 -26.3,-32.55"/>
<polygon id="000001DEB5030760" class="l68d20" points="-29.2,-33.75 -29.2,-29.65 -25.1,-29.65 -25.1,-33.75"/>
<polygon id="000001DEB502FDC0" class="l67d20" points="-28,-32.55 -28,-30.85 -26.3,-30.85 -26.3,-32.55"/>
<polygon id="000001DEB5030450" class="l67d20" points="-29.2,-33.75 -25.1,-33.75 -25.1,-29.65 -29.2,-29.65"/>
<polygon id="000001DEB50304C0" class="l68d20" points="25.1,29.65 29.2,29.65 29.2,33.75 25.1,33.75"/>
<polygon id="000001DEB5030530" class="l67d44" points="26.3,30.85 26.3,32.55 28,32.55 28,30.85"/>
<polygon id="000001DEB5032830" class="l68d20" points="25.7,30.25 25.7,33.15 28.6,33.15 28.6,30.25"/>
<polygon id="000001DEB5032050" class="l67d20" points="26.3,30.85 26.3,32.55 28,32.55 28,30.85"/>
<polygon id="000001DEB5031D40" class="l68d20" points="25.1,29.65 25.1,33.75 29.2,33.75 29.2,29.65"/>
<polygon id="000001DEB50316B0" class="l67d20" points="26.3,30.85 26.3,32.55 28,32.55 28,30.85"/>
<polygon id="000001DEB5031A30" class="l67d20" points="25.1,29.65 29.2,29.65 29.2,33.75 25.1,33.75"/>
<polygon id="000001DEB5032DE0" class="l68d20" points="-29.2,29.65 -25.1,29.65 -25.1,33.75 -29.2,33.75"/>
<polygon id="000001DEB5032A60" class="l67d44" points="-28,30.85 -28,32.55 -26.3,32.55 -26.3,30.85"/>
<polygon id="000001DEB5031790" class="l68d20" points="-28.6,30.25 -28.6,33.15 -25.7,33.15 -25.7,30.25"/>
<polygon id="000001DEB50324B0" class="l67d20" points="-28,30.85 -28,32.55 -26.3,32.55 -26.3,30.85"/>
<polygon id="000001DEB50328A0" class="l68d20" points="-29.2,29.65 -29.2,33.75 -25.1,33.75 -25.1,29.65"/>
<polygon id="000001DEB5032130" class="l67d20" points="-28,30.85 -28,32.55 -26.3,32.55 -26.3,30.85"/>
<polygon id="000001DEB5032520" class="l67d20" points="-29.2,29.65 -25.1,29.65 -25.1,33.75 -29.2,33.75"/>
<polygon id="000001DEB5031BF0" class="l66d44" points="-28,-26.35 -28,-24.65 -26.3,-24.65 -26.3,-26.35"/>
<polygon id="000001DEB50327C0" class="l67d20" points="-28.8,-27.15 -28.8,-23.85 -25.5,-23.85 -25.5,-27.15"/>
<polygon id="000001DEB50320C0" class="l65d20" points="-29.2,-27.55 -29.2,-23.45 -25.1,-23.45 -25.1,-27.55"/>
<polygon id="000001DEB5032910" class="l66d44" points="-28,24.65 -28,26.35 -26.3,26.35 -26.3,24.65"/>
<polygon id="000001DEB5031C60" class="l67d20" points="-28.8,23.85 -28.8,27.15 -25.5,27.15 -25.5,23.85"/>
<polygon id="000001DEB50326E0" class="l65d20" points="-29.2,23.45 -29.2,27.55 -25.1,27.55 -25.1,23.45"/>
<polygon id="000001DEB5032B40" class="l66d44" points="-28,21.25 -28,22.95 -26.3,22.95 -26.3,21.25"/>
<polygon id="000001DEB5032BB0" class="l67d20" points="-28.8,20.45 -28.8,23.75 -25.5,23.75 -25.5,20.45"/>
<polygon id="000001DEB5031AA0" class="l65d20" points="-29.2,20.05 -29.2,24.15 -25.1,24.15 -25.1,20.05"/>
<polygon id="000001DEB5031E90" class="l66d44" points="-28,17.85 -28,19.55 -26.3,19.55 -26.3,17.85"/>
<polygon id="000001DEB5032590" class="l67d20" points="-28.8,17.05 -28.8,20.35 -25.5,20.35 -25.5,17.05"/>
<polygon id="000001DEB5032AD0" class="l65d20" points="-29.2,16.65 -29.2,20.75 -25.1,20.75 -25.1,16.65"/>
<polygon id="000001DEB5032C20" class="l66d44" points="-28,14.45 -28,16.15 -26.3,16.15 -26.3,14.45"/>
<polygon id="000001DEB5032600" class="l67d20" points="-28.8,13.65 -28.8,16.95 -25.5,16.95 -25.5,13.65"/>
<polygon id="000001DEB5031FE0" class="l65d20" points="-29.2,13.25 -29.2,17.35 -25.1,17.35 -25.1,13.25"/>
<polygon id="000001DEB50321A0" class="l66d44" points="-28,11.05 -28,12.75 -26.3,12.75 -26.3,11.05"/>
<polygon id="000001DEB5032C90" class="l67d20" points="-28.8,10.25 -28.8,13.55 -25.5,13.55 -25.5,10.25"/>
<polygon id="000001DEB5031DB0" class="l65d20" points="-29.2,9.85 -29.2,13.95 -25.1,13.95 -25.1,9.85"/>
<polygon id="000001DEB50313A0" class="l66d44" points="-28,7.65 -28,9.35 -26.3,9.35 -26.3,7.65"/>
<polygon id="000001DEB5031CD0" class="l67d20" points="-28.8,6.85 -28.8,10.15 -25.5,10.15 -25.5,6.85"/>
<polygon id="000001DEB5032E50" class="l65d20" points="-29.2,6.45 -29.2,10.55 -25.1,10.55 -25.1,6.45"/>
<polygon id="000001DEB5032980" class="l66d44" points="-28,4.25 -28,5.95 -26.3,5.95 -26.3,4.25"/>
<polygon id="000001DEB5032210" class="l67d20" points="-28.8,3.45 -28.8,6.75 -25.5,6.75 -25.5,3.45"/>
<polygon id="000001DEB5031F00" class="l65d20" points="-29.2,3.05 -29.2,7.15 -25.1,7.15 -25.1,3.05"/>
<polygon id="000001DEB50318E0" class="l66d44" points="-28,0.85 -28,2.55 -26.3,2.55 -26.3,0.85"/>
<polygon id="000001DEB5031950" class="l67d20" points="-28.8,0.05 -28.8,3.35 -25.5,3.35 -25.5,0.05"/>
<polygon id="000001DEB5032EC0" class="l65d20" points="-29.2,-0.35 -29.2,3.75 -25.1,3.75 -25.1,-0.35"/>
<polygon id="000001DEB5032750" class="l66d44" points="-28,-2.55 -28,-0.85 -26.3,-0.85 -26.3,-2.55"/>
<polygon id="000001DEB50329F0" class="l67d20" points="-28.8,-3.35 -28.8,-0.05 -25.5,-0.05 -25.5,-3.35"/>
<polygon id="000001DEB5032F30" class="l65d20" points="-29.2,-3.75 -29.2,0.35 -25.1,0.35 -25.1,-3.75"/>
<polygon id="000001DEB5032D00" class="l66d44" points="-28,-5.95 -28,-4.25 -26.3,-4.25 -26.3,-5.95"/>
<polygon id="000001DEB5032D70" class="l67d20" points="-28.8,-6.75 -28.8,-3.45 -25.5,-3.45 -25.5,-6.75"/>
<polygon id="000001DEB5032280" class="l65d20" points="-29.2,-7.15 -29.2,-3.05 -25.1,-3.05 -25.1,-7.15"/>
<polygon id="000001DEB50322F0" class="l66d44" points="-28,-9.35 -28,-7.65 -26.3,-7.65 -26.3,-9.35"/>
<polygon id="000001DEB5031640" class="l67d20" points="-28.8,-10.15 -28.8,-6.85 -25.5,-6.85 -25.5,-10.15"/>
<polygon id="000001DEB5031480" class="l65d20" points="-29.2,-10.55 -29.2,-6.45 -25.1,-6.45 -25.1,-10.55"/>
<polygon id="000001DEB5031410" class="l66d44" points="-28,-12.75 -28,-11.05 -26.3,-11.05 -26.3,-12.75"/>
<polygon id="000001DEB5031E20" class="l67d20" points="-28.8,-13.55 -28.8,-10.25 -25.5,-10.25 -25.5,-13.55"/>
<polygon id="000001DEB50314F0" class="l65d20" points="-29.2,-13.95 -29.2,-9.85 -25.1,-9.85 -25.1,-13.95"/>
<polygon id="000001DEB5031560" class="l66d44" points="-28,-16.15 -28,-14.45 -26.3,-14.45 -26.3,-16.15"/>
<polygon id="000001DEB5031F70" class="l67d20" points="-28.8,-16.95 -28.8,-13.65 -25.5,-13.65 -25.5,-16.95"/>
<polygon id="000001DEB5032360" class="l65d20" points="-29.2,-17.35 -29.2,-13.25 -25.1,-13.25 -25.1,-17.35"/>
<polygon id="000001DEB50315D0" class="l66d44" points="-28,-19.55 -28,-17.85 -26.3,-17.85 -26.3,-19.55"/>
<polygon id="000001DEB5031720" class="l67d20" points="-28.8,-20.35 -28.8,-17.05 -25.5,-17.05 -25.5,-20.35"/>
<polygon id="000001DEB5031800" class="l65d20" points="-29.2,-20.75 -29.2,-16.65 -25.1,-16.65 -25.1,-20.75"/>
<polygon id="000001DEB50319C0" class="l66d44" points="-28,-22.95 -28,-21.25 -26.3,-21.25 -26.3,-22.95"/>
<polygon id="000001DEB5032670" class="l67d20" points="-28.8,-23.75 -28.8,-20.45 -25.5,-20.45 -25.5,-23.75"/>
<polygon id="000001DEB5031B10" class="l65d20" points="-29.2,-24.15 -29.2,-20.05 -25.1,-20.05 -25.1,-24.15"/>
<polygon id="000001DEB5031870" class="l67d20" points="-29.2,-29.65 -29.2,29.65 -25.1,29.65 -25.1,-29.65"/>
<polygon id="000001DEB5031B80" class="l65d20" points="-29.2,-27.55 -29.2,27.55 -25.1,27.55 -25.1,-27.55"/>
<polygon id="000001DEB50323D0" class="l66d44" points="-18.35,-32.55 -18.35,-30.85 -16.65,-30.85 -16.65,-32.55"/>
<polygon id="000001DEB5032440" class="l68d20" points="-18.95,-33.15 -18.95,-30.25 -16.05,-30.25 -16.05,-33.15"/>
<polygon id="000001DEB50338D0" class="l67d20" points="-19.15,-33.35 -19.15,-30.05 -15.85,-30.05 -15.85,-33.35"/>
<polygon id="000001DEB5033710" class="l67d44" points="-18.35,-32.55 -18.35,-30.85 -16.65,-30.85 -16.65,-32.55"/>
<polygon id="000001DEB5033BE0" class="l65d20" points="-19.55,-33.75 -19.55,-29.65 -15.45,-29.65 -15.45,-33.75"/>
<polygon id="000001DEB5034430" class="l66d44" points="16.65,-32.55 16.65,-30.85 18.35,-30.85 18.35,-32.55"/>
<polygon id="000001DEB50336A0" class="l68d20" points="16.05,-33.15 16.05,-30.25 18.95,-30.25 18.95,-33.15"/>
<polygon id="000001DEB5034270" class="l67d20" points="15.85,-33.35 15.85,-30.05 19.15,-30.05 19.15,-33.35"/>
<polygon id="000001DEB5033C50" class="l67d44" points="16.65,-32.55 16.65,-30.85 18.35,-30.85 18.35,-32.55"/>
<polygon id="000001DEB50342E0" class="l65d20" points="15.45,-33.75 15.45,-29.65 19.55,-29.65 19.55,-33.75"/>
<polygon id="000001DEB5033B00" class="l66d44" points="11.65,-32.55 11.65,-30.85 13.35,-30.85 13.35,-32.55"/>
<polygon id="000001DEB5034820" class="l68d20" points="11.05,-33.15 11.05,-30.25 13.95,-30.25 13.95,-33.15"/>
<polygon id="000001DEB5033E10" class="l67d20" points="10.85,-33.35 10.85,-30.05 14.15,-30.05 14.15,-33.35"/>
<polygon id="000001DEB5033080" class="l67d44" points="11.65,-32.55 11.65,-30.85 13.35,-30.85 13.35,-32.55"/>
<polygon id="000001DEB5033CC0" class="l65d20" points="10.45,-33.75 10.45,-29.65 14.55,-29.65 14.55,-33.75"/>
<polygon id="000001DEB50344A0" class="l66d44" points="6.65,-32.55 6.65,-30.85 8.35,-30.85 8.35,-32.55"/>
<polygon id="000001DEB5034200" class="l68d20" points="6.05,-33.15 6.05,-30.25 8.95,-30.25 8.95,-33.15"/>
<polygon id="000001DEB5033940" class="l67d20" points="5.85,-33.35 5.85,-30.05 9.15,-30.05 9.15,-33.35"/>
<polygon id="000001DEB50339B0" class="l67d44" points="6.65,-32.55 6.65,-30.85 8.35,-30.85 8.35,-32.55"/>
<polygon id="000001DEB5033A20" class="l65d20" points="5.45,-33.75 5.45,-29.65 9.55,-29.65 9.55,-33.75"/>
<polygon id="000001DEB5034890" class="l66d44" points="1.65,-32.55 1.65,-30.85 3.35,-30.85 3.35,-32.55"/>
<polygon id="000001DEB50347B0" class="l68d20" points="1.05,-33.15 1.05,-30.25 3.95,-30.25 3.95,-33.15"/>
<polygon id="000001DEB5032FA0" class="l67d20" points="0.85,-33.35 0.85,-30.05 4.15,-30.05 4.15,-33.35"/>
<polygon id="000001DEB5034350" class="l67d44" points="1.65,-32.55 1.65,-30.85 3.35,-30.85 3.35,-32.55"/>
<polygon id="000001DEB5033A90" class="l65d20" points="0.45,-33.75 0.45,-29.65 4.55,-29.65 4.55,-33.75"/>
<polygon id="000001DEB5033D30" class="l66d44" points="-3.35,-32.55 -3.35,-30.85 -1.65,-30.85 -1.65,-32.55"/>
<polygon id="000001DEB5033240" class="l68d20" points="-3.95,-33.15 -3.95,-30.25 -1.05,-30.25 -1.05,-33.15"/>
<polygon id="000001DEB50334E0" class="l67d20" points="-4.15,-33.35 -4.15,-30.05 -0.85,-30.05 -0.85,-33.35"/>
<polygon id="000001DEB5033390" class="l67d44" points="-3.35,-32.55 -3.35,-30.85 -1.65,-30.85 -1.65,-32.55"/>
<polygon id="000001DEB5034120" class="l65d20" points="-4.55,-33.75 -4.55,-29.65 -0.45,-29.65 -0.45,-33.75"/>
<polygon id="000001DEB5033010" class="l66d44" points="-8.35,-32.55 -8.35,-30.85 -6.65,-30.85 -6.65,-32.55"/>
<polygon id="000001DEB5033DA0" class="l68d20" points="-8.95,-33.15 -8.95,-30.25 -6.05,-30.25 -6.05,-33.15"/>
<polygon id="000001DEB5033E80" class="l67d20" points="-9.15,-33.35 -9.15,-30.05 -5.85,-30.05 -5.85,-33.35"/>
<polygon id="000001DEB5033EF0" class="l67d44" points="-8.35,-32.55 -8.35,-30.85 -6.65,-30.85 -6.65,-32.55"/>
<polygon id="000001DEB5034510" class="l65d20" points="-9.55,-33.75 -9.55,-29.65 -5.45,-29.65 -5.45,-33.75"/>
<polygon id="000001DEB5033B70" class="l66d44" points="-13.35,-32.55 -13.35,-30.85 -11.65,-30.85 -11.65,-32.55"/>
<polygon id="000001DEB5033F60" class="l68d20" points="-13.95,-33.15 -13.95,-30.25 -11.05,-30.25 -11.05,-33.15"/>
<polygon id="000001DEB5034580" class="l67d20" points="-14.15,-33.35 -14.15,-30.05 -10.85,-30.05 -10.85,-33.35"/>
<polygon id="000001DEB50345F0" class="l67d44" points="-13.35,-32.55 -13.35,-30.85 -11.65,-30.85 -11.65,-32.55"/>
<polygon id="000001DEB5033FD0" class="l65d20" points="-14.55,-33.75 -14.55,-29.65 -10.45,-29.65 -10.45,-33.75"/>
<polygon id="000001DEB5034040" class="l67d20" points="-19.15,-33.35 -19.15,-30.05 19.15,-30.05 19.15,-33.35"/>
<polygon id="000001DEB50340B0" class="l68d20" points="-25.1,-33.75 -25.1,-29.65 25.1,-29.65 25.1,-33.75"/>
<polygon id="000001DEB5034190" class="l65d20" points="-19.55,-33.75 -19.55,-29.65 19.55,-29.65 19.55,-33.75"/>
<polygon id="000001DEB5033550" class="l66d44" points="26.3,-26.35 26.3,-24.65 28,-24.65 28,-26.35"/>
<polygon id="000001DEB50343C0" class="l67d20" points="25.5,-27.15 25.5,-23.85 28.8,-23.85 28.8,-27.15"/>
<polygon id="000001DEB5034660" class="l65d20" points="25.1,-27.55 25.1,-23.45 29.2,-23.45 29.2,-27.55"/>
<polygon id="000001DEB50346D0" class="l66d44" points="26.3,24.65 26.3,26.35 28,26.35 28,24.65"/>
<polygon id="000001DEB5034740" class="l67d20" points="25.5,23.85 25.5,27.15 28.8,27.15 28.8,23.85"/>
<polygon id="000001DEB50335C0" class="l65d20" points="25.1,23.45 25.1,27.55 29.2,27.55 29.2,23.45"/>
<polygon id="000001DEB5034900" class="l66d44" points="26.3,21.25 26.3,22.95 28,22.95 28,21.25"/>
<polygon id="000001DEB5034B30" class="l67d20" points="25.5,20.45 25.5,23.75 28.8,23.75 28.8,20.45"/>
<polygon id="000001DEB50332B0" class="l65d20" points="25.1,20.05 25.1,24.15 29.2,24.15 29.2,20.05"/>
<polygon id="000001DEB5034970" class="l66d44" points="26.3,17.85 26.3,19.55 28,19.55 28,17.85"/>
<polygon id="000001DEB50349E0" class="l67d20" points="25.5,17.05 25.5,20.35 28.8,20.35 28.8,17.05"/>
<polygon id="000001DEB5033860" class="l65d20" points="25.1,16.65 25.1,20.75 29.2,20.75 29.2,16.65"/>
<polygon id="000001DEB5034A50" class="l66d44" points="26.3,14.45 26.3,16.15 28,16.15 28,14.45"/>
<polygon id="000001DEB5034AC0" class="l67d20" points="25.5,13.65 25.5,16.95 28.8,16.95 28.8,13.65"/>
<polygon id="000001DEB50330F0" class="l65d20" points="25.1,13.25 25.1,17.35 29.2,17.35 29.2,13.25"/>
<polygon id="000001DEB5033160" class="l66d44" points="26.3,11.05 26.3,12.75 28,12.75 28,11.05"/>
<polygon id="000001DEB5033320" class="l67d20" points="25.5,10.25 25.5,13.55 28.8,13.55 28.8,10.25"/>
<polygon id="000001DEB5033780" class="l65d20" points="25.1,9.85 25.1,13.95 29.2,13.95 29.2,9.85"/>
<polygon id="000001DEB5033630" class="l66d44" points="26.3,7.65 26.3,9.35 28,9.35 28,7.65"/>
<polygon id="000001DEB50337F0" class="l67d20" points="25.5,6.85 25.5,10.15 28.8,10.15 28.8,6.85"/>
<polygon id="000001DEB50331D0" class="l65d20" points="25.1,6.45 25.1,10.55 29.2,10.55 29.2,6.45"/>
<polygon id="000001DEB5033400" class="l66d44" points="26.3,4.25 26.3,5.95 28,5.95 28,4.25"/>
<polygon id="000001DEB5033470" class="l67d20" points="25.5,3.45 25.5,6.75 28.8,6.75 28.8,3.45"/>
<polygon id="000001DEB50353F0" class="l65d20" points="25.1,3.05 25.1,7.15 29.2,7.15 29.2,3.05"/>
<polygon id="000001DEB5035E00" class="l66d44" points="26.3,0.85 26.3,2.55 28,2.55 28,0.85"/>
<polygon id="000001DEB5035A80" class="l67d20" points="25.5,0.05 25.5,3.35 28.8,3.35 28.8,0.05"/>
<polygon id="000001DEB5035A10" class="l65d20" points="25.1,-0.35 25.1,3.75 29.2,3.75 29.2,-0.35"/>
<polygon id="000001DEB5035CB0" class="l66d44" points="26.3,-2.55 26.3,-0.85 28,-0.85 28,-2.55"/>
<polygon id="000001DEB5035AF0" class="l67d20" points="25.5,-3.35 25.5,-0.05 28.8,-0.05 28.8,-3.35"/>
<polygon id="000001DEB5035150" class="l65d20" points="25.1,-3.75 25.1,0.35 29.2,0.35 29.2,-3.75"/>
<polygon id="000001DEB5035C40" class="l66d44" points="26.3,-5.95 26.3,-4.25 28,-4.25 28,-5.95"/>
<polygon id="000001DEB5035310" class="l67d20" points="25.5,-6.75 25.5,-3.45 28.8,-3.45 28.8,-6.75"/>
<polygon id="000001DEB50366C0" class="l65d20" points="25.1,-7.15 25.1,-3.05 29.2,-3.05 29.2,-7.15"/>
<polygon id="000001DEB5035000" class="l66d44" points="26.3,-9.35 26.3,-7.65 28,-7.65 28,-9.35"/>
<polygon id="000001DEB5034DD0" class="l67d20" points="25.5,-10.15 25.5,-6.85 28.8,-6.85 28.8,-10.15"/>
<polygon id="000001DEB5035B60" class="l65d20" points="25.1,-10.55 25.1,-6.45 29.2,-6.45 29.2,-10.55"/>
<polygon id="000001DEB5036500" class="l66d44" points="26.3,-12.75 26.3,-11.05 28,-11.05 28,-12.75"/>
<polygon id="000001DEB5036420" class="l67d20" points="25.5,-13.55 25.5,-10.25 28.8,-10.25 28.8,-13.55"/>
<polygon id="000001DEB5034E40" class="l65d20" points="25.1,-13.95 25.1,-9.85 29.2,-9.85 29.2,-13.95"/>
<polygon id="000001DEB5035FC0" class="l66d44" points="26.3,-16.15 26.3,-14.45 28,-14.45 28,-16.15"/>
<polygon id="000001DEB50360A0" class="l67d20" points="25.5,-16.95 25.5,-13.65 28.8,-13.65 28.8,-16.95"/>
<polygon id="000001DEB5035380" class="l65d20" points="25.1,-17.35 25.1,-13.25 29.2,-13.25 29.2,-17.35"/>
<polygon id="000001DEB5035070" class="l66d44" points="26.3,-19.55 26.3,-17.85 28,-17.85 28,-19.55"/>
<polygon id="000001DEB5034C80" class="l67d20" points="25.5,-20.35 25.5,-17.05 28.8,-17.05 28.8,-20.35"/>
<polygon id="000001DEB50350E0" class="l65d20" points="25.1,-20.75 25.1,-16.65 29.2,-16.65 29.2,-20.75"/>
<polygon id="000001DEB5035850" class="l66d44" points="26.3,-22.95 26.3,-21.25 28,-21.25 28,-22.95"/>
<polygon id="000001DEB5035D20" class="l67d20" points="25.5,-23.75 25.5,-20.45 28.8,-20.45 28.8,-23.75"/>
<polygon id="000001DEB50351C0" class="l65d20" points="25.1,-24.15 25.1,-20.05 29.2,-20.05 29.2,-24.15"/>
<polygon id="000001DEB5035230" class="l67d20" points="25.1,-29.65 25.1,29.65 29.2,29.65 29.2,-29.65"/>
<polygon id="000001DEB50354D0" class="l65d20" points="25.1,-27.55 25.1,27.55 29.2,27.55 29.2,-27.55"/>
<polygon id="000001DEB5035460" class="l66d44" points="-18.35,30.85 -18.35,32.55 -16.65,32.55 -16.65,30.85"/>
<polygon id="000001DEB5035EE0" class="l68d20" points="-18.95,30.25 -18.95,33.15 -16.05,33.15 -16.05,30.25"/>
<polygon id="000001DEB50361F0" class="l67d20" points="-19.15,30.05 -19.15,33.35 -15.85,33.35 -15.85,30.05"/>
<polygon id="000001DEB50355B0" class="l67d44" points="-18.35,30.85 -18.35,32.55 -16.65,32.55 -16.65,30.85"/>
<polygon id="000001DEB5035D90" class="l65d20" points="-19.55,29.65 -19.55,33.75 -15.45,33.75 -15.45,29.65"/>
<polygon id="000001DEB5036490" class="l66d44" points="16.65,30.85 16.65,32.55 18.35,32.55 18.35,30.85"/>
<polygon id="000001DEB5036570" class="l68d20" points="16.05,30.25 16.05,33.15 18.95,33.15 18.95,30.25"/>
<polygon id="000001DEB5036030" class="l67d20" points="15.85,30.05 15.85,33.35 19.15,33.35 19.15,30.05"/>
<polygon id="000001DEB5034D60" class="l67d44" points="16.65,30.85 16.65,32.55 18.35,32.55 18.35,30.85"/>
<polygon id="000001DEB5035620" class="l65d20" points="15.45,29.65 15.45,33.75 19.55,33.75 19.55,29.65"/>
<polygon id="000001DEB5035E70" class="l66d44" points="11.65,30.85 11.65,32.55 13.35,32.55 13.35,30.85"/>
<polygon id="000001DEB5035F50" class="l68d20" points="11.05,30.25 11.05,33.15 13.95,33.15 13.95,30.25"/>
<polygon id="000001DEB5036110" class="l67d20" points="10.85,30.05 10.85,33.35 14.15,33.35 14.15,30.05"/>
<polygon id="000001DEB5036180" class="l67d44" points="11.65,30.85 11.65,32.55 13.35,32.55 13.35,30.85"/>
<polygon id="000001DEB5034EB0" class="l65d20" points="10.45,29.65 10.45,33.75 14.55,33.75 14.55,29.65"/>
<polygon id="000001DEB50365E0" class="l66d44" points="6.65,30.85 6.65,32.55 8.35,32.55 8.35,30.85"/>
<polygon id="000001DEB5036650" class="l68d20" points="6.05,30.25 6.05,33.15 8.95,33.15 8.95,30.25"/>
<polygon id="000001DEB5036730" class="l67d20" points="5.85,30.05 5.85,33.35 9.15,33.35 9.15,30.05"/>
<polygon id="000001DEB50363B0" class="l67d44" points="6.65,30.85 6.65,32.55 8.35,32.55 8.35,30.85"/>
<polygon id="000001DEB5035540" class="l65d20" points="5.45,29.65 5.45,33.75 9.55,33.75 9.55,29.65"/>
<polygon id="000001DEB5035BD0" class="l66d44" points="1.65,30.85 1.65,32.55 3.35,32.55 3.35,30.85"/>
<polygon id="000001DEB5034BA0" class="l68d20" points="1.05,30.25 1.05,33.15 3.95,33.15 3.95,30.25"/>
<polygon id="000001DEB5035930" class="l67d20" points="0.85,30.05 0.85,33.35 4.15,33.35 4.15,30.05"/>
<polygon id="000001DEB50362D0" class="l67d44" points="1.65,30.85 1.65,32.55 3.35,32.55 3.35,30.85"/>
<polygon id="000001DEB5034C10" class="l65d20" points="0.45,29.65 0.45,33.75 4.55,33.75 4.55,29.65"/>
<polygon id="000001DEB5036260" class="l66d44" points="-3.35,30.85 -3.35,32.55 -1.65,32.55 -1.65,30.85"/>
<polygon id="000001DEB50357E0" class="l68d20" points="-3.95,30.25 -3.95,33.15 -1.05,33.15 -1.05,30.25"/>
<polygon id="000001DEB5035690" class="l67d20" points="-4.15,30.05 -4.15,33.35 -0.85,33.35 -0.85,30.05"/>
<polygon id="000001DEB5034CF0" class="l67d44" points="-3.35,30.85 -3.35,32.55 -1.65,32.55 -1.65,30.85"/>
<polygon id="000001DEB5035700" class="l65d20" points="-4.55,29.65 -4.55,33.75 -0.45,33.75 -0.45,29.65"/>
<polygon id="000001DEB5036340" class="l66d44" points="-8.35,30.85 -8.35,32.55 -6.65,32.55 -6.65,30.85"/>
<polygon id="000001DEB5034F20" class="l68d20" points="-8.95,30.25 -8.95,33.15 -6.05,33.15 -6.05,30.25"/>
<polygon id="000001DEB5035770" class="l67d20" points="-9.15,30.05 -9.15,33.35 -5.85,33.35 -5.85,30.05"/>
<polygon id="000001DEB5034F90" class="l67d44" points="-8.35,30.85 -8.35,32.55 -6.65,32.55 -6.65,30.85"/>
<polygon id="000001DEB50352A0" class="l65d20" points="-9.55,29.65 -9.55,33.75 -5.45,33.75 -5.45,29.65"/>
<polygon id="000001DEB50358C0" class="l66d44" points="-13.35,30.85 -13.35,32.55 -11.65,32.55 -11.65,30.85"/>
<polygon id="000001DEB50359A0" class="l68d20" points="-13.95,30.25 -13.95,33.15 -11.05,33.15 -11.05,30.25"/>
<polygon id="000001DEB5036A40" class="l67d20" points="-14.15,30.05 -14.15,33.35 -10.85,33.35 -10.85,30.05"/>
<polygon id="000001DEB50367A0" class="l67d44" points="-13.35,30.85 -13.35,32.55 -11.65,32.55 -11.65,30.85"/>
<polygon id="000001DEB50369D0" class="l65d20" points="-14.55,29.65 -14.55,33.75 -10.45,33.75 -10.45,29.65"/>
<polygon id="000001DEB5036810" class="l67d20" points="-19.15,30.05 -19.15,33.35 19.15,33.35 19.15,30.05"/>
<polygon id="000001DEB5036880" class="l68d20" points="-25.1,29.65 -25.1,33.75 25.1,33.75 25.1,29.65"/>
<polygon id="000001DEB50368F0" class="l65d20" points="-19.55,29.65 -19.55,33.75 19.55,33.75 19.55,29.65"/>
<polygon id="000001DEB5036960" class="l94d20" points="30.5,35.05 -30.5,35.05 -30.5,-28.35 -23.8,-28.35 -23.8,28.35 23.8,28.35 23.8,-28.35 -23.8,-28.35 -30.5,-28.35 -30.5,-35.05 30.5,-35.05"/>
</g>
</svg>
