<?xml version='1.0' encoding='ASCII' standalone='yes'?>
<svg xmlns="http://www.w3.org/2000/svg" xmlns:xlink="http://www.w3.org/1999/xlink" width="340.445" height="341.495" viewBox="-48.635 -48.785 97.27 97.57">
<defs>
<style type="text/css">
.l67d44 {stroke: #875692; fill: #875692; fill-opacity: 0.5;}
.l66d44 {stroke: #F3C300; fill: #F3C300; fill-opacity: 0.5;}
.l95d20 {stroke: #654522; fill: #654522; fill-opacity: 0.5;}
.l94d20 {stroke: #8DB600; fill: #8DB600; fill-opacity: 0.5;}
.l65d20 {stroke: #008856; fill: #008856; fill-opacity: 0.5;}
.l64d20 {stroke: #848482; fill: #848482; fill-opacity: 0.5;}
.l67d20 {stroke: #0067A5; fill: #0067A5; fill-opacity: 0.5;}
.l66d20 {stroke: #E68FAC; fill: #E68FAC; fill-opacity: 0.5;}
.l93d44 {stroke: #008856; fill: #008856; fill-opacity: 0.5;}
.l68d20 {stroke: #F99379; fill: #F99379; fill-opacity: 0.5;}
</style>
</defs>
<rect x="-48.635" y="-48.785" width="97.27" height="97.57" fill="#222222" stroke="none"/>
<g id="Unnamed_8dc02afc" transform="scale(1 -1)">
<polygon id="000002DD7DA44470" class="l64d20" points="-35.4,-35.55 35.4,-35.55 35.4,35.55 -35.4,35.55"/>
<polygon id="000002DD7DA444E0" class="l66d20" points="-0.75,-16.8 -0.75,18.2 0.75,18.2 0.75,-16.8"/>
<polygon id="000002DD7DA44BE0" class="l66d44" points="2.4,-10.35 2.4,-8.65 4.1,-8.65 4.1,-10.35"/>
<polygon id="000002DD7DA45270" class="l67d20" points="1.6,-11.15 1.6,-7.85 4.9,-7.85 4.9,-11.15"/>
<polygon id="000002DD7DA45A50" class="l67d20" points="1.6,-7.75 1.6,-4.45 4.9,-4.45 4.9,-7.75"/>
<polygon id="000002DD7DA44C50" class="l66d44" points="2.4,10.05 2.4,11.75 4.1,11.75 4.1,10.05"/>
<polygon id="000002DD7DA45040" class="l67d20" points="1.6,9.25 1.6,12.55 4.9,12.55 4.9,9.25"/>
<polygon id="000002DD7DA45190" class="l66d44" points="2.4,-6.95 2.4,-5.25 4.1,-5.25 4.1,-6.95"/>
<polygon id="000002DD7DA44D30" class="l66d44" points="2.4,6.65 2.4,8.35 4.1,8.35 4.1,6.65"/>
<polygon id="000002DD7DA44550" class="l67d20" points="1.6,5.85 1.6,9.15 4.9,9.15 4.9,5.85"/>
<polygon id="000002DD7DA44630" class="l67d20" points="1.6,-4.35 1.6,-1.05 4.9,-1.05 4.9,-4.35"/>
<polygon id="000002DD7DA45AC0" class="l66d44" points="2.4,3.25 2.4,4.95 4.1,4.95 4.1,3.25"/>
<polygon id="000002DD7DA45BA0" class="l67d20" points="1.6,2.45 1.6,5.75 4.9,5.75 4.9,2.45"/>
<polygon id="000002DD7DA44DA0" class="l66d44" points="2.4,-3.55 2.4,-1.85 4.1,-1.85 4.1,-3.55"/>
<polygon id="000002DD7DA44E80" class="l66d44" points="2.4,-0.15 2.4,1.55 4.1,1.55 4.1,-0.15"/>
<polygon id="000002DD7DA44710" class="l67d20" points="1.6,-0.95 1.6,2.35 4.9,2.35 4.9,-0.95"/>
<polygon id="000002DD7DA44780" class="l67d20" points="1.6,-14.3 1.6,15.7 4.9,15.7 4.9,-14.3"/>
<polygon id="000002DD7DA44390" class="l67d44" points="2.4,-12.75 2.4,-11.05 4.1,-11.05 4.1,-12.75"/>
<polygon id="000002DD7DA45C10" class="l68d20" points="1.8,-13.35 1.8,-10.45 4.7,-10.45 4.7,-13.35"/>
<polygon id="000002DD7DA44160" class="l67d20" points="2.4,-12.75 2.4,-11.05 4.1,-11.05 4.1,-12.75"/>
<polygon id="000002DD7DA441D0" class="l67d44" points="2.4,12.45 2.4,14.15 4.1,14.15 4.1,12.45"/>
<polygon id="000002DD7DA44240" class="l68d20" points="1.8,11.85 1.8,14.75 4.7,14.75 4.7,11.85"/>
<polygon id="000002DD7DA442B0" class="l67d20" points="2.4,12.45 2.4,14.15 4.1,14.15 4.1,12.45"/>
<polygon id="000002DD7DA448D0" class="l67d44" points="2.4,8.85 2.4,10.55 4.1,10.55 4.1,8.85"/>
<polygon id="000002DD7DA46AF0" class="l68d20" points="1.8,8.25 1.8,11.15 4.7,11.15 4.7,8.25"/>
<polygon id="000002DD7DA47880" class="l67d20" points="2.4,8.85 2.4,10.55 4.1,10.55 4.1,8.85"/>
<polygon id="000002DD7DA46620" class="l67d44" points="2.4,5.25 2.4,6.95 4.1,6.95 4.1,5.25"/>
<polygon id="000002DD7DA46D90" class="l68d20" points="1.8,4.65 1.8,7.55 4.7,7.55 4.7,4.65"/>
<polygon id="000002DD7DA475E0" class="l67d20" points="2.4,5.25 2.4,6.95 4.1,6.95 4.1,5.25"/>
<polygon id="000002DD7DA46070" class="l67d44" points="2.4,1.65 2.4,3.35 4.1,3.35 4.1,1.65"/>
<polygon id="000002DD7DA45CF0" class="l68d20" points="1.8,1.05 1.8,3.95 4.7,3.95 4.7,1.05"/>
<polygon id="000002DD7DA468C0" class="l67d20" points="2.4,1.65 2.4,3.35 4.1,3.35 4.1,1.65"/>
<polygon id="000002DD7DA47340" class="l67d44" points="2.4,-1.95 2.4,-0.25 4.1,-0.25 4.1,-1.95"/>
<polygon id="000002DD7DA473B0" class="l68d20" points="1.8,-2.55 1.8,0.35 4.7,0.35 4.7,-2.55"/>
<polygon id="000002DD7DA46D20" class="l67d20" points="2.4,-1.95 2.4,-0.25 4.1,-0.25 4.1,-1.95"/>
<polygon id="000002DD7DA47570" class="l67d44" points="2.4,-5.55 2.4,-3.85 4.1,-3.85 4.1,-5.55"/>
<polygon id="000002DD7DA47110" class="l68d20" points="1.8,-6.15 1.8,-3.25 4.7,-3.25 4.7,-6.15"/>
<polygon id="000002DD7DA46CB0" class="l67d20" points="2.4,-5.55 2.4,-3.85 4.1,-3.85 4.1,-5.55"/>
<polygon id="000002DD7DA46460" class="l67d44" points="2.4,-9.15 2.4,-7.45 4.1,-7.45 4.1,-9.15"/>
<polygon id="000002DD7DA46C40" class="l68d20" points="1.8,-9.75 1.8,-6.85 4.7,-6.85 4.7,-9.75"/>
<polygon id="000002DD7DA46930" class="l67d20" points="2.4,-9.15 2.4,-7.45 4.1,-7.45 4.1,-9.15"/>
<polygon id="000002DD7DA470A0" class="l68d20" points="1.8,-14.3 1.8,15.7 4.7,15.7 4.7,-14.3"/>
<polygon id="000002DD7DA47180" class="l67d20" points="2.4,-12.75 2.4,14.15 4.1,14.15 4.1,-12.75"/>
<polygon id="000002DD7DA46690" class="l66d44" points="-4.1,-10.35 -4.1,-8.65 -2.4,-8.65 -2.4,-10.35"/>
<polygon id="000002DD7DA47650" class="l67d20" points="-4.9,-11.15 -4.9,-7.85 -1.6,-7.85 -1.6,-11.15"/>
<polygon id="000002DD7DA46FC0" class="l67d20" points="-4.9,-7.75 -4.9,-4.45 -1.6,-4.45 -1.6,-7.75"/>
<polygon id="000002DD7DA469A0" class="l66d44" points="-4.1,10.05 -4.1,11.75 -2.4,11.75 -2.4,10.05"/>
<polygon id="000002DD7DA46230" class="l67d20" points="-4.9,9.25 -4.9,12.55 -1.6,12.55 -1.6,9.25"/>
<polygon id="000002DD7DA476C0" class="l66d44" points="-4.1,-6.95 -4.1,-5.25 -2.4,-5.25 -2.4,-6.95"/>
<polygon id="000002DD7DA465B0" class="l66d44" points="-4.1,6.65 -4.1,8.35 -2.4,8.35 -2.4,6.65"/>
<polygon id="000002DD7DA46EE0" class="l67d20" points="-4.9,5.85 -4.9,9.15 -1.6,9.15 -1.6,5.85"/>
<polygon id="000002DD7DA46BD0" class="l67d20" points="-4.9,-4.35 -4.9,-1.05 -1.6,-1.05 -1.6,-4.35"/>
<polygon id="000002DD7DA46700" class="l66d44" points="-4.1,3.25 -4.1,4.95 -2.4,4.95 -2.4,3.25"/>
<polygon id="000002DD7DA461C0" class="l67d20" points="-4.9,2.45 -4.9,5.75 -1.6,5.75 -1.6,2.45"/>
<polygon id="000002DD7DA46770" class="l66d44" points="-4.1,-3.55 -4.1,-1.85 -2.4,-1.85 -2.4,-3.55"/>
<polygon id="000002DD7DA46E00" class="l66d44" points="-4.1,-0.15 -4.1,1.55 -2.4,1.55 -2.4,-0.15"/>
<polygon id="000002DD7DA467E0" class="l67d20" points="-4.9,-0.95 -4.9,2.35 -1.6,2.35 -1.6,-0.95"/>
<polygon id="000002DD7DA45F20" class="l67d20" points="-4.9,-14.3 -4.9,15.7 -1.6,15.7 -1.6,-14.3"/>
<polygon id="000002DD7DA46850" class="l67d44" points="-4.1,-12.75 -4.1,-11.05 -2.4,-11.05 -2.4,-12.75"/>
<polygon id="000002DD7DA471F0" class="l68d20" points="-4.7,-13.35 -4.7,-10.45 -1.8,-10.45 -1.8,-13.35"/>
<polygon id="000002DD7DA46A10" class="l67d20" points="-4.1,-12.75 -4.1,-11.05 -2.4,-11.05 -2.4,-12.75"/>
<polygon id="000002DD7DA460E0" class="l67d44" points="-4.1,12.45 -4.1,14.15 -2.4,14.15 -2.4,12.45"/>
<polygon id="000002DD7DA47260" class="l68d20" points="-4.7,11.85 -4.7,14.75 -1.8,14.75 -1.8,11.85"/>
<polygon id="000002DD7DA46A80" class="l67d20" points="-4.1,12.45 -4.1,14.15 -2.4,14.15 -2.4,12.45"/>
<polygon id="000002DD7DA46B60" class="l67d44" points="-4.1,8.85 -4.1,10.55 -2.4,10.55 -2.4,8.85"/>
<polygon id="000002DD7DA46E70" class="l68d20" points="-4.7,8.25 -4.7,11.15 -1.8,11.15 -1.8,8.25"/>
<polygon id="000002DD7DA46F50" class="l67d20" points="-4.1,8.85 -4.1,10.55 -2.4,10.55 -2.4,8.85"/>
<polygon id="000002DD7DA463F0" class="l67d44" points="-4.1,5.25 -4.1,6.95 -2.4,6.95 -2.4,5.25"/>
<polygon id="000002DD7DA47030" class="l68d20" points="-4.7,4.65 -4.7,7.55 -1.8,7.55 -1.8,4.65"/>
<polygon id="000002DD7DA46000" class="l67d20" points="-4.1,5.25 -4.1,6.95 -2.4,6.95 -2.4,5.25"/>
<polygon id="000002DD7DA472D0" class="l67d44" points="-4.1,1.65 -4.1,3.35 -2.4,3.35 -2.4,1.65"/>
<polygon id="000002DD7DA47420" class="l68d20" points="-4.7,1.05 -4.7,3.95 -1.8,3.95 -1.8,1.05"/>
<polygon id="000002DD7DA47490" class="l67d20" points="-4.1,1.65 -4.1,3.35 -2.4,3.35 -2.4,1.65"/>
<polygon id="000002DD7DA46150" class="l67d44" points="-4.1,-1.95 -4.1,-0.25 -2.4,-0.25 -2.4,-1.95"/>
<polygon id="000002DD7DA47500" class="l68d20" points="-4.7,-2.55 -4.7,0.35 -1.8,0.35 -1.8,-2.55"/>
<polygon id="000002DD7DA462A0" class="l67d20" points="-4.1,-1.95 -4.1,-0.25 -2.4,-0.25 -2.4,-1.95"/>
<polygon id="000002DD7DA47730" class="l67d44" points="-4.1,-5.55 -4.1,-3.85 -2.4,-3.85 -2.4,-5.55"/>
<polygon id="000002DD7DA477A0" class="l68d20" points="-4.7,-6.15 -4.7,-3.25 -1.8,-3.25 -1.8,-6.15"/>
<polygon id="000002DD7DA47810" class="l67d20" points="-4.1,-5.55 -4.1,-3.85 -2.4,-3.85 -2.4,-5.55"/>
<polygon id="000002DD7DA45E40" class="l67d44" points="-4.1,-9.15 -4.1,-7.45 -2.4,-7.45 -2.4,-9.15"/>
<polygon id="000002DD7DA45F90" class="l68d20" points="-4.7,-9.75 -4.7,-6.85 -1.8,-6.85 -1.8,-9.75"/>
<polygon id="000002DD7DA45EB0" class="l67d20" points="-4.1,-9.15 -4.1,-7.45 -2.4,-7.45 -2.4,-9.15"/>
<polygon id="000002DD7DA45D60" class="l68d20" points="-4.7,-14.3 -4.7,15.7 -1.8,15.7 -1.8,-14.3"/>
<polygon id="000002DD7DA45DD0" class="l67d20" points="-4.1,-12.75 -4.1,14.15 -2.4,14.15 -2.4,-12.75"/>
<polygon id="000002DD7DA46310" class="l94d20" points="-6.8,-15.6 -6.8,17 6.8,17 6.8,-15.6"/>
<polygon id="000002DD7DA46380" class="l65d20" points="-5.5,-14.3 -5.5,15.7 5.5,15.7 5.5,-14.3"/>
<polygon id="000002DD7DA464D0" class="l67d44" points="-4.1,17.75 -4.1,19.45 -2.4,19.45 -2.4,17.75"/>
<polygon id="000002DD7DA46540" class="l68d20" points="-4.7,17.15 -4.7,20.05 -1.8,20.05 -1.8,17.15"/>
<polygon id="000002DD7DA47B20" class="l67d20" points="-4.1,17.75 -4.1,19.45 -2.4,19.45 -2.4,17.75"/>
<polygon id="000002DD7DA47B90" class="l66d20" points="16.65,-16.8 16.65,18.2 18.15,18.2 18.15,-16.8"/>
<polygon id="000002DD7DA479D0" class="l66d44" points="19.8,-10.35 19.8,-8.65 21.5,-8.65 21.5,-10.35"/>
<polygon id="000002DD7DA47A40" class="l67d20" points="19,-11.15 19,-7.85 22.3,-7.85 22.3,-11.15"/>
<polygon id="000002DD7DA47960" class="l67d20" points="19,-7.75 19,-4.45 22.3,-4.45 22.3,-7.75"/>
<polygon id="000002DD7DA47AB0" class="l66d44" points="19.8,10.05 19.8,11.75 21.5,11.75 21.5,10.05"/>
<polygon id="000002DD7DA47C70" class="l67d20" points="19,9.25 19,12.55 22.3,12.55 22.3,9.25"/>
<polygon id="000002DD7DA47F10" class="l66d44" points="19.8,-6.95 19.8,-5.25 21.5,-5.25 21.5,-6.95"/>
<polygon id="000002DD7DA47F80" class="l66d44" points="19.8,6.65 19.8,8.35 21.5,8.35 21.5,6.65"/>
<polygon id="000002DD7DA47CE0" class="l67d20" points="19,5.85 19,9.15 22.3,9.15 22.3,5.85"/>
<polygon id="000002DD7DA478F0" class="l67d20" points="19,-4.35 19,-1.05 22.3,-1.05 22.3,-4.35"/>
<polygon id="000002DD7DA47C00" class="l66d44" points="19.8,3.25 19.8,4.95 21.5,4.95 21.5,3.25"/>
<polygon id="000002DD7DA47D50" class="l67d20" points="19,2.45 19,5.75 22.3,5.75 22.3,2.45"/>
<polygon id="000002DD7DA47DC0" class="l66d44" points="19.8,-3.55 19.8,-1.85 21.5,-1.85 21.5,-3.55"/>
<polygon id="000002DD7DA47E30" class="l66d44" points="19.8,-0.15 19.8,1.55 21.5,1.55 21.5,-0.15"/>
<polygon id="000002DD7DA47EA0" class="l67d20" points="19,-0.95 19,2.35 22.3,2.35 22.3,-0.95"/>
<polygon id="000002DD7DA2C610" class="l67d20" points="19,-14.3 19,15.7 22.3,15.7 22.3,-14.3"/>
<polygon id="000002DD7DA2CE60" class="l66d44" points="13.3,-10.35 13.3,-8.65 15,-8.65 15,-10.35"/>
<polygon id="000002DD7DA2CED0" class="l67d20" points="12.5,-11.15 12.5,-7.85 15.8,-7.85 15.8,-11.15"/>
<polygon id="000002DD7DA2C920" class="l67d20" points="12.5,-7.75 12.5,-4.45 15.8,-4.45 15.8,-7.75"/>
<polygon id="000002DD7DA2C3E0" class="l66d44" points="13.3,10.05 13.3,11.75 15,11.75 15,10.05"/>
<polygon id="000002DD7DA2CCA0" class="l67d20" points="12.5,9.25 12.5,12.55 15.8,12.55 15.8,9.25"/>
<polygon id="000002DD7DA2C060" class="l66d44" points="13.3,-6.95 13.3,-5.25 15,-5.25 15,-6.95"/>
<polygon id="000002DD7DA2CBC0" class="l66d44" points="13.3,6.65 13.3,8.35 15,8.35 15,6.65"/>
<polygon id="000002DD7DA2BA40" class="l67d20" points="12.5,5.85 12.5,9.15 15.8,9.15 15.8,5.85"/>
<polygon id="000002DD7DA2BCE0" class="l67d20" points="12.5,-4.35 12.5,-1.05 15.8,-1.05 15.8,-4.35"/>
<polygon id="000002DD7DA2BC70" class="l66d44" points="13.3,3.25 13.3,4.95 15,4.95 15,3.25"/>
<polygon id="000002DD7DA2CF40" class="l67d20" points="12.5,2.45 12.5,5.75 15.8,5.75 15.8,2.45"/>
<polygon id="000002DD7DA2D100" class="l66d44" points="13.3,-3.55 13.3,-1.85 15,-1.85 15,-3.55"/>
<polygon id="000002DD7DA2D170" class="l66d44" points="13.3,-0.15 13.3,1.55 15,1.55 15,-0.15"/>
<polygon id="000002DD7DA2D1E0" class="l67d20" points="12.5,-0.95 12.5,2.35 15.8,2.35 15.8,-0.95"/>
<polygon id="000002DD7DA2BD50" class="l67d20" points="12.5,-14.3 12.5,15.7 15.8,15.7 15.8,-14.3"/>
<polygon id="000002DD7DA2C450" class="l94d20" points="10.6,-15.6 10.6,17 24.2,17 24.2,-15.6"/>
<polygon id="000002DD7DA2D250" class="l65d20" points="11.9,-14.3 11.9,15.7 22.9,15.7 22.9,-14.3"/>
<polygon id="000002DD7DA2BEA0" class="l66d44" points="16.55,-19.3 16.55,-17.6 18.25,-17.6 18.25,-19.3"/>
<polygon id="000002DD7DA2D3A0" class="l66d20" points="15.75,-20.1 15.75,-16.8 19.05,-16.8 19.05,-20.1"/>
<polygon id="000002DD7DA2D410" class="l67d20" points="15.75,-20.1 15.75,-16.8 19.05,-16.8 19.05,-20.1"/>
<polygon id="000002DD7DA2BF10" class="l66d20" points="15.75,-20.1 15.75,-16.8 19.05,-16.8 19.05,-20.1"/>
<polygon id="000002DD7DA2C0D0" class="l95d20" points="15.55,-20.3 19.25,-20.3 19.25,-16.6 15.55,-16.6"/>
<polygon id="000002DD7DA2CAE0" class="l67d20" points="12.5,-20.1 15.75,-20.1 15.75,-16.8 12.5,-16.8"/>
<polygon id="000002DD7DA2C290" class="l67d20" points="12.5,-20.1 15.8,-20.1 15.8,-14.3 12.5,-14.3"/>
<polygon id="000002DD7DA2C300" class="l67d20" points="19.05,-20.1 22.3,-20.1 22.3,-16.8 19.05,-16.8"/>
<polygon id="000002DD7DA2C370" class="l67d20" points="19,-20.1 22.3,-20.1 22.3,-14.3 19,-14.3"/>
<polygon id="000002DD7DA2C990" class="l66d20" points="-18.15,-16.8 -18.15,18.2 -16.65,18.2 -16.65,-16.8"/>
<polygon id="000002DD7DA2CA70" class="l66d44" points="-15,-10.35 -15,-8.65 -13.3,-8.65 -13.3,-10.35"/>
<polygon id="000002DD7DA2E750" class="l67d20" points="-15.8,-11.15 -15.8,-7.85 -12.5,-7.85 -12.5,-11.15"/>
<polygon id="000002DD7DA2E280" class="l67d20" points="-15.8,-7.75 -15.8,-4.45 -12.5,-4.45 -12.5,-7.75"/>
<polygon id="000002DD7DA2E8A0" class="l66d44" points="-15,10.05 -15,11.75 -13.3,11.75 -13.3,10.05"/>
<polygon id="000002DD7DA2E050" class="l67d20" points="-15.8,9.25 -15.8,12.55 -12.5,12.55 -12.5,9.25"/>
<polygon id="000002DD7DA2EC90" class="l66d44" points="-15,-6.95 -15,-5.25 -13.3,-5.25 -13.3,-6.95"/>
<polygon id="000002DD7DA2DE20" class="l66d44" points="-15,6.65 -15,8.35 -13.3,8.35 -13.3,6.65"/>
<polygon id="000002DD7DA2E440" class="l67d20" points="-15.8,5.85 -15.8,9.15 -12.5,9.15 -12.5,5.85"/>
<polygon id="000002DD7DA2D9C0" class="l67d20" points="-15.8,-4.35 -15.8,-1.05 -12.5,-1.05 -12.5,-4.35"/>
<polygon id="000002DD7DA2E520" class="l66d44" points="-15,3.25 -15,4.95 -13.3,4.95 -13.3,3.25"/>
<polygon id="000002DD7DA2E9F0" class="l67d20" points="-15.8,2.45 -15.8,5.75 -12.5,5.75 -12.5,2.45"/>
<polygon id="000002DD7DA2E360" class="l66d44" points="-15,-3.55 -15,-1.85 -13.3,-1.85 -13.3,-3.55"/>
<polygon id="000002DD7DA2DC60" class="l66d44" points="-15,-0.15 -15,1.55 -13.3,1.55 -13.3,-0.15"/>
<polygon id="000002DD7DA2DB80" class="l67d20" points="-15.8,-0.95 -15.8,2.35 -12.5,2.35 -12.5,-0.95"/>
<polygon id="000002DD7DA2DF00" class="l67d20" points="-15.8,-14.3 -15.8,15.7 -12.5,15.7 -12.5,-14.3"/>
<polygon id="000002DD7DA2DE90" class="l66d44" points="-21.5,-10.35 -21.5,-8.65 -19.8,-8.65 -19.8,-10.35"/>
<polygon id="000002DD7DA2D5D0" class="l67d20" points="-22.3,-11.15 -22.3,-7.85 -19,-7.85 -19,-11.15"/>
<polygon id="000002DD7DA2D790" class="l67d20" points="-22.3,-7.75 -22.3,-4.45 -19,-4.45 -19,-7.75"/>
<polygon id="000002DD7DA2F010" class="l66d44" points="-21.5,10.05 -21.5,11.75 -19.8,11.75 -19.8,10.05"/>
<polygon id="000002DD7DA2E910" class="l67d20" points="-22.3,9.25 -22.3,12.55 -19,12.55 -19,9.25"/>
<polygon id="000002DD7DA2D720" class="l66d44" points="-21.5,-6.95 -21.5,-5.25 -19.8,-5.25 -19.8,-6.95"/>
<polygon id="000002DD7DA2E7C0" class="l66d44" points="-21.5,6.65 -21.5,8.35 -19.8,8.35 -19.8,6.65"/>
<polygon id="000002DD7DA2ED70" class="l67d20" points="-22.3,5.85 -22.3,9.15 -19,9.15 -19,5.85"/>
<polygon id="000002DD7DA2DF70" class="l67d20" points="-22.3,-4.35 -22.3,-1.05 -19,-1.05 -19,-4.35"/>
<polygon id="000002DD7DA2DAA0" class="l66d44" points="-21.5,3.25 -21.5,4.95 -19.8,4.95 -19.8,3.25"/>
<polygon id="000002DD7DA2E210" class="l67d20" points="-22.3,2.45 -22.3,5.75 -19,5.75 -19,2.45"/>
<polygon id="000002DD7DA2DD40" class="l66d44" points="-21.5,-3.55 -21.5,-1.85 -19.8,-1.85 -19.8,-3.55"/>
<polygon id="000002DD7DA2D640" class="l66d44" points="-21.5,-0.15 -21.5,1.55 -19.8,1.55 -19.8,-0.15"/>
<polygon id="000002DD7DA2D870" class="l67d20" points="-22.3,-0.95 -22.3,2.35 -19,2.35 -19,-0.95"/>
<polygon id="000002DD7DA2ED00" class="l67d20" points="-22.3,-14.3 -22.3,15.7 -19,15.7 -19,-14.3"/>
<polygon id="000002DD7DA2F080" class="l94d20" points="-24.2,-15.6 -24.2,17 -10.6,17 -10.6,-15.6"/>
<polygon id="000002DD7DA2EBB0" class="l65d20" points="-22.9,-14.3 -22.9,15.7 -11.9,15.7 -11.9,-14.3"/>
<polygon id="000002DD7DA2E590" class="l66d44" points="-18.25,-19.3 -18.25,-17.6 -16.55,-17.6 -16.55,-19.3"/>
<polygon id="000002DD7DA2EDE0" class="l66d20" points="-19.05,-20.1 -19.05,-16.8 -15.75,-16.8 -15.75,-20.1"/>
<polygon id="000002DD7DA2E980" class="l67d20" points="-19.05,-20.1 -19.05,-16.8 -15.75,-16.8 -15.75,-20.1"/>
<polygon id="000002DD7DA2E4B0" class="l66d20" points="-19.05,-20.1 -19.05,-16.8 -15.75,-16.8 -15.75,-20.1"/>
<polygon id="000002DD7DA2DCD0" class="l95d20" points="-19.25,-20.3 -15.55,-20.3 -15.55,-16.6 -19.25,-16.6"/>
<polygon id="000002DD7DA2E600" class="l67d20" points="-22.3,-20.1 -19.05,-20.1 -19.05,-16.8 -22.3,-16.8"/>
<polygon id="000002DD7DA2E0C0" class="l67d20" points="-22.3,-20.1 -19,-20.1 -19,-14.3 -22.3,-14.3"/>
<polygon id="000002DD7DA2EA60" class="l67d20" points="-15.75,-20.1 -12.5,-20.1 -12.5,-16.8 -15.75,-16.8"/>
<polygon id="000002DD7DA2EAD0" class="l67d20" points="-15.8,-20.1 -12.5,-20.1 -12.5,-14.3 -15.8,-14.3"/>
<polygon id="000002DD7DA2DFE0" class="l68d20" points="-4.7,21.45 -4.7,24.35 4.7,24.35 4.7,21.45"/>
<polygon id="000002DD7DA2EE50" class="l68d20" points="-4.7,17.15 -4.7,20.05 4.7,20.05 4.7,17.15"/>
<polygon id="000002DD7DA2E830" class="l66d44" points="-0.85,-23.3 -0.85,-21.6 0.85,-21.6 0.85,-23.3"/>
<polygon id="000002DD7DA2E1A0" class="l68d20" points="-1.45,-23.9 -1.45,-21 1.45,-21 1.45,-23.9"/>
<polygon id="000002DD7DA2DA30" class="l67d20" points="-1.65,-24.1 -1.65,-20.8 1.65,-20.8 1.65,-24.1"/>
<polygon id="000002DD7DA2EEC0" class="l67d44" points="-0.85,-23.3 -0.85,-21.6 0.85,-21.6 0.85,-23.3"/>
<polygon id="000002DD7DA2DDB0" class="l66d20" points="-1.65,-24.1 -1.65,-20.8 1.65,-20.8 1.65,-24.1"/>
<polygon id="000002DD7DA2E6E0" class="l68d20" points="-1.65,-24.1 -1.65,-20.8 1.65,-20.8 1.65,-24.1"/>
<polygon id="000002DD7DA2E3D0" class="l66d20" points="-1.65,-24.1 -1.65,-20.8 1.65,-20.8 1.65,-24.1"/>
<polygon id="000002DD7DA2E130" class="l95d20" points="-1.85,-24.3 1.85,-24.3 1.85,-20.6 -1.85,-20.6"/>
<polygon id="000002DD7DA2DB10" class="l67d20" points="1.6,15.7 4.9,15.7 4.9,23.75 1.6,23.75"/>
<polygon id="000002DD7DA2E2F0" class="l67d44" points="2.4,22.05 2.4,23.75 4.1,23.75 4.1,22.05"/>
<polygon id="000002DD7DA2E670" class="l68d20" points="1.8,21.45 1.8,24.35 4.7,24.35 4.7,21.45"/>
<polygon id="000002DD7DA2EB40" class="l67d20" points="2.4,22.05 2.4,23.75 4.1,23.75 4.1,22.05"/>
<polygon id="000002DD7DA2D800" class="l66d20" points="-0.75,-20.8 0.75,-20.8 0.75,-16.8 -0.75,-16.8"/>
<polygon id="000002DD7DA2EC20" class="l67d20" points="-4.9,15.7 -1.6,15.7 -1.6,19.45 -4.9,19.45"/>
<polygon id="000002DD7DA2EF30" class="l65d20" points="42.9,43.05 -42.9,43.05 -42.9,-38.95 -38.8,-38.95 -38.8,38.95 38.8,38.95 38.8,-38.95 -38.8,-38.95 -42.9,-38.95 -42.9,-43.05 42.9,-43.05"/>
<polygon id="000002DD7DA2EFA0" class="l68d20" points="38.8,-43.05 42.9,-43.05 42.9,-38.95 38.8,-38.95"/>
<polygon id="000002DD7DA2D8E0" class="l67d44" points="40,-41.85 40,-40.15 41.7,-40.15 41.7,-41.85"/>
<polygon id="000002DD7DA2D4F0" class="l68d20" points="39.4,-42.45 39.4,-39.55 42.3,-39.55 42.3,-42.45"/>
<polygon id="000002DD7DA2D560" class="l67d20" points="40,-41.85 40,-40.15 41.7,-40.15 41.7,-41.85"/>
<polygon id="000002DD7DA2D6B0" class="l68d20" points="38.8,-43.05 38.8,-38.95 42.9,-38.95 42.9,-43.05"/>
<polygon id="000002DD7DA2DBF0" class="l67d20" points="40,-41.85 40,-40.15 41.7,-40.15 41.7,-41.85"/>
<polygon id="000002DD7DA2D950" class="l67d20" points="38.8,-43.05 42.9,-43.05 42.9,-38.95 38.8,-38.95"/>
<polygon id="000002DD7DA2FA20" class="l68d20" points="-42.9,-43.05 -38.8,-43.05 -38.8,-38.95 -42.9,-38.95"/>
<polygon id="000002DD7DA2F860" class="l67d44" points="-41.7,-41.85 -41.7,-40.15 -40,-40.15 -40,-41.85"/>
<polygon id="000002DD7DA30430" class="l68d20" points="-42.3,-42.45 -42.3,-39.55 -39.4,-39.55 -39.4,-42.45"/>
<polygon id="000002DD7DA2F400" class="l67d20" points="-41.7,-41.85 -41.7,-40.15 -40,-40.15 -40,-41.85"/>
<polygon id="000002DD7DA2FE10" class="l68d20" points="-42.9,-43.05 -42.9,-38.95 -38.8,-38.95 -38.8,-43.05"/>
<polygon id="000002DD7DA30120" class="l67d20" points="-41.7,-41.85 -41.7,-40.15 -40,-40.15 -40,-41.85"/>
<polygon id="000002DD7DA307B0" class="l67d20" points="-42.9,-43.05 -38.8,-43.05 -38.8,-38.95 -42.9,-38.95"/>
<polygon id="000002DD7DA2F470" class="l68d20" points="38.8,38.95 42.9,38.95 42.9,43.05 38.8,43.05"/>
<polygon id="000002DD7DA2FA90" class="l67d44" points="40,40.15 40,41.85 41.7,41.85 41.7,40.15"/>
<polygon id="000002DD7DA2F4E0" class="l68d20" points="39.4,39.55 39.4,42.45 42.3,42.45 42.3,39.55"/>
<polygon id="000002DD7DA2FB00" class="l67d20" points="40,40.15 40,41.85 41.7,41.85 41.7,40.15"/>
<polygon id="000002DD7DA30350" class="l68d20" points="38.8,38.95 38.8,43.05 42.9,43.05 42.9,38.95"/>
<polygon id="000002DD7DA304A0" class="l67d20" points="40,40.15 40,41.85 41.7,41.85 41.7,40.15"/>
<polygon id="000002DD7DA2F240" class="l67d20" points="38.8,38.95 42.9,38.95 42.9,43.05 38.8,43.05"/>
<polygon id="000002DD7DA2F320" class="l68d20" points="-42.9,38.95 -38.8,38.95 -38.8,43.05 -42.9,43.05"/>
<polygon id="000002DD7DA2F2B0" class="l67d44" points="-41.7,40.15 -41.7,41.85 -40,41.85 -40,40.15"/>
<polygon id="000002DD7DA30580" class="l68d20" points="-42.3,39.55 -42.3,42.45 -39.4,42.45 -39.4,39.55"/>
<polygon id="000002DD7DA2FF60" class="l67d20" points="-41.7,40.15 -41.7,41.85 -40,41.85 -40,40.15"/>
<polygon id="000002DD7DA2F5C0" class="l68d20" points="-42.9,38.95 -42.9,43.05 -38.8,43.05 -38.8,38.95"/>
<polygon id="000002DD7DA2F630" class="l67d20" points="-41.7,40.15 -41.7,41.85 -40,41.85 -40,40.15"/>
<polygon id="000002DD7DA30740" class="l67d20" points="-42.9,38.95 -38.8,38.95 -38.8,43.05 -42.9,43.05"/>
<polygon id="000002DD7DA30660" class="l66d44" points="-41.7,-34.85 -41.7,-33.15 -40,-33.15 -40,-34.85"/>
<polygon id="000002DD7DA2FB70" class="l67d20" points="-42.5,-35.65 -42.5,-32.35 -39.2,-32.35 -39.2,-35.65"/>
<polygon id="000002DD7DA2FBE0" class="l65d20" points="-42.9,-36.05 -42.9,-31.95 -38.8,-31.95 -38.8,-36.05"/>
<polygon id="000002DD7DA2F6A0" class="l66d44" points="-41.7,33.15 -41.7,34.85 -40,34.85 -40,33.15"/>
<polygon id="000002DD7DA2F780" class="l67d20" points="-42.5,32.35 -42.5,35.65 -39.2,35.65 -39.2,32.35"/>
<polygon id="000002DD7DA2F390" class="l65d20" points="-42.9,31.95 -42.9,36.05 -38.8,36.05 -38.8,31.95"/>
<polygon id="000002DD7DA2F8D0" class="l66d44" points="-41.7,29.75 -41.7,31.45 -40,31.45 -40,29.75"/>
<polygon id="000002DD7DA2FFD0" class="l67d20" points="-42.5,28.95 -42.5,32.25 -39.2,32.25 -39.2,28.95"/>
<polygon id="000002DD7DA30A50" class="l65d20" points="-42.9,28.55 -42.9,32.65 -38.8,32.65 -38.8,28.55"/>
<polygon id="000002DD7DA30970" class="l66d44" points="-41.7,26.35 -41.7,28.05 -40,28.05 -40,26.35"/>
<polygon id="000002DD7DA300B0" class="l67d20" points="-42.5,25.55 -42.5,28.85 -39.2,28.85 -39.2,25.55"/>
<polygon id="000002DD7DA30BA0" class="l65d20" points="-42.9,25.15 -42.9,29.25 -38.8,29.25 -38.8,25.15"/>
<polygon id="000002DD7DA30190" class="l66d44" points="-41.7,22.95 -41.7,24.65 -40,24.65 -40,22.95"/>
<polygon id="000002DD7DA2FC50" class="l67d20" points="-42.5,22.15 -42.5,25.45 -39.2,25.45 -39.2,22.15"/>
<polygon id="000002DD7DA2F940" class="l65d20" points="-42.9,21.75 -42.9,25.85 -38.8,25.85 -38.8,21.75"/>
<polygon id="000002DD7DA305F0" class="l66d44" points="-41.7,19.55 -41.7,21.25 -40,21.25 -40,19.55"/>
<polygon id="000002DD7DA2FCC0" class="l67d20" points="-42.5,18.75 -42.5,22.05 -39.2,22.05 -39.2,18.75"/>
<polygon id="000002DD7DA2FD30" class="l65d20" points="-42.9,18.35 -42.9,22.45 -38.8,22.45 -38.8,18.35"/>
<polygon id="000002DD7DA30890" class="l66d44" points="-41.7,16.15 -41.7,17.85 -40,17.85 -40,16.15"/>
<polygon id="000002DD7DA30900" class="l67d20" points="-42.5,15.35 -42.5,18.65 -39.2,18.65 -39.2,15.35"/>
<polygon id="000002DD7DA30AC0" class="l65d20" points="-42.9,14.95 -42.9,19.05 -38.8,19.05 -38.8,14.95"/>
<polygon id="000002DD7DA30C10" class="l66d44" points="-41.7,12.75 -41.7,14.45 -40,14.45 -40,12.75"/>
<polygon id="000002DD7DA30C80" class="l67d20" points="-42.5,11.95 -42.5,15.25 -39.2,15.25 -39.2,11.95"/>
<polygon id="000002DD7DA2F0F0" class="l65d20" points="-42.9,11.55 -42.9,15.65 -38.8,15.65 -38.8,11.55"/>
<polygon id="000002DD7DA2F160" class="l66d44" points="-41.7,9.35 -41.7,11.05 -40,11.05 -40,9.35"/>
<polygon id="000002DD7DA2F1D0" class="l67d20" points="-42.5,8.55 -42.5,11.85 -39.2,11.85 -39.2,8.55"/>
<polygon id="000002DD7DA31230" class="l65d20" points="-42.9,8.15 -42.9,12.25 -38.8,12.25 -38.8,8.15"/>
<polygon id="000002DD7DA312A0" class="l66d44" points="-41.7,5.95 -41.7,7.65 -40,7.65 -40,5.95"/>
<polygon id="000002DD7DA32340" class="l67d20" points="-42.5,5.15 -42.5,8.45 -39.2,8.45 -39.2,5.15"/>
<polygon id="000002DD7DA323B0" class="l65d20" points="-42.9,4.75 -42.9,8.85 -38.8,8.85 -38.8,4.75"/>
<polygon id="000002DD7DA32420" class="l66d44" points="-41.7,2.55 -41.7,4.25 -40,4.25 -40,2.55"/>
<polygon id="000002DD7DA32490" class="l67d20" points="-42.5,1.75 -42.5,5.05 -39.2,5.05 -39.2,1.75"/>
<polygon id="000002DD7DA31310" class="l65d20" points="-42.9,1.35 -42.9,5.45 -38.8,5.45 -38.8,1.35"/>
<polygon id="000002DD7DA31850" class="l66d44" points="-41.7,-0.85 -41.7,0.85 -40,0.85 -40,-0.85"/>
<polygon id="000002DD7DA32570" class="l67d20" points="-42.5,-1.65 -42.5,1.65 -39.2,1.65 -39.2,-1.65"/>
<polygon id="000002DD7DA31380" class="l65d20" points="-42.9,-2.05 -42.9,2.05 -38.8,2.05 -38.8,-2.05"/>
<polygon id="000002DD7DA32730" class="l66d44" points="-41.7,-4.25 -41.7,-2.55 -40,-2.55 -40,-4.25"/>
<polygon id="000002DD7DA314D0" class="l67d20" points="-42.5,-5.05 -42.5,-1.75 -39.2,-1.75 -39.2,-5.05"/>
<polygon id="000002DD7DA318C0" class="l65d20" points="-42.9,-5.45 -42.9,-1.35 -38.8,-1.35 -38.8,-5.45"/>
<polygon id="000002DD7DA31930" class="l66d44" points="-41.7,-7.65 -41.7,-5.95 -40,-5.95 -40,-7.65"/>
<polygon id="000002DD7DA31BD0" class="l67d20" points="-42.5,-8.45 -42.5,-5.15 -39.2,-5.15 -39.2,-8.45"/>
<polygon id="000002DD7DA31A10" class="l65d20" points="-42.9,-8.85 -42.9,-4.75 -38.8,-4.75 -38.8,-8.85"/>
<polygon id="000002DD7DA31A80" class="l66d44" points="-41.7,-11.05 -41.7,-9.35 -40,-9.35 -40,-11.05"/>
<polygon id="000002DD7DA31AF0" class="l67d20" points="-42.5,-11.85 -42.5,-8.55 -39.2,-8.55 -39.2,-11.85"/>
<polygon id="000002DD7DA31B60" class="l65d20" points="-42.9,-12.25 -42.9,-8.15 -38.8,-8.15 -38.8,-12.25"/>
<polygon id="000002DD7DA32F10" class="l66d44" points="-41.7,-14.45 -41.7,-12.75 -40,-12.75 -40,-14.45"/>
<polygon id="000002DD7DA32C70" class="l67d20" points="-42.5,-15.25 -42.5,-11.95 -39.2,-11.95 -39.2,-15.25"/>
<polygon id="000002DD7DA33760" class="l65d20" points="-42.9,-15.65 -42.9,-11.55 -38.8,-11.55 -38.8,-15.65"/>
<polygon id="000002DD7DA34480" class="l66d44" points="-41.7,-17.85 -41.7,-16.15 -40,-16.15 -40,-17.85"/>
<polygon id="000002DD7DA34020" class="l67d20" points="-42.5,-18.65 -42.5,-15.35 -39.2,-15.35 -39.2,-18.65"/>
<polygon id="000002DD7DA33290" class="l65d20" points="-42.9,-19.05 -42.9,-14.95 -38.8,-14.95 -38.8,-19.05"/>
<polygon id="000002DD7DA34330" class="l66d44" points="-41.7,-21.25 -41.7,-19.55 -40,-19.55 -40,-21.25"/>
<polygon id="000002DD7DA341E0" class="l67d20" points="-42.5,-22.05 -42.5,-18.75 -39.2,-18.75 -39.2,-22.05"/>
<polygon id="000002DD7DA33840" class="l65d20" points="-42.9,-22.45 -42.9,-18.35 -38.8,-18.35 -38.8,-22.45"/>
<polygon id="000002DD7DA331B0" class="l66d44" points="-41.7,-24.65 -41.7,-22.95 -40,-22.95 -40,-24.65"/>
<polygon id="000002DD7DA34170" class="l67d20" points="-42.5,-25.45 -42.5,-22.15 -39.2,-22.15 -39.2,-25.45"/>
<polygon id="000002DD7DA338B0" class="l65d20" points="-42.9,-25.85 -42.9,-21.75 -38.8,-21.75 -38.8,-25.85"/>
<polygon id="000002DD7DA328F0" class="l66d44" points="-41.7,-28.05 -41.7,-26.35 -40,-26.35 -40,-28.05"/>
<polygon id="000002DD7DA33450" class="l67d20" points="-42.5,-28.85 -42.5,-25.55 -39.2,-25.55 -39.2,-28.85"/>
<polygon id="000002DD7DA33530" class="l65d20" points="-42.9,-29.25 -42.9,-25.15 -38.8,-25.15 -38.8,-29.25"/>
<polygon id="000002DD7DA33300" class="l66d44" points="-41.7,-31.45 -41.7,-29.75 -40,-29.75 -40,-31.45"/>
<polygon id="000002DD7DA335A0" class="l67d20" points="-42.5,-32.25 -42.5,-28.95 -39.2,-28.95 -39.2,-32.25"/>
<polygon id="000002DD7DA34100" class="l65d20" points="-42.9,-32.65 -42.9,-28.55 -38.8,-28.55 -38.8,-32.65"/>
<polygon id="000002DD7DA32C00" class="l67d20" points="-42.9,-38.95 -42.9,38.95 -38.8,38.95 -38.8,-38.95"/>
<polygon id="000002DD7DA32960" class="l65d20" points="-42.9,-36.05 -42.9,36.05 -38.8,36.05 -38.8,-36.05"/>
<polygon id="000002DD7DA33680" class="l66d44" points="-33.35,-41.85 -33.35,-40.15 -31.65,-40.15 -31.65,-41.85"/>
<polygon id="000002DD7DA33D10" class="l68d20" points="-33.95,-42.45 -33.95,-39.55 -31.05,-39.55 -31.05,-42.45"/>
<polygon id="000002DD7DA334C0" class="l67d20" points="-34.15,-42.65 -34.15,-39.35 -30.85,-39.35 -30.85,-42.65"/>
<polygon id="000002DD7DA34250" class="l67d44" points="-33.35,-41.85 -33.35,-40.15 -31.65,-40.15 -31.65,-41.85"/>
<polygon id="000002DD7DA33370" class="l65d20" points="-34.55,-43.05 -34.55,-38.95 -30.45,-38.95 -30.45,-43.05"/>
<polygon id="000002DD7DA33920" class="l66d44" points="31.65,-41.85 31.65,-40.15 33.35,-40.15 33.35,-41.85"/>
<polygon id="000002DD7DA32DC0" class="l68d20" points="31.05,-42.45 31.05,-39.55 33.95,-39.55 33.95,-42.45"/>
<polygon id="000002DD7DA33990" class="l67d20" points="30.85,-42.65 30.85,-39.35 34.15,-39.35 34.15,-42.65"/>
<polygon id="000002DD7DA33DF0" class="l67d44" points="31.65,-41.85 31.65,-40.15 33.35,-40.15 33.35,-41.85"/>
<polygon id="000002DD7DA33A00" class="l65d20" points="30.45,-43.05 30.45,-38.95 34.55,-38.95 34.55,-43.05"/>
<polygon id="000002DD7DA33060" class="l66d44" points="26.65,-41.85 26.65,-40.15 28.35,-40.15 28.35,-41.85"/>
<polygon id="000002DD7DA32F80" class="l68d20" points="26.05,-42.45 26.05,-39.55 28.95,-39.55 28.95,-42.45"/>
<polygon id="000002DD7DA333E0" class="l67d20" points="25.85,-42.65 25.85,-39.35 29.15,-39.35 29.15,-42.65"/>
<polygon id="000002DD7DA33A70" class="l67d44" points="26.65,-41.85 26.65,-40.15 28.35,-40.15 28.35,-41.85"/>
<polygon id="000002DD7DA329D0" class="l65d20" points="25.45,-43.05 25.45,-38.95 29.55,-38.95 29.55,-43.05"/>
<polygon id="000002DD7DA32B90" class="l66d44" points="21.65,-41.85 21.65,-40.15 23.35,-40.15 23.35,-41.85"/>
<polygon id="000002DD7DA33AE0" class="l68d20" points="21.05,-42.45 21.05,-39.55 23.95,-39.55 23.95,-42.45"/>
<polygon id="000002DD7DA32A40" class="l67d20" points="20.85,-42.65 20.85,-39.35 24.15,-39.35 24.15,-42.65"/>
<polygon id="000002DD7DA33B50" class="l67d44" points="21.65,-41.85 21.65,-40.15 23.35,-40.15 23.35,-41.85"/>
<polygon id="000002DD7DA33BC0" class="l65d20" points="20.45,-43.05 20.45,-38.95 24.55,-38.95 24.55,-43.05"/>
<polygon id="000002DD7DA342C0" class="l66d44" points="16.65,-41.85 16.65,-40.15 18.35,-40.15 18.35,-41.85"/>
<polygon id="000002DD7DA32CE0" class="l68d20" points="16.05,-42.45 16.05,-39.55 18.95,-39.55 18.95,-42.45"/>
<polygon id="000002DD7DA32AB0" class="l67d20" points="15.85,-42.65 15.85,-39.35 19.15,-39.35 19.15,-42.65"/>
<polygon id="000002DD7DA33ED0" class="l67d44" points="16.65,-41.85 16.65,-40.15 18.35,-40.15 18.35,-41.85"/>
<polygon id="000002DD7DA343A0" class="l65d20" points="15.45,-43.05 15.45,-38.95 19.55,-38.95 19.55,-43.05"/>
<polygon id="000002DD7DA34410" class="l66d44" points="11.65,-41.85 11.65,-40.15 13.35,-40.15 13.35,-41.85"/>
<polygon id="000002DD7DA32B20" class="l68d20" points="11.05,-42.45 11.05,-39.55 13.95,-39.55 13.95,-42.45"/>
<polygon id="000002DD7DA32FF0" class="l67d20" points="10.85,-42.65 10.85,-39.35 14.15,-39.35 14.15,-42.65"/>
<polygon id="000002DD7DA32D50" class="l67d44" points="11.65,-41.85 11.65,-40.15 13.35,-40.15 13.35,-41.85"/>
<polygon id="000002DD7DA32E30" class="l65d20" points="10.45,-43.05 10.45,-38.95 14.55,-38.95 14.55,-43.05"/>
<polygon id="000002DD7DA330D0" class="l66d44" points="6.65,-41.85 6.65,-40.15 8.35,-40.15 8.35,-41.85"/>
<polygon id="000002DD7DA32EA0" class="l68d20" points="6.05,-42.45 6.05,-39.55 8.95,-39.55 8.95,-42.45"/>
<polygon id="000002DD7DA33140" class="l67d20" points="5.85,-42.65 5.85,-39.35 9.15,-39.35 9.15,-42.65"/>
<polygon id="000002DD7DA35590" class="l67d44" points="6.65,-41.85 6.65,-40.15 8.35,-40.15 8.35,-41.85"/>
<polygon id="000002DD7DA34720" class="l65d20" points="5.45,-43.05 5.45,-38.95 9.55,-38.95 9.55,-43.05"/>
<polygon id="000002DD7DA35980" class="l66d44" points="1.65,-41.85 1.65,-40.15 3.35,-40.15 3.35,-41.85"/>
<polygon id="000002DD7DA35130" class="l68d20" points="1.05,-42.45 1.05,-39.55 3.95,-39.55 3.95,-42.45"/>
<polygon id="000002DD7DA34DB0" class="l67d20" points="0.85,-42.65 0.85,-39.35 4.15,-39.35 4.15,-42.65"/>
<polygon id="000002DD7DA35280" class="l67d44" points="1.65,-41.85 1.65,-40.15 3.35,-40.15 3.35,-41.85"/>
<polygon id="000002DD7DA35C20" class="l65d20" points="0.45,-43.05 0.45,-38.95 4.55,-38.95 4.55,-43.05"/>
<polygon id="000002DD7DA354B0" class="l66d44" points="-3.35,-41.85 -3.35,-40.15 -1.65,-40.15 -1.65,-41.85"/>
<polygon id="000002DD7DA35670" class="l68d20" points="-3.95,-42.45 -3.95,-39.55 -1.05,-39.55 -1.05,-42.45"/>
<polygon id="000002DD7DA35DE0" class="l67d20" points="-4.15,-42.65 -4.15,-39.35 -0.85,-39.35 -0.85,-42.65"/>
<polygon id="000002DD7DA35440" class="l67d44" points="-3.35,-41.85 -3.35,-40.15 -1.65,-40.15 -1.65,-41.85"/>
<polygon id="000002DD7DA34950" class="l65d20" points="-4.55,-43.05 -4.55,-38.95 -0.45,-38.95 -0.45,-43.05"/>
<polygon id="000002DD7DA352F0" class="l66d44" points="-8.35,-41.85 -8.35,-40.15 -6.65,-40.15 -6.65,-41.85"/>
<polygon id="000002DD7DA34B10" class="l68d20" points="-8.95,-42.45 -8.95,-39.55 -6.05,-39.55 -6.05,-42.45"/>
<polygon id="000002DD7DA35520" class="l67d20" points="-9.15,-42.65 -9.15,-39.35 -5.85,-39.35 -5.85,-42.65"/>
<polygon id="000002DD7DA356E0" class="l67d44" points="-8.35,-41.85 -8.35,-40.15 -6.65,-40.15 -6.65,-41.85"/>
<polygon id="000002DD7DA35750" class="l65d20" points="-9.55,-43.05 -9.55,-38.95 -5.45,-38.95 -5.45,-43.05"/>
<polygon id="000002DD7DA35FA0" class="l66d44" points="-13.35,-41.85 -13.35,-40.15 -11.65,-40.15 -11.65,-41.85"/>
<polygon id="000002DD7DA35BB0" class="l68d20" points="-13.95,-42.45 -13.95,-39.55 -11.05,-39.55 -11.05,-42.45"/>
<polygon id="000002DD7DA357C0" class="l67d20" points="-14.15,-42.65 -14.15,-39.35 -10.85,-39.35 -10.85,-42.65"/>
<polygon id="000002DD7DA35830" class="l67d44" points="-13.35,-41.85 -13.35,-40.15 -11.65,-40.15 -11.65,-41.85"/>
<polygon id="000002DD7DA35AD0" class="l65d20" points="-14.55,-43.05 -14.55,-38.95 -10.45,-38.95 -10.45,-43.05"/>
<polygon id="000002DD7DA35EC0" class="l66d44" points="-18.35,-41.85 -18.35,-40.15 -16.65,-40.15 -16.65,-41.85"/>
<polygon id="000002DD7DA35F30" class="l68d20" points="-18.95,-42.45 -18.95,-39.55 -16.05,-39.55 -16.05,-42.45"/>
<polygon id="000002DD7DA36010" class="l67d20" points="-19.15,-42.65 -19.15,-39.35 -15.85,-39.35 -15.85,-42.65"/>
<polygon id="000002DD7DA344F0" class="l67d44" points="-18.35,-41.85 -18.35,-40.15 -16.65,-40.15 -16.65,-41.85"/>
<polygon id="000002DD7DA36F60" class="l65d20" points="-19.55,-43.05 -19.55,-38.95 -15.45,-38.95 -15.45,-43.05"/>
<polygon id="000002DD7DA37350" class="l66d44" points="-23.35,-41.85 -23.35,-40.15 -21.65,-40.15 -21.65,-41.85"/>
<polygon id="000002DD7DA36E10" class="l68d20" points="-23.95,-42.45 -23.95,-39.55 -21.05,-39.55 -21.05,-42.45"/>
<polygon id="000002DD7DA37C80" class="l67d20" points="-24.15,-42.65 -24.15,-39.35 -20.85,-39.35 -20.85,-42.65"/>
<polygon id="000002DD7DA368D0" class="l67d44" points="-23.35,-41.85 -23.35,-40.15 -21.65,-40.15 -21.65,-41.85"/>
<polygon id="000002DD7DA36B00" class="l65d20" points="-24.55,-43.05 -24.55,-38.95 -20.45,-38.95 -20.45,-43.05"/>
<polygon id="000002DD7DA37200" class="l66d44" points="-28.35,-41.85 -28.35,-40.15 -26.65,-40.15 -26.65,-41.85"/>
<polygon id="000002DD7DA376D0" class="l68d20" points="-28.95,-42.45 -28.95,-39.55 -26.05,-39.55 -26.05,-42.45"/>
<polygon id="000002DD7DA36400" class="l67d20" points="-29.15,-42.65 -29.15,-39.35 -25.85,-39.35 -25.85,-42.65"/>
<polygon id="000002DD7DA375F0" class="l67d44" points="-28.35,-41.85 -28.35,-40.15 -26.65,-40.15 -26.65,-41.85"/>
<polygon id="000002DD7DA360F0" class="l65d20" points="-29.55,-43.05 -29.55,-38.95 -25.45,-38.95 -25.45,-43.05"/>
<polygon id="000002DD7DA365C0" class="l67d20" points="-34.15,-42.65 -34.15,-39.35 34.15,-39.35 34.15,-42.65"/>
<polygon id="000002DD7DA36940" class="l68d20" points="-38.8,-43.05 -38.8,-38.95 38.8,-38.95 38.8,-43.05"/>
<polygon id="000002DD7DA37890" class="l65d20" points="-34.55,-43.05 -34.55,-38.95 34.55,-38.95 34.55,-43.05"/>
<polygon id="000002DD7DA369B0" class="l66d44" points="40,-34.85 40,-33.15 41.7,-33.15 41.7,-34.85"/>
<polygon id="000002DD7DA36FD0" class="l67d20" points="39.2,-35.65 39.2,-32.35 42.5,-32.35 42.5,-35.65"/>
<polygon id="000002DD7DA370B0" class="l65d20" points="38.8,-36.05 38.8,-31.95 42.9,-31.95 42.9,-36.05"/>
<polygon id="000002DD7DA36B70" class="l66d44" points="40,33.15 40,34.85 41.7,34.85 41.7,33.15"/>
<polygon id="000002DD7DA379E0" class="l67d20" points="39.2,32.35 39.2,35.65 42.5,35.65 42.5,32.35"/>
<polygon id="000002DD7DA36D30" class="l65d20" points="38.8,31.95 38.8,36.05 42.9,36.05 42.9,31.95"/>
<polygon id="000002DD7DA373C0" class="l66d44" points="40,29.75 40,31.45 41.7,31.45 41.7,29.75"/>
<polygon id="000002DD7DA366A0" class="l67d20" points="39.2,28.95 39.2,32.25 42.5,32.25 42.5,28.95"/>
<polygon id="000002DD7DA37120" class="l65d20" points="38.8,28.55 38.8,32.65 42.9,32.65 42.9,28.55"/>
<polygon id="000002DD7DA36A20" class="l66d44" points="40,26.35 40,28.05 41.7,28.05 41.7,26.35"/>
<polygon id="000002DD7DA377B0" class="l67d20" points="39.2,25.55 39.2,28.85 42.5,28.85 42.5,25.55"/>
<polygon id="000002DD7DA37430" class="l65d20" points="38.8,25.15 38.8,29.25 42.9,29.25 42.9,25.15"/>
<polygon id="000002DD7DA37660" class="l66d44" points="40,22.95 40,24.65 41.7,24.65 41.7,22.95"/>
<polygon id="000002DD7DA36390" class="l67d20" points="39.2,22.15 39.2,25.45 42.5,25.45 42.5,22.15"/>
<polygon id="000002DD7DA37A50" class="l65d20" points="38.8,21.75 38.8,25.85 42.9,25.85 42.9,21.75"/>
<polygon id="000002DD7DA36BE0" class="l66d44" points="40,19.55 40,21.25 41.7,21.25 41.7,19.55"/>
<polygon id="000002DD7DA37190" class="l67d20" points="39.2,18.75 39.2,22.05 42.5,22.05 42.5,18.75"/>
<polygon id="000002DD7DA37510" class="l65d20" points="38.8,18.35 38.8,22.45 42.9,22.45 42.9,18.35"/>
<polygon id="000002DD7DA36160" class="l66d44" points="40,16.15 40,17.85 41.7,17.85 41.7,16.15"/>
<polygon id="000002DD7DA36C50" class="l67d20" points="39.2,15.35 39.2,18.65 42.5,18.65 42.5,15.35"/>
<polygon id="000002DD7DA37270" class="l65d20" points="38.8,14.95 38.8,19.05 42.9,19.05 42.9,14.95"/>
<polygon id="000002DD7DA36A90" class="l66d44" points="40,12.75 40,14.45 41.7,14.45 41.7,12.75"/>
<polygon id="000002DD7DA36240" class="l67d20" points="39.2,11.95 39.2,15.25 42.5,15.25 42.5,11.95"/>
<polygon id="000002DD7DA37AC0" class="l65d20" points="38.8,11.55 38.8,15.65 42.9,15.65 42.9,11.55"/>
<polygon id="000002DD7DA361D0" class="l66d44" points="40,9.35 40,11.05 41.7,11.05 41.7,9.35"/>
<polygon id="000002DD7DA372E0" class="l67d20" points="39.2,8.55 39.2,11.85 42.5,11.85 42.5,8.55"/>
<polygon id="000002DD7DA36DA0" class="l65d20" points="38.8,8.15 38.8,12.25 42.9,12.25 42.9,8.15"/>
<polygon id="000002DD7DA374A0" class="l66d44" points="40,5.95 40,7.65 41.7,7.65 41.7,5.95"/>
<polygon id="000002DD7DA36470" class="l67d20" points="39.2,5.15 39.2,8.45 42.5,8.45 42.5,5.15"/>
<polygon id="000002DD7DA37820" class="l65d20" points="38.8,4.75 38.8,8.85 42.9,8.85 42.9,4.75"/>
<polygon id="000002DD7DA362B0" class="l66d44" points="40,2.55 40,4.25 41.7,4.25 41.7,2.55"/>
<polygon id="000002DD7DA36780" class="l67d20" points="39.2,1.75 39.2,5.05 42.5,5.05 42.5,1.75"/>
<polygon id="000002DD7DA37580" class="l65d20" points="38.8,1.35 38.8,5.45 42.9,5.45 42.9,1.35"/>
<polygon id="000002DD7DA364E0" class="l66d44" points="40,-0.85 40,0.85 41.7,0.85 41.7,-0.85"/>
<polygon id="000002DD7DA36630" class="l67d20" points="39.2,-1.65 39.2,1.65 42.5,1.65 42.5,-1.65"/>
<polygon id="000002DD7DA36710" class="l65d20" points="38.8,-2.05 38.8,2.05 42.9,2.05 42.9,-2.05"/>
<polygon id="000002DD7D849AF0" class="l66d44" points="40,-4.25 40,-2.55 41.7,-2.55 41.7,-4.25"/>
<polygon id="000002DD7D8489E0" class="l67d20" points="39.2,-5.05 39.2,-1.75 42.5,-1.75 42.5,-5.05"/>
<polygon id="000002DD7D849CB0" class="l65d20" points="38.8,-5.45 38.8,-1.35 42.9,-1.35 42.9,-5.45"/>
<polygon id="000002DD7D8487B0" class="l66d44" points="40,-7.65 40,-5.95 41.7,-5.95 41.7,-7.65"/>
<polygon id="000002DD7D849A10" class="l67d20" points="39.2,-8.45 39.2,-5.15 42.5,-5.15 42.5,-8.45"/>
<polygon id="000002DD7D849E00" class="l65d20" points="38.8,-8.85 38.8,-4.75 42.9,-4.75 42.9,-8.85"/>
<polygon id="000002DD7D848F90" class="l66d44" points="40,-11.05 40,-9.35 41.7,-9.35 41.7,-11.05"/>
<polygon id="000002DD7D849690" class="l67d20" points="39.2,-11.85 39.2,-8.55 42.5,-8.55 42.5,-11.85"/>
<polygon id="000002DD7D849F50" class="l65d20" points="38.8,-12.25 38.8,-8.15 42.9,-8.15 42.9,-12.25"/>
<polygon id="000002DD7D848510" class="l66d44" points="40,-14.45 40,-12.75 41.7,-12.75 41.7,-14.45"/>
<polygon id="000002DD7D8494D0" class="l67d20" points="39.2,-15.25 39.2,-11.95 42.5,-11.95 42.5,-15.25"/>
<polygon id="000002DD7D848820" class="l65d20" points="38.8,-15.65 38.8,-11.55 42.9,-11.55 42.9,-15.65"/>
<polygon id="000002DD7D849380" class="l66d44" points="40,-17.85 40,-16.15 41.7,-16.15 41.7,-17.85"/>
<polygon id="000002DD7D8486D0" class="l67d20" points="39.2,-18.65 39.2,-15.35 42.5,-15.35 42.5,-18.65"/>
<polygon id="000002DD7D849D20" class="l65d20" points="38.8,-19.05 38.8,-14.95 42.9,-14.95 42.9,-19.05"/>
<polygon id="000002DD7D849000" class="l66d44" points="40,-21.25 40,-19.55 41.7,-19.55 41.7,-21.25"/>
<polygon id="000002DD7D8493F0" class="l67d20" points="39.2,-22.05 39.2,-18.75 42.5,-18.75 42.5,-22.05"/>
<polygon id="000002DD7D8498C0" class="l65d20" points="38.8,-22.45 38.8,-18.35 42.9,-18.35 42.9,-22.45"/>
<polygon id="000002DD7D84A030" class="l66d44" points="40,-24.65 40,-22.95 41.7,-22.95 41.7,-24.65"/>
<polygon id="000002DD7D849070" class="l67d20" points="39.2,-25.45 39.2,-22.15 42.5,-22.15 42.5,-25.45"/>
<polygon id="000002DD7D849850" class="l65d20" points="38.8,-25.85 38.8,-21.75 42.9,-21.75 42.9,-25.85"/>
<polygon id="000002DD7D848BA0" class="l66d44" points="40,-28.05 40,-26.35 41.7,-26.35 41.7,-28.05"/>
<polygon id="000002DD7D8485F0" class="l67d20" points="39.2,-28.85 39.2,-25.55 42.5,-25.55 42.5,-28.85"/>
<polygon id="000002DD7D849D90" class="l65d20" points="38.8,-29.25 38.8,-25.15 42.9,-25.15 42.9,-29.25"/>
<polygon id="000002DD7D8484A0" class="l66d44" points="40,-31.45 40,-29.75 41.7,-29.75 41.7,-31.45"/>
<polygon id="000002DD7D849460" class="l67d20" points="39.2,-32.25 39.2,-28.95 42.5,-28.95 42.5,-32.25"/>
<polygon id="000002DD7D8490E0" class="l65d20" points="38.8,-32.65 38.8,-28.55 42.9,-28.55 42.9,-32.65"/>
<polygon id="000002DD7D8491C0" class="l67d20" points="38.8,-38.95 38.8,38.95 42.9,38.95 42.9,-38.95"/>
<polygon id="000002DD7D848740" class="l65d20" points="38.8,-36.05 38.8,36.05 42.9,36.05 42.9,-36.05"/>
<polygon id="000002DD7D849A80" class="l66d44" points="-33.35,40.15 -33.35,41.85 -31.65,41.85 -31.65,40.15"/>
<polygon id="000002DD7D849B60" class="l68d20" points="-33.95,39.55 -33.95,42.45 -31.05,42.45 -31.05,39.55"/>
<polygon id="000002DD7D848B30" class="l67d20" points="-34.15,39.35 -34.15,42.65 -30.85,42.65 -30.85,39.35"/>
<polygon id="000002DD7D8499A0" class="l67d44" points="-33.35,40.15 -33.35,41.85 -31.65,41.85 -31.65,40.15"/>
<polygon id="000002DD7D849BD0" class="l65d20" points="-34.55,38.95 -34.55,43.05 -30.45,43.05 -30.45,38.95"/>
<polygon id="000002DD7D849230" class="l66d44" points="31.65,40.15 31.65,41.85 33.35,41.85 33.35,40.15"/>
<polygon id="000002DD7D848580" class="l68d20" points="31.05,39.55 31.05,42.45 33.95,42.45 33.95,39.55"/>
<polygon id="000002DD7D848660" class="l67d20" points="30.85,39.35 30.85,42.65 34.15,42.65 34.15,39.35"/>
<polygon id="000002DD7D848A50" class="l67d44" points="31.65,40.15 31.65,41.85 33.35,41.85 33.35,40.15"/>
<polygon id="000002DD7D848900" class="l65d20" points="30.45,38.95 30.45,43.05 34.55,43.05 34.55,38.95"/>
<polygon id="000002DD7D848AC0" class="l66d44" points="26.65,40.15 26.65,41.85 28.35,41.85 28.35,40.15"/>
<polygon id="000002DD7D848C10" class="l68d20" points="26.05,39.55 26.05,42.45 28.95,42.45 28.95,39.55"/>
<polygon id="000002DD7D848C80" class="l67d20" points="25.85,39.35 25.85,42.65 29.15,42.65 29.15,39.35"/>
<polygon id="000002DD7D8492A0" class="l67d44" points="26.65,40.15 26.65,41.85 28.35,41.85 28.35,40.15"/>
<polygon id="000002DD7D848CF0" class="l65d20" points="25.45,38.95 25.45,43.05 29.55,43.05 29.55,38.95"/>
<polygon id="000002DD7D848DD0" class="l66d44" points="21.65,40.15 21.65,41.85 23.35,41.85 23.35,40.15"/>
<polygon id="000002DD7D848E40" class="l68d20" points="21.05,39.55 21.05,42.45 23.95,42.45 23.95,39.55"/>
<polygon id="000002DD7D84B0D0" class="l67d20" points="20.85,39.35 20.85,42.65 24.15,42.65 24.15,39.35"/>
<polygon id="000002DD7D84A3B0" class="l67d44" points="21.65,40.15 21.65,41.85 23.35,41.85 23.35,40.15"/>
<polygon id="000002DD7D84AF80" class="l65d20" points="20.45,38.95 20.45,43.05 24.55,43.05 24.55,38.95"/>
<polygon id="000002DD7D84ACE0" class="l66d44" points="16.65,40.15 16.65,41.85 18.35,41.85 18.35,40.15"/>
<polygon id="000002DD7D84AAB0" class="l68d20" points="16.05,39.55 16.05,42.45 18.95,42.45 18.95,39.55"/>
<polygon id="000002DD7D84AD50" class="l67d20" points="15.85,39.35 15.85,42.65 19.15,42.65 19.15,39.35"/>
<polygon id="000002DD7D84B6F0" class="l67d44" points="16.65,40.15 16.65,41.85 18.35,41.85 18.35,40.15"/>
<polygon id="000002DD7D84A420" class="l65d20" points="15.45,38.95 15.45,43.05 19.55,43.05 19.55,38.95"/>
<polygon id="000002DD7D84A110" class="l66d44" points="11.65,40.15 11.65,41.85 13.35,41.85 13.35,40.15"/>
<polygon id="000002DD7D84AE30" class="l68d20" points="11.05,39.55 11.05,42.45 13.95,42.45 13.95,39.55"/>
<polygon id="000002DD7D84B450" class="l67d20" points="10.85,39.35 10.85,42.65 14.15,42.65 14.15,39.35"/>
<polygon id="000002DD7D84AC00" class="l67d44" points="11.65,40.15 11.65,41.85 13.35,41.85 13.35,40.15"/>
<polygon id="000002DD7D84B840" class="l65d20" points="10.45,38.95 10.45,43.05 14.55,43.05 14.55,38.95"/>
<polygon id="000002DD7D84A9D0" class="l66d44" points="6.65,40.15 6.65,41.85 8.35,41.85 8.35,40.15"/>
<polygon id="000002DD7D84AFF0" class="l68d20" points="6.05,39.55 6.05,42.45 8.95,42.45 8.95,39.55"/>
<polygon id="000002DD7D84A570" class="l67d20" points="5.85,39.35 5.85,42.65 9.15,42.65 9.15,39.35"/>
<polygon id="000002DD7D84B140" class="l67d44" points="6.65,40.15 6.65,41.85 8.35,41.85 8.35,40.15"/>
<polygon id="000002DD7D84B5A0" class="l65d20" points="5.45,38.95 5.45,43.05 9.55,43.05 9.55,38.95"/>
<polygon id="000002DD7D84AF10" class="l66d44" points="1.65,40.15 1.65,41.85 3.35,41.85 3.35,40.15"/>
<polygon id="000002DD7D84A810" class="l68d20" points="1.05,39.55 1.05,42.45 3.95,42.45 3.95,39.55"/>
<polygon id="000002DD7D84A730" class="l67d20" points="0.85,39.35 0.85,42.65 4.15,42.65 4.15,39.35"/>
<polygon id="000002DD7D84AB20" class="l67d44" points="1.65,40.15 1.65,41.85 3.35,41.85 3.35,40.15"/>
<polygon id="000002DD7D84AA40" class="l65d20" points="0.45,38.95 0.45,43.05 4.55,43.05 4.55,38.95"/>
<polygon id="000002DD7D84A180" class="l66d44" points="-3.35,40.15 -3.35,41.85 -1.65,41.85 -1.65,40.15"/>
<polygon id="000002DD7D84A340" class="l68d20" points="-3.95,39.55 -3.95,42.45 -1.05,42.45 -1.05,39.55"/>
<polygon id="000002DD7D84AEA0" class="l67d20" points="-4.15,39.35 -4.15,42.65 -0.85,42.65 -0.85,39.35"/>
<polygon id="000002DD7D84BC30" class="l67d44" points="-3.35,40.15 -3.35,41.85 -1.65,41.85 -1.65,40.15"/>
<polygon id="000002DD7D84AB90" class="l65d20" points="-4.55,38.95 -4.55,43.05 -0.45,43.05 -0.45,38.95"/>
<polygon id="000002DD7D84B1B0" class="l66d44" points="-8.35,40.15 -8.35,41.85 -6.65,41.85 -6.65,40.15"/>
<polygon id="000002DD7D84B990" class="l68d20" points="-8.95,39.55 -8.95,42.45 -6.05,42.45 -6.05,39.55"/>
<polygon id="000002DD7D84A490" class="l67d20" points="-9.15,39.35 -9.15,42.65 -5.85,42.65 -5.85,39.35"/>
<polygon id="000002DD7D84A0A0" class="l67d44" points="-8.35,40.15 -8.35,41.85 -6.65,41.85 -6.65,40.15"/>
<polygon id="000002DD7D84AC70" class="l65d20" points="-9.55,38.95 -9.55,43.05 -5.45,43.05 -5.45,38.95"/>
<polygon id="000002DD7D84B760" class="l66d44" points="-13.35,40.15 -13.35,41.85 -11.65,41.85 -11.65,40.15"/>
<polygon id="000002DD7D84BB50" class="l68d20" points="-13.95,39.55 -13.95,42.45 -11.05,42.45 -11.05,39.55"/>
<polygon id="000002DD7D84B7D0" class="l67d20" points="-14.15,39.35 -14.15,42.65 -10.85,42.65 -10.85,39.35"/>
<polygon id="000002DD7D84A6C0" class="l67d44" points="-13.35,40.15 -13.35,41.85 -11.65,41.85 -11.65,40.15"/>
<polygon id="000002DD7D84A500" class="l65d20" points="-14.55,38.95 -14.55,43.05 -10.45,43.05 -10.45,38.95"/>
<polygon id="000002DD7D84B060" class="l66d44" points="-18.35,40.15 -18.35,41.85 -16.65,41.85 -16.65,40.15"/>
<polygon id="000002DD7D84A7A0" class="l68d20" points="-18.95,39.55 -18.95,42.45 -16.05,42.45 -16.05,39.55"/>
<polygon id="000002DD7D84ADC0" class="l67d20" points="-19.15,39.35 -19.15,42.65 -15.85,42.65 -15.85,39.35"/>
<polygon id="000002DD7D84B220" class="l67d44" points="-18.35,40.15 -18.35,41.85 -16.65,41.85 -16.65,40.15"/>
<polygon id="000002DD7D84B290" class="l65d20" points="-19.55,38.95 -19.55,43.05 -15.45,43.05 -15.45,38.95"/>
<polygon id="000002DD7D84A260" class="l66d44" points="-23.35,40.15 -23.35,41.85 -21.65,41.85 -21.65,40.15"/>
<polygon id="000002DD7D84B530" class="l68d20" points="-23.95,39.55 -23.95,42.45 -21.05,42.45 -21.05,39.55"/>
<polygon id="000002DD7D84B300" class="l67d20" points="-24.15,39.35 -24.15,42.65 -20.85,42.65 -20.85,39.35"/>
<polygon id="000002DD7D84A880" class="l67d44" points="-23.35,40.15 -23.35,41.85 -21.65,41.85 -21.65,40.15"/>
<polygon id="000002DD7D84B370" class="l65d20" points="-24.55,38.95 -24.55,43.05 -20.45,43.05 -20.45,38.95"/>
<polygon id="000002DD7D84B8B0" class="l66d44" points="-28.35,40.15 -28.35,41.85 -26.65,41.85 -26.65,40.15"/>
<polygon id="000002DD7D84B3E0" class="l68d20" points="-28.95,39.55 -28.95,42.45 -26.05,42.45 -26.05,39.55"/>
<polygon id="000002DD7D84B4C0" class="l67d20" points="-29.15,39.35 -29.15,42.65 -25.85,42.65 -25.85,39.35"/>
<polygon id="000002DD7D84B920" class="l67d44" points="-28.35,40.15 -28.35,41.85 -26.65,41.85 -26.65,40.15"/>
<polygon id="000002DD7D84B610" class="l65d20" points="-29.55,38.95 -29.55,43.05 -25.45,43.05 -25.45,38.95"/>
<polygon id="000002DD7D84A1F0" class="l67d20" points="-34.15,39.35 -34.15,42.65 34.15,42.65 34.15,39.35"/>
<polygon id="000002DD7D84A8F0" class="l68d20" points="-38.8,38.95 -38.8,43.05 38.8,43.05 38.8,38.95"/>
<polygon id="000002DD7D84A960" class="l65d20" points="-34.55,38.95 -34.55,43.05 34.55,43.05 34.55,38.95"/>
<polygon id="000002DD7D84B680" class="l94d20" points="44.2,44.35 -44.2,44.35 -44.2,-37.65 -37.5,-37.65 -37.5,37.65 37.5,37.65 37.5,-37.65 -37.5,-37.65 -44.2,-37.65 -44.2,-44.35 44.2,-44.35"/>
<polygon id="000002DD7D84BA00" class="l67d20" points="15.75,-20.1 32.3,-20.1 32.3,-16.8 15.75,-16.8"/>
<polygon id="000002DD7D84BA70" class="l67d20" points="-32.3,-20.1 -19.05,-20.1 -19.05,-16.8 -32.3,-16.8"/>
<polygon id="000002DD7D84BBC0" class="l65d20" points="32.3,32.45 -32.3,32.45 -32.3,-28.35 -28.2,-28.35 -28.2,28.35 28.2,28.35 28.2,-28.35 -28.2,-28.35 -32.3,-28.35 -32.3,-32.45 32.3,-32.45"/>
<polygon id="000002DD7D84BAE0" class="l68d20" points="28.2,-32.45 32.3,-32.45 32.3,-28.35 28.2,-28.35"/>
<polygon id="000002DD7D84A2D0" class="l67d44" points="29.4,-31.25 29.4,-29.55 31.1,-29.55 31.1,-31.25"/>
<polygon id="000002DD7D84A5E0" class="l68d20" points="28.8,-31.85 28.8,-28.95 31.7,-28.95 31.7,-31.85"/>
<polygon id="000002DD7D84A650" class="l67d20" points="29.4,-31.25 29.4,-29.55 31.1,-29.55 31.1,-31.25"/>
<polygon id="000002DD7D84C5D0" class="l68d20" points="28.2,-32.45 28.2,-28.35 32.3,-28.35 32.3,-32.45"/>
<polygon id="000002DD7D84D4B0" class="l67d20" points="29.4,-31.25 29.4,-29.55 31.1,-29.55 31.1,-31.25"/>
<polygon id="000002DD7D84D2F0" class="l67d20" points="28.2,-32.45 32.3,-32.45 32.3,-28.35 28.2,-28.35"/>
<polygon id="000002DD7D84BFB0" class="l68d20" points="-32.3,-32.45 -28.2,-32.45 -28.2,-28.35 -32.3,-28.35"/>
<polygon id="000002DD7D84CB10" class="l67d44" points="-31.1,-31.25 -31.1,-29.55 -29.4,-29.55 -29.4,-31.25"/>
<polygon id="000002DD7D84CF00" class="l68d20" points="-31.7,-31.85 -31.7,-28.95 -28.8,-28.95 -28.8,-31.85"/>
<polygon id="000002DD7D84C9C0" class="l67d20" points="-31.1,-31.25 -31.1,-29.55 -29.4,-29.55 -29.4,-31.25"/>
<polygon id="000002DD7D84D6E0" class="l68d20" points="-32.3,-32.45 -32.3,-28.35 -28.2,-28.35 -28.2,-32.45"/>
<polygon id="000002DD7D84C410" class="l67d20" points="-31.1,-31.25 -31.1,-29.55 -29.4,-29.55 -29.4,-31.25"/>
<polygon id="000002DD7D84C6B0" class="l67d20" points="-32.3,-32.45 -28.2,-32.45 -28.2,-28.35 -32.3,-28.35"/>
<polygon id="000002DD7D84CDB0" class="l68d20" points="28.2,28.35 32.3,28.35 32.3,32.45 28.2,32.45"/>
<polygon id="000002DD7D84C020" class="l67d44" points="29.4,29.55 29.4,31.25 31.1,31.25 31.1,29.55"/>
<polygon id="000002DD7D84C640" class="l68d20" points="28.8,28.95 28.8,31.85 31.7,31.85 31.7,28.95"/>
<polygon id="000002DD7D84C090" class="l67d20" points="29.4,29.55 29.4,31.25 31.1,31.25 31.1,29.55"/>
<polygon id="000002DD7D84C720" class="l68d20" points="28.2,28.35 28.2,32.45 32.3,32.45 32.3,28.35"/>
<polygon id="000002DD7D84CE20" class="l67d20" points="29.4,29.55 29.4,31.25 31.1,31.25 31.1,29.55"/>
<polygon id="000002DD7D84CE90" class="l67d20" points="28.2,28.35 32.3,28.35 32.3,32.45 28.2,32.45"/>
<polygon id="000002DD7D84BDF0" class="l68d20" points="-32.3,28.35 -28.2,28.35 -28.2,32.45 -32.3,32.45"/>
<polygon id="000002DD7D84BED0" class="l67d44" points="-31.1,29.55 -31.1,31.25 -29.4,31.25 -29.4,29.55"/>
<polygon id="000002DD7D84BE60" class="l68d20" points="-31.7,28.95 -31.7,31.85 -28.8,31.85 -28.8,28.95"/>
<polygon id="000002DD7D84D0C0" class="l67d20" points="-31.1,29.55 -31.1,31.25 -29.4,31.25 -29.4,29.55"/>
<polygon id="000002DD7D84C950" class="l68d20" points="-32.3,28.35 -32.3,32.45 -28.2,32.45 -28.2,28.35"/>
<polygon id="000002DD7D84C100" class="l67d20" points="-31.1,29.55 -31.1,31.25 -29.4,31.25 -29.4,29.55"/>
<polygon id="000002DD7D84C170" class="l67d20" points="-32.3,28.35 -28.2,28.35 -28.2,32.45 -32.3,32.45"/>
<polygon id="000002DD7D84D360" class="l66d44" points="-31.1,-24.65 -31.1,-22.95 -29.4,-22.95 -29.4,-24.65"/>
<polygon id="000002DD7D84D210" class="l67d20" points="-31.9,-25.45 -31.9,-22.15 -28.6,-22.15 -28.6,-25.45"/>
<polygon id="000002DD7D84C790" class="l65d20" points="-32.3,-25.85 -32.3,-21.75 -28.2,-21.75 -28.2,-25.85"/>
<polygon id="000002DD7D84C800" class="l66d44" points="-31.1,22.95 -31.1,24.65 -29.4,24.65 -29.4,22.95"/>
<polygon id="000002DD7D84C1E0" class="l67d20" points="-31.9,22.15 -31.9,25.45 -28.6,25.45 -28.6,22.15"/>
<polygon id="000002DD7D84C2C0" class="l65d20" points="-32.3,21.75 -32.3,25.85 -28.2,25.85 -28.2,21.75"/>
<polygon id="000002DD7D84BF40" class="l66d44" points="-31.1,19.55 -31.1,21.25 -29.4,21.25 -29.4,19.55"/>
<polygon id="000002DD7D84C560" class="l67d20" points="-31.9,18.75 -31.9,22.05 -28.6,22.05 -28.6,18.75"/>
<polygon id="000002DD7D84C8E0" class="l65d20" points="-32.3,18.35 -32.3,22.45 -28.2,22.45 -28.2,18.35"/>
<polygon id="000002DD7D84C250" class="l66d44" points="-31.1,16.15 -31.1,17.85 -29.4,17.85 -29.4,16.15"/>
<polygon id="000002DD7D84CA30" class="l67d20" points="-31.9,15.35 -31.9,18.65 -28.6,18.65 -28.6,15.35"/>
<polygon id="000002DD7D84C870" class="l65d20" points="-32.3,14.95 -32.3,19.05 -28.2,19.05 -28.2,14.95"/>
<polygon id="000002DD7D84C3A0" class="l66d44" points="-31.1,12.75 -31.1,14.45 -29.4,14.45 -29.4,12.75"/>
<polygon id="000002DD7D84CFE0" class="l67d20" points="-31.9,11.95 -31.9,15.25 -28.6,15.25 -28.6,11.95"/>
<polygon id="000002DD7D84C330" class="l65d20" points="-32.3,11.55 -32.3,15.65 -28.2,15.65 -28.2,11.55"/>
<polygon id="000002DD7D84CAA0" class="l66d44" points="-31.1,9.35 -31.1,11.05 -29.4,11.05 -29.4,9.35"/>
<polygon id="000002DD7D84CCD0" class="l67d20" points="-31.9,8.55 -31.9,11.85 -28.6,11.85 -28.6,8.55"/>
<polygon id="000002DD7D84D3D0" class="l65d20" points="-32.3,8.15 -32.3,12.25 -28.2,12.25 -28.2,8.15"/>
<polygon id="000002DD7D84C480" class="l66d44" points="-31.1,5.95 -31.1,7.65 -29.4,7.65 -29.4,5.95"/>
<polygon id="000002DD7D84CB80" class="l67d20" points="-31.9,5.15 -31.9,8.45 -28.6,8.45 -28.6,5.15"/>
<polygon id="000002DD7D84C4F0" class="l65d20" points="-32.3,4.75 -32.3,8.85 -28.2,8.85 -28.2,4.75"/>
<polygon id="000002DD7D84CBF0" class="l66d44" points="-31.1,2.55 -31.1,4.25 -29.4,4.25 -29.4,2.55"/>
<polygon id="000002DD7D84CF70" class="l67d20" points="-31.9,1.75 -31.9,5.05 -28.6,5.05 -28.6,1.75"/>
<polygon id="000002DD7D84D050" class="l65d20" points="-32.3,1.35 -32.3,5.45 -28.2,5.45 -28.2,1.35"/>
<polygon id="000002DD7D84CC60" class="l66d44" points="-31.1,-0.85 -31.1,0.85 -29.4,0.85 -29.4,-0.85"/>
<polygon id="000002DD7D84CD40" class="l67d20" points="-31.9,-1.65 -31.9,1.65 -28.6,1.65 -28.6,-1.65"/>
<polygon id="000002DD7D84D130" class="l65d20" points="-32.3,-2.05 -32.3,2.05 -28.2,2.05 -28.2,-2.05"/>
<polygon id="000002DD7D84D1A0" class="l66d44" points="-31.1,-4.25 -31.1,-2.55 -29.4,-2.55 -29.4,-4.25"/>
<polygon id="000002DD7D84D280" class="l67d20" points="-31.9,-5.05 -31.9,-1.75 -28.6,-1.75 -28.6,-5.05"/>
<polygon id="000002DD7D84D440" class="l65d20" points="-32.3,-5.45 -32.3,-1.35 -28.2,-1.35 -28.2,-5.45"/>
<polygon id="000002DD7D84D520" class="l66d44" points="-31.1,-7.65 -31.1,-5.95 -29.4,-5.95 -29.4,-7.65"/>
<polygon id="000002DD7D84D590" class="l67d20" points="-31.9,-8.45 -31.9,-5.15 -28.6,-5.15 -28.6,-8.45"/>
<polygon id="000002DD7D84D600" class="l65d20" points="-32.3,-8.85 -32.3,-4.75 -28.2,-4.75 -28.2,-8.85"/>
<polygon id="000002DD7D84D670" class="l66d44" points="-31.1,-11.05 -31.1,-9.35 -29.4,-9.35 -29.4,-11.05"/>
<polygon id="000002DD7D84D750" class="l67d20" points="-31.9,-11.85 -31.9,-8.55 -28.6,-8.55 -28.6,-11.85"/>
<polygon id="000002DD7D84D7C0" class="l65d20" points="-32.3,-12.25 -32.3,-8.15 -28.2,-8.15 -28.2,-12.25"/>
<polygon id="000002DD7D84D830" class="l66d44" points="-31.1,-14.45 -31.1,-12.75 -29.4,-12.75 -29.4,-14.45"/>
<polygon id="000002DD7D84BCA0" class="l67d20" points="-31.9,-15.25 -31.9,-11.95 -28.6,-11.95 -28.6,-15.25"/>
<polygon id="000002DD7D84BD10" class="l65d20" points="-32.3,-15.65 -32.3,-11.55 -28.2,-11.55 -28.2,-15.65"/>
<polygon id="000002DD7D84BD80" class="l66d44" points="-31.1,-17.85 -31.1,-16.15 -29.4,-16.15 -29.4,-17.85"/>
<polygon id="000002DD7D84F200" class="l67d20" points="-31.9,-18.65 -31.9,-15.35 -28.6,-15.35 -28.6,-18.65"/>
<polygon id="000002DD7D84F120" class="l65d20" points="-32.3,-19.05 -32.3,-14.95 -28.2,-14.95 -28.2,-19.05"/>
<polygon id="000002DD7D84E780" class="l66d44" points="-31.1,-21.25 -31.1,-19.55 -29.4,-19.55 -29.4,-21.25"/>
<polygon id="000002DD7D84F2E0" class="l67d20" points="-31.9,-22.05 -31.9,-18.75 -28.6,-18.75 -28.6,-22.05"/>
<polygon id="000002DD7D84E630" class="l65d20" points="-32.3,-22.45 -32.3,-18.35 -28.2,-18.35 -28.2,-22.45"/>
<polygon id="000002DD7D84E390" class="l67d20" points="-32.3,-28.35 -32.3,28.35 -28.2,28.35 -28.2,-28.35"/>
<polygon id="000002DD7D84D9F0" class="l65d20" points="-32.3,-25.85 -32.3,25.85 -28.2,25.85 -28.2,-25.85"/>
<polygon id="000002DD7D84EA20" class="l66d44" points="-23.35,-31.25 -23.35,-29.55 -21.65,-29.55 -21.65,-31.25"/>
<polygon id="000002DD7D84DBB0" class="l68d20" points="-23.95,-31.85 -23.95,-28.95 -21.05,-28.95 -21.05,-31.85"/>
<polygon id="000002DD7D84E4E0" class="l67d20" points="-24.15,-32.05 -24.15,-28.75 -20.85,-28.75 -20.85,-32.05"/>
<polygon id="000002DD7D84EDA0" class="l67d44" points="-23.35,-31.25 -23.35,-29.55 -21.65,-29.55 -21.65,-31.25"/>
<polygon id="000002DD7D84EE10" class="l65d20" points="-24.55,-32.45 -24.55,-28.35 -20.45,-28.35 -20.45,-32.45"/>
<polygon id="000002DD7D84E8D0" class="l66d44" points="21.65,-31.25 21.65,-29.55 23.35,-29.55 23.35,-31.25"/>
<polygon id="000002DD7D84E400" class="l68d20" points="21.05,-31.85 21.05,-28.95 23.95,-28.95 23.95,-31.85"/>
<polygon id="000002DD7D84EC50" class="l67d20" points="20.85,-32.05 20.85,-28.75 24.15,-28.75 24.15,-32.05"/>
<polygon id="000002DD7D84DFA0" class="l67d44" points="21.65,-31.25 21.65,-29.55 23.35,-29.55 23.35,-31.25"/>
<polygon id="000002DD7D84EB70" class="l65d20" points="20.45,-32.45 20.45,-28.35 24.55,-28.35 24.55,-32.45"/>
<polygon id="000002DD7D84F430" class="l66d44" points="16.65,-31.25 16.65,-29.55 18.35,-29.55 18.35,-31.25"/>
<polygon id="000002DD7D84DC90" class="l68d20" points="16.05,-31.85 16.05,-28.95 18.95,-28.95 18.95,-31.85"/>
<polygon id="000002DD7D84D980" class="l67d20" points="15.85,-32.05 15.85,-28.75 19.15,-28.75 19.15,-32.05"/>
<polygon id="000002DD7D84ECC0" class="l67d44" points="16.65,-31.25 16.65,-29.55 18.35,-29.55 18.35,-31.25"/>
<polygon id="000002DD7D84ED30" class="l65d20" points="15.45,-32.45 15.45,-28.35 19.55,-28.35 19.55,-32.45"/>
<polygon id="000002DD7D84EE80" class="l66d44" points="11.65,-31.25 11.65,-29.55 13.35,-29.55 13.35,-31.25"/>
<polygon id="000002DD7D84F040" class="l68d20" points="11.05,-31.85 11.05,-28.95 13.95,-28.95 13.95,-31.85"/>
<polygon id="000002DD7D84DAD0" class="l67d20" points="10.85,-32.05 10.85,-28.75 14.15,-28.75 14.15,-32.05"/>
<polygon id="000002DD7D84E470" class="l67d44" points="11.65,-31.25 11.65,-29.55 13.35,-29.55 13.35,-31.25"/>
<polygon id="000002DD7D84EEF0" class="l65d20" points="10.45,-32.45 10.45,-28.35 14.55,-28.35 14.55,-32.45"/>
<polygon id="000002DD7D84D8A0" class="l66d44" points="6.65,-31.25 6.65,-29.55 8.35,-29.55 8.35,-31.25"/>
<polygon id="000002DD7D84F190" class="l68d20" points="6.05,-31.85 6.05,-28.95 8.95,-28.95 8.95,-31.85"/>
<polygon id="000002DD7D84EBE0" class="l67d20" points="5.85,-32.05 5.85,-28.75 9.15,-28.75 9.15,-32.05"/>
<polygon id="000002DD7D84EF60" class="l67d44" points="6.65,-31.25 6.65,-29.55 8.35,-29.55 8.35,-31.25"/>
<polygon id="000002DD7D84DC20" class="l65d20" points="5.45,-32.45 5.45,-28.35 9.55,-28.35 9.55,-32.45"/>
<polygon id="000002DD7D84EA90" class="l66d44" points="1.65,-31.25 1.65,-29.55 3.35,-29.55 3.35,-31.25"/>
<polygon id="000002DD7D84E080" class="l68d20" points="1.05,-31.85 1.05,-28.95 3.95,-28.95 3.95,-31.85"/>
<polygon id="000002DD7D84EFD0" class="l67d20" points="0.85,-32.05 0.85,-28.75 4.15,-28.75 4.15,-32.05"/>
<polygon id="000002DD7D84E0F0" class="l67d44" points="1.65,-31.25 1.65,-29.55 3.35,-29.55 3.35,-31.25"/>
<polygon id="000002DD7D84F350" class="l65d20" points="0.45,-32.45 0.45,-28.35 4.55,-28.35 4.55,-32.45"/>
<polygon id="000002DD7D84E6A0" class="l66d44" points="-3.35,-31.25 -3.35,-29.55 -1.65,-29.55 -1.65,-31.25"/>
<polygon id="000002DD7D84E550" class="l68d20" points="-3.95,-31.85 -3.95,-28.95 -1.05,-28.95 -1.05,-31.85"/>
<polygon id="000002DD7D84DD00" class="l67d20" points="-4.15,-32.05 -4.15,-28.75 -0.85,-28.75 -0.85,-32.05"/>
<polygon id="000002DD7D84E5C0" class="l67d44" points="-3.35,-31.25 -3.35,-29.55 -1.65,-29.55 -1.65,-31.25"/>
<polygon id="000002DD7D84E710" class="l65d20" points="-4.55,-32.45 -4.55,-28.35 -0.45,-28.35 -0.45,-32.45"/>
<polygon id="000002DD7D84E160" class="l66d44" points="-8.35,-31.25 -8.35,-29.55 -6.65,-29.55 -6.65,-31.25"/>
<polygon id="000002DD7D84E1D0" class="l68d20" points="-8.95,-31.85 -8.95,-28.95 -6.05,-28.95 -6.05,-31.85"/>
<polygon id="000002DD7D84E7F0" class="l67d20" points="-9.15,-32.05 -9.15,-28.75 -5.85,-28.75 -5.85,-32.05"/>
<polygon id="000002DD7D84DD70" class="l67d44" points="-8.35,-31.25 -8.35,-29.55 -6.65,-29.55 -6.65,-31.25"/>
<polygon id="000002DD7D84E940" class="l65d20" points="-9.55,-32.45 -9.55,-28.35 -5.45,-28.35 -5.45,-32.45"/>
<polygon id="000002DD7D84F0B0" class="l66d44" points="-13.35,-31.25 -13.35,-29.55 -11.65,-29.55 -11.65,-31.25"/>
<polygon id="000002DD7D84E860" class="l68d20" points="-13.95,-31.85 -13.95,-28.95 -11.05,-28.95 -11.05,-31.85"/>
<polygon id="000002DD7D84E010" class="l67d20" points="-14.15,-32.05 -14.15,-28.75 -10.85,-28.75 -10.85,-32.05"/>
<polygon id="000002DD7D84DF30" class="l67d44" points="-13.35,-31.25 -13.35,-29.55 -11.65,-29.55 -11.65,-31.25"/>
<polygon id="000002DD7D84E2B0" class="l65d20" points="-14.55,-32.45 -14.55,-28.35 -10.45,-28.35 -10.45,-32.45"/>
<polygon id="000002DD7D84E240" class="l66d44" points="-18.35,-31.25 -18.35,-29.55 -16.65,-29.55 -16.65,-31.25"/>
<polygon id="000002DD7D84DA60" class="l68d20" points="-18.95,-31.85 -18.95,-28.95 -16.05,-28.95 -16.05,-31.85"/>
<polygon id="000002DD7D84DB40" class="l67d20" points="-19.15,-32.05 -19.15,-28.75 -15.85,-28.75 -15.85,-32.05"/>
<polygon id="000002DD7D84E9B0" class="l67d44" points="-18.35,-31.25 -18.35,-29.55 -16.65,-29.55 -16.65,-31.25"/>
<polygon id="000002DD7D84D910" class="l65d20" points="-19.55,-32.45 -19.55,-28.35 -15.45,-28.35 -15.45,-32.45"/>
<polygon id="000002DD7D84E320" class="l67d20" points="-24.15,-32.05 -24.15,-28.75 24.15,-28.75 24.15,-32.05"/>
<polygon id="000002DD7D84EB00" class="l68d20" points="-28.2,-32.45 -28.2,-28.35 28.2,-28.35 28.2,-32.45"/>
<polygon id="000002DD7D84F270" class="l65d20" points="-24.55,-32.45 -24.55,-28.35 24.55,-28.35 24.55,-32.45"/>
<polygon id="000002DD7D84DDE0" class="l66d44" points="29.4,-24.65 29.4,-22.95 31.1,-22.95 31.1,-24.65"/>
<polygon id="000002DD7D84DE50" class="l67d20" points="28.6,-25.45 28.6,-22.15 31.9,-22.15 31.9,-25.45"/>
<polygon id="000002DD7D84F3C0" class="l65d20" points="28.2,-25.85 28.2,-21.75 32.3,-21.75 32.3,-25.85"/>
<polygon id="000002DD7D84DEC0" class="l66d44" points="29.4,22.95 29.4,24.65 31.1,24.65 31.1,22.95"/>
<polygon id="000002DD7D850F50" class="l67d20" points="28.6,22.15 28.6,25.45 31.9,25.45 31.9,22.15"/>
<polygon id="000002DD7D850B60" class="l65d20" points="28.2,21.75 28.2,25.85 32.3,25.85 32.3,21.75"/>
<polygon id="000002DD7D84FAC0" class="l66d44" points="29.4,19.55 29.4,21.25 31.1,21.25 31.1,19.55"/>
<polygon id="000002DD7D84F890" class="l67d20" points="28.6,18.75 28.6,22.05 31.9,22.05 31.9,18.75"/>
<polygon id="000002DD7D8502A0" class="l65d20" points="28.2,18.35 28.2,22.45 32.3,22.45 32.3,18.35"/>
<polygon id="000002DD7D84FBA0" class="l66d44" points="29.4,16.15 29.4,17.85 31.1,17.85 31.1,16.15"/>
<polygon id="000002DD7D84FDD0" class="l67d20" points="28.6,15.35 28.6,18.65 31.9,18.65 31.9,15.35"/>
<polygon id="000002DD7D850150" class="l65d20" points="28.2,14.95 28.2,19.05 32.3,19.05 32.3,14.95"/>
<polygon id="000002DD7D850540" class="l66d44" points="29.4,12.75 29.4,14.45 31.1,14.45 31.1,12.75"/>
<polygon id="000002DD7D84F660" class="l67d20" points="28.6,11.95 28.6,15.25 31.9,15.25 31.9,11.95"/>
<polygon id="000002DD7D850930" class="l65d20" points="28.2,11.55 28.2,15.65 32.3,15.65 32.3,11.55"/>
<polygon id="000002DD7D8500E0" class="l66d44" points="29.4,9.35 29.4,11.05 31.1,11.05 31.1,9.35"/>
<polygon id="000002DD7D84FC80" class="l67d20" points="28.6,8.55 28.6,11.85 31.9,11.85 31.9,8.55"/>
<polygon id="000002DD7D850000" class="l65d20" points="28.2,8.15 28.2,12.25 32.3,12.25 32.3,8.15"/>
<polygon id="000002DD7D850BD0" class="l66d44" points="29.4,5.95 29.4,7.65 31.1,7.65 31.1,5.95"/>
<polygon id="000002DD7D850460" class="l67d20" points="28.6,5.15 28.6,8.45 31.9,8.45 31.9,5.15"/>
<polygon id="000002DD7D850620" class="l65d20" points="28.2,4.75 28.2,8.85 32.3,8.85 32.3,4.75"/>
<polygon id="000002DD7D850C40" class="l66d44" points="29.4,2.55 29.4,4.25 31.1,4.25 31.1,2.55"/>
<polygon id="000002DD7D850380" class="l67d20" points="28.6,1.75 28.6,5.05 31.9,5.05 31.9,1.75"/>
<polygon id="000002DD7D84F510" class="l65d20" points="28.2,1.35 28.2,5.45 32.3,5.45 32.3,1.35"/>
<polygon id="000002DD7D84FCF0" class="l66d44" points="29.4,-0.85 29.4,0.85 31.1,0.85 31.1,-0.85"/>
<polygon id="000002DD7D84FB30" class="l67d20" points="28.6,-1.65 28.6,1.65 31.9,1.65 31.9,-1.65"/>
<polygon id="000002DD7D850230" class="l65d20" points="28.2,-2.05 28.2,2.05 32.3,2.05 32.3,-2.05"/>
<polygon id="000002DD7D8501C0" class="l66d44" points="29.4,-4.25 29.4,-2.55 31.1,-2.55 31.1,-4.25"/>
<polygon id="000002DD7D850310" class="l67d20" points="28.6,-5.05 28.6,-1.75 31.9,-1.75 31.9,-5.05"/>
<polygon id="000002DD7D850FC0" class="l65d20" points="28.2,-5.45 28.2,-1.35 32.3,-1.35 32.3,-5.45"/>
<polygon id="000002DD7D850CB0" class="l66d44" points="29.4,-7.65 29.4,-5.95 31.1,-5.95 31.1,-7.65"/>
<polygon id="000002DD7D8503F0" class="l67d20" points="28.6,-8.45 28.6,-5.15 31.9,-5.15 31.9,-8.45"/>
<polygon id="000002DD7D850690" class="l65d20" points="28.2,-8.85 28.2,-4.75 32.3,-4.75 32.3,-8.85"/>
<polygon id="000002DD7D8504D0" class="l66d44" points="29.4,-11.05 29.4,-9.35 31.1,-9.35 31.1,-11.05"/>
<polygon id="000002DD7D8509A0" class="l67d20" points="28.6,-11.85 28.6,-8.55 31.9,-8.55 31.9,-11.85"/>
<polygon id="000002DD7D8505B0" class="l65d20" points="28.2,-12.25 28.2,-8.15 32.3,-8.15 32.3,-12.25"/>
<polygon id="000002DD7D84FD60" class="l66d44" points="29.4,-14.45 29.4,-12.75 31.1,-12.75 31.1,-14.45"/>
<polygon id="000002DD7D850070" class="l67d20" points="28.6,-15.25 28.6,-11.95 31.9,-11.95 31.9,-15.25"/>
<polygon id="000002DD7D850D20" class="l65d20" points="28.2,-15.65 28.2,-11.55 32.3,-11.55 32.3,-15.65"/>
<polygon id="000002DD7D850700" class="l66d44" points="29.4,-17.85 29.4,-16.15 31.1,-16.15 31.1,-17.85"/>
<polygon id="000002DD7D850770" class="l67d20" points="28.6,-18.65 28.6,-15.35 31.9,-15.35 31.9,-18.65"/>
<polygon id="000002DD7D850D90" class="l65d20" points="28.2,-19.05 28.2,-14.95 32.3,-14.95 32.3,-19.05"/>
<polygon id="000002DD7D8507E0" class="l66d44" points="29.4,-21.25 29.4,-19.55 31.1,-19.55 31.1,-21.25"/>
<polygon id="000002DD7D84F580" class="l67d20" points="28.6,-22.05 28.6,-18.75 31.9,-18.75 31.9,-22.05"/>
<polygon id="000002DD7D84FE40" class="l65d20" points="28.2,-22.45 28.2,-18.35 32.3,-18.35 32.3,-22.45"/>
<polygon id="000002DD7D84FC10" class="l67d20" points="28.2,-28.35 28.2,28.35 32.3,28.35 32.3,-28.35"/>
<polygon id="000002DD7D850850" class="l65d20" points="28.2,-25.85 28.2,25.85 32.3,25.85 32.3,-25.85"/>
<polygon id="000002DD7D8508C0" class="l66d44" points="-23.35,29.55 -23.35,31.25 -21.65,31.25 -21.65,29.55"/>
<polygon id="000002DD7D850A10" class="l68d20" points="-23.95,28.95 -23.95,31.85 -21.05,31.85 -21.05,28.95"/>
<polygon id="000002DD7D851030" class="l67d20" points="-24.15,28.75 -24.15,32.05 -20.85,32.05 -20.85,28.75"/>
<polygon id="000002DD7D850E00" class="l67d44" points="-23.35,29.55 -23.35,31.25 -21.65,31.25 -21.65,29.55"/>
<polygon id="000002DD7D850A80" class="l65d20" points="-24.55,28.35 -24.55,32.45 -20.45,32.45 -20.45,28.35"/>
<polygon id="000002DD7D850AF0" class="l66d44" points="21.65,29.55 21.65,31.25 23.35,31.25 23.35,29.55"/>
<polygon id="000002DD7D850E70" class="l68d20" points="21.05,28.95 21.05,31.85 23.95,31.85 23.95,28.95"/>
<polygon id="000002DD7D84FEB0" class="l67d20" points="20.85,28.75 20.85,32.05 24.15,32.05 24.15,28.75"/>
<polygon id="000002DD7D850EE0" class="l67d44" points="21.65,29.55 21.65,31.25 23.35,31.25 23.35,29.55"/>
<polygon id="000002DD7D84F4A0" class="l65d20" points="20.45,28.35 20.45,32.45 24.55,32.45 24.55,28.35"/>
<polygon id="000002DD7D84F7B0" class="l66d44" points="16.65,29.55 16.65,31.25 18.35,31.25 18.35,29.55"/>
<polygon id="000002DD7D84F5F0" class="l68d20" points="16.05,28.95 16.05,31.85 18.95,31.85 18.95,28.95"/>
<polygon id="000002DD7D84F6D0" class="l67d20" points="15.85,28.75 15.85,32.05 19.15,32.05 19.15,28.75"/>
<polygon id="000002DD7D84F740" class="l67d44" points="16.65,29.55 16.65,31.25 18.35,31.25 18.35,29.55"/>
<polygon id="000002DD7D84F820" class="l65d20" points="15.45,28.35 15.45,32.45 19.55,32.45 19.55,28.35"/>
<polygon id="000002DD7D84FF20" class="l66d44" points="11.65,29.55 11.65,31.25 13.35,31.25 13.35,29.55"/>
<polygon id="000002DD7D84FF90" class="l68d20" points="11.05,28.95 11.05,31.85 13.95,31.85 13.95,28.95"/>
<polygon id="000002DD7D84F900" class="l67d20" points="10.85,28.75 10.85,32.05 14.15,32.05 14.15,28.75"/>
<polygon id="000002DD7D84F970" class="l67d44" points="11.65,29.55 11.65,31.25 13.35,31.25 13.35,29.55"/>
<polygon id="000002DD7D84F9E0" class="l65d20" points="10.45,28.35 10.45,32.45 14.55,32.45 14.55,28.35"/>
<polygon id="000002DD7D84FA50" class="l66d44" points="6.65,29.55 6.65,31.25 8.35,31.25 8.35,29.55"/>
<polygon id="000002DD7D852C30" class="l68d20" points="6.05,28.95 6.05,31.85 8.95,31.85 8.95,28.95"/>
<polygon id="000002DD7D851570" class="l67d20" points="5.85,28.75 5.85,32.05 9.15,32.05 9.15,28.75"/>
<polygon id="000002DD7D8517A0" class="l67d44" points="6.65,29.55 6.65,31.25 8.35,31.25 8.35,29.55"/>
<polygon id="000002DD7D852840" class="l65d20" points="5.45,28.35 5.45,32.45 9.55,32.45 9.55,28.35"/>
<polygon id="000002DD7D8518F0" class="l66d44" points="1.65,29.55 1.65,31.25 3.35,31.25 3.35,29.55"/>
<polygon id="000002DD7D851EA0" class="l68d20" points="1.05,28.95 1.05,31.85 3.95,31.85 3.95,28.95"/>
<polygon id="000002DD7D852060" class="l67d20" points="0.85,28.75 0.85,32.05 4.15,32.05 4.15,28.75"/>
<polygon id="000002DD7D851B20" class="l67d44" points="1.65,29.55 1.65,31.25 3.35,31.25 3.35,29.55"/>
<polygon id="000002DD7D8528B0" class="l65d20" points="0.45,28.35 0.45,32.45 4.55,32.45 4.55,28.35"/>
<polygon id="000002DD7D851C70" class="l66d44" points="-3.35,29.55 -3.35,31.25 -1.65,31.25 -1.65,29.55"/>
<polygon id="000002DD7D852300" class="l68d20" points="-3.95,28.95 -3.95,31.85 -1.05,31.85 -1.05,28.95"/>
<polygon id="000002DD7D851650" class="l67d20" points="-4.15,28.75 -4.15,32.05 -0.85,32.05 -0.85,28.75"/>
<polygon id="000002DD7D851F10" class="l67d44" points="-3.35,29.55 -3.35,31.25 -1.65,31.25 -1.65,29.55"/>
<polygon id="000002DD7D851960" class="l65d20" points="-4.55,28.35 -4.55,32.45 -0.45,32.45 -0.45,28.35"/>
<polygon id="000002DD7D852760" class="l66d44" points="-8.35,29.55 -8.35,31.25 -6.65,31.25 -6.65,29.55"/>
<polygon id="000002DD7D852370" class="l68d20" points="-8.95,28.95 -8.95,31.85 -6.05,31.85 -6.05,28.95"/>
<polygon id="000002DD7D852610" class="l67d20" points="-9.15,28.75 -9.15,32.05 -5.85,32.05 -5.85,28.75"/>
<polygon id="000002DD7D8512D0" class="l67d44" points="-8.35,29.55 -8.35,31.25 -6.65,31.25 -6.65,29.55"/>
<polygon id="000002DD7D852920" class="l65d20" points="-9.55,28.35 -9.55,32.45 -5.45,32.45 -5.45,28.35"/>
<polygon id="000002DD7D851AB0" class="l66d44" points="-13.35,29.55 -13.35,31.25 -11.65,31.25 -11.65,29.55"/>
<polygon id="000002DD7D851F80" class="l68d20" points="-13.95,28.95 -13.95,31.85 -11.05,31.85 -11.05,28.95"/>
<polygon id="000002DD7D8524C0" class="l67d20" points="-14.15,28.75 -14.15,32.05 -10.85,32.05 -10.85,28.75"/>
<polygon id="000002DD7D852BC0" class="l67d44" points="-13.35,29.55 -13.35,31.25 -11.65,31.25 -11.65,29.55"/>
<polygon id="000002DD7D851B90" class="l65d20" points="-14.55,28.35 -14.55,32.45 -10.45,32.45 -10.45,28.35"/>
<polygon id="000002DD7D8521B0" class="l66d44" points="-18.35,29.55 -18.35,31.25 -16.65,31.25 -16.65,29.55"/>
<polygon id="000002DD7D851810" class="l68d20" points="-18.95,28.95 -18.95,31.85 -16.05,31.85 -16.05,28.95"/>
<polygon id="000002DD7D8511F0" class="l67d20" points="-19.15,28.75 -19.15,32.05 -15.85,32.05 -15.85,28.75"/>
<polygon id="000002DD7D852990" class="l67d44" points="-18.35,29.55 -18.35,31.25 -16.65,31.25 -16.65,29.55"/>
<polygon id="000002DD7D852AE0" class="l65d20" points="-19.55,28.35 -19.55,32.45 -15.45,32.45 -15.45,28.35"/>
<polygon id="000002DD7D8520D0" class="l67d20" points="-24.15,28.75 -24.15,32.05 24.15,32.05 24.15,28.75"/>
<polygon id="000002DD7D851C00" class="l68d20" points="-28.2,28.35 -28.2,32.45 28.2,32.45 28.2,28.35"/>
<polygon id="000002DD7D851CE0" class="l65d20" points="-24.55,28.35 -24.55,32.45 24.55,32.45 24.55,28.35"/>
<polygon id="000002DD7D851340" class="l93d44" points="33.6,33.75 -33.6,33.75 -33.6,-27.05 -26.9,-27.05 -26.9,27.05 26.9,27.05 26.9,-27.05 -26.9,-27.05 -33.6,-27.05 -33.6,-33.75 33.6,-33.75"/>
</g>
</svg>
