<?xml version='1.0' encoding='ASCII' standalone='yes'?>
<svg xmlns="http://www.w3.org/2000/svg" xmlns:xlink="http://www.w3.org/1999/xlink" width="304.7" height="179.7" viewBox="-60.94 -35.94 121.88 71.88">
<defs>
<style type="text/css">
.l65d20 {stroke: #008856; fill: #008856; fill-opacity: 0.5;}
.l67d20 {stroke: #0067A5; fill: #0067A5; fill-opacity: 0.5;}
.l68d20 {stroke: #F99379; fill: #F99379; fill-opacity: 0.5;}
.l67d44 {stroke: #875692; fill: #875692; fill-opacity: 0.5;}
.l66d44 {stroke: #F3C300; fill: #F3C300; fill-opacity: 0.5;}
.l94d20 {stroke: #8DB600; fill: #8DB600; fill-opacity: 0.5;}
</style>
</defs>
<rect x="-60.94" y="-35.94" width="121.88" height="71.88" fill="#222222" stroke="none"/>
<g id="Unnamed_4124805b$1" transform="scale(1 -1)">
<polygon id="0000018A9D85FD50" class="l65d20" points="54.1,29.1 -54.1,29.1 -54.1,-25 -50,-25 -50,25 50,25 50,-25 -50,-25 -54.1,-25 -54.1,-29.1 54.1,-29.1"/>
<polygon id="0000018A9D860450" class="l68d20" points="50,-29.1 54.1,-29.1 54.1,-25 50,-25"/>
<polygon id="0000018A9D8613A0" class="l67d44" points="51.2,-27.9 51.2,-26.2 52.9,-26.2 52.9,-27.9"/>
<polygon id="0000018A9D860760" class="l68d20" points="50.6,-28.5 50.6,-25.6 53.5,-25.6 53.5,-28.5"/>
<polygon id="0000018A9D8605A0" class="l67d20" points="51.2,-27.9 51.2,-26.2 52.9,-26.2 52.9,-27.9"/>
<polygon id="0000018A9D861100" class="l68d20" points="50,-29.1 50,-25 54.1,-25 54.1,-29.1"/>
<polygon id="0000018A9D861410" class="l67d20" points="51.2,-27.9 51.2,-26.2 52.9,-26.2 52.9,-27.9"/>
<polygon id="0000018A9D861480" class="l67d20" points="50,-29.1 54.1,-29.1 54.1,-25 50,-25"/>
<polygon id="0000018A9D860220" class="l68d20" points="-54.1,-29.1 -50,-29.1 -50,-25 -54.1,-25"/>
<polygon id="0000018A9D860AE0" class="l67d44" points="-52.9,-27.9 -52.9,-26.2 -51.2,-26.2 -51.2,-27.9"/>
<polygon id="0000018A9D860610" class="l68d20" points="-53.5,-28.5 -53.5,-25.6 -50.6,-25.6 -50.6,-28.5"/>
<polygon id="0000018A9D8611E0" class="l67d20" points="-52.9,-27.9 -52.9,-26.2 -51.2,-26.2 -51.2,-27.9"/>
<polygon id="0000018A9D861870" class="l68d20" points="-54.1,-29.1 -54.1,-25 -50,-25 -50,-29.1"/>
<polygon id="0000018A9D861250" class="l67d20" points="-52.9,-27.9 -52.9,-26.2 -51.2,-26.2 -51.2,-27.9"/>
<polygon id="0000018A9D85FCE0" class="l67d20" points="-54.1,-29.1 -50,-29.1 -50,-25 -54.1,-25"/>
<polygon id="0000018A9D860680" class="l68d20" points="50,25 54.1,25 54.1,29.1 50,29.1"/>
<polygon id="0000018A9D8607D0" class="l67d44" points="51.2,26.2 51.2,27.9 52.9,27.9 52.9,26.2"/>
<polygon id="0000018A9D85FDC0" class="l68d20" points="50.6,25.6 50.6,28.5 53.5,28.5 53.5,25.6"/>
<polygon id="0000018A9D860920" class="l67d20" points="51.2,26.2 51.2,27.9 52.9,27.9 52.9,26.2"/>
<polygon id="0000018A9D860840" class="l68d20" points="50,25 50,29.1 54.1,29.1 54.1,25"/>
<polygon id="0000018A9D8608B0" class="l67d20" points="51.2,26.2 51.2,27.9 52.9,27.9 52.9,26.2"/>
<polygon id="0000018A9D860990" class="l67d20" points="50,25 54.1,25 54.1,29.1 50,29.1"/>
<polygon id="0000018A9D8612C0" class="l68d20" points="-54.1,25 -50,25 -50,29.1 -54.1,29.1"/>
<polygon id="0000018A9D8618E0" class="l67d44" points="-52.9,26.2 -52.9,27.9 -51.2,27.9 -51.2,26.2"/>
<polygon id="0000018A9D861A30" class="l68d20" points="-53.5,25.6 -53.5,28.5 -50.6,28.5 -50.6,25.6"/>
<polygon id="0000018A9D861F70" class="l67d20" points="-52.9,26.2 -52.9,27.9 -51.2,27.9 -51.2,26.2"/>
<polygon id="0000018A9D861E90" class="l68d20" points="-54.1,25 -54.1,29.1 -50,29.1 -50,25"/>
<polygon id="0000018A9D861AA0" class="l67d20" points="-52.9,26.2 -52.9,27.9 -51.2,27.9 -51.2,26.2"/>
<polygon id="0000018A9D861B10" class="l67d20" points="-54.1,25 -50,25 -50,29.1 -54.1,29.1"/>
<polygon id="0000018A9D861BF0" class="l66d44" points="-52.9,-21.25 -52.9,-19.55 -51.2,-19.55 -51.2,-21.25"/>
<polygon id="0000018A9D8619C0" class="l67d20" points="-53.7,-22.05 -53.7,-18.75 -50.4,-18.75 -50.4,-22.05"/>
<polygon id="0000018A9D861FE0" class="l65d20" points="-54.1,-22.45 -54.1,-18.35 -50,-18.35 -50,-22.45"/>
<polygon id="0000018A9D861D40" class="l66d44" points="-52.9,19.55 -52.9,21.25 -51.2,21.25 -51.2,19.55"/>
<polygon id="0000018A9D861CD0" class="l67d20" points="-53.7,18.75 -53.7,22.05 -50.4,22.05 -50.4,18.75"/>
<polygon id="0000018A9D861950" class="l65d20" points="-54.1,18.35 -54.1,22.45 -50,22.45 -50,18.35"/>
<polygon id="0000018A9D861B80" class="l66d44" points="-52.9,16.15 -52.9,17.85 -51.2,17.85 -51.2,16.15"/>
<polygon id="0000018A9D861F00" class="l67d20" points="-53.7,15.35 -53.7,18.65 -50.4,18.65 -50.4,15.35"/>
<polygon id="0000018A9D861C60" class="l65d20" points="-54.1,14.95 -54.1,19.05 -50,19.05 -50,14.95"/>
<polygon id="0000018A9D861DB0" class="l66d44" points="-52.9,12.75 -52.9,14.45 -51.2,14.45 -51.2,12.75"/>
<polygon id="0000018A9D861E20" class="l67d20" points="-53.7,11.95 -53.7,15.25 -50.4,15.25 -50.4,11.95"/>
<polygon id="0000018A9D862D90" class="l65d20" points="-54.1,11.55 -54.1,15.65 -50,15.65 -50,11.55"/>
<polygon id="0000018A9D8624D0" class="l66d44" points="-52.9,9.35 -52.9,11.05 -51.2,11.05 -51.2,9.35"/>
<polygon id="0000018A9D863340" class="l67d20" points="-53.7,8.55 -53.7,11.85 -50.4,11.85 -50.4,8.55"/>
<polygon id="0000018A9D862A10" class="l65d20" points="-54.1,8.15 -54.1,12.25 -50,12.25 -50,8.15"/>
<polygon id="0000018A9D862F50" class="l66d44" points="-52.9,5.95 -52.9,7.65 -51.2,7.65 -51.2,5.95"/>
<polygon id="0000018A9D8621C0" class="l67d20" points="-53.7,5.15 -53.7,8.45 -50.4,8.45 -50.4,5.15"/>
<polygon id="0000018A9D862E00" class="l65d20" points="-54.1,4.75 -54.1,8.85 -50,8.85 -50,4.75"/>
<polygon id="0000018A9D862BD0" class="l66d44" points="-52.9,2.55 -52.9,4.25 -51.2,4.25 -51.2,2.55"/>
<polygon id="0000018A9D8632D0" class="l67d20" points="-53.7,1.75 -53.7,5.05 -50.4,5.05 -50.4,1.75"/>
<polygon id="0000018A9D8639D0" class="l65d20" points="-54.1,1.35 -54.1,5.45 -50,5.45 -50,1.35"/>
<polygon id="0000018A9D863500" class="l66d44" points="-52.9,-0.85 -52.9,0.85 -51.2,0.85 -51.2,-0.85"/>
<polygon id="0000018A9D862460" class="l67d20" points="-53.7,-1.65 -53.7,1.65 -50.4,1.65 -50.4,-1.65"/>
<polygon id="0000018A9D863490" class="l65d20" points="-54.1,-2.05 -54.1,2.05 -50,2.05 -50,-2.05"/>
<polygon id="0000018A9D862230" class="l66d44" points="-52.9,-4.25 -52.9,-2.55 -51.2,-2.55 -51.2,-4.25"/>
<polygon id="0000018A9D862620" class="l67d20" points="-53.7,-5.05 -53.7,-1.75 -50.4,-1.75 -50.4,-5.05"/>
<polygon id="0000018A9D863570" class="l65d20" points="-54.1,-5.45 -54.1,-1.35 -50,-1.35 -50,-5.45"/>
<polygon id="0000018A9D8620E0" class="l66d44" points="-52.9,-7.65 -52.9,-5.95 -51.2,-5.95 -51.2,-7.65"/>
<polygon id="0000018A9D862310" class="l67d20" points="-53.7,-8.45 -53.7,-5.15 -50.4,-5.15 -50.4,-8.45"/>
<polygon id="0000018A9D8629A0" class="l65d20" points="-54.1,-8.85 -54.1,-4.75 -50,-4.75 -50,-8.85"/>
<polygon id="0000018A9D8635E0" class="l66d44" points="-52.9,-11.05 -52.9,-9.35 -51.2,-9.35 -51.2,-11.05"/>
<polygon id="0000018A9D863260" class="l67d20" points="-53.7,-11.85 -53.7,-8.55 -50.4,-8.55 -50.4,-11.85"/>
<polygon id="0000018A9D8630A0" class="l65d20" points="-54.1,-12.25 -54.1,-8.15 -50,-8.15 -50,-12.25"/>
<polygon id="0000018A9D8633B0" class="l66d44" points="-52.9,-14.45 -52.9,-12.75 -51.2,-12.75 -51.2,-14.45"/>
<polygon id="0000018A9D863810" class="l67d20" points="-53.7,-15.25 -53.7,-11.95 -50.4,-11.95 -50.4,-15.25"/>
<polygon id="0000018A9D862380" class="l65d20" points="-54.1,-15.65 -54.1,-11.55 -50,-11.55 -50,-15.65"/>
<polygon id="0000018A9D862E70" class="l66d44" points="-52.9,-17.85 -52.9,-16.15 -51.2,-16.15 -51.2,-17.85"/>
<polygon id="0000018A9D862540" class="l67d20" points="-53.7,-18.65 -53.7,-15.35 -50.4,-15.35 -50.4,-18.65"/>
<polygon id="0000018A9D863420" class="l65d20" points="-54.1,-19.05 -54.1,-14.95 -50,-14.95 -50,-19.05"/>
<polygon id="0000018A9D862A80" class="l67d20" points="-54.1,-25 -54.1,25 -50,25 -50,-25"/>
<polygon id="0000018A9D862FC0" class="l65d20" points="-54.1,-22.45 -54.1,22.45 -50,22.45 -50,-22.45"/>
<polygon id="0000018A9D8622A0" class="l66d44" points="-43.35,-27.9 -43.35,-26.2 -41.65,-26.2 -41.65,-27.9"/>
<polygon id="0000018A9D862EE0" class="l68d20" points="-43.95,-28.5 -43.95,-25.6 -41.05,-25.6 -41.05,-28.5"/>
<polygon id="0000018A9D862C40" class="l67d20" points="-44.15,-28.7 -44.15,-25.4 -40.85,-25.4 -40.85,-28.7"/>
<polygon id="0000018A9D863650" class="l67d44" points="-43.35,-27.9 -43.35,-26.2 -41.65,-26.2 -41.65,-27.9"/>
<polygon id="0000018A9D863A40" class="l65d20" points="-44.55,-29.1 -44.55,-25 -40.45,-25 -40.45,-29.1"/>
<polygon id="0000018A9D8636C0" class="l66d44" points="41.65,-27.9 41.65,-26.2 43.35,-26.2 43.35,-27.9"/>
<polygon id="0000018A9D8625B0" class="l68d20" points="41.05,-28.5 41.05,-25.6 43.95,-25.6 43.95,-28.5"/>
<polygon id="0000018A9D863730" class="l67d20" points="40.85,-28.7 40.85,-25.4 44.15,-25.4 44.15,-28.7"/>
<polygon id="0000018A9D8623F0" class="l67d44" points="41.65,-27.9 41.65,-26.2 43.35,-26.2 43.35,-27.9"/>
<polygon id="0000018A9D862690" class="l65d20" points="40.45,-29.1 40.45,-25 44.55,-25 44.55,-29.1"/>
<polygon id="0000018A9D8637A0" class="l66d44" points="36.65,-27.9 36.65,-26.2 38.35,-26.2 38.35,-27.9"/>
<polygon id="0000018A9D862150" class="l68d20" points="36.05,-28.5 36.05,-25.6 38.95,-25.6 38.95,-28.5"/>
<polygon id="0000018A9D862700" class="l67d20" points="35.85,-28.7 35.85,-25.4 39.15,-25.4 39.15,-28.7"/>
<polygon id="0000018A9D862AF0" class="l67d44" points="36.65,-27.9 36.65,-26.2 38.35,-26.2 38.35,-27.9"/>
<polygon id="0000018A9D863880" class="l65d20" points="35.45,-29.1 35.45,-25 39.55,-25 39.55,-29.1"/>
<polygon id="0000018A9D8638F0" class="l66d44" points="31.65,-27.9 31.65,-26.2 33.35,-26.2 33.35,-27.9"/>
<polygon id="0000018A9D863110" class="l68d20" points="31.05,-28.5 31.05,-25.6 33.95,-25.6 33.95,-28.5"/>
<polygon id="0000018A9D863960" class="l67d20" points="30.85,-28.7 30.85,-25.4 34.15,-25.4 34.15,-28.7"/>
<polygon id="0000018A9D863AB0" class="l67d44" points="31.65,-27.9 31.65,-26.2 33.35,-26.2 33.35,-27.9"/>
<polygon id="0000018A9D862770" class="l65d20" points="30.45,-29.1 30.45,-25 34.55,-25 34.55,-29.1"/>
<polygon id="0000018A9D863B20" class="l66d44" points="26.65,-27.9 26.65,-26.2 28.35,-26.2 28.35,-27.9"/>
<polygon id="0000018A9D862850" class="l68d20" points="26.05,-28.5 26.05,-25.6 28.95,-25.6 28.95,-28.5"/>
<polygon id="0000018A9D863B90" class="l67d20" points="25.85,-28.7 25.85,-25.4 29.15,-25.4 29.15,-28.7"/>
<polygon id="0000018A9D8627E0" class="l67d44" points="26.65,-27.9 26.65,-26.2 28.35,-26.2 28.35,-27.9"/>
<polygon id="0000018A9D8628C0" class="l65d20" points="25.45,-29.1 25.45,-25 29.55,-25 29.55,-29.1"/>
<polygon id="0000018A9D863C00" class="l66d44" points="21.65,-27.9 21.65,-26.2 23.35,-26.2 23.35,-27.9"/>
<polygon id="0000018A9D862930" class="l68d20" points="21.05,-28.5 21.05,-25.6 23.95,-25.6 23.95,-28.5"/>
<polygon id="0000018A9D862B60" class="l67d20" points="20.85,-28.7 20.85,-25.4 24.15,-25.4 24.15,-28.7"/>
<polygon id="0000018A9D863C70" class="l67d44" points="21.65,-27.9 21.65,-26.2 23.35,-26.2 23.35,-27.9"/>
<polygon id="0000018A9D862CB0" class="l65d20" points="20.45,-29.1 20.45,-25 24.55,-25 24.55,-29.1"/>
<polygon id="0000018A9D862D20" class="l66d44" points="16.65,-27.9 16.65,-26.2 18.35,-26.2 18.35,-27.9"/>
<polygon id="0000018A9D863030" class="l68d20" points="16.05,-28.5 16.05,-25.6 18.95,-25.6 18.95,-28.5"/>
<polygon id="0000018A9D863180" class="l67d20" points="15.85,-28.7 15.85,-25.4 19.15,-25.4 19.15,-28.7"/>
<polygon id="0000018A9D8631F0" class="l67d44" points="16.65,-27.9 16.65,-26.2 18.35,-26.2 18.35,-27.9"/>
<polygon id="0000018A9D863EA0" class="l65d20" points="15.45,-29.1 15.45,-25 19.55,-25 19.55,-29.1"/>
<polygon id="0000018A9D863F10" class="l66d44" points="11.65,-27.9 11.65,-26.2 13.35,-26.2 13.35,-27.9"/>
<polygon id="0000018A9D863F80" class="l68d20" points="11.05,-28.5 11.05,-25.6 13.95,-25.6 13.95,-28.5"/>
<polygon id="0000018A9D863FF0" class="l67d20" points="10.85,-28.7 10.85,-25.4 14.15,-25.4 14.15,-28.7"/>
<polygon id="0000018A9D863CE0" class="l67d44" points="11.65,-27.9 11.65,-26.2 13.35,-26.2 13.35,-27.9"/>
<polygon id="0000018A9D863D50" class="l65d20" points="10.45,-29.1 10.45,-25 14.55,-25 14.55,-29.1"/>
<polygon id="0000018A9D863DC0" class="l66d44" points="6.65,-27.9 6.65,-26.2 8.35,-26.2 8.35,-27.9"/>
<polygon id="0000018A9D863E30" class="l68d20" points="6.05,-28.5 6.05,-25.6 8.95,-25.6 8.95,-28.5"/>
<polygon id="0000018AB1B316F0" class="l67d20" points="5.85,-28.7 5.85,-25.4 9.15,-25.4 9.15,-28.7"/>
<polygon id="0000018AB1B31290" class="l67d44" points="6.65,-27.9 6.65,-26.2 8.35,-26.2 8.35,-27.9"/>
<polygon id="0000018AB1B308F0" class="l65d20" points="5.45,-29.1 5.45,-25 9.55,-25 9.55,-29.1"/>
<polygon id="0000018AB1B318B0" class="l66d44" points="1.65,-27.9 1.65,-26.2 3.35,-26.2 3.35,-27.9"/>
<polygon id="0000018AB1B30810" class="l68d20" points="1.05,-28.5 1.05,-25.6 3.95,-25.6 3.95,-28.5"/>
<polygon id="0000018AB1B30960" class="l67d20" points="0.85,-28.7 0.85,-25.4 4.15,-25.4 4.15,-28.7"/>
<polygon id="0000018AB1B309D0" class="l67d44" points="1.65,-27.9 1.65,-26.2 3.35,-26.2 3.35,-27.9"/>
<polygon id="0000018AB1B31300" class="l65d20" points="0.45,-29.1 0.45,-25 4.55,-25 4.55,-29.1"/>
<polygon id="0000018AB1B30CE0" class="l66d44" points="-3.35,-27.9 -3.35,-26.2 -1.65,-26.2 -1.65,-27.9"/>
<polygon id="0000018AB1B30260" class="l68d20" points="-3.95,-28.5 -3.95,-25.6 -1.05,-25.6 -1.05,-28.5"/>
<polygon id="0000018AB1B30570" class="l67d20" points="-4.15,-28.7 -4.15,-25.4 -0.85,-25.4 -0.85,-28.7"/>
<polygon id="0000018AB1B31370" class="l67d44" points="-3.35,-27.9 -3.35,-26.2 -1.65,-26.2 -1.65,-27.9"/>
<polygon id="0000018AB1B30F80" class="l65d20" points="-4.55,-29.1 -4.55,-25 -0.45,-25 -0.45,-29.1"/>
<polygon id="0000018AB1B305E0" class="l66d44" points="-8.35,-27.9 -8.35,-26.2 -6.65,-26.2 -6.65,-27.9"/>
<polygon id="0000018AB1B314C0" class="l68d20" points="-8.95,-28.5 -8.95,-25.6 -6.05,-25.6 -6.05,-28.5"/>
<polygon id="0000018AB1B31920" class="l67d20" points="-9.15,-28.7 -9.15,-25.4 -5.85,-25.4 -5.85,-28.7"/>
<polygon id="0000018AB1B30880" class="l67d44" points="-8.35,-27.9 -8.35,-26.2 -6.65,-26.2 -6.65,-27.9"/>
<polygon id="0000018AB1B31C30" class="l65d20" points="-9.55,-29.1 -9.55,-25 -5.45,-25 -5.45,-29.1"/>
<polygon id="0000018AB1B30D50" class="l66d44" points="-13.35,-27.9 -13.35,-26.2 -11.65,-26.2 -11.65,-27.9"/>
<polygon id="0000018AB1B30650" class="l68d20" points="-13.95,-28.5 -13.95,-25.6 -11.05,-25.6 -11.05,-28.5"/>
<polygon id="0000018AB1B30FF0" class="l67d20" points="-14.15,-28.7 -14.15,-25.4 -10.85,-25.4 -10.85,-28.7"/>
<polygon id="0000018AB1B30F10" class="l67d44" points="-13.35,-27.9 -13.35,-26.2 -11.65,-26.2 -11.65,-27.9"/>
<polygon id="0000018AB1B30B90" class="l65d20" points="-14.55,-29.1 -14.55,-25 -10.45,-25 -10.45,-29.1"/>
<polygon id="0000018AB1B313E0" class="l66d44" points="-18.35,-27.9 -18.35,-26.2 -16.65,-26.2 -16.65,-27.9"/>
<polygon id="0000018AB1B31990" class="l68d20" points="-18.95,-28.5 -18.95,-25.6 -16.05,-25.6 -16.05,-28.5"/>
<polygon id="0000018AB1B306C0" class="l67d20" points="-19.15,-28.7 -19.15,-25.4 -15.85,-25.4 -15.85,-28.7"/>
<polygon id="0000018AB1B31060" class="l67d44" points="-18.35,-27.9 -18.35,-26.2 -16.65,-26.2 -16.65,-27.9"/>
<polygon id="0000018AB1B30A40" class="l65d20" points="-19.55,-29.1 -19.55,-25 -15.45,-25 -15.45,-29.1"/>
<polygon id="0000018AB1B31A00" class="l66d44" points="-23.35,-27.9 -23.35,-26.2 -21.65,-26.2 -21.65,-27.9"/>
<polygon id="0000018AB1B30AB0" class="l68d20" points="-23.95,-28.5 -23.95,-25.6 -21.05,-25.6 -21.05,-28.5"/>
<polygon id="0000018AB1B311B0" class="l67d20" points="-24.15,-28.7 -24.15,-25.4 -20.85,-25.4 -20.85,-28.7"/>
<polygon id="0000018AB1B31760" class="l67d44" points="-23.35,-27.9 -23.35,-26.2 -21.65,-26.2 -21.65,-27.9"/>
<polygon id="0000018AB1B30C70" class="l65d20" points="-24.55,-29.1 -24.55,-25 -20.45,-25 -20.45,-29.1"/>
<polygon id="0000018AB1B30EA0" class="l66d44" points="-28.35,-27.9 -28.35,-26.2 -26.65,-26.2 -26.65,-27.9"/>
<polygon id="0000018AB1B30B20" class="l68d20" points="-28.95,-28.5 -28.95,-25.6 -26.05,-25.6 -26.05,-28.5"/>
<polygon id="0000018AB1B30C00" class="l67d20" points="-29.15,-28.7 -29.15,-25.4 -25.85,-25.4 -25.85,-28.7"/>
<polygon id="0000018AB1B31220" class="l67d44" points="-28.35,-27.9 -28.35,-26.2 -26.65,-26.2 -26.65,-27.9"/>
<polygon id="0000018AB1B30110" class="l65d20" points="-29.55,-29.1 -29.55,-25 -25.45,-25 -25.45,-29.1"/>
<polygon id="0000018AB1B30DC0" class="l66d44" points="-33.35,-27.9 -33.35,-26.2 -31.65,-26.2 -31.65,-27.9"/>
<polygon id="0000018AB1B31610" class="l68d20" points="-33.95,-28.5 -33.95,-25.6 -31.05,-25.6 -31.05,-28.5"/>
<polygon id="0000018AB1B30E30" class="l67d20" points="-34.15,-28.7 -34.15,-25.4 -30.85,-25.4 -30.85,-28.7"/>
<polygon id="0000018AB1B30340" class="l67d44" points="-33.35,-27.9 -33.35,-26.2 -31.65,-26.2 -31.65,-27.9"/>
<polygon id="0000018AB1B315A0" class="l65d20" points="-34.55,-29.1 -34.55,-25 -30.45,-25 -30.45,-29.1"/>
<polygon id="0000018AB1B31450" class="l66d44" points="-38.35,-27.9 -38.35,-26.2 -36.65,-26.2 -36.65,-27.9"/>
<polygon id="0000018AB1B317D0" class="l68d20" points="-38.95,-28.5 -38.95,-25.6 -36.05,-25.6 -36.05,-28.5"/>
<polygon id="0000018AB1B31840" class="l67d20" points="-39.15,-28.7 -39.15,-25.4 -35.85,-25.4 -35.85,-28.7"/>
<polygon id="0000018AB1B302D0" class="l67d44" points="-38.35,-27.9 -38.35,-26.2 -36.65,-26.2 -36.65,-27.9"/>
<polygon id="0000018AB1B310D0" class="l65d20" points="-39.55,-29.1 -39.55,-25 -35.45,-25 -35.45,-29.1"/>
<polygon id="0000018AB1B30420" class="l67d20" points="-44.15,-28.7 -44.15,-25.4 44.15,-25.4 44.15,-28.7"/>
<polygon id="0000018AB1B31140" class="l68d20" points="-50,-29.1 -50,-25 50,-25 50,-29.1"/>
<polygon id="0000018AB1B31A70" class="l65d20" points="-44.55,-29.1 -44.55,-25 44.55,-25 44.55,-29.1"/>
<polygon id="0000018AB1B31530" class="l66d44" points="51.2,-21.25 51.2,-19.55 52.9,-19.55 52.9,-21.25"/>
<polygon id="0000018AB1B31680" class="l67d20" points="50.4,-22.05 50.4,-18.75 53.7,-18.75 53.7,-22.05"/>
<polygon id="0000018AB1B31AE0" class="l65d20" points="50,-22.45 50,-18.35 54.1,-18.35 54.1,-22.45"/>
<polygon id="0000018AB1B30180" class="l66d44" points="51.2,19.55 51.2,21.25 52.9,21.25 52.9,19.55"/>
<polygon id="0000018AB1B31B50" class="l67d20" points="50.4,18.75 50.4,22.05 53.7,22.05 53.7,18.75"/>
<polygon id="0000018AB1B300A0" class="l65d20" points="50,18.35 50,22.45 54.1,22.45 54.1,18.35"/>
<polygon id="0000018AB1B31BC0" class="l66d44" points="51.2,16.15 51.2,17.85 52.9,17.85 52.9,16.15"/>
<polygon id="0000018AB1B30490" class="l67d20" points="50.4,15.35 50.4,18.65 53.7,18.65 53.7,15.35"/>
<polygon id="0000018AB1B30500" class="l65d20" points="50,14.95 50,19.05 54.1,19.05 54.1,14.95"/>
<polygon id="0000018AB1B301F0" class="l66d44" points="51.2,12.75 51.2,14.45 52.9,14.45 52.9,12.75"/>
<polygon id="0000018AB1B303B0" class="l67d20" points="50.4,11.95 50.4,15.25 53.7,15.25 53.7,11.95"/>
<polygon id="0000018AB1B30730" class="l65d20" points="50,11.55 50,15.65 54.1,15.65 54.1,11.55"/>
<polygon id="0000018AB1B307A0" class="l66d44" points="51.2,9.35 51.2,11.05 52.9,11.05 52.9,9.35"/>
<polygon id="0000018AB1B33520" class="l67d20" points="50.4,8.55 50.4,11.85 53.7,11.85 53.7,8.55"/>
<polygon id="0000018AB1B33050" class="l65d20" points="50,8.15 50,12.25 54.1,12.25 54.1,8.15"/>
<polygon id="0000018AB1B321E0" class="l66d44" points="51.2,5.95 51.2,7.65 52.9,7.65 52.9,5.95"/>
<polygon id="0000018AB1B32410" class="l67d20" points="50.4,5.15 50.4,8.45 53.7,8.45 53.7,5.15"/>
<polygon id="0000018AB1B326B0" class="l65d20" points="50,4.75 50,8.85 54.1,8.85 54.1,4.75"/>
<polygon id="0000018AB1B31E60" class="l66d44" points="51.2,2.55 51.2,4.25 52.9,4.25 52.9,2.55"/>
<polygon id="0000018AB1B33590" class="l67d20" points="50.4,1.75 50.4,5.05 53.7,5.05 53.7,1.75"/>
<polygon id="0000018AB1B32BF0" class="l65d20" points="50,1.35 50,5.45 54.1,5.45 54.1,1.35"/>
<polygon id="0000018AB1B31D80" class="l66d44" points="51.2,-0.85 51.2,0.85 52.9,0.85 52.9,-0.85"/>
<polygon id="0000018AB1B32250" class="l67d20" points="50.4,-1.65 50.4,1.65 53.7,1.65 53.7,-1.65"/>
<polygon id="0000018AB1B33670" class="l65d20" points="50,-2.05 50,2.05 54.1,2.05 54.1,-2.05"/>
<polygon id="0000018AB1B33830" class="l66d44" points="51.2,-4.25 51.2,-2.55 52.9,-2.55 52.9,-4.25"/>
<polygon id="0000018AB1B329C0" class="l67d20" points="50.4,-5.05 50.4,-1.75 53.7,-1.75 53.7,-5.05"/>
<polygon id="0000018AB1B32950" class="l65d20" points="50,-5.45 50,-1.35 54.1,-1.35 54.1,-5.45"/>
<polygon id="0000018AB1B32FE0" class="l66d44" points="51.2,-7.65 51.2,-5.95 52.9,-5.95 52.9,-7.65"/>
<polygon id="0000018AB1B32100" class="l67d20" points="50.4,-8.45 50.4,-5.15 53.7,-5.15 53.7,-8.45"/>
<polygon id="0000018AB1B33600" class="l65d20" points="50,-8.85 50,-4.75 54.1,-4.75 54.1,-8.85"/>
<polygon id="0000018AB1B330C0" class="l66d44" points="51.2,-11.05 51.2,-9.35 52.9,-9.35 52.9,-11.05"/>
<polygon id="0000018AB1B322C0" class="l67d20" points="50.4,-11.85 50.4,-8.55 53.7,-8.55 53.7,-11.85"/>
<polygon id="0000018AB1B32480" class="l65d20" points="50,-12.25 50,-8.15 54.1,-8.15 54.1,-12.25"/>
<polygon id="0000018AB1B32720" class="l66d44" points="51.2,-14.45 51.2,-12.75 52.9,-12.75 52.9,-14.45"/>
<polygon id="0000018AB1B31ED0" class="l67d20" points="50.4,-15.25 50.4,-11.95 53.7,-11.95 53.7,-15.25"/>
<polygon id="0000018AB1B336E0" class="l65d20" points="50,-15.65 50,-11.55 54.1,-11.55 54.1,-15.65"/>
<polygon id="0000018AB1B32C60" class="l66d44" points="51.2,-17.85 51.2,-16.15 52.9,-16.15 52.9,-17.85"/>
<polygon id="0000018AB1B31DF0" class="l67d20" points="50.4,-18.65 50.4,-15.35 53.7,-15.35 53.7,-18.65"/>
<polygon id="0000018AB1B32330" class="l65d20" points="50,-19.05 50,-14.95 54.1,-14.95 54.1,-19.05"/>
<polygon id="0000018AB1B33750" class="l67d20" points="50,-25 50,25 54.1,25 54.1,-25"/>
<polygon id="0000018AB1B31CA0" class="l65d20" points="50,-22.45 50,22.45 54.1,22.45 54.1,-22.45"/>
<polygon id="0000018AB1B32A30" class="l66d44" points="-43.35,26.2 -43.35,27.9 -41.65,27.9 -41.65,26.2"/>
<polygon id="0000018AB1B32AA0" class="l68d20" points="-43.95,25.6 -43.95,28.5 -41.05,28.5 -41.05,25.6"/>
<polygon id="0000018AB1B33130" class="l67d20" points="-44.15,25.4 -44.15,28.7 -40.85,28.7 -40.85,25.4"/>
<polygon id="0000018AB1B32B10" class="l67d44" points="-43.35,26.2 -43.35,27.9 -41.65,27.9 -41.65,26.2"/>
<polygon id="0000018AB1B32B80" class="l65d20" points="-44.55,25 -44.55,29.1 -40.45,29.1 -40.45,25"/>
<polygon id="0000018AB1B32090" class="l66d44" points="41.65,26.2 41.65,27.9 43.35,27.9 43.35,26.2"/>
<polygon id="0000018AB1B32F00" class="l68d20" points="41.05,25.6 41.05,28.5 43.95,28.5 43.95,25.6"/>
<polygon id="0000018AB1B325D0" class="l67d20" points="40.85,25.4 40.85,28.7 44.15,28.7 44.15,25.4"/>
<polygon id="0000018AB1B32CD0" class="l67d44" points="41.65,26.2 41.65,27.9 43.35,27.9 43.35,26.2"/>
<polygon id="0000018AB1B31F40" class="l65d20" points="40.45,25 40.45,29.1 44.55,29.1 44.55,25"/>
<polygon id="0000018AB1B32D40" class="l66d44" points="36.65,26.2 36.65,27.9 38.35,27.9 38.35,26.2"/>
<polygon id="0000018AB1B32790" class="l68d20" points="36.05,25.6 36.05,28.5 38.95,28.5 38.95,25.6"/>
<polygon id="0000018AB1B32E90" class="l67d20" points="35.85,25.4 35.85,28.7 39.15,28.7 39.15,25.4"/>
<polygon id="0000018AB1B337C0" class="l67d44" points="36.65,26.2 36.65,27.9 38.35,27.9 38.35,26.2"/>
<polygon id="0000018AB1B331A0" class="l65d20" points="35.45,25 35.45,29.1 39.55,29.1 39.55,25"/>
<polygon id="0000018AB1B32020" class="l66d44" points="31.65,26.2 31.65,27.9 33.35,27.9 33.35,26.2"/>
<polygon id="0000018AB1B33210" class="l68d20" points="31.05,25.6 31.05,28.5 33.95,28.5 33.95,25.6"/>
<polygon id="0000018AB1B31FB0" class="l67d20" points="30.85,25.4 30.85,28.7 34.15,28.7 34.15,25.4"/>
<polygon id="0000018AB1B323A0" class="l67d44" points="31.65,26.2 31.65,27.9 33.35,27.9 33.35,26.2"/>
<polygon id="0000018AB1B33280" class="l65d20" points="30.45,25 30.45,29.1 34.55,29.1 34.55,25"/>
<polygon id="0000018AB1B31D10" class="l66d44" points="26.65,26.2 26.65,27.9 28.35,27.9 28.35,26.2"/>
<polygon id="0000018AB1B32170" class="l68d20" points="26.05,25.6 26.05,28.5 28.95,28.5 28.95,25.6"/>
<polygon id="0000018AB1B32560" class="l67d20" points="25.85,25.4 25.85,28.7 29.15,28.7 29.15,25.4"/>
<polygon id="0000018AB1B332F0" class="l67d44" points="26.65,26.2 26.65,27.9 28.35,27.9 28.35,26.2"/>
<polygon id="0000018AB1B32E20" class="l65d20" points="25.45,25 25.45,29.1 29.55,29.1 29.55,25"/>
<polygon id="0000018AB1B32DB0" class="l66d44" points="21.65,26.2 21.65,27.9 23.35,27.9 23.35,26.2"/>
<polygon id="0000018AB1B32F70" class="l68d20" points="21.05,25.6 21.05,28.5 23.95,28.5 23.95,25.6"/>
<polygon id="0000018AB1B333D0" class="l67d20" points="20.85,25.4 20.85,28.7 24.15,28.7 24.15,25.4"/>
<polygon id="0000018AB1B324F0" class="l67d44" points="21.65,26.2 21.65,27.9 23.35,27.9 23.35,26.2"/>
<polygon id="0000018AB1B32640" class="l65d20" points="20.45,25 20.45,29.1 24.55,29.1 24.55,25"/>
<polygon id="0000018AB1B32800" class="l66d44" points="16.65,26.2 16.65,27.9 18.35,27.9 18.35,26.2"/>
<polygon id="0000018AB1B33360" class="l68d20" points="16.05,25.6 16.05,28.5 18.95,28.5 18.95,25.6"/>
<polygon id="0000018AB1B32870" class="l67d20" points="15.85,25.4 15.85,28.7 19.15,28.7 19.15,25.4"/>
<polygon id="0000018AB1B328E0" class="l67d44" points="16.65,26.2 16.65,27.9 18.35,27.9 18.35,26.2"/>
<polygon id="0000018AB1B33440" class="l65d20" points="15.45,25 15.45,29.1 19.55,29.1 19.55,25"/>
<polygon id="0000018AB1B334B0" class="l66d44" points="11.65,26.2 11.65,27.9 13.35,27.9 13.35,26.2"/>
<polygon id="0000018AB1B339F0" class="l68d20" points="11.05,25.6 11.05,28.5 13.95,28.5 13.95,25.6"/>
<polygon id="0000018AB1B33FA0" class="l67d20" points="10.85,25.4 10.85,28.7 14.15,28.7 14.15,25.4"/>
<polygon id="0000018AB1B33A60" class="l67d44" points="11.65,26.2 11.65,27.9 13.35,27.9 13.35,26.2"/>
<polygon id="0000018AB1B33AD0" class="l65d20" points="10.45,25 10.45,29.1 14.55,29.1 14.55,25"/>
<polygon id="0000018AB1B33F30" class="l66d44" points="6.65,26.2 6.65,27.9 8.35,27.9 8.35,26.2"/>
<polygon id="0000018AB1B33910" class="l68d20" points="6.05,25.6 6.05,28.5 8.95,28.5 8.95,25.6"/>
<polygon id="0000018AB1B33EC0" class="l67d20" points="5.85,25.4 5.85,28.7 9.15,28.7 9.15,25.4"/>
<polygon id="0000018AB1B33C90" class="l67d44" points="6.65,26.2 6.65,27.9 8.35,27.9 8.35,26.2"/>
<polygon id="0000018AB1B33D00" class="l65d20" points="5.45,25 5.45,29.1 9.55,29.1 9.55,25"/>
<polygon id="0000018AB1B33E50" class="l66d44" points="1.65,26.2 1.65,27.9 3.35,27.9 3.35,26.2"/>
<polygon id="0000018AB1B33D70" class="l68d20" points="1.05,25.6 1.05,28.5 3.95,28.5 3.95,25.6"/>
<polygon id="0000018AB1B33DE0" class="l67d20" points="0.85,25.4 0.85,28.7 4.15,28.7 4.15,25.4"/>
<polygon id="0000018AB1B33C20" class="l67d44" points="1.65,26.2 1.65,27.9 3.35,27.9 3.35,26.2"/>
<polygon id="0000018AB1B338A0" class="l65d20" points="0.45,25 0.45,29.1 4.55,29.1 4.55,25"/>
<polygon id="0000018AB1B33980" class="l66d44" points="-3.35,26.2 -3.35,27.9 -1.65,27.9 -1.65,26.2"/>
<polygon id="0000018AB1B33B40" class="l68d20" points="-3.95,25.6 -3.95,28.5 -1.05,28.5 -1.05,25.6"/>
<polygon id="0000018AB1B33BB0" class="l67d20" points="-4.15,25.4 -4.15,28.7 -0.85,28.7 -0.85,25.4"/>
<polygon id="0000018AB17DCAF0" class="l67d44" points="-3.35,26.2 -3.35,27.9 -1.65,27.9 -1.65,26.2"/>
<polygon id="0000018AB17DB510" class="l65d20" points="-4.55,25 -4.55,29.1 -0.45,29.1 -0.45,25"/>
<polygon id="0000018AB17DC460" class="l66d44" points="-8.35,26.2 -8.35,27.9 -6.65,27.9 -6.65,26.2"/>
<polygon id="0000018AB17DC4D0" class="l68d20" points="-8.95,25.6 -8.95,28.5 -6.05,28.5 -6.05,25.6"/>
<polygon id="0000018AB17DC7E0" class="l67d20" points="-9.15,25.4 -9.15,28.7 -5.85,28.7 -5.85,25.4"/>
<polygon id="0000018AB17DC700" class="l67d44" points="-8.35,26.2 -8.35,27.9 -6.65,27.9 -6.65,26.2"/>
<polygon id="0000018AB17DBEB0" class="l65d20" points="-9.55,25 -9.55,29.1 -5.45,29.1 -5.45,25"/>
<polygon id="0000018AB17DBF90" class="l66d44" points="-13.35,26.2 -13.35,27.9 -11.65,27.9 -11.65,26.2"/>
<polygon id="0000018AB17DB200" class="l68d20" points="-13.95,25.6 -13.95,28.5 -11.05,28.5 -11.05,25.6"/>
<polygon id="0000018AB17DC770" class="l67d20" points="-14.15,25.4 -14.15,28.7 -10.85,28.7 -10.85,25.4"/>
<polygon id="0000018AB17DB660" class="l67d44" points="-13.35,26.2 -13.35,27.9 -11.65,27.9 -11.65,26.2"/>
<polygon id="0000018AB17DBE40" class="l65d20" points="-14.55,25 -14.55,29.1 -10.45,29.1 -10.45,25"/>
<polygon id="0000018AB17DB890" class="l66d44" points="-18.35,26.2 -18.35,27.9 -16.65,27.9 -16.65,26.2"/>
<polygon id="0000018AB17DCBD0" class="l68d20" points="-18.95,25.6 -18.95,28.5 -16.05,28.5 -16.05,25.6"/>
<polygon id="0000018AB17DCB60" class="l67d20" points="-19.15,25.4 -19.15,28.7 -15.85,28.7 -15.85,25.4"/>
<polygon id="0000018AB17DCC40" class="l67d44" points="-18.35,26.2 -18.35,27.9 -16.65,27.9 -16.65,26.2"/>
<polygon id="0000018AB17DBD60" class="l65d20" points="-19.55,25 -19.55,29.1 -15.45,29.1 -15.45,25"/>
<polygon id="0000018AB17DB6D0" class="l66d44" points="-23.35,26.2 -23.35,27.9 -21.65,27.9 -21.65,26.2"/>
<polygon id="0000018AB17DC000" class="l68d20" points="-23.95,25.6 -23.95,28.5 -21.05,28.5 -21.05,25.6"/>
<polygon id="0000018AB17DBF20" class="l67d20" points="-24.15,25.4 -24.15,28.7 -20.85,28.7 -20.85,25.4"/>
<polygon id="0000018AB17DBBA0" class="l67d44" points="-23.35,26.2 -23.35,27.9 -21.65,27.9 -21.65,26.2"/>
<polygon id="0000018AB17DC310" class="l65d20" points="-24.55,25 -24.55,29.1 -20.45,29.1 -20.45,25"/>
<polygon id="0000018AB17DC8C0" class="l66d44" points="-28.35,26.2 -28.35,27.9 -26.65,27.9 -26.65,26.2"/>
<polygon id="0000018AB17DB740" class="l68d20" points="-28.95,25.6 -28.95,28.5 -26.05,28.5 -26.05,25.6"/>
<polygon id="0000018AB17DC070" class="l67d20" points="-29.15,25.4 -29.15,28.7 -25.85,28.7 -25.85,25.4"/>
<polygon id="0000018AB17DB820" class="l67d44" points="-28.35,26.2 -28.35,27.9 -26.65,27.9 -26.65,26.2"/>
<polygon id="0000018AB17DC930" class="l65d20" points="-29.55,25 -29.55,29.1 -25.45,29.1 -25.45,25"/>
<polygon id="0000018AB17DB900" class="l66d44" points="-33.35,26.2 -33.35,27.9 -31.65,27.9 -31.65,26.2"/>
<polygon id="0000018AB17DC1C0" class="l68d20" points="-33.95,25.6 -33.95,28.5 -31.05,28.5 -31.05,25.6"/>
<polygon id="0000018AB17DC850" class="l67d20" points="-34.15,25.4 -34.15,28.7 -30.85,28.7 -30.85,25.4"/>
<polygon id="0000018AB17DBC80" class="l67d44" points="-33.35,26.2 -33.35,27.9 -31.65,27.9 -31.65,26.2"/>
<polygon id="0000018AB17DC0E0" class="l65d20" points="-34.55,25 -34.55,29.1 -30.45,29.1 -30.45,25"/>
<polygon id="0000018AB17DB970" class="l66d44" points="-38.35,26.2 -38.35,27.9 -36.65,27.9 -36.65,26.2"/>
<polygon id="0000018AB17DBC10" class="l68d20" points="-38.95,25.6 -38.95,28.5 -36.05,28.5 -36.05,25.6"/>
<polygon id="0000018AB17DC230" class="l67d20" points="-39.15,25.4 -39.15,28.7 -35.85,28.7 -35.85,25.4"/>
<polygon id="0000018AB17DB120" class="l67d44" points="-38.35,26.2 -38.35,27.9 -36.65,27.9 -36.65,26.2"/>
<polygon id="0000018AB17DBCF0" class="l65d20" points="-39.55,25 -39.55,29.1 -35.45,29.1 -35.45,25"/>
<polygon id="0000018AB17DC620" class="l67d20" points="-44.15,25.4 -44.15,28.7 44.15,28.7 44.15,25.4"/>
<polygon id="0000018AB17DBDD0" class="l68d20" points="-50,25 -50,29.1 50,29.1 50,25"/>
<polygon id="0000018AB17DB350" class="l65d20" points="-44.55,25 -44.55,29.1 44.55,29.1 44.55,25"/>
<polygon id="0000018AB17DC5B0" class="l94d20" points="55.4,30.4 -55.4,30.4 -55.4,-23.7 -48.7,-23.7 -48.7,23.7 48.7,23.7 48.7,-23.7 -48.7,-23.7 -55.4,-23.7 -55.4,-30.4 55.4,-30.4"/>
</g>
</svg>
