<?xml version='1.0' encoding='ASCII' standalone='yes'?>
<svg xmlns="http://www.w3.org/2000/svg" xmlns:xlink="http://www.w3.org/1999/xlink" width="225.29999999999998" height="475.20000000000005" viewBox="-34.9 -115.55 75.1 158.4">
<defs>
<style type="text/css">
.l64d44 {stroke: #E25822; fill: #E25822; fill-opacity: 0.5;}
.l67d44 {stroke: #875692; fill: #875692; fill-opacity: 0.5;}
.l66d44 {stroke: #F3C300; fill: #F3C300; fill-opacity: 0.5;}
.l68d44 {stroke: #F38400; fill: #F38400; fill-opacity: 0.5;}
.l95d20 {stroke: #654522; fill: #654522; fill-opacity: 0.5;}
.l94d20 {stroke: #8DB600; fill: #8DB600; fill-opacity: 0.5;}
.l65d20 {stroke: #008856; fill: #008856; fill-opacity: 0.5;}
.l64d20 {stroke: #848482; fill: #848482; fill-opacity: 0.5;}
.l67d20 {stroke: #0067A5; fill: #0067A5; fill-opacity: 0.5;}
.l66d20 {stroke: #E68FAC; fill: #E68FAC; fill-opacity: 0.5;}
.l69d20 {stroke: #604E97; fill: #604E97; fill-opacity: 0.5;}
.l68d20 {stroke: #F99379; fill: #F99379; fill-opacity: 0.5;}
.l93d44 {stroke: #008856; fill: #008856; fill-opacity: 0.5;}
.l64d18 {stroke: #F3C300; fill: #F3C300; fill-opacity: 0.5;}
</style>
<g id="c_route_6ac70bef$1">
<polygon id="00000179331E2E20" class="l68d20" points="-11.8,-14.1 1.5,-14.1 1.5,-10.8 -11.8,-10.8"/>
<polygon id="00000179331E2DB0" class="l68d44" points="-10.4,-13.7 -10.4,-12.2 -8.9,-12.2 -8.9,-13.7"/>
<polygon id="00000179331E2E90" class="l69d20" points="-11.3,-14.6 -11.3,-11.3 -8,-11.3 -8,-14.6"/>
<polygon id="00000179331E2F70" class="l68d20" points="-11.8,-15.1 -11.8,-10.8 -7.5,-10.8 -7.5,-15.1"/>
<polygon id="00000179331E2FE0" class="l69d20" points="-8,-14.6 -8,-14.6 -8,-11.3 -8,-11.3"/>
<polygon id="00000179331E3050" class="l69d20" points="-8,60.4 -8,60.4 -8,63.7 -8,63.7"/>
<polygon id="00000179331E3520" class="l69d20" points="-11.3,-14.6 -8,-14.6 -8,63.7 -11.3,63.7"/>
<polygon id="00000179331E3C20" class="l68d20" points="-11.8,59.9 -2.5,59.9 -2.5,63.2 -11.8,63.2"/>
<polygon id="00000179331E3590" class="l68d44" points="-10.4,61.3 -10.4,62.8 -8.9,62.8 -8.9,61.3"/>
<polygon id="00000179331E30C0" class="l69d20" points="-11.3,60.4 -11.3,63.7 -8,63.7 -8,60.4"/>
<polygon id="00000179331E3440" class="l68d20" points="-11.8,59.9 -11.8,64.2 -7.5,64.2 -7.5,59.9"/>
</g>
<g id="Unnamed_566da353">
<polygon id="00000179331E3DE0" class="l64d20" points="-18.9,-25.55 18.9,-25.55 18.9,25.55 -18.9,25.55"/>
<polygon id="00000179331E31A0" class="l66d20" points="-2.5,-6.8 -2.5,8.2 2.5,8.2 2.5,-6.8"/>
<polygon id="00000179331E32F0" class="l66d44" points="3.3,-0.15 3.3,1.55 5,1.55 5,-0.15"/>
<polygon id="00000179331E3360" class="l67d20" points="2.5,-0.95 2.5,2.35 5.8,2.35 5.8,-0.95"/>
<polygon id="00000179331E33D0" class="l67d20" points="2.5,-4.3 2.5,5.7 5.8,5.7 5.8,-4.3"/>
<polygon id="00000179331E34B0" class="l67d44" points="3.3,-1.95 3.3,-0.25 5,-0.25 5,-1.95"/>
<polygon id="00000179331E5BA0" class="l68d20" points="2.7,-2.55 2.7,0.35 5.6,0.35 5.6,-2.55"/>
<polygon id="00000179331E5660" class="l67d20" points="3.3,-1.95 3.3,-0.25 5,-0.25 5,-1.95"/>
<polygon id="00000179331E49B0" class="l67d44" points="3.3,1.65 3.3,3.35 5,3.35 5,1.65"/>
<polygon id="00000179331E5200" class="l68d20" points="2.7,1.05 2.7,3.95 5.6,3.95 5.6,1.05"/>
<polygon id="00000179331E5AC0" class="l67d20" points="3.3,1.65 3.3,3.35 5,3.35 5,1.65"/>
<polygon id="00000179331E4390" class="l68d20" points="2.7,-4.3 2.7,5.7 5.6,5.7 5.6,-4.3"/>
<polygon id="00000179331E5270" class="l67d20" points="3.3,-1.95 3.3,3.35 5,3.35 5,-1.95"/>
<polygon id="00000179331E5040" class="l66d44" points="-5,-0.15 -5,1.55 -3.3,1.55 -3.3,-0.15"/>
<polygon id="00000179331E4780" class="l67d20" points="-5.8,-0.95 -5.8,2.35 -2.5,2.35 -2.5,-0.95"/>
<polygon id="00000179331E45C0" class="l67d20" points="-5.8,-4.3 -5.8,5.7 -2.5,5.7 -2.5,-4.3"/>
<polygon id="00000179331E4B00" class="l67d44" points="-5,-1.95 -5,-0.25 -3.3,-0.25 -3.3,-1.95"/>
<polygon id="00000179331E5430" class="l68d20" points="-5.6,-2.55 -5.6,0.35 -2.7,0.35 -2.7,-2.55"/>
<polygon id="00000179331E4E80" class="l67d20" points="-5,-1.95 -5,-0.25 -3.3,-0.25 -3.3,-1.95"/>
<polygon id="00000179331E50B0" class="l67d44" points="-5,1.65 -5,3.35 -3.3,3.35 -3.3,1.65"/>
<polygon id="00000179331E5120" class="l68d20" points="-5.6,1.05 -5.6,3.95 -2.7,3.95 -2.7,1.05"/>
<polygon id="00000179331E4470" class="l67d20" points="-5,1.65 -5,3.35 -3.3,3.35 -3.3,1.65"/>
<polygon id="00000179331E4EF0" class="l68d20" points="-5.6,-4.3 -5.6,5.7 -2.7,5.7 -2.7,-4.3"/>
<polygon id="00000179331E56D0" class="l67d20" points="-5,-1.95 -5,3.35 -3.3,3.35 -3.3,-1.95"/>
<polygon id="00000179331E4D30" class="l94d20" points="-7.7,-5.6 -7.7,7 7.7,7 7.7,-5.6"/>
<polygon id="00000179331E5970" class="l65d20" points="-6.4,-4.3 -6.4,5.7 6.4,5.7 6.4,-4.3"/>
<polygon id="00000179331E44E0" class="l67d44" points="-5,7.75 -5,9.45 -3.3,9.45 -3.3,7.75"/>
<polygon id="00000179331E52E0" class="l68d20" points="-5.6,7.15 -5.6,10.05 -2.7,10.05 -2.7,7.15"/>
<polygon id="00000179331E4B70" class="l67d20" points="-5,7.75 -5,9.45 -3.3,9.45 -3.3,7.75"/>
<polygon id="00000179331E5190" class="l68d20" points="-5.6,11.45 -5.6,14.35 5.6,14.35 5.6,11.45"/>
<polygon id="00000179331E4320" class="l68d20" points="-5.6,7.15 -5.6,10.05 5.6,10.05 5.6,7.15"/>
<polygon id="00000179331E4710" class="l66d44" points="-0.85,-13.3 -0.85,-11.6 0.85,-11.6 0.85,-13.3"/>
<polygon id="00000179331E5350" class="l68d20" points="-1.45,-13.9 -1.45,-11 1.45,-11 1.45,-13.9"/>
<polygon id="00000179331E53C0" class="l67d20" points="-1.65,-14.1 -1.65,-10.8 1.65,-10.8 1.65,-14.1"/>
<polygon id="00000179331E55F0" class="l67d44" points="-0.85,-13.3 -0.85,-11.6 0.85,-11.6 0.85,-13.3"/>
<polygon id="00000179331E5740" class="l66d20" points="-1.65,-14.1 -1.65,-10.8 1.65,-10.8 1.65,-14.1"/>
<polygon id="00000179331E4C50" class="l68d20" points="-2.5,-14.1 -2.5,-10.8 2.5,-10.8 2.5,-14.1"/>
<polygon id="00000179331E4F60" class="l66d20" points="-2.5,-14.1 -2.5,-10.8 2.5,-10.8 2.5,-14.1"/>
<polygon id="00000179331E4940" class="l95d20" points="-1.85,-14.3 1.85,-14.3 1.85,-10.6 -1.85,-10.6"/>
<polygon id="00000179331E4A20" class="l67d20" points="2.5,5.7 5.8,5.7 5.8,13.75 2.5,13.75"/>
<polygon id="00000179331E54A0" class="l67d44" points="3.3,12.05 3.3,13.75 5,13.75 5,12.05"/>
<polygon id="00000179331E4400" class="l68d20" points="2.7,11.45 2.7,14.35 5.6,14.35 5.6,11.45"/>
<polygon id="00000179331E4550" class="l67d20" points="3.3,12.05 3.3,13.75 5,13.75 5,12.05"/>
<polygon id="00000179331E4A90" class="l66d20" points="-2.5,-10.8 2.5,-10.8 2.5,-6.8 -2.5,-6.8"/>
<polygon id="00000179331E4FD0" class="l67d20" points="-5.8,5.7 -2.5,5.7 -2.5,9.45 -5.8,9.45"/>
<polygon id="00000179331E47F0" class="l95d20" points="-1.85,-14.3 1.85,-14.3 1.85,-10.6 -1.85,-10.6"/>
<polygon id="00000179331E4BE0" class="l65d20" points="26.4,33.05 -26.4,33.05 -26.4,-28.95 -22.3,-28.95 -22.3,28.95 22.3,28.95 22.3,-28.95 -22.3,-28.95 -26.4,-28.95 -26.4,-33.05 26.4,-33.05"/>
<polygon id="00000179331E4630" class="l68d20" points="22.3,-33.05 26.4,-33.05 26.4,-28.95 22.3,-28.95"/>
<polygon id="00000179331E5510" class="l67d44" points="23.5,-31.85 23.5,-30.15 25.2,-30.15 25.2,-31.85"/>
<polygon id="00000179331E46A0" class="l68d20" points="22.9,-32.45 22.9,-29.55 25.8,-29.55 25.8,-32.45"/>
<polygon id="00000179331E5820" class="l67d20" points="23.5,-31.85 23.5,-30.15 25.2,-30.15 25.2,-31.85"/>
<polygon id="00000179331E4860" class="l68d20" points="22.3,-33.05 22.3,-28.95 26.4,-28.95 26.4,-33.05"/>
<polygon id="00000179331E5580" class="l67d20" points="23.5,-31.85 23.5,-30.15 25.2,-30.15 25.2,-31.85"/>
<polygon id="00000179331E4CC0" class="l67d20" points="22.3,-33.05 26.4,-33.05 26.4,-28.95 22.3,-28.95"/>
<polygon id="00000179331E59E0" class="l68d20" points="-26.4,-33.05 -22.3,-33.05 -22.3,-28.95 -26.4,-28.95"/>
<polygon id="00000179331E5C10" class="l67d44" points="-25.2,-31.85 -25.2,-30.15 -23.5,-30.15 -23.5,-31.85"/>
<polygon id="00000179331E57B0" class="l68d20" points="-25.8,-32.45 -25.8,-29.55 -22.9,-29.55 -22.9,-32.45"/>
<polygon id="00000179331E4DA0" class="l67d20" points="-25.2,-31.85 -25.2,-30.15 -23.5,-30.15 -23.5,-31.85"/>
<polygon id="00000179331E5D60" class="l68d20" points="-26.4,-33.05 -26.4,-28.95 -22.3,-28.95 -22.3,-33.05"/>
<polygon id="00000179331E5890" class="l67d20" points="-25.2,-31.85 -25.2,-30.15 -23.5,-30.15 -23.5,-31.85"/>
<polygon id="00000179331E5900" class="l67d20" points="-26.4,-33.05 -22.3,-33.05 -22.3,-28.95 -26.4,-28.95"/>
<polygon id="00000179331E5A50" class="l68d20" points="22.3,28.95 26.4,28.95 26.4,33.05 22.3,33.05"/>
<polygon id="00000179331E5B30" class="l67d44" points="23.5,30.15 23.5,31.85 25.2,31.85 25.2,30.15"/>
<polygon id="00000179331E4E10" class="l68d20" points="22.9,29.55 22.9,32.45 25.8,32.45 25.8,29.55"/>
<polygon id="00000179331E48D0" class="l67d20" points="23.5,30.15 23.5,31.85 25.2,31.85 25.2,30.15"/>
<polygon id="00000179331E5C80" class="l68d20" points="22.3,28.95 22.3,33.05 26.4,33.05 26.4,28.95"/>
<polygon id="00000179331E5CF0" class="l67d20" points="23.5,30.15 23.5,31.85 25.2,31.85 25.2,30.15"/>
<polygon id="00000179331E5DD0" class="l67d20" points="22.3,28.95 26.4,28.95 26.4,33.05 22.3,33.05"/>
<polygon id="00000179331E5E40" class="l68d20" points="-26.4,28.95 -22.3,28.95 -22.3,33.05 -26.4,33.05"/>
<polygon id="00000179331E42B0" class="l67d44" points="-25.2,30.15 -25.2,31.85 -23.5,31.85 -23.5,30.15"/>
<polygon id="00000179331E6150" class="l68d20" points="-25.8,29.55 -25.8,32.45 -22.9,32.45 -22.9,29.55"/>
<polygon id="00000179331E6D20" class="l67d20" points="-25.2,30.15 -25.2,31.85 -23.5,31.85 -23.5,30.15"/>
<polygon id="00000179331E72D0" class="l68d20" points="-26.4,28.95 -26.4,33.05 -22.3,33.05 -22.3,28.95"/>
<polygon id="00000179331E6F50" class="l67d20" points="-25.2,30.15 -25.2,31.85 -23.5,31.85 -23.5,30.15"/>
<polygon id="00000179331E61C0" class="l67d20" points="-26.4,28.95 -22.3,28.95 -22.3,33.05 -26.4,33.05"/>
<polygon id="00000179331E6E70" class="l66d44" points="-25.2,-26.35 -25.2,-24.65 -23.5,-24.65 -23.5,-26.35"/>
<polygon id="00000179331E6E00" class="l67d20" points="-26,-27.15 -26,-23.85 -22.7,-23.85 -22.7,-27.15"/>
<polygon id="00000179331E77A0" class="l65d20" points="-26.4,-27.55 -26.4,-23.45 -22.3,-23.45 -22.3,-27.55"/>
<polygon id="00000179331E6D90" class="l66d44" points="-25.2,24.65 -25.2,26.35 -23.5,26.35 -23.5,24.65"/>
<polygon id="00000179331E60E0" class="l67d20" points="-26,23.85 -26,27.15 -22.7,27.15 -22.7,23.85"/>
<polygon id="00000179331E71F0" class="l65d20" points="-26.4,23.45 -26.4,27.55 -22.3,27.55 -22.3,23.45"/>
<polygon id="00000179331E5F20" class="l66d44" points="-25.2,21.25 -25.2,22.95 -23.5,22.95 -23.5,21.25"/>
<polygon id="00000179331E7810" class="l67d20" points="-26,20.45 -26,23.75 -22.7,23.75 -22.7,20.45"/>
<polygon id="00000179331E76C0" class="l65d20" points="-26.4,20.05 -26.4,24.15 -22.3,24.15 -22.3,20.05"/>
<polygon id="00000179331E6620" class="l66d44" points="-25.2,17.85 -25.2,19.55 -23.5,19.55 -23.5,17.85"/>
<polygon id="00000179331E6CB0" class="l67d20" points="-26,17.05 -26,20.35 -22.7,20.35 -22.7,17.05"/>
<polygon id="00000179331E6380" class="l65d20" points="-26.4,16.65 -26.4,20.75 -22.3,20.75 -22.3,16.65"/>
<polygon id="00000179331E7260" class="l66d44" points="-25.2,14.45 -25.2,16.15 -23.5,16.15 -23.5,14.45"/>
<polygon id="00000179331E6230" class="l67d20" points="-26,13.65 -26,16.95 -22.7,16.95 -22.7,13.65"/>
<polygon id="00000179331E7340" class="l65d20" points="-26.4,13.25 -26.4,17.35 -22.3,17.35 -22.3,13.25"/>
<polygon id="00000179331E6700" class="l66d44" points="-25.2,11.05 -25.2,12.75 -23.5,12.75 -23.5,11.05"/>
<polygon id="00000179331E6FC0" class="l67d20" points="-26,10.25 -26,13.55 -22.7,13.55 -22.7,10.25"/>
<polygon id="00000179331E63F0" class="l65d20" points="-26.4,9.85 -26.4,13.95 -22.3,13.95 -22.3,9.85"/>
<polygon id="00000179331E6070" class="l66d44" points="-25.2,7.65 -25.2,9.35 -23.5,9.35 -23.5,7.65"/>
<polygon id="00000179331E5F90" class="l67d20" points="-26,6.85 -26,10.15 -22.7,10.15 -22.7,6.85"/>
<polygon id="00000179331E6460" class="l65d20" points="-26.4,6.45 -26.4,10.55 -22.3,10.55 -22.3,6.45"/>
<polygon id="00000179331E7730" class="l66d44" points="-25.2,4.25 -25.2,5.95 -23.5,5.95 -23.5,4.25"/>
<polygon id="00000179331E7180" class="l67d20" points="-26,3.45 -26,6.75 -22.7,6.75 -22.7,3.45"/>
<polygon id="00000179331E7A40" class="l65d20" points="-26.4,3.05 -26.4,7.15 -22.3,7.15 -22.3,3.05"/>
<polygon id="00000179331E7110" class="l66d44" points="-25.2,0.85 -25.2,2.55 -23.5,2.55 -23.5,0.85"/>
<polygon id="00000179331E6310" class="l67d20" points="-26,0.05 -26,3.35 -22.7,3.35 -22.7,0.05"/>
<polygon id="00000179331E6770" class="l65d20" points="-26.4,-0.35 -26.4,3.75 -22.3,3.75 -22.3,-0.35"/>
<polygon id="00000179331E6540" class="l66d44" points="-25.2,-2.55 -25.2,-0.85 -23.5,-0.85 -23.5,-2.55"/>
<polygon id="00000179331E6EE0" class="l67d20" points="-26,-3.35 -26,-0.05 -22.7,-0.05 -22.7,-3.35"/>
<polygon id="00000179331E6000" class="l65d20" points="-26.4,-3.75 -26.4,0.35 -22.3,0.35 -22.3,-3.75"/>
<polygon id="00000179331E7490" class="l66d44" points="-25.2,-5.95 -25.2,-4.25 -23.5,-4.25 -23.5,-5.95"/>
<polygon id="00000179331E70A0" class="l67d20" points="-26,-6.75 -26,-3.45 -22.7,-3.45 -22.7,-6.75"/>
<polygon id="00000179331E7030" class="l65d20" points="-26.4,-7.15 -26.4,-3.05 -22.3,-3.05 -22.3,-7.15"/>
<polygon id="00000179331E73B0" class="l66d44" points="-25.2,-9.35 -25.2,-7.65 -23.5,-7.65 -23.5,-9.35"/>
<polygon id="00000179331E7650" class="l67d20" points="-26,-10.15 -26,-6.85 -22.7,-6.85 -22.7,-10.15"/>
<polygon id="00000179331E6AF0" class="l65d20" points="-26.4,-10.55 -26.4,-6.45 -22.3,-6.45 -22.3,-10.55"/>
<polygon id="00000179331E7420" class="l66d44" points="-25.2,-12.75 -25.2,-11.05 -23.5,-11.05 -23.5,-12.75"/>
<polygon id="00000179331E6850" class="l67d20" points="-26,-13.55 -26,-10.25 -22.7,-10.25 -22.7,-13.55"/>
<polygon id="00000179331E62A0" class="l65d20" points="-26.4,-13.95 -26.4,-9.85 -22.3,-9.85 -22.3,-13.95"/>
<polygon id="00000179331E7880" class="l66d44" points="-25.2,-16.15 -25.2,-14.45 -23.5,-14.45 -23.5,-16.15"/>
<polygon id="00000179331E64D0" class="l67d20" points="-26,-16.95 -26,-13.65 -22.7,-13.65 -22.7,-16.95"/>
<polygon id="00000179331E65B0" class="l65d20" points="-26.4,-17.35 -26.4,-13.25 -22.3,-13.25 -22.3,-17.35"/>
<polygon id="00000179331E6690" class="l66d44" points="-25.2,-19.55 -25.2,-17.85 -23.5,-17.85 -23.5,-19.55"/>
<polygon id="00000179331E67E0" class="l67d20" points="-26,-20.35 -26,-17.05 -22.7,-17.05 -22.7,-20.35"/>
<polygon id="00000179331E78F0" class="l65d20" points="-26.4,-20.75 -26.4,-16.65 -22.3,-16.65 -22.3,-20.75"/>
<polygon id="00000179331E7500" class="l66d44" points="-25.2,-22.95 -25.2,-21.25 -23.5,-21.25 -23.5,-22.95"/>
<polygon id="00000179331E5EB0" class="l67d20" points="-26,-23.75 -26,-20.45 -22.7,-20.45 -22.7,-23.75"/>
<polygon id="00000179331E7570" class="l65d20" points="-26.4,-24.15 -26.4,-20.05 -22.3,-20.05 -22.3,-24.15"/>
<polygon id="00000179331E68C0" class="l67d20" points="-26.4,-28.95 -26.4,28.95 -22.3,28.95 -22.3,-28.95"/>
<polygon id="00000179331E6930" class="l65d20" points="-26.4,-27.55 -26.4,27.55 -22.3,27.55 -22.3,-27.55"/>
<polygon id="00000179331E69A0" class="l66d44" points="-15.85,-31.85 -15.85,-30.15 -14.15,-30.15 -14.15,-31.85"/>
<polygon id="00000179331E75E0" class="l68d20" points="-16.45,-32.45 -16.45,-29.55 -13.55,-29.55 -13.55,-32.45"/>
<polygon id="00000179331E6A10" class="l67d20" points="-16.65,-32.65 -16.65,-29.35 -13.35,-29.35 -13.35,-32.65"/>
<polygon id="00000179331E7960" class="l67d44" points="-15.85,-31.85 -15.85,-30.15 -14.15,-30.15 -14.15,-31.85"/>
<polygon id="00000179331E6A80" class="l65d20" points="-17.05,-33.05 -17.05,-28.95 -12.95,-28.95 -12.95,-33.05"/>
<polygon id="00000179331E6B60" class="l66d44" points="14.15,-31.85 14.15,-30.15 15.85,-30.15 15.85,-31.85"/>
<polygon id="00000179331E79D0" class="l68d20" points="13.55,-32.45 13.55,-29.55 16.45,-29.55 16.45,-32.45"/>
<polygon id="00000179331E6BD0" class="l67d20" points="13.35,-32.65 13.35,-29.35 16.65,-29.35 16.65,-32.65"/>
<polygon id="00000179331E6C40" class="l67d44" points="14.15,-31.85 14.15,-30.15 15.85,-30.15 15.85,-31.85"/>
<polygon id="00000179331E92C0" class="l65d20" points="12.95,-33.05 12.95,-28.95 17.05,-28.95 17.05,-33.05"/>
<polygon id="00000179331E8C30" class="l66d44" points="9.15,-31.85 9.15,-30.15 10.85,-30.15 10.85,-31.85"/>
<polygon id="00000179331E8A70" class="l68d20" points="8.55,-32.45 8.55,-29.55 11.45,-29.55 11.45,-32.45"/>
<polygon id="00000179331E9560" class="l67d20" points="8.35,-32.65 8.35,-29.35 11.65,-29.35 11.65,-32.65"/>
<polygon id="00000179331E8CA0" class="l67d44" points="9.15,-31.85 9.15,-30.15 10.85,-30.15 10.85,-31.85"/>
<polygon id="00000179331E8370" class="l65d20" points="7.95,-33.05 7.95,-28.95 12.05,-28.95 12.05,-33.05"/>
<polygon id="00000179331E81B0" class="l66d44" points="4.15,-31.85 4.15,-30.15 5.85,-30.15 5.85,-31.85"/>
<polygon id="00000179331E8920" class="l68d20" points="3.55,-32.45 3.55,-29.55 6.45,-29.55 6.45,-32.45"/>
<polygon id="00000179331E8F40" class="l67d20" points="3.35,-32.65 3.35,-29.35 6.65,-29.35 6.65,-32.65"/>
<polygon id="00000179331E8990" class="l67d44" points="4.15,-31.85 4.15,-30.15 5.85,-30.15 5.85,-31.85"/>
<polygon id="00000179331E8ED0" class="l65d20" points="2.95,-33.05 2.95,-28.95 7.05,-28.95 7.05,-33.05"/>
<polygon id="00000179331E9250" class="l66d44" points="-0.85,-31.85 -0.85,-30.15 0.85,-30.15 0.85,-31.85"/>
<polygon id="00000179331E94F0" class="l68d20" points="-1.45,-32.45 -1.45,-29.55 1.45,-29.55 1.45,-32.45"/>
<polygon id="00000179331E8D10" class="l67d20" points="-1.65,-32.65 -1.65,-29.35 1.65,-29.35 1.65,-32.65"/>
<polygon id="00000179331E8AE0" class="l67d44" points="-0.85,-31.85 -0.85,-30.15 0.85,-30.15 0.85,-31.85"/>
<polygon id="00000179331E8DF0" class="l65d20" points="-2.05,-33.05 -2.05,-28.95 2.05,-28.95 2.05,-33.05"/>
<polygon id="00000179331E9330" class="l66d44" points="-5.85,-31.85 -5.85,-30.15 -4.15,-30.15 -4.15,-31.85"/>
<polygon id="00000179331E9100" class="l68d20" points="-6.45,-32.45 -6.45,-29.55 -3.55,-29.55 -3.55,-32.45"/>
<polygon id="00000179331E8140" class="l67d20" points="-6.65,-32.65 -6.65,-29.35 -3.35,-29.35 -3.35,-32.65"/>
<polygon id="00000179331E7C00" class="l67d44" points="-5.85,-31.85 -5.85,-30.15 -4.15,-30.15 -4.15,-31.85"/>
<polygon id="00000179331E7D50" class="l65d20" points="-7.05,-33.05 -7.05,-28.95 -2.95,-28.95 -2.95,-33.05"/>
<polygon id="00000179331E87D0" class="l66d44" points="-10.85,-31.85 -10.85,-30.15 -9.15,-30.15 -9.15,-31.85"/>
<polygon id="00000179331E7C70" class="l68d20" points="-11.45,-32.45 -11.45,-29.55 -8.55,-29.55 -8.55,-32.45"/>
<polygon id="00000179331E9170" class="l67d20" points="-11.65,-32.65 -11.65,-29.35 -8.35,-29.35 -8.35,-32.65"/>
<polygon id="00000179331E8A00" class="l67d44" points="-10.85,-31.85 -10.85,-30.15 -9.15,-30.15 -9.15,-31.85"/>
<polygon id="00000179331E9410" class="l65d20" points="-12.05,-33.05 -12.05,-28.95 -7.95,-28.95 -7.95,-33.05"/>
<polygon id="00000179331E7B90" class="l67d20" points="-16.65,-32.65 -16.65,-29.35 16.65,-29.35 16.65,-32.65"/>
<polygon id="00000179331E8B50" class="l68d20" points="-22.3,-33.05 -22.3,-28.95 22.3,-28.95 22.3,-33.05"/>
<polygon id="00000179331E8840" class="l65d20" points="-17.05,-33.05 -17.05,-28.95 17.05,-28.95 17.05,-33.05"/>
<polygon id="00000179331E7F80" class="l66d44" points="23.5,-26.35 23.5,-24.65 25.2,-24.65 25.2,-26.35"/>
<polygon id="00000179331E7DC0" class="l67d20" points="22.7,-27.15 22.7,-23.85 26,-23.85 26,-27.15"/>
<polygon id="00000179331E8300" class="l65d20" points="22.3,-27.55 22.3,-23.45 26.4,-23.45 26.4,-27.55"/>
<polygon id="00000179331E8D80" class="l66d44" points="23.5,24.65 23.5,26.35 25.2,26.35 25.2,24.65"/>
<polygon id="00000179331E8BC0" class="l67d20" points="22.7,23.85 22.7,27.15 26,27.15 26,23.85"/>
<polygon id="00000179331E8610" class="l65d20" points="22.3,23.45 22.3,27.55 26.4,27.55 26.4,23.45"/>
<polygon id="00000179331E9480" class="l66d44" points="23.5,21.25 23.5,22.95 25.2,22.95 25.2,21.25"/>
<polygon id="00000179331E8FB0" class="l67d20" points="22.7,20.45 22.7,23.75 26,23.75 26,20.45"/>
<polygon id="00000179331E8E60" class="l65d20" points="22.3,20.05 22.3,24.15 26.4,24.15 26.4,20.05"/>
<polygon id="00000179331E83E0" class="l66d44" points="23.5,17.85 23.5,19.55 25.2,19.55 25.2,17.85"/>
<polygon id="00000179331E7CE0" class="l67d20" points="22.7,17.05 22.7,20.35 26,20.35 26,17.05"/>
<polygon id="00000179331E9020" class="l65d20" points="22.3,16.65 22.3,20.75 26.4,20.75 26.4,16.65"/>
<polygon id="00000179331E91E0" class="l66d44" points="23.5,14.45 23.5,16.15 25.2,16.15 25.2,14.45"/>
<polygon id="00000179331E7E30" class="l67d20" points="22.7,13.65 22.7,16.95 26,16.95 26,13.65"/>
<polygon id="00000179331E7AB0" class="l65d20" points="22.3,13.25 22.3,17.35 26.4,17.35 26.4,13.25"/>
<polygon id="00000179331E7B20" class="l66d44" points="23.5,11.05 23.5,12.75 25.2,12.75 25.2,11.05"/>
<polygon id="00000179331E8220" class="l67d20" points="22.7,10.25 22.7,13.55 26,13.55 26,10.25"/>
<polygon id="00000179331E88B0" class="l65d20" points="22.3,9.85 22.3,13.95 26.4,13.95 26.4,9.85"/>
<polygon id="00000179331E8060" class="l66d44" points="23.5,7.65 23.5,9.35 25.2,9.35 25.2,7.65"/>
<polygon id="00000179331E80D0" class="l67d20" points="22.7,6.85 22.7,10.15 26,10.15 26,6.85"/>
<polygon id="00000179331E9090" class="l65d20" points="22.3,6.45 22.3,10.55 26.4,10.55 26.4,6.45"/>
<polygon id="00000179331E95D0" class="l66d44" points="23.5,4.25 23.5,5.95 25.2,5.95 25.2,4.25"/>
<polygon id="00000179331E9640" class="l67d20" points="22.7,3.45 22.7,6.75 26,6.75 26,3.45"/>
<polygon id="00000179331E8450" class="l65d20" points="22.3,3.05 22.3,7.15 26.4,7.15 26.4,3.05"/>
<polygon id="00000179331E8680" class="l66d44" points="23.5,0.85 23.5,2.55 25.2,2.55 25.2,0.85"/>
<polygon id="00000179331E8290" class="l67d20" points="22.7,0.05 22.7,3.35 26,3.35 26,0.05"/>
<polygon id="00000179331E84C0" class="l65d20" points="22.3,-0.35 22.3,3.75 26.4,3.75 26.4,-0.35"/>
<polygon id="00000179331E7F10" class="l66d44" points="23.5,-2.55 23.5,-0.85 25.2,-0.85 25.2,-2.55"/>
<polygon id="00000179331E7FF0" class="l67d20" points="22.7,-3.35 22.7,-0.05 26,-0.05 26,-3.35"/>
<polygon id="00000179331E8530" class="l65d20" points="22.3,-3.75 22.3,0.35 26.4,0.35 26.4,-3.75"/>
<polygon id="00000179331E85A0" class="l66d44" points="23.5,-5.95 23.5,-4.25 25.2,-4.25 25.2,-5.95"/>
<polygon id="00000179331E86F0" class="l67d20" points="22.7,-6.75 22.7,-3.45 26,-3.45 26,-6.75"/>
<polygon id="00000179331E8760" class="l65d20" points="22.3,-7.15 22.3,-3.05 26.4,-3.05 26.4,-7.15"/>
<polygon id="00000179331E9F70" class="l66d44" points="23.5,-9.35 23.5,-7.65 25.2,-7.65 25.2,-9.35"/>
<polygon id="00000179331E9790" class="l67d20" points="22.7,-10.15 22.7,-6.85 26,-6.85 26,-10.15"/>
<polygon id="00000179331EAAD0" class="l65d20" points="22.3,-10.55 22.3,-6.45 26.4,-6.45 26.4,-10.55"/>
<polygon id="00000179331E9720" class="l66d44" points="23.5,-12.75 23.5,-11.05 25.2,-11.05 25.2,-12.75"/>
<polygon id="00000179331EAC20" class="l67d20" points="22.7,-13.55 22.7,-10.25 26,-10.25 26,-13.55"/>
<polygon id="00000179331E98E0" class="l65d20" points="22.3,-13.95 22.3,-9.85 26.4,-9.85 26.4,-13.95"/>
<polygon id="00000179331EA6E0" class="l66d44" points="23.5,-16.15 23.5,-14.45 25.2,-14.45 25.2,-16.15"/>
<polygon id="00000179331EA050" class="l67d20" points="22.7,-16.95 22.7,-13.65 26,-13.65 26,-16.95"/>
<polygon id="00000179331EADE0" class="l65d20" points="22.3,-17.35 22.3,-13.25 26.4,-13.25 26.4,-17.35"/>
<polygon id="00000179331EB010" class="l66d44" points="23.5,-19.55 23.5,-17.85 25.2,-17.85 25.2,-19.55"/>
<polygon id="00000179331EAB40" class="l67d20" points="22.7,-20.35 22.7,-17.05 26,-17.05 26,-20.35"/>
<polygon id="00000179331EA130" class="l65d20" points="22.3,-20.75 22.3,-16.65 26.4,-16.65 26.4,-20.75"/>
<polygon id="00000179331EB1D0" class="l66d44" points="23.5,-22.95 23.5,-21.25 25.2,-21.25 25.2,-22.95"/>
<polygon id="00000179331EA7C0" class="l67d20" points="22.7,-23.75 22.7,-20.45 26,-20.45 26,-23.75"/>
<polygon id="00000179331EA830" class="l65d20" points="22.3,-24.15 22.3,-20.05 26.4,-20.05 26.4,-24.15"/>
<polygon id="00000179331EAF30" class="l67d20" points="22.3,-28.95 22.3,28.95 26.4,28.95 26.4,-28.95"/>
<polygon id="00000179331EA4B0" class="l65d20" points="22.3,-27.55 22.3,27.55 26.4,27.55 26.4,-27.55"/>
<polygon id="00000179331E9FE0" class="l66d44" points="-15.85,30.15 -15.85,31.85 -14.15,31.85 -14.15,30.15"/>
<polygon id="00000179331E9A30" class="l68d20" points="-16.45,29.55 -16.45,32.45 -13.55,32.45 -13.55,29.55"/>
<polygon id="00000179331EABB0" class="l67d20" points="-16.65,29.35 -16.65,32.65 -13.35,32.65 -13.35,29.35"/>
<polygon id="00000179331EA0C0" class="l67d44" points="-15.85,30.15 -15.85,31.85 -14.15,31.85 -14.15,30.15"/>
<polygon id="00000179331EAFA0" class="l65d20" points="-17.05,28.95 -17.05,33.05 -12.95,33.05 -12.95,28.95"/>
<polygon id="00000179331EA1A0" class="l66d44" points="14.15,30.15 14.15,31.85 15.85,31.85 15.85,30.15"/>
<polygon id="00000179331EA3D0" class="l68d20" points="13.55,29.55 13.55,32.45 16.45,32.45 16.45,29.55"/>
<polygon id="00000179331EAD70" class="l67d20" points="13.35,29.35 13.35,32.65 16.65,32.65 16.65,29.35"/>
<polygon id="00000179331E9E90" class="l67d44" points="14.15,30.15 14.15,31.85 15.85,31.85 15.85,30.15"/>
<polygon id="00000179331EB080" class="l65d20" points="12.95,28.95 12.95,33.05 17.05,33.05 17.05,28.95"/>
<polygon id="00000179331EAC90" class="l66d44" points="9.15,30.15 9.15,31.85 10.85,31.85 10.85,30.15"/>
<polygon id="00000179331E9D40" class="l68d20" points="8.55,29.55 8.55,32.45 11.45,32.45 11.45,29.55"/>
<polygon id="00000179331EAD00" class="l67d20" points="8.35,29.35 8.35,32.65 11.65,32.65 11.65,29.35"/>
<polygon id="00000179331E9CD0" class="l67d44" points="9.15,30.15 9.15,31.85 10.85,31.85 10.85,30.15"/>
<polygon id="00000179331EA210" class="l65d20" points="7.95,28.95 7.95,33.05 12.05,33.05 12.05,28.95"/>
<polygon id="00000179331EB240" class="l66d44" points="4.15,30.15 4.15,31.85 5.85,31.85 5.85,30.15"/>
<polygon id="00000179331E96B0" class="l68d20" points="3.55,29.55 3.55,32.45 6.45,32.45 6.45,29.55"/>
<polygon id="00000179331E9F00" class="l67d20" points="3.35,29.35 3.35,32.65 6.65,32.65 6.65,29.35"/>
<polygon id="00000179331E9800" class="l67d44" points="4.15,30.15 4.15,31.85 5.85,31.85 5.85,30.15"/>
<polygon id="00000179331EA440" class="l65d20" points="2.95,28.95 2.95,33.05 7.05,33.05 7.05,28.95"/>
<polygon id="00000179331E9870" class="l66d44" points="-0.85,30.15 -0.85,31.85 0.85,31.85 0.85,30.15"/>
<polygon id="00000179331E9950" class="l68d20" points="-1.45,29.55 -1.45,32.45 1.45,32.45 1.45,29.55"/>
<polygon id="00000179331EA360" class="l67d20" points="-1.65,29.35 -1.65,32.65 1.65,32.65 1.65,29.35"/>
<polygon id="00000179331E9DB0" class="l67d44" points="-0.85,30.15 -0.85,31.85 0.85,31.85 0.85,30.15"/>
<polygon id="00000179331E99C0" class="l65d20" points="-2.05,28.95 -2.05,33.05 2.05,33.05 2.05,28.95"/>
<polygon id="00000179331E9AA0" class="l66d44" points="-5.85,30.15 -5.85,31.85 -4.15,31.85 -4.15,30.15"/>
<polygon id="00000179331EA520" class="l68d20" points="-6.45,29.55 -6.45,32.45 -3.55,32.45 -3.55,29.55"/>
<polygon id="00000179331E9E20" class="l67d20" points="-6.65,29.35 -6.65,32.65 -3.35,32.65 -3.35,29.35"/>
<polygon id="00000179331EA280" class="l67d44" points="-5.85,30.15 -5.85,31.85 -4.15,31.85 -4.15,30.15"/>
<polygon id="00000179331EA2F0" class="l65d20" points="-7.05,28.95 -7.05,33.05 -2.95,33.05 -2.95,28.95"/>
<polygon id="00000179331EA590" class="l66d44" points="-10.85,30.15 -10.85,31.85 -9.15,31.85 -9.15,30.15"/>
<polygon id="00000179331E9B10" class="l68d20" points="-11.45,29.55 -11.45,32.45 -8.55,32.45 -8.55,29.55"/>
<polygon id="00000179331E9B80" class="l67d20" points="-11.65,29.35 -11.65,32.65 -8.35,32.65 -8.35,29.35"/>
<polygon id="00000179331E9BF0" class="l67d44" points="-10.85,30.15 -10.85,31.85 -9.15,31.85 -9.15,30.15"/>
<polygon id="00000179331E9C60" class="l65d20" points="-12.05,28.95 -12.05,33.05 -7.95,33.05 -7.95,28.95"/>
<polygon id="00000179331EBE10" class="l67d20" points="-16.65,29.35 -16.65,32.65 16.65,32.65 16.65,29.35"/>
<polygon id="00000179331ECC80" class="l68d20" points="-22.3,28.95 -22.3,33.05 22.3,33.05 22.3,28.95"/>
<polygon id="00000179331EC2E0" class="l65d20" points="-17.05,28.95 -17.05,33.05 17.05,33.05 17.05,28.95"/>
<polygon id="00000179331EB4E0" class="l94d20" points="27.7,34.35 -27.7,34.35 -27.7,-27.65 -21,-27.65 -21,27.65 21,27.65 21,-27.65 -21,-27.65 -27.7,-27.65 -27.7,-34.35 27.7,-34.35"/>
<polygon id="00000179331EC9E0" class="l65d20" points="15.8,22.45 -15.8,22.45 -15.8,-18.35 -11.7,-18.35 -11.7,18.35 11.7,18.35 11.7,-18.35 -11.7,-18.35 -15.8,-18.35 -15.8,-22.45 15.8,-22.45"/>
<polygon id="00000179331EC890" class="l68d20" points="11.7,-22.45 15.8,-22.45 15.8,-18.35 11.7,-18.35"/>
<polygon id="00000179331EBE80" class="l67d44" points="12.9,-21.25 12.9,-19.55 14.6,-19.55 14.6,-21.25"/>
<polygon id="00000179331ECC10" class="l68d20" points="12.3,-21.85 12.3,-18.95 15.2,-18.95 15.2,-21.85"/>
<polygon id="00000179331EB320" class="l67d20" points="12.9,-21.25 12.9,-19.55 14.6,-19.55 14.6,-21.25"/>
<polygon id="00000179331EBA90" class="l68d20" points="11.7,-22.45 11.7,-18.35 15.8,-18.35 15.8,-22.45"/>
<polygon id="00000179331EBEF0" class="l67d20" points="12.9,-21.25 12.9,-19.55 14.6,-19.55 14.6,-21.25"/>
<polygon id="00000179331EB780" class="l67d20" points="11.7,-22.45 15.8,-22.45 15.8,-18.35 11.7,-18.35"/>
<polygon id="00000179331EBB70" class="l68d20" points="-15.8,-22.45 -11.7,-22.45 -11.7,-18.35 -15.8,-18.35"/>
<polygon id="00000179331EB390" class="l67d44" points="-14.6,-21.25 -14.6,-19.55 -12.9,-19.55 -12.9,-21.25"/>
<polygon id="00000179331EC510" class="l68d20" points="-15.2,-21.85 -15.2,-18.95 -12.3,-18.95 -12.3,-21.85"/>
<polygon id="00000179331EB400" class="l67d20" points="-14.6,-21.25 -14.6,-19.55 -12.9,-19.55 -12.9,-21.25"/>
<polygon id="00000179331EC820" class="l68d20" points="-15.8,-22.45 -15.8,-18.35 -11.7,-18.35 -11.7,-22.45"/>
<polygon id="00000179331EB550" class="l67d20" points="-14.6,-21.25 -14.6,-19.55 -12.9,-19.55 -12.9,-21.25"/>
<polygon id="00000179331EC350" class="l67d20" points="-15.8,-22.45 -11.7,-22.45 -11.7,-18.35 -15.8,-18.35"/>
<polygon id="00000179331EBC50" class="l68d20" points="11.7,18.35 15.8,18.35 15.8,22.45 11.7,22.45"/>
<polygon id="00000179331ECB30" class="l67d44" points="12.9,19.55 12.9,21.25 14.6,21.25 14.6,19.55"/>
<polygon id="00000179331ECCF0" class="l68d20" points="12.3,18.95 12.3,21.85 15.2,21.85 15.2,18.95"/>
<polygon id="00000179331EC740" class="l67d20" points="12.9,19.55 12.9,21.25 14.6,21.25 14.6,19.55"/>
<polygon id="00000179331EBD30" class="l68d20" points="11.7,18.35 11.7,22.45 15.8,22.45 15.8,18.35"/>
<polygon id="00000179331ECD60" class="l67d20" points="12.9,19.55 12.9,21.25 14.6,21.25 14.6,19.55"/>
<polygon id="00000179331EC430" class="l67d20" points="11.7,18.35 15.8,18.35 15.8,22.45 11.7,22.45"/>
<polygon id="00000179331EC4A0" class="l68d20" points="-15.8,18.35 -11.7,18.35 -11.7,22.45 -15.8,22.45"/>
<polygon id="00000179331ECBA0" class="l67d44" points="-14.6,19.55 -14.6,21.25 -12.9,21.25 -12.9,19.55"/>
<polygon id="00000179331EC0B0" class="l68d20" points="-15.2,18.95 -15.2,21.85 -12.3,21.85 -12.3,18.95"/>
<polygon id="00000179331EBBE0" class="l67d20" points="-14.6,19.55 -14.6,21.25 -12.9,21.25 -12.9,19.55"/>
<polygon id="00000179331EB630" class="l68d20" points="-15.8,18.35 -15.8,22.45 -11.7,22.45 -11.7,18.35"/>
<polygon id="00000179331EC580" class="l67d20" points="-14.6,19.55 -14.6,21.25 -12.9,21.25 -12.9,19.55"/>
<polygon id="00000179331EBCC0" class="l67d20" points="-15.8,18.35 -11.7,18.35 -11.7,22.45 -15.8,22.45"/>
<polygon id="00000179331ECDD0" class="l66d44" points="-14.6,-14.45 -14.6,-12.75 -12.9,-12.75 -12.9,-14.45"/>
<polygon id="00000179331EBDA0" class="l67d20" points="-15.4,-15.25 -15.4,-11.95 -12.1,-11.95 -12.1,-15.25"/>
<polygon id="00000179331EC5F0" class="l65d20" points="-15.8,-15.65 -15.8,-11.55 -11.7,-11.55 -11.7,-15.65"/>
<polygon id="00000179331EC970" class="l66d44" points="-14.6,12.75 -14.6,14.45 -12.9,14.45 -12.9,12.75"/>
<polygon id="00000179331EBB00" class="l67d20" points="-15.4,11.95 -15.4,15.25 -12.1,15.25 -12.1,11.95"/>
<polygon id="00000179331ECE40" class="l65d20" points="-15.8,11.55 -15.8,15.65 -11.7,15.65 -11.7,11.55"/>
<polygon id="00000179331EC900" class="l66d44" points="-14.6,9.35 -14.6,11.05 -12.9,11.05 -12.9,9.35"/>
<polygon id="00000179331EB940" class="l67d20" points="-15.4,8.55 -15.4,11.85 -12.1,11.85 -12.1,8.55"/>
<polygon id="00000179331EC660" class="l65d20" points="-15.8,8.15 -15.8,12.25 -11.7,12.25 -11.7,8.15"/>
<polygon id="00000179331EB8D0" class="l66d44" points="-14.6,5.95 -14.6,7.65 -12.9,7.65 -12.9,5.95"/>
<polygon id="00000179331EBF60" class="l67d20" points="-15.4,5.15 -15.4,8.45 -12.1,8.45 -12.1,5.15"/>
<polygon id="00000179331EB2B0" class="l65d20" points="-15.8,4.75 -15.8,8.85 -11.7,8.85 -11.7,4.75"/>
<polygon id="00000179331EC6D0" class="l66d44" points="-14.6,2.55 -14.6,4.25 -12.9,4.25 -12.9,2.55"/>
<polygon id="00000179331EC7B0" class="l67d20" points="-15.4,1.75 -15.4,5.05 -12.1,5.05 -12.1,1.75"/>
<polygon id="00000179331EB5C0" class="l65d20" points="-15.8,1.35 -15.8,5.45 -11.7,5.45 -11.7,1.35"/>
<polygon id="00000179331EB6A0" class="l66d44" points="-14.6,-0.85 -14.6,0.85 -12.9,0.85 -12.9,-0.85"/>
<polygon id="00000179331EB710" class="l67d20" points="-15.4,-1.65 -15.4,1.65 -12.1,1.65 -12.1,-1.65"/>
<polygon id="00000179331EE2D0" class="l65d20" points="-15.8,-2.05 -15.8,2.05 -11.7,2.05 -11.7,-2.05"/>
<polygon id="00000179331EDE70" class="l66d44" points="-14.6,-4.25 -14.6,-2.55 -12.9,-2.55 -12.9,-4.25"/>
<polygon id="00000179331ED7E0" class="l67d20" points="-15.4,-5.05 -15.4,-1.75 -12.1,-1.75 -12.1,-5.05"/>
<polygon id="00000179331EE810" class="l65d20" points="-15.8,-5.45 -15.8,-1.35 -11.7,-1.35 -11.7,-5.45"/>
<polygon id="00000179331EE650" class="l66d44" points="-14.6,-7.65 -14.6,-5.95 -12.9,-5.95 -12.9,-7.65"/>
<polygon id="00000179331EDF50" class="l67d20" points="-15.4,-8.45 -15.4,-5.15 -12.1,-5.15 -12.1,-8.45"/>
<polygon id="00000179331ED930" class="l65d20" points="-15.8,-8.85 -15.8,-4.75 -11.7,-4.75 -11.7,-8.85"/>
<polygon id="00000179331EDA10" class="l66d44" points="-14.6,-11.05 -14.6,-9.35 -12.9,-9.35 -12.9,-11.05"/>
<polygon id="00000179331ECF90" class="l67d20" points="-15.4,-11.85 -15.4,-8.55 -12.1,-8.55 -12.1,-11.85"/>
<polygon id="00000179331ED4D0" class="l65d20" points="-15.8,-12.25 -15.8,-8.15 -11.7,-8.15 -11.7,-12.25"/>
<polygon id="00000179331EDAF0" class="l67d20" points="-15.8,-18.35 -15.8,18.35 -11.7,18.35 -11.7,-18.35"/>
<polygon id="00000179331ECF20" class="l65d20" points="-15.8,-15.65 -15.8,15.65 -11.7,15.65 -11.7,-15.65"/>
<polygon id="00000179331EE030" class="l66d44" points="-5.85,-21.25 -5.85,-19.55 -4.15,-19.55 -4.15,-21.25"/>
<polygon id="00000179331EE0A0" class="l68d20" points="-6.45,-21.85 -6.45,-18.95 -3.55,-18.95 -3.55,-21.85"/>
<polygon id="00000179331EE730" class="l67d20" points="-6.65,-22.05 -6.65,-18.75 -3.35,-18.75 -3.35,-22.05"/>
<polygon id="00000179331ECEB0" class="l67d44" points="-5.85,-21.25 -5.85,-19.55 -4.15,-19.55 -4.15,-21.25"/>
<polygon id="00000179331ED000" class="l65d20" points="-7.05,-22.45 -7.05,-18.35 -2.95,-18.35 -2.95,-22.45"/>
<polygon id="00000179331EE880" class="l66d44" points="4.15,-21.25 4.15,-19.55 5.85,-19.55 5.85,-21.25"/>
<polygon id="00000179331EE8F0" class="l68d20" points="3.55,-21.85 3.55,-18.95 6.45,-18.95 6.45,-21.85"/>
<polygon id="00000179331F2080" class="l67d20" points="3.35,-22.05 3.35,-18.75 6.65,-18.75 6.65,-22.05"/>
<polygon id="00000179331F0B10" class="l67d44" points="4.15,-21.25 4.15,-19.55 5.85,-19.55 5.85,-21.25"/>
<polygon id="00000179331F0CD0" class="l65d20" points="2.95,-22.45 2.95,-18.35 7.05,-18.35 7.05,-22.45"/>
<polygon id="00000179331F10C0" class="l66d44" points="-0.85,-21.25 -0.85,-19.55 0.85,-19.55 0.85,-21.25"/>
<polygon id="00000179314BBCE0" class="l68d20" points="-1.45,-21.85 -1.45,-18.95 1.45,-18.95 1.45,-21.85"/>
<polygon id="00000179314BC530" class="l67d20" points="-1.65,-22.05 -1.65,-18.75 1.65,-18.75 1.65,-22.05"/>
<polygon id="00000179314BCB50" class="l67d44" points="-0.85,-21.25 -0.85,-19.55 0.85,-19.55 0.85,-21.25"/>
<polygon id="00000179314BD3A0" class="l65d20" points="-2.05,-22.45 -2.05,-18.35 2.05,-18.35 2.05,-22.45"/>
<polygon id="00000179314BCA70" class="l67d20" points="-6.65,-22.05 -6.65,-18.75 6.65,-18.75 6.65,-22.05"/>
<polygon id="00000179314BD090" class="l68d20" points="-11.7,-22.45 -11.7,-18.35 11.7,-18.35 11.7,-22.45"/>
<polygon id="00000179314BCA00" class="l65d20" points="-7.05,-22.45 -7.05,-18.35 7.05,-18.35 7.05,-22.45"/>
<polygon id="00000179314BC840" class="l66d44" points="12.9,-14.45 12.9,-12.75 14.6,-12.75 14.6,-14.45"/>
<polygon id="00000179314BD330" class="l67d20" points="12.1,-15.25 12.1,-11.95 15.4,-11.95 15.4,-15.25"/>
<polygon id="00000179314BCAE0" class="l65d20" points="11.7,-15.65 11.7,-11.55 15.8,-11.55 15.8,-15.65"/>
<polygon id="00000179314BC140" class="l66d44" points="12.9,12.75 12.9,14.45 14.6,14.45 14.6,12.75"/>
<polygon id="00000179314BBF80" class="l67d20" points="12.1,11.95 12.1,15.25 15.4,15.25 15.4,11.95"/>
<polygon id="00000179314BC6F0" class="l65d20" points="11.7,11.55 11.7,15.65 15.8,15.65 15.8,11.55"/>
<polygon id="00000179314BCD10" class="l66d44" points="12.9,9.35 12.9,11.05 14.6,11.05 14.6,9.35"/>
<polygon id="00000179314BC7D0" class="l67d20" points="12.1,8.55 12.1,11.85 15.4,11.85 15.4,8.55"/>
<polygon id="00000179314BCCA0" class="l65d20" points="11.7,8.15 11.7,12.25 15.8,12.25 15.8,8.15"/>
<polygon id="00000179314BD020" class="l66d44" points="12.9,5.95 12.9,7.65 14.6,7.65 14.6,5.95"/>
<polygon id="00000179314BD410" class="l67d20" points="12.1,5.15 12.1,8.45 15.4,8.45 15.4,5.15"/>
<polygon id="00000179314BCBC0" class="l65d20" points="11.7,4.75 11.7,8.85 15.8,8.85 15.8,4.75"/>
<polygon id="00000179314BC8B0" class="l66d44" points="12.9,2.55 12.9,4.25 14.6,4.25 14.6,2.55"/>
<polygon id="00000179314BCC30" class="l67d20" points="12.1,1.75 12.1,5.05 15.4,5.05 15.4,1.75"/>
<polygon id="00000179314BD100" class="l65d20" points="11.7,1.35 11.7,5.45 15.8,5.45 15.8,1.35"/>
<polygon id="00000179314BCED0" class="l66d44" points="12.9,-0.85 12.9,0.85 14.6,0.85 14.6,-0.85"/>
<polygon id="00000179314BBF10" class="l67d20" points="12.1,-1.65 12.1,1.65 15.4,1.65 15.4,-1.65"/>
<polygon id="00000179314BBA40" class="l65d20" points="11.7,-2.05 11.7,2.05 15.8,2.05 15.8,-2.05"/>
<polygon id="00000179314BBB90" class="l66d44" points="12.9,-4.25 12.9,-2.55 14.6,-2.55 14.6,-4.25"/>
<polygon id="00000179314BC5A0" class="l67d20" points="12.1,-5.05 12.1,-1.75 15.4,-1.75 15.4,-5.05"/>
<polygon id="00000179314BBAB0" class="l65d20" points="11.7,-5.45 11.7,-1.35 15.8,-1.35 15.8,-5.45"/>
<polygon id="00000179314BCF40" class="l66d44" points="12.9,-7.65 12.9,-5.95 14.6,-5.95 14.6,-7.65"/>
<polygon id="00000179314BC920" class="l67d20" points="12.1,-8.45 12.1,-5.15 15.4,-5.15 15.4,-8.45"/>
<polygon id="00000179314BD170" class="l65d20" points="11.7,-8.85 11.7,-4.75 15.8,-4.75 15.8,-8.85"/>
<polygon id="00000179314BBC00" class="l66d44" points="12.9,-11.05 12.9,-9.35 14.6,-9.35 14.6,-11.05"/>
<polygon id="00000179314BC990" class="l67d20" points="12.1,-11.85 12.1,-8.55 15.4,-8.55 15.4,-11.85"/>
<polygon id="00000179314BC610" class="l65d20" points="11.7,-12.25 11.7,-8.15 15.8,-8.15 15.8,-12.25"/>
<polygon id="00000179314BBFF0" class="l67d20" points="11.7,-18.35 11.7,18.35 15.8,18.35 15.8,-18.35"/>
<polygon id="00000179314BC060" class="l65d20" points="11.7,-15.65 11.7,15.65 15.8,15.65 15.8,-15.65"/>
<polygon id="00000179314BC0D0" class="l66d44" points="-5.85,19.55 -5.85,21.25 -4.15,21.25 -4.15,19.55"/>
<polygon id="00000179314BCD80" class="l68d20" points="-6.45,18.95 -6.45,21.85 -3.55,21.85 -3.55,18.95"/>
<polygon id="00000179314BCDF0" class="l67d20" points="-6.65,18.75 -6.65,22.05 -3.35,22.05 -3.35,18.75"/>
<polygon id="00000179314BC3E0" class="l67d44" points="-5.85,19.55 -5.85,21.25 -4.15,21.25 -4.15,19.55"/>
<polygon id="00000179314BD1E0" class="l65d20" points="-7.05,18.35 -7.05,22.45 -2.95,22.45 -2.95,18.35"/>
<polygon id="00000179314BCE60" class="l66d44" points="4.15,19.55 4.15,21.25 5.85,21.25 5.85,19.55"/>
<polygon id="00000179314BCFB0" class="l68d20" points="3.55,18.95 3.55,21.85 6.45,21.85 6.45,18.95"/>
<polygon id="00000179314BC1B0" class="l67d20" points="3.35,18.75 3.35,22.05 6.65,22.05 6.65,18.75"/>
<polygon id="00000179314BC220" class="l67d44" points="4.15,19.55 4.15,21.25 5.85,21.25 5.85,19.55"/>
<polygon id="00000179314BD250" class="l65d20" points="2.95,18.35 2.95,22.45 7.05,22.45 7.05,18.35"/>
<polygon id="00000179314BC290" class="l66d44" points="-0.85,19.55 -0.85,21.25 0.85,21.25 0.85,19.55"/>
<polygon id="00000179314BB880" class="l68d20" points="-1.45,18.95 -1.45,21.85 1.45,21.85 1.45,18.95"/>
<polygon id="00000179314BC300" class="l67d20" points="-1.65,18.75 -1.65,22.05 1.65,22.05 1.65,18.75"/>
<polygon id="00000179314BC370" class="l67d44" points="-0.85,19.55 -0.85,21.25 0.85,21.25 0.85,19.55"/>
<polygon id="00000179314BC450" class="l65d20" points="-2.05,18.35 -2.05,22.45 2.05,22.45 2.05,18.35"/>
<polygon id="00000179314BC4C0" class="l67d20" points="-6.65,18.75 -6.65,22.05 6.65,22.05 6.65,18.75"/>
<polygon id="00000179314BC680" class="l68d20" points="-11.7,18.35 -11.7,22.45 11.7,22.45 11.7,18.35"/>
<polygon id="00000179314BD870" class="l65d20" points="-7.05,18.35 -7.05,22.45 7.05,22.45 7.05,18.35"/>
<polygon id="00000179314BED70" class="l93d44" points="17.1,23.75 -17.1,23.75 -17.1,-17.05 -10.4,-17.05 -10.4,17.05 10.4,17.05 10.4,-17.05 -10.4,-17.05 -17.1,-17.05 -17.1,-23.75 17.1,-23.75"/>
</g>
<g id="Unnamed_4e43006f">
<polygon id="00000179314BE0C0" class="l64d44" points="-20.2,-26.85 20.2,-26.85 20.2,26.85 -20.2,26.85"/>
<polygon id="00000179314BE670" class="l64d18" points="-20.2,-26.85 20.2,-26.85 20.2,26.85 -20.2,26.85"/>
<polygon id="00000179314BE3D0" class="l66d20" points="-2.5,-6.8 -2.5,8.2 2.5,8.2 2.5,-6.8"/>
<polygon id="00000179314BE2F0" class="l66d44" points="3.3,-0.15 3.3,1.55 5,1.55 5,-0.15"/>
<polygon id="00000179314BEC20" class="l67d20" points="2.5,-0.95 2.5,2.35 5.8,2.35 5.8,-0.95"/>
<polygon id="00000179314BE6E0" class="l67d20" points="2.5,-4.3 2.5,5.7 5.8,5.7 5.8,-4.3"/>
<polygon id="00000179314BEC90" class="l67d44" points="3.3,-1.95 3.3,-0.25 5,-0.25 5,-1.95"/>
<polygon id="00000179314BE750" class="l68d20" points="2.7,-2.55 2.7,0.35 5.6,0.35 5.6,-2.55"/>
<polygon id="00000179314BE440" class="l67d20" points="3.3,-1.95 3.3,-0.25 5,-0.25 5,-1.95"/>
<polygon id="00000179314BDBF0" class="l67d44" points="3.3,1.65 3.3,3.35 5,3.35 5,1.65"/>
<polygon id="00000179314BEDE0" class="l68d20" points="2.7,1.05 2.7,3.95 5.6,3.95 5.6,1.05"/>
<polygon id="00000179314BDDB0" class="l67d20" points="3.3,1.65 3.3,3.35 5,3.35 5,1.65"/>
<polygon id="00000179314BDFE0" class="l68d20" points="2.7,-4.3 2.7,5.7 5.6,5.7 5.6,-4.3"/>
<polygon id="00000179314BEE50" class="l67d20" points="3.3,-1.95 3.3,3.35 5,3.35 5,-1.95"/>
<polygon id="00000179314BD950" class="l66d44" points="-5,-0.15 -5,1.55 -3.3,1.55 -3.3,-0.15"/>
<polygon id="00000179314BDE90" class="l67d20" points="-5.8,-0.95 -5.8,2.35 -2.5,2.35 -2.5,-0.95"/>
<polygon id="00000179314BDB80" class="l67d20" points="-5.8,-4.3 -5.8,5.7 -2.5,5.7 -2.5,-4.3"/>
<polygon id="00000179314BEEC0" class="l67d44" points="-5,-1.95 -5,-0.25 -3.3,-0.25 -3.3,-1.95"/>
<polygon id="00000179314BE7C0" class="l68d20" points="-5.6,-2.55 -5.6,0.35 -2.7,0.35 -2.7,-2.55"/>
<polygon id="00000179314BE520" class="l67d20" points="-5,-1.95 -5,-0.25 -3.3,-0.25 -3.3,-1.95"/>
<polygon id="00000179314BE830" class="l67d44" points="-5,1.65 -5,3.35 -3.3,3.35 -3.3,1.65"/>
<polygon id="00000179314BEF30" class="l68d20" points="-5.6,1.05 -5.6,3.95 -2.7,3.95 -2.7,1.05"/>
<polygon id="00000179314BEAD0" class="l67d20" points="-5,1.65 -5,3.35 -3.3,3.35 -3.3,1.65"/>
<polygon id="00000179314BDB10" class="l68d20" points="-5.6,-4.3 -5.6,5.7 -2.7,5.7 -2.7,-4.3"/>
<polygon id="00000179314BD5D0" class="l67d20" points="-5,-1.95 -5,3.35 -3.3,3.35 -3.3,-1.95"/>
<polygon id="00000179314BD720" class="l93d44" points="-7.7,-5.6 -7.7,7 7.7,7 7.7,-5.6"/>
<polygon id="00000179314BE1A0" class="l65d20" points="-6.4,-4.3 -6.4,5.7 6.4,5.7 6.4,-4.3"/>
<polygon id="00000179314BD640" class="l67d44" points="-5,7.75 -5,9.45 -3.3,9.45 -3.3,7.75"/>
<polygon id="00000179314BEB40" class="l68d20" points="-5.6,7.15 -5.6,10.05 -2.7,10.05 -2.7,7.15"/>
<polygon id="00000179314BE590" class="l67d20" points="-5,7.75 -5,9.45 -3.3,9.45 -3.3,7.75"/>
<polygon id="00000179314BEFA0" class="l68d20" points="-5.6,11.45 -5.6,14.35 5.6,14.35 5.6,11.45"/>
<polygon id="00000179314BD560" class="l68d20" points="-5.6,7.15 -5.6,10.05 5.6,10.05 5.6,7.15"/>
<polygon id="00000179314BE8A0" class="l66d44" points="-0.85,-13.3 -0.85,-11.6 0.85,-11.6 0.85,-13.3"/>
<polygon id="00000179314BD8E0" class="l68d20" points="-1.45,-13.9 -1.45,-11 1.45,-11 1.45,-13.9"/>
<polygon id="00000179314BF010" class="l67d20" points="-1.65,-14.1 -1.65,-10.8 1.65,-10.8 1.65,-14.1"/>
<polygon id="00000179314BE910" class="l67d44" points="-0.85,-13.3 -0.85,-11.6 0.85,-11.6 0.85,-13.3"/>
<polygon id="00000179314BDC60" class="l66d20" points="-1.65,-14.1 -1.65,-10.8 1.65,-10.8 1.65,-14.1"/>
<polygon id="00000179314BE980" class="l68d20" points="-2.5,-14.1 -2.5,-10.8 2.5,-10.8 2.5,-14.1"/>
<polygon id="00000179314BE050" class="l66d20" points="-2.5,-14.1 -2.5,-10.8 2.5,-10.8 2.5,-14.1"/>
<polygon id="00000179314BE280" class="l95d20" points="-1.85,-14.3 1.85,-14.3 1.85,-10.6 -1.85,-10.6"/>
<polygon id="00000179314BE210" class="l67d20" points="2.5,5.7 5.8,5.7 5.8,13.75 2.5,13.75"/>
<polygon id="00000179314BD6B0" class="l67d44" points="3.3,12.05 3.3,13.75 5,13.75 5,12.05"/>
<polygon id="00000179314BE130" class="l68d20" points="2.7,11.45 2.7,14.35 5.6,14.35 5.6,11.45"/>
<polygon id="00000179314BE360" class="l67d20" points="3.3,12.05 3.3,13.75 5,13.75 5,12.05"/>
<polygon id="00000179314BEA60" class="l66d20" points="-2.5,-10.8 2.5,-10.8 2.5,-6.8 -2.5,-6.8"/>
<polygon id="00000179314BE9F0" class="l67d20" points="-5.8,5.7 -2.5,5.7 -2.5,9.45 -5.8,9.45"/>
<polygon id="00000179314BD9C0" class="l95d20" points="-1.85,-14.3 1.85,-14.3 1.85,-10.6 -1.85,-10.6"/>
<polygon id="00000179314BEBB0" class="l65d20" points="27.7,34.35 -27.7,34.35 -27.7,-30.25 -23.6,-30.25 -23.6,30.25 23.6,30.25 23.6,-30.25 -23.6,-30.25 -27.7,-30.25 -27.7,-34.35 27.7,-34.35"/>
<polygon id="00000179314BDD40" class="l68d20" points="23.6,-34.35 27.7,-34.35 27.7,-30.25 23.6,-30.25"/>
<polygon id="00000179314BD480" class="l67d44" points="24.8,-33.15 24.8,-31.45 26.5,-31.45 26.5,-33.15"/>
<polygon id="00000179314BD4F0" class="l68d20" points="24.2,-33.75 24.2,-30.85 27.1,-30.85 27.1,-33.75"/>
<polygon id="00000179314BDA30" class="l67d20" points="24.8,-33.15 24.8,-31.45 26.5,-31.45 26.5,-33.15"/>
<polygon id="00000179314BD790" class="l68d20" points="23.6,-34.35 23.6,-30.25 27.7,-30.25 27.7,-34.35"/>
<polygon id="00000179314BDF70" class="l67d20" points="24.8,-33.15 24.8,-31.45 26.5,-31.45 26.5,-33.15"/>
<polygon id="00000179314BD800" class="l67d20" points="23.6,-34.35 27.7,-34.35 27.7,-30.25 23.6,-30.25"/>
<polygon id="00000179314BDAA0" class="l68d20" points="-27.7,-34.35 -23.6,-34.35 -23.6,-30.25 -27.7,-30.25"/>
<polygon id="00000179314BDCD0" class="l67d44" points="-26.5,-33.15 -26.5,-31.45 -24.8,-31.45 -24.8,-33.15"/>
<polygon id="00000179314BDE20" class="l68d20" points="-27.1,-33.75 -27.1,-30.85 -24.2,-30.85 -24.2,-33.75"/>
<polygon id="00000179314BDF00" class="l67d20" points="-26.5,-33.15 -26.5,-31.45 -24.8,-31.45 -24.8,-33.15"/>
<polygon id="00000179314BFC50" class="l68d20" points="-27.7,-34.35 -27.7,-30.25 -23.6,-30.25 -23.6,-34.35"/>
<polygon id="00000179314BF6A0" class="l67d20" points="-26.5,-33.15 -26.5,-31.45 -24.8,-31.45 -24.8,-33.15"/>
<polygon id="00000179314BFE10" class="l67d20" points="-27.7,-34.35 -23.6,-34.35 -23.6,-30.25 -27.7,-30.25"/>
<polygon id="00000179314BF080" class="l68d20" points="23.6,30.25 27.7,30.25 27.7,34.35 23.6,34.35"/>
<polygon id="00000179314BFE80" class="l67d44" points="24.8,31.45 24.8,33.15 26.5,33.15 26.5,31.45"/>
<polygon id="00000179314BFDA0" class="l68d20" points="24.2,30.85 24.2,33.75 27.1,33.75 27.1,30.85"/>
<polygon id="00000179314BF390" class="l67d20" points="24.8,31.45 24.8,33.15 26.5,33.15 26.5,31.45"/>
<polygon id="00000179314BF550" class="l68d20" points="23.6,30.25 23.6,34.35 27.7,34.35 27.7,30.25"/>
<polygon id="00000179314BF160" class="l67d20" points="24.8,31.45 24.8,33.15 26.5,33.15 26.5,31.45"/>
<polygon id="00000179314BFB00" class="l67d20" points="23.6,30.25 27.7,30.25 27.7,34.35 23.6,34.35"/>
<polygon id="00000179314BF0F0" class="l68d20" points="-27.7,30.25 -23.6,30.25 -23.6,34.35 -27.7,34.35"/>
<polygon id="00000179314BFEF0" class="l67d44" points="-26.5,31.45 -26.5,33.15 -24.8,33.15 -24.8,31.45"/>
<polygon id="00000179314BF2B0" class="l68d20" points="-27.1,30.85 -27.1,33.75 -24.2,33.75 -24.2,30.85"/>
<polygon id="00000179314BFA20" class="l67d20" points="-26.5,31.45 -26.5,33.15 -24.8,33.15 -24.8,31.45"/>
<polygon id="00000179314BF710" class="l68d20" points="-27.7,30.25 -27.7,34.35 -23.6,34.35 -23.6,30.25"/>
<polygon id="00000179314BFF60" class="l67d20" points="-26.5,31.45 -26.5,33.15 -24.8,33.15 -24.8,31.45"/>
<polygon id="00000179314BF1D0" class="l67d20" points="-27.7,30.25 -23.6,30.25 -23.6,34.35 -27.7,34.35"/>
<polygon id="00000179314BFD30" class="l66d44" points="-26.5,-26.35 -26.5,-24.65 -24.8,-24.65 -24.8,-26.35"/>
<polygon id="00000179314BF7F0" class="l67d20" points="-27.3,-27.15 -27.3,-23.85 -24,-23.85 -24,-27.15"/>
<polygon id="00000179314BF240" class="l65d20" points="-27.7,-27.55 -27.7,-23.45 -23.6,-23.45 -23.6,-27.55"/>
<polygon id="00000179314BFBE0" class="l66d44" points="-26.5,24.65 -26.5,26.35 -24.8,26.35 -24.8,24.65"/>
<polygon id="00000179314BFCC0" class="l67d20" points="-27.3,23.85 -27.3,27.15 -24,27.15 -24,23.85"/>
<polygon id="00000179314BF320" class="l65d20" points="-27.7,23.45 -27.7,27.55 -23.6,27.55 -23.6,23.45"/>
<polygon id="00000179314BFB70" class="l66d44" points="-26.5,21.25 -26.5,22.95 -24.8,22.95 -24.8,21.25"/>
<polygon id="00000179314BF860" class="l67d20" points="-27.3,20.45 -27.3,23.75 -24,23.75 -24,20.45"/>
<polygon id="00000179314BF5C0" class="l65d20" points="-27.7,20.05 -27.7,24.15 -23.6,24.15 -23.6,20.05"/>
<polygon id="00000179314BF400" class="l66d44" points="-26.5,17.85 -26.5,19.55 -24.8,19.55 -24.8,17.85"/>
<polygon id="00000179314BF940" class="l67d20" points="-27.3,17.05 -27.3,20.35 -24,20.35 -24,17.05"/>
<polygon id="00000179314BF470" class="l65d20" points="-27.7,16.65 -27.7,20.75 -23.6,20.75 -23.6,16.65"/>
<polygon id="00000179314BFA90" class="l66d44" points="-26.5,14.45 -26.5,16.15 -24.8,16.15 -24.8,14.45"/>
<polygon id="00000179314BF4E0" class="l67d20" points="-27.3,13.65 -27.3,16.95 -24,16.95 -24,13.65"/>
<polygon id="00000179314BF630" class="l65d20" points="-27.7,13.25 -27.7,17.35 -23.6,17.35 -23.6,13.25"/>
<polygon id="00000179314BF780" class="l66d44" points="-26.5,11.05 -26.5,12.75 -24.8,12.75 -24.8,11.05"/>
<polygon id="00000179314BF8D0" class="l67d20" points="-27.3,10.25 -27.3,13.55 -24,13.55 -24,10.25"/>
<polygon id="00000179314BF9B0" class="l65d20" points="-27.7,9.85 -27.7,13.95 -23.6,13.95 -23.6,9.85"/>
<polygon id="00000179314B8710" class="l66d44" points="-26.5,7.65 -26.5,9.35 -24.8,9.35 -24.8,7.65"/>
<polygon id="00000179314B90B0" class="l67d20" points="-27.3,6.85 -27.3,10.15 -24,10.15 -24,6.85"/>
<polygon id="00000179314B86A0" class="l65d20" points="-27.7,6.45 -27.7,10.55 -23.6,10.55 -23.6,6.45"/>
<polygon id="00000179314B8B70" class="l66d44" points="-26.5,4.25 -26.5,5.95 -24.8,5.95 -24.8,4.25"/>
<polygon id="00000179314B9AC0" class="l67d20" points="-27.3,3.45 -27.3,6.75 -24,6.75 -24,3.45"/>
<polygon id="00000179314B93C0" class="l65d20" points="-27.7,3.05 -27.7,7.15 -23.6,7.15 -23.6,3.05"/>
<polygon id="00000179314B8860" class="l66d44" points="-26.5,0.85 -26.5,2.55 -24.8,2.55 -24.8,0.85"/>
<polygon id="00000179314B97B0" class="l67d20" points="-27.3,0.05 -27.3,3.35 -24,3.35 -24,0.05"/>
<polygon id="00000179314B8DA0" class="l65d20" points="-27.7,-0.35 -27.7,3.75 -23.6,3.75 -23.6,-0.35"/>
<polygon id="00000179314B9190" class="l66d44" points="-26.5,-2.55 -26.5,-0.85 -24.8,-0.85 -24.8,-2.55"/>
<polygon id="00000179314B9350" class="l67d20" points="-27.3,-3.35 -27.3,-0.05 -24,-0.05 -24,-3.35"/>
<polygon id="00000179314B8D30" class="l65d20" points="-27.7,-3.75 -27.7,0.35 -23.6,0.35 -23.6,-3.75"/>
<polygon id="00000179314B8780" class="l66d44" points="-26.5,-5.95 -26.5,-4.25 -24.8,-4.25 -24.8,-5.95"/>
<polygon id="00000179314B99E0" class="l67d20" points="-27.3,-6.75 -27.3,-3.45 -24,-3.45 -24,-6.75"/>
<polygon id="00000179314B9430" class="l65d20" points="-27.7,-7.15 -27.7,-3.05 -23.6,-3.05 -23.6,-7.15"/>
<polygon id="00000179314B8E10" class="l66d44" points="-26.5,-9.35 -26.5,-7.65 -24.8,-7.65 -24.8,-9.35"/>
<polygon id="00000179314B87F0" class="l67d20" points="-27.3,-10.15 -27.3,-6.85 -24,-6.85 -24,-10.15"/>
<polygon id="00000179314B89B0" class="l65d20" points="-27.7,-10.55 -27.7,-6.45 -23.6,-6.45 -23.6,-10.55"/>
<polygon id="00000179314B8160" class="l66d44" points="-26.5,-12.75 -26.5,-11.05 -24.8,-11.05 -24.8,-12.75"/>
<polygon id="00000179314B8400" class="l67d20" points="-27.3,-13.55 -27.3,-10.25 -24,-10.25 -24,-13.55"/>
<polygon id="00000179314B88D0" class="l65d20" points="-27.7,-13.95 -27.7,-9.85 -23.6,-9.85 -23.6,-13.95"/>
<polygon id="00000179314B80F0" class="l66d44" points="-26.5,-16.15 -26.5,-14.45 -24.8,-14.45 -24.8,-16.15"/>
<polygon id="00000179314B8A20" class="l67d20" points="-27.3,-16.95 -27.3,-13.65 -24,-13.65 -24,-16.95"/>
<polygon id="00000179314B81D0" class="l65d20" points="-27.7,-17.35 -27.7,-13.25 -23.6,-13.25 -23.6,-17.35"/>
<polygon id="00000179314B85C0" class="l66d44" points="-26.5,-19.55 -26.5,-17.85 -24.8,-17.85 -24.8,-19.55"/>
<polygon id="00000179314B9890" class="l67d20" points="-27.3,-20.35 -27.3,-17.05 -24,-17.05 -24,-20.35"/>
<polygon id="00000179314B94A0" class="l65d20" points="-27.7,-20.75 -27.7,-16.65 -23.6,-16.65 -23.6,-20.75"/>
<polygon id="00000179314B9C10" class="l66d44" points="-26.5,-22.95 -26.5,-21.25 -24.8,-21.25 -24.8,-22.95"/>
<polygon id="00000179314B92E0" class="l67d20" points="-27.3,-23.75 -27.3,-20.45 -24,-20.45 -24,-23.75"/>
<polygon id="00000179314B84E0" class="l65d20" points="-27.7,-24.15 -27.7,-20.05 -23.6,-20.05 -23.6,-24.15"/>
<polygon id="00000179314B8940" class="l67d20" points="-27.7,-30.25 -27.7,30.25 -23.6,30.25 -23.6,-30.25"/>
<polygon id="00000179314B8A90" class="l65d20" points="-27.7,-27.55 -27.7,27.55 -23.6,27.55 -23.6,-27.55"/>
<polygon id="00000179314B8FD0" class="l66d44" points="-18.35,-33.15 -18.35,-31.45 -16.65,-31.45 -16.65,-33.15"/>
<polygon id="00000179314B8240" class="l68d20" points="-18.95,-33.75 -18.95,-30.85 -16.05,-30.85 -16.05,-33.75"/>
<polygon id="00000179314B9660" class="l67d20" points="-19.15,-33.95 -19.15,-30.65 -15.85,-30.65 -15.85,-33.95"/>
<polygon id="00000179314B8550" class="l67d44" points="-18.35,-33.15 -18.35,-31.45 -16.65,-31.45 -16.65,-33.15"/>
<polygon id="00000179314B8E80" class="l65d20" points="-19.55,-34.35 -19.55,-30.25 -15.45,-30.25 -15.45,-34.35"/>
<polygon id="00000179314B9510" class="l66d44" points="16.65,-33.15 16.65,-31.45 18.35,-31.45 18.35,-33.15"/>
<polygon id="00000179314B9BA0" class="l68d20" points="16.05,-33.75 16.05,-30.85 18.95,-30.85 18.95,-33.75"/>
<polygon id="00000179314B9270" class="l67d20" points="15.85,-33.95 15.85,-30.65 19.15,-30.65 19.15,-33.95"/>
<polygon id="00000179314B9900" class="l67d44" points="16.65,-33.15 16.65,-31.45 18.35,-31.45 18.35,-33.15"/>
<polygon id="00000179314B9200" class="l65d20" points="15.45,-34.35 15.45,-30.25 19.55,-30.25 19.55,-34.35"/>
<polygon id="00000179314B9040" class="l66d44" points="11.65,-33.15 11.65,-31.45 13.35,-31.45 13.35,-33.15"/>
<polygon id="00000179314B9B30" class="l68d20" points="11.05,-33.75 11.05,-30.85 13.95,-30.85 13.95,-33.75"/>
<polygon id="00000179314B9580" class="l67d20" points="10.85,-33.95 10.85,-30.65 14.15,-30.65 14.15,-33.95"/>
<polygon id="00000179314B8B00" class="l67d44" points="11.65,-33.15 11.65,-31.45 13.35,-31.45 13.35,-33.15"/>
<polygon id="00000179314B8BE0" class="l65d20" points="10.45,-34.35 10.45,-30.25 14.55,-30.25 14.55,-34.35"/>
<polygon id="00000179314B8EF0" class="l66d44" points="6.65,-33.15 6.65,-31.45 8.35,-31.45 8.35,-33.15"/>
<polygon id="00000179314B95F0" class="l68d20" points="6.05,-33.75 6.05,-30.85 8.95,-30.85 8.95,-33.75"/>
<polygon id="00000179314B8F60" class="l67d20" points="5.85,-33.95 5.85,-30.65 9.15,-30.65 9.15,-33.95"/>
<polygon id="00000179314B96D0" class="l67d44" points="6.65,-33.15 6.65,-31.45 8.35,-31.45 8.35,-33.15"/>
<polygon id="00000179314B9820" class="l65d20" points="5.45,-34.35 5.45,-30.25 9.55,-30.25 9.55,-34.35"/>
<polygon id="00000179314B8080" class="l66d44" points="1.65,-33.15 1.65,-31.45 3.35,-31.45 3.35,-33.15"/>
<polygon id="00000179314B9740" class="l68d20" points="1.05,-33.75 1.05,-30.85 3.95,-30.85 3.95,-33.75"/>
<polygon id="00000179314B9120" class="l67d20" points="0.85,-33.95 0.85,-30.65 4.15,-30.65 4.15,-33.95"/>
<polygon id="00000179314B9970" class="l67d44" points="1.65,-33.15 1.65,-31.45 3.35,-31.45 3.35,-33.15"/>
<polygon id="00000179314B9A50" class="l65d20" points="0.45,-34.35 0.45,-30.25 4.55,-30.25 4.55,-34.35"/>
<polygon id="00000179314B82B0" class="l66d44" points="-3.35,-33.15 -3.35,-31.45 -1.65,-31.45 -1.65,-33.15"/>
<polygon id="00000179314B8C50" class="l68d20" points="-3.95,-33.75 -3.95,-30.85 -1.05,-30.85 -1.05,-33.75"/>
<polygon id="00000179314B8320" class="l67d20" points="-4.15,-33.95 -4.15,-30.65 -0.85,-30.65 -0.85,-33.95"/>
<polygon id="00000179314B8390" class="l67d44" points="-3.35,-33.15 -3.35,-31.45 -1.65,-31.45 -1.65,-33.15"/>
<polygon id="00000179314B8470" class="l65d20" points="-4.55,-34.35 -4.55,-30.25 -0.45,-30.25 -0.45,-34.35"/>
<polygon id="00000179314B8630" class="l66d44" points="-8.35,-33.15 -8.35,-31.45 -6.65,-31.45 -6.65,-33.15"/>
<polygon id="00000179314B8CC0" class="l68d20" points="-8.95,-33.75 -8.95,-30.85 -6.05,-30.85 -6.05,-33.75"/>
<polygon id="00000179314BABD0" class="l67d20" points="-9.15,-33.95 -9.15,-30.65 -5.85,-30.65 -5.85,-33.95"/>
<polygon id="00000179314BB490" class="l67d44" points="-8.35,-33.15 -8.35,-31.45 -6.65,-31.45 -6.65,-33.15"/>
<polygon id="00000179314B9D60" class="l65d20" points="-9.55,-34.35 -9.55,-30.25 -5.45,-30.25 -5.45,-34.35"/>
<polygon id="00000179314BAC40" class="l66d44" points="-13.35,-33.15 -13.35,-31.45 -11.65,-31.45 -11.65,-33.15"/>
<polygon id="00000179314BAA10" class="l68d20" points="-13.95,-33.75 -13.95,-30.85 -11.05,-30.85 -11.05,-33.75"/>
<polygon id="00000179314BA150" class="l67d20" points="-14.15,-33.95 -14.15,-30.65 -10.85,-30.65 -10.85,-33.95"/>
<polygon id="00000179314B9F90" class="l67d44" points="-13.35,-33.15 -13.35,-31.45 -11.65,-31.45 -11.65,-33.15"/>
<polygon id="00000179314BA4D0" class="l65d20" points="-14.55,-34.35 -14.55,-30.25 -10.45,-30.25 -10.45,-34.35"/>
<polygon id="00000179314BAE00" class="l67d20" points="-19.15,-33.95 -19.15,-30.65 19.15,-30.65 19.15,-33.95"/>
<polygon id="00000179314BACB0" class="l68d20" points="-23.6,-34.35 -23.6,-30.25 23.6,-30.25 23.6,-34.35"/>
<polygon id="00000179314BA7E0" class="l65d20" points="-19.55,-34.35 -19.55,-30.25 19.55,-30.25 19.55,-34.35"/>
<polygon id="00000179314BB570" class="l66d44" points="24.8,-26.35 24.8,-24.65 26.5,-24.65 26.5,-26.35"/>
<polygon id="00000179314BB0A0" class="l67d20" points="24,-27.15 24,-23.85 27.3,-23.85 27.3,-27.15"/>
<polygon id="00000179314BAEE0" class="l65d20" points="23.6,-27.55 23.6,-23.45 27.7,-23.45 27.7,-27.55"/>
<polygon id="00000179314BA540" class="l66d44" points="24.8,24.65 24.8,26.35 26.5,26.35 26.5,24.65"/>
<polygon id="00000179314BA0E0" class="l67d20" points="24,23.85 24,27.15 27.3,27.15 27.3,23.85"/>
<polygon id="00000179314BA070" class="l65d20" points="23.6,23.45 23.6,27.55 27.7,27.55 27.7,23.45"/>
<polygon id="00000179314B9C80" class="l66d44" points="24.8,21.25 24.8,22.95 26.5,22.95 26.5,21.25"/>
<polygon id="00000179314BA3F0" class="l67d20" points="24,20.45 24,23.75 27.3,23.75 27.3,20.45"/>
<polygon id="00000179314B9CF0" class="l65d20" points="23.6,20.05 23.6,24.15 27.7,24.15 27.7,20.05"/>
<polygon id="00000179314B9DD0" class="l66d44" points="24.8,17.85 24.8,19.55 26.5,19.55 26.5,17.85"/>
<polygon id="00000179314BA380" class="l67d20" points="24,17.05 24,20.35 27.3,20.35 27.3,17.05"/>
<polygon id="00000179314BAA80" class="l65d20" points="23.6,16.65 23.6,20.75 27.7,20.75 27.7,16.65"/>
<polygon id="00000179314BA230" class="l66d44" points="24.8,14.45 24.8,16.15 26.5,16.15 26.5,14.45"/>
<polygon id="00000179314BA2A0" class="l67d20" points="24,13.65 24,16.95 27.3,16.95 27.3,13.65"/>
<polygon id="00000179314BAD20" class="l65d20" points="23.6,13.25 23.6,17.35 27.7,17.35 27.7,13.25"/>
<polygon id="00000179314BAFC0" class="l66d44" points="24.8,11.05 24.8,12.75 26.5,12.75 26.5,11.05"/>
<polygon id="00000179314BB110" class="l67d20" points="24,10.25 24,13.55 27.3,13.55 27.3,10.25"/>
<polygon id="00000179314BA620" class="l65d20" points="23.6,9.85 23.6,13.95 27.7,13.95 27.7,9.85"/>
<polygon id="00000179314BA850" class="l66d44" points="24.8,7.65 24.8,9.35 26.5,9.35 26.5,7.65"/>
<polygon id="00000179314BA310" class="l67d20" points="24,6.85 24,10.15 27.3,10.15 27.3,6.85"/>
<polygon id="00000179314BA460" class="l65d20" points="23.6,6.45 23.6,10.55 27.7,10.55 27.7,6.45"/>
<polygon id="00000179314BAE70" class="l66d44" points="24.8,4.25 24.8,5.95 26.5,5.95 26.5,4.25"/>
<polygon id="00000179314B9E40" class="l67d20" points="24,3.45 24,6.75 27.3,6.75 27.3,3.45"/>
<polygon id="00000179314B9EB0" class="l65d20" points="23.6,3.05 23.6,7.15 27.7,7.15 27.7,3.05"/>
<polygon id="00000179314BA5B0" class="l66d44" points="24.8,0.85 24.8,2.55 26.5,2.55 26.5,0.85"/>
<polygon id="00000179314BA8C0" class="l67d20" points="24,0.05 24,3.35 27.3,3.35 27.3,0.05"/>
<polygon id="00000179314BA1C0" class="l65d20" points="23.6,-0.35 23.6,3.75 27.7,3.75 27.7,-0.35"/>
<polygon id="00000179314BA690" class="l66d44" points="24.8,-2.55 24.8,-0.85 26.5,-0.85 26.5,-2.55"/>
<polygon id="00000179314B9F20" class="l67d20" points="24,-3.35 24,-0.05 27.3,-0.05 27.3,-3.35"/>
<polygon id="00000179314BAF50" class="l65d20" points="23.6,-3.75 23.6,0.35 27.7,0.35 27.7,-3.75"/>
<polygon id="00000179314BA000" class="l66d44" points="24.8,-5.95 24.8,-4.25 26.5,-4.25 26.5,-5.95"/>
<polygon id="00000179314BB1F0" class="l67d20" points="24,-6.75 24,-3.45 27.3,-3.45 27.3,-6.75"/>
<polygon id="00000179314BA700" class="l65d20" points="23.6,-7.15 23.6,-3.05 27.7,-3.05 27.7,-7.15"/>
<polygon id="00000179314BAD90" class="l66d44" points="24.8,-9.35 24.8,-7.65 26.5,-7.65 26.5,-9.35"/>
<polygon id="00000179314BA770" class="l67d20" points="24,-10.15 24,-6.85 27.3,-6.85 27.3,-10.15"/>
<polygon id="00000179314BB3B0" class="l65d20" points="23.6,-10.55 23.6,-6.45 27.7,-6.45 27.7,-10.55"/>
<polygon id="00000179314BB5E0" class="l66d44" points="24.8,-12.75 24.8,-11.05 26.5,-11.05 26.5,-12.75"/>
<polygon id="00000179314BB180" class="l67d20" points="24,-13.55 24,-10.25 27.3,-10.25 27.3,-13.55"/>
<polygon id="00000179314BA930" class="l65d20" points="23.6,-13.95 23.6,-9.85 27.7,-9.85 27.7,-13.95"/>
<polygon id="00000179314BB730" class="l66d44" points="24.8,-16.15 24.8,-14.45 26.5,-14.45 26.5,-16.15"/>
<polygon id="00000179314BB030" class="l67d20" points="24,-16.95 24,-13.65 27.3,-13.65 27.3,-16.95"/>
<polygon id="00000179314BB260" class="l65d20" points="23.6,-17.35 23.6,-13.25 27.7,-13.25 27.7,-17.35"/>
<polygon id="00000179314BB420" class="l66d44" points="24.8,-19.55 24.8,-17.85 26.5,-17.85 26.5,-19.55"/>
<polygon id="00000179314BAAF0" class="l67d20" points="24,-20.35 24,-17.05 27.3,-17.05 27.3,-20.35"/>
<polygon id="00000179314BA9A0" class="l65d20" points="23.6,-20.75 23.6,-16.65 27.7,-16.65 27.7,-20.75"/>
<polygon id="00000179314BAB60" class="l66d44" points="24.8,-22.95 24.8,-21.25 26.5,-21.25 26.5,-22.95"/>
<polygon id="00000179314BB2D0" class="l67d20" points="24,-23.75 24,-20.45 27.3,-20.45 27.3,-23.75"/>
<polygon id="00000179314BB340" class="l65d20" points="23.6,-24.15 23.6,-20.05 27.7,-20.05 27.7,-24.15"/>
<polygon id="00000179314BB500" class="l67d20" points="23.6,-30.25 23.6,30.25 27.7,30.25 27.7,-30.25"/>
<polygon id="00000179314BB650" class="l65d20" points="23.6,-27.55 23.6,27.55 27.7,27.55 27.7,-27.55"/>
<polygon id="00000179314BB6C0" class="l66d44" points="-18.35,31.45 -18.35,33.15 -16.65,33.15 -16.65,31.45"/>
<polygon id="00000179314BB7A0" class="l68d20" points="-18.95,30.85 -18.95,33.75 -16.05,33.75 -16.05,30.85"/>
<polygon id="00000179314BB810" class="l67d20" points="-19.15,30.65 -19.15,33.95 -15.85,33.95 -15.85,30.65"/>
<polygon id="000001793134ED30" class="l67d44" points="-18.35,31.45 -18.35,33.15 -16.65,33.15 -16.65,31.45"/>
<polygon id="000001793134E940" class="l65d20" points="-19.55,30.25 -19.55,34.35 -15.45,34.35 -15.45,30.25"/>
<polygon id="000001793134D9F0" class="l66d44" points="16.65,31.45 16.65,33.15 18.35,33.15 18.35,31.45"/>
<polygon id="000001793134E390" class="l68d20" points="16.05,30.85 16.05,33.75 18.95,33.75 18.95,30.85"/>
<polygon id="000001793134D980" class="l67d20" points="15.85,30.65 15.85,33.95 19.15,33.95 19.15,30.65"/>
<polygon id="000001793134DE50" class="l67d44" points="16.65,31.45 16.65,33.15 18.35,33.15 18.35,31.45"/>
<polygon id="000001793134EDA0" class="l65d20" points="15.45,30.25 15.45,34.35 19.55,34.35 19.55,30.25"/>
<polygon id="000001793134E6A0" class="l66d44" points="11.65,31.45 11.65,33.15 13.35,33.15 13.35,31.45"/>
<polygon id="000001793134DB40" class="l68d20" points="11.05,30.85 11.05,33.75 13.95,33.75 13.95,30.85"/>
<polygon id="000001793134EA90" class="l67d20" points="10.85,30.65 10.85,33.95 14.15,33.95 14.15,30.65"/>
<polygon id="000001793134E080" class="l67d44" points="11.65,31.45 11.65,33.15 13.35,33.15 13.35,31.45"/>
<polygon id="000001793134E470" class="l65d20" points="10.45,30.25 10.45,34.35 14.55,34.35 14.55,30.25"/>
<polygon id="000001793134E630" class="l66d44" points="6.65,31.45 6.65,33.15 8.35,33.15 8.35,31.45"/>
<polygon id="000001793134E010" class="l68d20" points="6.05,30.85 6.05,33.75 8.95,33.75 8.95,30.85"/>
<polygon id="000001793134DA60" class="l67d20" points="5.85,30.65 5.85,33.95 9.15,33.95 9.15,30.65"/>
<polygon id="000001793134ECC0" class="l67d44" points="6.65,31.45 6.65,33.15 8.35,33.15 8.35,31.45"/>
<polygon id="000001793134E710" class="l65d20" points="5.45,30.25 5.45,34.35 9.55,34.35 9.55,30.25"/>
<polygon id="000001793134E0F0" class="l66d44" points="1.65,31.45 1.65,33.15 3.35,33.15 3.35,31.45"/>
<polygon id="000001793134DAD0" class="l68d20" points="1.05,30.85 1.05,33.75 3.95,33.75 3.95,30.85"/>
<polygon id="000001793134DC90" class="l67d20" points="0.85,30.65 0.85,33.95 4.15,33.95 4.15,30.65"/>
<polygon id="000001793134D440" class="l67d44" points="1.65,31.45 1.65,33.15 3.35,33.15 3.35,31.45"/>
<polygon id="000001793134D6E0" class="l65d20" points="0.45,30.25 0.45,34.35 4.55,34.35 4.55,30.25"/>
<polygon id="000001793134DBB0" class="l66d44" points="-3.35,31.45 -3.35,33.15 -1.65,33.15 -1.65,31.45"/>
<polygon id="000001793134DC20" class="l68d20" points="-3.95,30.85 -3.95,33.75 -1.05,33.75 -1.05,30.85"/>
<polygon id="000001793134DD00" class="l67d20" points="-4.15,30.65 -4.15,33.95 -0.85,33.95 -0.85,30.65"/>
<polygon id="000001793134E4E0" class="l67d44" points="-3.35,31.45 -3.35,33.15 -1.65,33.15 -1.65,31.45"/>
<polygon id="000001793134D3D0" class="l65d20" points="-4.55,30.25 -4.55,34.35 -0.45,34.35 -0.45,30.25"/>
<polygon id="000001793134D4B0" class="l66d44" points="-8.35,31.45 -8.35,33.15 -6.65,33.15 -6.65,31.45"/>
<polygon id="000001793134DD70" class="l68d20" points="-8.95,30.85 -8.95,33.75 -6.05,33.75 -6.05,30.85"/>
<polygon id="000001793134DFA0" class="l67d20" points="-9.15,30.65 -9.15,33.95 -5.85,33.95 -5.85,30.65"/>
<polygon id="000001793134D830" class="l67d44" points="-8.35,31.45 -8.35,33.15 -6.65,33.15 -6.65,31.45"/>
<polygon id="000001793134DDE0" class="l65d20" points="-9.55,30.25 -9.55,34.35 -5.45,34.35 -5.45,30.25"/>
<polygon id="000001793134D520" class="l66d44" points="-13.35,31.45 -13.35,33.15 -11.65,33.15 -11.65,31.45"/>
<polygon id="000001793134E5C0" class="l68d20" points="-13.95,30.85 -13.95,33.75 -11.05,33.75 -11.05,30.85"/>
<polygon id="000001793134D590" class="l67d20" points="-14.15,30.65 -14.15,33.95 -10.85,33.95 -10.85,30.65"/>
<polygon id="000001793134DEC0" class="l67d44" points="-13.35,31.45 -13.35,33.15 -11.65,33.15 -11.65,31.45"/>
<polygon id="000001793134EE10" class="l65d20" points="-14.55,30.25 -14.55,34.35 -10.45,34.35 -10.45,30.25"/>
<polygon id="000001793134DF30" class="l67d20" points="-19.15,30.65 -19.15,33.95 19.15,33.95 19.15,30.65"/>
<polygon id="000001793134E160" class="l68d20" points="-23.6,30.25 -23.6,34.35 23.6,34.35 23.6,30.25"/>
<polygon id="000001793134D750" class="l65d20" points="-19.55,30.25 -19.55,34.35 19.55,34.35 19.55,30.25"/>
<polygon id="000001793134EEF0" class="l94d20" points="29,35.65 -29,35.65 -29,-28.95 -22.3,-28.95 -22.3,28.95 22.3,28.95 22.3,-28.95 -22.3,-28.95 -29,-28.95 -29,-35.65 29,-35.65"/>
<polygon id="000001793134D7C0" class="l65d20" points="17.1,23.75 -17.1,23.75 -17.1,-19.65 -13,-19.65 -13,19.65 13,19.65 13,-19.65 -13,-19.65 -17.1,-19.65 -17.1,-23.75 17.1,-23.75"/>
<polygon id="000001793134E1D0" class="l68d20" points="13,-23.75 17.1,-23.75 17.1,-19.65 13,-19.65"/>
<polygon id="000001793134D600" class="l67d44" points="14.2,-22.55 14.2,-20.85 15.9,-20.85 15.9,-22.55"/>
<polygon id="000001793134EB70" class="l68d20" points="13.6,-23.15 13.6,-20.25 16.5,-20.25 16.5,-23.15"/>
<polygon id="000001793134E9B0" class="l67d20" points="14.2,-22.55 14.2,-20.85 15.9,-20.85 15.9,-22.55"/>
<polygon id="000001793134E240" class="l68d20" points="13,-23.75 13,-19.65 17.1,-19.65 17.1,-23.75"/>
<polygon id="000001793134E2B0" class="l67d20" points="14.2,-22.55 14.2,-20.85 15.9,-20.85 15.9,-22.55"/>
<polygon id="000001793134E550" class="l67d20" points="13,-23.75 17.1,-23.75 17.1,-19.65 13,-19.65"/>
<polygon id="000001793134E780" class="l68d20" points="-17.1,-23.75 -13,-23.75 -13,-19.65 -17.1,-19.65"/>
<polygon id="000001793134E320" class="l67d44" points="-15.9,-22.55 -15.9,-20.85 -14.2,-20.85 -14.2,-22.55"/>
<polygon id="000001793134E7F0" class="l68d20" points="-16.5,-23.15 -16.5,-20.25 -13.6,-20.25 -13.6,-23.15"/>
<polygon id="000001793134E860" class="l67d20" points="-15.9,-22.55 -15.9,-20.85 -14.2,-20.85 -14.2,-22.55"/>
<polygon id="000001793134E400" class="l68d20" points="-17.1,-23.75 -17.1,-19.65 -13,-19.65 -13,-23.75"/>
<polygon id="000001793134EE80" class="l67d20" points="-15.9,-22.55 -15.9,-20.85 -14.2,-20.85 -14.2,-22.55"/>
<polygon id="000001793134D670" class="l67d20" points="-17.1,-23.75 -13,-23.75 -13,-19.65 -17.1,-19.65"/>
<polygon id="000001793134E8D0" class="l68d20" points="13,19.65 17.1,19.65 17.1,23.75 13,23.75"/>
<polygon id="000001793134EA20" class="l67d44" points="14.2,20.85 14.2,22.55 15.9,22.55 15.9,20.85"/>
<polygon id="000001793134EB00" class="l68d20" points="13.6,20.25 13.6,23.15 16.5,23.15 16.5,20.25"/>
<polygon id="000001793134D8A0" class="l67d20" points="14.2,20.85 14.2,22.55 15.9,22.55 15.9,20.85"/>
<polygon id="000001793134EBE0" class="l68d20" points="13,19.65 13,23.75 17.1,23.75 17.1,19.65"/>
<polygon id="000001793134EC50" class="l67d20" points="14.2,20.85 14.2,22.55 15.9,22.55 15.9,20.85"/>
<polygon id="000001793134D360" class="l67d20" points="13,19.65 17.1,19.65 17.1,23.75 13,23.75"/>
<polygon id="000001793134D910" class="l68d20" points="-17.1,19.65 -13,19.65 -13,23.75 -17.1,23.75"/>
<polygon id="000001793134F190" class="l67d44" points="-15.9,20.85 -15.9,22.55 -14.2,22.55 -14.2,20.85"/>
<polygon id="00000179313502A0" class="l68d20" points="-16.5,20.25 -16.5,23.15 -13.6,23.15 -13.6,20.25"/>
<polygon id="000001793134EFD0" class="l67d20" points="-15.9,20.85 -15.9,22.55 -14.2,22.55 -14.2,20.85"/>
<polygon id="00000179313508C0" class="l68d20" points="-17.1,19.65 -17.1,23.75 -13,23.75 -13,19.65"/>
<polygon id="0000017931350770" class="l67d20" points="-15.9,20.85 -15.9,22.55 -14.2,22.55 -14.2,20.85"/>
<polygon id="000001793134F6D0" class="l67d20" points="-17.1,19.65 -13,19.65 -13,23.75 -17.1,23.75"/>
<polygon id="000001793134FD60" class="l66d44" points="-15.9,-16.15 -15.9,-14.45 -14.2,-14.45 -14.2,-16.15"/>
<polygon id="000001793134F430" class="l67d20" points="-16.7,-16.95 -16.7,-13.65 -13.4,-13.65 -13.4,-16.95"/>
<polygon id="0000017931350310" class="l65d20" points="-17.1,-17.35 -17.1,-13.25 -13,-13.25 -13,-17.35"/>
<polygon id="000001793134F200" class="l66d44" points="-15.9,14.45 -15.9,16.15 -14.2,16.15 -14.2,14.45"/>
<polygon id="00000179313503F0" class="l67d20" points="-16.7,13.65 -16.7,16.95 -13.4,16.95 -13.4,13.65"/>
<polygon id="000001793134F7B0" class="l65d20" points="-17.1,13.25 -17.1,17.35 -13,17.35 -13,13.25"/>
<polygon id="0000017931350070" class="l66d44" points="-15.9,11.05 -15.9,12.75 -14.2,12.75 -14.2,11.05"/>
<polygon id="000001793134F4A0" class="l67d20" points="-16.7,10.25 -16.7,13.55 -13.4,13.55 -13.4,10.25"/>
<polygon id="000001793134F120" class="l65d20" points="-17.1,9.85 -17.1,13.95 -13,13.95 -13,9.85"/>
<polygon id="000001793134F040" class="l66d44" points="-15.9,7.65 -15.9,9.35 -14.2,9.35 -14.2,7.65"/>
<polygon id="000001793134F510" class="l67d20" points="-16.7,6.85 -16.7,10.15 -13.4,10.15 -13.4,6.85"/>
<polygon id="00000179313507E0" class="l65d20" points="-17.1,6.45 -17.1,10.55 -13,10.55 -13,6.45"/>
<polygon id="0000017931350230" class="l66d44" points="-15.9,4.25 -15.9,5.95 -14.2,5.95 -14.2,4.25"/>
<polygon id="0000017931350AF0" class="l67d20" points="-16.7,3.45 -16.7,6.75 -13.4,6.75 -13.4,3.45"/>
<polygon id="00000179313501C0" class="l65d20" points="-17.1,3.05 -17.1,7.15 -13,7.15 -13,3.05"/>
<polygon id="000001793134F3C0" class="l66d44" points="-15.9,0.85 -15.9,2.55 -14.2,2.55 -14.2,0.85"/>
<polygon id="000001793134F820" class="l67d20" points="-16.7,0.05 -16.7,3.35 -13.4,3.35 -13.4,0.05"/>
<polygon id="000001793134F5F0" class="l65d20" points="-17.1,-0.35 -17.1,3.75 -13,3.75 -13,-0.35"/>
<polygon id="000001793134FEB0" class="l66d44" points="-15.9,-2.55 -15.9,-0.85 -14.2,-0.85 -14.2,-2.55"/>
<polygon id="000001793134F0B0" class="l67d20" points="-16.7,-3.35 -16.7,-0.05 -13.4,-0.05 -13.4,-3.35"/>
<polygon id="0000017931350540" class="l65d20" points="-17.1,-3.75 -17.1,0.35 -13,0.35 -13,-3.75"/>
<polygon id="0000017931350150" class="l66d44" points="-15.9,-5.95 -15.9,-4.25 -14.2,-4.25 -14.2,-5.95"/>
<polygon id="000001793134FF20" class="l67d20" points="-16.7,-6.75 -16.7,-3.45 -13.4,-3.45 -13.4,-6.75"/>
<polygon id="000001793134FDD0" class="l65d20" points="-17.1,-7.15 -17.1,-3.05 -13,-3.05 -13,-7.15"/>
<polygon id="0000017931350700" class="l66d44" points="-15.9,-9.35 -15.9,-7.65 -14.2,-7.65 -14.2,-9.35"/>
<polygon id="000001793134FBA0" class="l67d20" points="-16.7,-10.15 -16.7,-6.85 -13.4,-6.85 -13.4,-10.15"/>
<polygon id="0000017931350380" class="l65d20" points="-17.1,-10.55 -17.1,-6.45 -13,-6.45 -13,-10.55"/>
<polygon id="000001793134F900" class="l66d44" points="-15.9,-12.75 -15.9,-11.05 -14.2,-11.05 -14.2,-12.75"/>
<polygon id="000001793134F270" class="l67d20" points="-16.7,-13.55 -16.7,-10.25 -13.4,-10.25 -13.4,-13.55"/>
<polygon id="0000017931350850" class="l65d20" points="-17.1,-13.95 -17.1,-9.85 -13,-9.85 -13,-13.95"/>
<polygon id="000001793134F740" class="l67d20" points="-17.1,-19.65 -17.1,19.65 -13,19.65 -13,-19.65"/>
<polygon id="0000017931350930" class="l65d20" points="-17.1,-17.35 -17.1,17.35 -13,17.35 -13,-17.35"/>
<polygon id="000001793134F890" class="l66d44" points="-5.85,-22.55 -5.85,-20.85 -4.15,-20.85 -4.15,-22.55"/>
<polygon id="000001793134FAC0" class="l68d20" points="-6.45,-23.15 -6.45,-20.25 -3.55,-20.25 -3.55,-23.15"/>
<polygon id="00000179313509A0" class="l67d20" points="-6.65,-23.35 -6.65,-20.05 -3.35,-20.05 -3.35,-23.35"/>
<polygon id="000001793134F580" class="l67d44" points="-5.85,-22.55 -5.85,-20.85 -4.15,-20.85 -4.15,-22.55"/>
<polygon id="000001793134F970" class="l65d20" points="-7.05,-23.75 -7.05,-19.65 -2.95,-19.65 -2.95,-23.75"/>
<polygon id="000001793134F660" class="l66d44" points="4.15,-22.55 4.15,-20.85 5.85,-20.85 5.85,-22.55"/>
<polygon id="000001793134FCF0" class="l68d20" points="3.55,-23.15 3.55,-20.25 6.45,-20.25 6.45,-23.15"/>
<polygon id="000001793134F9E0" class="l67d20" points="3.35,-23.35 3.35,-20.05 6.65,-20.05 6.65,-23.35"/>
<polygon id="00000179313500E0" class="l67d44" points="4.15,-22.55 4.15,-20.85 5.85,-20.85 5.85,-22.55"/>
<polygon id="000001793134FE40" class="l65d20" points="2.95,-23.75 2.95,-19.65 7.05,-19.65 7.05,-23.75"/>
<polygon id="000001793134F2E0" class="l66d44" points="-0.85,-22.55 -0.85,-20.85 0.85,-20.85 0.85,-22.55"/>
<polygon id="0000017931350A10" class="l68d20" points="-1.45,-23.15 -1.45,-20.25 1.45,-20.25 1.45,-23.15"/>
<polygon id="00000179313505B0" class="l67d20" points="-1.65,-23.35 -1.65,-20.05 1.65,-20.05 1.65,-23.35"/>
<polygon id="000001793134FA50" class="l67d44" points="-0.85,-22.55 -0.85,-20.85 0.85,-20.85 0.85,-22.55"/>
<polygon id="000001793134FB30" class="l65d20" points="-2.05,-23.75 -2.05,-19.65 2.05,-19.65 2.05,-23.75"/>
<polygon id="0000017931350A80" class="l67d20" points="-6.65,-23.35 -6.65,-20.05 6.65,-20.05 6.65,-23.35"/>
<polygon id="0000017931350460" class="l68d20" points="-13,-23.75 -13,-19.65 13,-19.65 13,-23.75"/>
<polygon id="000001793134FC10" class="l65d20" points="-7.05,-23.75 -7.05,-19.65 7.05,-19.65 7.05,-23.75"/>
<polygon id="00000179313504D0" class="l66d44" points="14.2,-16.15 14.2,-14.45 15.9,-14.45 15.9,-16.15"/>
<polygon id="0000017931350620" class="l67d20" points="13.4,-16.95 13.4,-13.65 16.7,-13.65 16.7,-16.95"/>
<polygon id="000001793134FC80" class="l65d20" points="13,-17.35 13,-13.25 17.1,-13.25 17.1,-17.35"/>
<polygon id="0000017931350690" class="l66d44" points="14.2,14.45 14.2,16.15 15.9,16.15 15.9,14.45"/>
<polygon id="000001793134EF60" class="l67d20" points="13.4,13.65 13.4,16.95 16.7,16.95 16.7,13.65"/>
<polygon id="000001793134FF90" class="l65d20" points="13,13.25 13,17.35 17.1,17.35 17.1,13.25"/>
<polygon id="000001793134F350" class="l66d44" points="14.2,11.05 14.2,12.75 15.9,12.75 15.9,11.05"/>
<polygon id="0000017931350000" class="l67d20" points="13.4,10.25 13.4,13.55 16.7,13.55 16.7,10.25"/>
<polygon id="0000017931350F50" class="l65d20" points="13,9.85 13,13.95 17.1,13.95 17.1,9.85"/>
<polygon id="0000017931351570" class="l66d44" points="14.2,7.65 14.2,9.35 15.9,9.35 15.9,7.65"/>
<polygon id="0000017931351180" class="l67d20" points="13.4,6.85 13.4,10.15 16.7,10.15 16.7,6.85"/>
<polygon id="00000179313512D0" class="l65d20" points="13,6.45 13,10.55 17.1,10.55 17.1,6.45"/>
<polygon id="0000017931351260" class="l66d44" points="14.2,4.25 14.2,5.95 15.9,5.95 15.9,4.25"/>
<polygon id="0000017931350CB0" class="l67d20" points="13.4,3.45 13.4,6.75 16.7,6.75 16.7,3.45"/>
<polygon id="0000017931351340" class="l65d20" points="13,3.05 13,7.15 17.1,7.15 17.1,3.05"/>
<polygon id="0000017931351420" class="l66d44" points="14.2,0.85 14.2,2.55 15.9,2.55 15.9,0.85"/>
<polygon id="0000017931351730" class="l67d20" points="13.4,0.05 13.4,3.35 16.7,3.35 16.7,0.05"/>
<polygon id="00000179313515E0" class="l65d20" points="13,-0.35 13,3.75 17.1,3.75 17.1,-0.35"/>
<polygon id="0000017931350D20" class="l66d44" points="14.2,-2.55 14.2,-0.85 15.9,-0.85 15.9,-2.55"/>
<polygon id="0000017931351650" class="l67d20" points="13.4,-3.35 13.4,-0.05 16.7,-0.05 16.7,-3.35"/>
<polygon id="0000017931351030" class="l65d20" points="13,-3.75 13,0.35 17.1,0.35 17.1,-3.75"/>
<polygon id="00000179313517A0" class="l66d44" points="14.2,-5.95 14.2,-4.25 15.9,-4.25 15.9,-5.95"/>
<polygon id="0000017931350B60" class="l67d20" points="13.4,-6.75 13.4,-3.45 16.7,-3.45 16.7,-6.75"/>
<polygon id="0000017931350E00" class="l65d20" points="13,-7.15 13,-3.05 17.1,-3.05 17.1,-7.15"/>
<polygon id="0000017931351880" class="l66d44" points="14.2,-9.35 14.2,-7.65 15.9,-7.65 15.9,-9.35"/>
<polygon id="00000179313518F0" class="l67d20" points="13.4,-10.15 13.4,-6.85 16.7,-6.85 16.7,-10.15"/>
<polygon id="0000017931351960" class="l65d20" points="13,-10.55 13,-6.45 17.1,-6.45 17.1,-10.55"/>
<polygon id="0000017931350BD0" class="l66d44" points="14.2,-12.75 14.2,-11.05 15.9,-11.05 15.9,-12.75"/>
<polygon id="0000017931350FC0" class="l67d20" points="13.4,-13.55 13.4,-10.25 16.7,-10.25 16.7,-13.55"/>
<polygon id="0000017931349D90" class="l65d20" points="13,-13.95 13,-9.85 17.1,-9.85 17.1,-13.95"/>
<polygon id="0000017931349C40" class="l67d20" points="13,-19.65 13,19.65 17.1,19.65 17.1,-19.65"/>
<polygon id="000001793134B3E0" class="l65d20" points="13,-17.35 13,17.35 17.1,17.35 17.1,-17.35"/>
<polygon id="000001793134B140" class="l66d44" points="-5.85,20.85 -5.85,22.55 -4.15,22.55 -4.15,20.85"/>
<polygon id="000001793134A960" class="l68d20" points="-6.45,20.25 -6.45,23.15 -3.55,23.15 -3.55,20.25"/>
<polygon id="000001793134A650" class="l67d20" points="-6.65,20.05 -6.65,23.35 -3.35,23.35 -3.35,20.05"/>
<polygon id="000001793134AD50" class="l67d44" points="-5.85,20.85 -5.85,22.55 -4.15,22.55 -4.15,20.85"/>
<polygon id="000001793134ADC0" class="l65d20" points="-7.05,19.65 -7.05,23.75 -2.95,23.75 -2.95,19.65"/>
<polygon id="000001793134AA40" class="l66d44" points="4.15,20.85 4.15,22.55 5.85,22.55 5.85,20.85"/>
<polygon id="000001793134AEA0" class="l68d20" points="3.55,20.25 3.55,23.15 6.45,23.15 6.45,20.25"/>
<polygon id="000001793134B1B0" class="l67d20" points="3.35,20.05 3.35,23.35 6.65,23.35 6.65,20.05"/>
<polygon id="000001793134A7A0" class="l67d44" points="4.15,20.85 4.15,22.55 5.85,22.55 5.85,20.85"/>
<polygon id="000001793134B530" class="l65d20" points="2.95,19.65 2.95,23.75 7.05,23.75 7.05,19.65"/>
<polygon id="0000017931349E00" class="l66d44" points="-0.85,20.85 -0.85,22.55 0.85,22.55 0.85,20.85"/>
<polygon id="000001793134A9D0" class="l68d20" points="-1.45,20.25 -1.45,23.15 1.45,23.15 1.45,20.25"/>
<polygon id="000001793134B220" class="l67d20" points="-1.65,20.05 -1.65,23.35 1.65,23.35 1.65,20.05"/>
<polygon id="000001793134AC00" class="l67d44" points="-0.85,20.85 -0.85,22.55 0.85,22.55 0.85,20.85"/>
<polygon id="0000017931349E70" class="l65d20" points="-2.05,19.65 -2.05,23.75 2.05,23.75 2.05,19.65"/>
<polygon id="000001793134AB20" class="l67d20" points="-6.65,20.05 -6.65,23.35 6.65,23.35 6.65,20.05"/>
<polygon id="000001793134AAB0" class="l68d20" points="-13,19.65 -13,23.75 13,23.75 13,19.65"/>
<polygon id="000001793134B4C0" class="l65d20" points="-7.05,19.65 -7.05,23.75 7.05,23.75 7.05,19.65"/>
<polygon id="000001793134AB90" class="l94d20" points="18.4,25.05 -18.4,25.05 -18.4,-18.35 -11.7,-18.35 -11.7,18.35 11.7,18.35 11.7,-18.35 -11.7,-18.35 -18.4,-18.35 -18.4,-25.05 18.4,-25.05"/>
</g>
<g id="c_route_64b3814e$1">
<polygon id="000001793134B290" class="l68d20" points="5.6,85.45 18.9,85.45 18.9,88.35 5.6,88.35"/>
<polygon id="000001793134B680" class="l68d44" points="16,85.45 16,86.95 17.5,86.95 17.5,85.45"/>
<polygon id="0000017931349EE0" class="l69d20" points="15.1,84.55 15.1,87.85 18.4,87.85 18.4,84.55"/>
<polygon id="000001793134A2D0" class="l68d20" points="14.6,84.05 14.6,88.35 18.9,88.35 18.9,84.05"/>
<polygon id="000001793134A030" class="l69d20" points="18.4,11.95 18.4,11.95 18.4,15.25 18.4,15.25"/>
<polygon id="000001793134A0A0" class="l69d20" points="18.4,84.55 18.4,84.55 18.4,87.85 18.4,87.85"/>
<polygon id="000001793134A110" class="l69d20" points="15.1,11.95 18.4,11.95 18.4,87.85 15.1,87.85"/>
<polygon id="000001793134A810" class="l68d20" points="9.6,11.45 18.9,11.45 18.9,14.35 9.6,14.35"/>
<polygon id="000001793134A260" class="l68d44" points="16,12.85 16,14.35 17.5,14.35 17.5,12.85"/>
<polygon id="000001793134A180" class="l69d20" points="15.1,11.95 15.1,15.25 18.4,15.25 18.4,11.95"/>
<polygon id="000001793134A340" class="l68d20" points="14.6,11.45 14.6,15.75 18.9,15.75 18.9,11.45"/>
</g>
</defs>
<rect x="-34.9" y="-115.55" width="75.1" height="158.4" fill="#222222" stroke="none"/>
<g id="Unnamed_329ff66a" transform="scale(1 -1)">
<use transform="translate(0 74)" xlink:href="#Unnamed_566da353"/>
<use transform="translate(4 0)" xlink:href="#Unnamed_4e43006f"/>
<use transform="translate(0 0)" xlink:href="#c_route_64b3814e$1"/>
<use transform="translate(0 0)" xlink:href="#c_route_6ac70bef$1"/>
</g>
</svg>
