<?xml version='1.0' encoding='ASCII' standalone='yes'?>
<svg xmlns="http://www.w3.org/2000/svg" xmlns:xlink="http://www.w3.org/1999/xlink" width="304.7" height="179.7" viewBox="-60.94 -35.94 121.88 71.88">
<defs>
<style type="text/css">
.l65d20 {stroke: #008856; fill: #008856; fill-opacity: 0.5;}
.l67d20 {stroke: #0067A5; fill: #0067A5; fill-opacity: 0.5;}
.l68d20 {stroke: #F99379; fill: #F99379; fill-opacity: 0.5;}
.l67d44 {stroke: #875692; fill: #875692; fill-opacity: 0.5;}
.l66d44 {stroke: #F3C300; fill: #F3C300; fill-opacity: 0.5;}
.l94d20 {stroke: #8DB600; fill: #8DB600; fill-opacity: 0.5;}
</style>
</defs>
<rect x="-60.94" y="-35.94" width="121.88" height="71.88" fill="#222222" stroke="none"/>
<g id="Unnamed_db70cf6a$1" transform="scale(1 -1)">
<polygon id="0000011E64248730" class="l65d20" points="54.1,29.1 -54.1,29.1 -54.1,-25 -50,-25 -50,25 50,25 50,-25 -50,-25 -54.1,-25 -54.1,-29.1 54.1,-29.1"/>
<polygon id="0000011E642494C0" class="l68d20" points="50,-29.1 54.1,-29.1 54.1,-25 50,-25"/>
<polygon id="0000011E64248B90" class="l67d44" points="51.2,-27.9 51.2,-26.2 52.9,-26.2 52.9,-27.9"/>
<polygon id="0000011E642480A0" class="l68d20" points="50.6,-28.5 50.6,-25.6 53.5,-25.6 53.5,-28.5"/>
<polygon id="0000011E64249680" class="l67d20" points="51.2,-27.9 51.2,-26.2 52.9,-26.2 52.9,-27.9"/>
<polygon id="0000011E64248C00" class="l68d20" points="50,-29.1 50,-25 54.1,-25 54.1,-29.1"/>
<polygon id="0000011E64248C70" class="l67d20" points="51.2,-27.9 51.2,-26.2 52.9,-26.2 52.9,-27.9"/>
<polygon id="0000011E64248340" class="l67d20" points="50,-29.1 54.1,-29.1 54.1,-25 50,-25"/>
<polygon id="0000011E642497D0" class="l68d20" points="-54.1,-29.1 -50,-29.1 -50,-25 -54.1,-25"/>
<polygon id="0000011E64248110" class="l67d44" points="-52.9,-27.9 -52.9,-26.2 -51.2,-26.2 -51.2,-27.9"/>
<polygon id="0000011E64248810" class="l68d20" points="-53.5,-28.5 -53.5,-25.6 -50.6,-25.6 -50.6,-28.5"/>
<polygon id="0000011E64248420" class="l67d20" points="-52.9,-27.9 -52.9,-26.2 -51.2,-26.2 -51.2,-27.9"/>
<polygon id="0000011E64247D90" class="l68d20" points="-54.1,-29.1 -54.1,-25 -50,-25 -50,-29.1"/>
<polygon id="0000011E64247E00" class="l67d20" points="-52.9,-27.9 -52.9,-26.2 -51.2,-26.2 -51.2,-27.9"/>
<polygon id="0000011E64248CE0" class="l67d20" points="-54.1,-29.1 -50,-29.1 -50,-25 -54.1,-25"/>
<polygon id="0000011E64248FF0" class="l68d20" points="50,25 54.1,25 54.1,29.1 50,29.1"/>
<polygon id="0000011E64247E70" class="l67d44" points="51.2,26.2 51.2,27.9 52.9,27.9 52.9,26.2"/>
<polygon id="0000011E64247FC0" class="l68d20" points="50.6,25.6 50.6,28.5 53.5,28.5 53.5,25.6"/>
<polygon id="0000011E64248490" class="l67d20" points="51.2,26.2 51.2,27.9 52.9,27.9 52.9,26.2"/>
<polygon id="0000011E642486C0" class="l68d20" points="50,25 50,29.1 54.1,29.1 54.1,25"/>
<polygon id="0000011E642487A0" class="l67d20" points="51.2,26.2 51.2,27.9 52.9,27.9 52.9,26.2"/>
<polygon id="0000011E6424AB80" class="l67d20" points="50,25 54.1,25 54.1,29.1 50,29.1"/>
<polygon id="0000011E64249CA0" class="l68d20" points="-54.1,25 -50,25 -50,29.1 -54.1,29.1"/>
<polygon id="0000011E6424A1E0" class="l67d44" points="-52.9,26.2 -52.9,27.9 -51.2,27.9 -51.2,26.2"/>
<polygon id="0000011E64249990" class="l68d20" points="-53.5,25.6 -53.5,28.5 -50.6,28.5 -50.6,25.6"/>
<polygon id="0000011E6424B050" class="l67d20" points="-52.9,26.2 -52.9,27.9 -51.2,27.9 -51.2,26.2"/>
<polygon id="0000011E64249D10" class="l68d20" points="-54.1,25 -54.1,29.1 -50,29.1 -50,25"/>
<polygon id="0000011E64249D80" class="l67d20" points="-52.9,26.2 -52.9,27.9 -51.2,27.9 -51.2,26.2"/>
<polygon id="0000011E6424A170" class="l67d20" points="-54.1,25 -50,25 -50,29.1 -54.1,29.1"/>
<polygon id="0000011E64249FB0" class="l66d44" points="-52.9,-21.25 -52.9,-19.55 -51.2,-19.55 -51.2,-21.25"/>
<polygon id="0000011E6424A330" class="l67d20" points="-53.7,-22.05 -53.7,-18.75 -50.4,-18.75 -50.4,-22.05"/>
<polygon id="0000011E6424A020" class="l65d20" points="-54.1,-22.45 -54.1,-18.35 -50,-18.35 -50,-22.45"/>
<polygon id="0000011E6424A9C0" class="l66d44" points="-52.9,19.55 -52.9,21.25 -51.2,21.25 -51.2,19.55"/>
<polygon id="0000011E6424A790" class="l67d20" points="-53.7,18.75 -53.7,22.05 -50.4,22.05 -50.4,18.75"/>
<polygon id="0000011E6424ADB0" class="l65d20" points="-54.1,18.35 -54.1,22.45 -50,22.45 -50,18.35"/>
<polygon id="0000011E64249DF0" class="l66d44" points="-52.9,16.15 -52.9,17.85 -51.2,17.85 -51.2,16.15"/>
<polygon id="0000011E6424A250" class="l67d20" points="-53.7,15.35 -53.7,18.65 -50.4,18.65 -50.4,15.35"/>
<polygon id="0000011E64249A00" class="l65d20" points="-54.1,14.95 -54.1,19.05 -50,19.05 -50,14.95"/>
<polygon id="0000011E6424A2C0" class="l66d44" points="-52.9,12.75 -52.9,14.45 -51.2,14.45 -51.2,12.75"/>
<polygon id="0000011E64249E60" class="l67d20" points="-53.7,11.95 -53.7,15.25 -50.4,15.25 -50.4,11.95"/>
<polygon id="0000011E6424A5D0" class="l65d20" points="-54.1,11.55 -54.1,15.65 -50,15.65 -50,11.55"/>
<polygon id="0000011E6424AF70" class="l66d44" points="-52.9,9.35 -52.9,11.05 -51.2,11.05 -51.2,9.35"/>
<polygon id="0000011E6424A090" class="l67d20" points="-53.7,8.55 -53.7,11.85 -50.4,11.85 -50.4,8.55"/>
<polygon id="0000011E6424A3A0" class="l65d20" points="-54.1,8.15 -54.1,12.25 -50,12.25 -50,8.15"/>
<polygon id="0000011E6424B1A0" class="l66d44" points="-52.9,5.95 -52.9,7.65 -51.2,7.65 -51.2,5.95"/>
<polygon id="0000011E6424A410" class="l67d20" points="-53.7,5.15 -53.7,8.45 -50.4,8.45 -50.4,5.15"/>
<polygon id="0000011E6424A480" class="l65d20" points="-54.1,4.75 -54.1,8.85 -50,8.85 -50,4.75"/>
<polygon id="0000011E64249ED0" class="l66d44" points="-52.9,2.55 -52.9,4.25 -51.2,4.25 -51.2,2.55"/>
<polygon id="0000011E6424A4F0" class="l67d20" points="-53.7,1.75 -53.7,5.05 -50.4,5.05 -50.4,1.75"/>
<polygon id="0000011E64249F40" class="l65d20" points="-54.1,1.35 -54.1,5.45 -50,5.45 -50,1.35"/>
<polygon id="0000011E6424B2F0" class="l66d44" points="-52.9,-0.85 -52.9,0.85 -51.2,0.85 -51.2,-0.85"/>
<polygon id="0000011E64249AE0" class="l67d20" points="-53.7,-1.65 -53.7,1.65 -50.4,1.65 -50.4,-1.65"/>
<polygon id="0000011E6424AA30" class="l65d20" points="-54.1,-2.05 -54.1,2.05 -50,2.05 -50,-2.05"/>
<polygon id="0000011E6424A560" class="l66d44" points="-52.9,-4.25 -52.9,-2.55 -51.2,-2.55 -51.2,-4.25"/>
<polygon id="0000011E6424B280" class="l67d20" points="-53.7,-5.05 -53.7,-1.75 -50.4,-1.75 -50.4,-5.05"/>
<polygon id="0000011E6424AFE0" class="l65d20" points="-54.1,-5.45 -54.1,-1.35 -50,-1.35 -50,-5.45"/>
<polygon id="0000011E6424AE90" class="l66d44" points="-52.9,-7.65 -52.9,-5.95 -51.2,-5.95 -51.2,-7.65"/>
<polygon id="0000011E6424A8E0" class="l67d20" points="-53.7,-8.45 -53.7,-5.15 -50.4,-5.15 -50.4,-8.45"/>
<polygon id="0000011E64249BC0" class="l65d20" points="-54.1,-8.85 -54.1,-4.75 -50,-4.75 -50,-8.85"/>
<polygon id="0000011E6424AE20" class="l66d44" points="-52.9,-11.05 -52.9,-9.35 -51.2,-9.35 -51.2,-11.05"/>
<polygon id="0000011E642498B0" class="l67d20" points="-53.7,-11.85 -53.7,-8.55 -50.4,-8.55 -50.4,-11.85"/>
<polygon id="0000011E6424A640" class="l65d20" points="-54.1,-12.25 -54.1,-8.15 -50,-8.15 -50,-12.25"/>
<polygon id="0000011E6424A6B0" class="l66d44" points="-52.9,-14.45 -52.9,-12.75 -51.2,-12.75 -51.2,-14.45"/>
<polygon id="0000011E6424A100" class="l67d20" points="-53.7,-15.25 -53.7,-11.95 -50.4,-11.95 -50.4,-15.25"/>
<polygon id="0000011E6424A720" class="l65d20" points="-54.1,-15.65 -54.1,-11.55 -50,-11.55 -50,-15.65"/>
<polygon id="0000011E64249B50" class="l66d44" points="-52.9,-17.85 -52.9,-16.15 -51.2,-16.15 -51.2,-17.85"/>
<polygon id="0000011E6424ABF0" class="l67d20" points="-53.7,-18.65 -53.7,-15.35 -50.4,-15.35 -50.4,-18.65"/>
<polygon id="0000011E64249C30" class="l65d20" points="-54.1,-19.05 -54.1,-14.95 -50,-14.95 -50,-19.05"/>
<polygon id="0000011E6424A800" class="l67d20" points="-54.1,-25 -54.1,25 -50,25 -50,-25"/>
<polygon id="0000011E6424A870" class="l65d20" points="-54.1,-22.45 -54.1,22.45 -50,22.45 -50,-22.45"/>
<polygon id="0000011E6424B440" class="l66d44" points="-43.35,-27.9 -43.35,-26.2 -41.65,-26.2 -41.65,-27.9"/>
<polygon id="0000011E6424A950" class="l68d20" points="-43.95,-28.5 -43.95,-25.6 -41.05,-25.6 -41.05,-28.5"/>
<polygon id="0000011E64249920" class="l67d20" points="-44.15,-28.7 -44.15,-25.4 -40.85,-25.4 -40.85,-28.7"/>
<polygon id="0000011E6424AAA0" class="l67d44" points="-43.35,-27.9 -43.35,-26.2 -41.65,-26.2 -41.65,-27.9"/>
<polygon id="0000011E64249A70" class="l65d20" points="-44.55,-29.1 -44.55,-25 -40.45,-25 -40.45,-29.1"/>
<polygon id="0000011E6424B0C0" class="l66d44" points="41.65,-27.9 41.65,-26.2 43.35,-26.2 43.35,-27.9"/>
<polygon id="0000011E6424AB10" class="l68d20" points="41.05,-28.5 41.05,-25.6 43.95,-25.6 43.95,-28.5"/>
<polygon id="0000011E6424AC60" class="l67d20" points="40.85,-28.7 40.85,-25.4 44.15,-25.4 44.15,-28.7"/>
<polygon id="0000011E6424ACD0" class="l67d44" points="41.65,-27.9 41.65,-26.2 43.35,-26.2 43.35,-27.9"/>
<polygon id="0000011E6424AD40" class="l65d20" points="40.45,-29.1 40.45,-25 44.55,-25 44.55,-29.1"/>
<polygon id="0000011E6424AF00" class="l66d44" points="36.65,-27.9 36.65,-26.2 38.35,-26.2 38.35,-27.9"/>
<polygon id="0000011E6424B130" class="l68d20" points="36.05,-28.5 36.05,-25.6 38.95,-25.6 38.95,-28.5"/>
<polygon id="0000011E6424B210" class="l67d20" points="35.85,-28.7 35.85,-25.4 39.15,-25.4 39.15,-28.7"/>
<polygon id="0000011E6424B360" class="l67d44" points="36.65,-27.9 36.65,-26.2 38.35,-26.2 38.35,-27.9"/>
<polygon id="0000011E6424B3D0" class="l65d20" points="35.45,-29.1 35.45,-25 39.55,-25 39.55,-29.1"/>
<polygon id="0000011E6424CE80" class="l66d44" points="31.65,-27.9 31.65,-26.2 33.35,-26.2 33.35,-27.9"/>
<polygon id="0000011E6424B910" class="l68d20" points="31.05,-28.5 31.05,-25.6 33.95,-25.6 33.95,-28.5"/>
<polygon id="0000011E6424BA60" class="l67d20" points="30.85,-28.7 30.85,-25.4 34.15,-25.4 34.15,-28.7"/>
<polygon id="0000011E6424BBB0" class="l67d44" points="31.65,-27.9 31.65,-26.2 33.35,-26.2 33.35,-27.9"/>
<polygon id="0000011E6424CEF0" class="l65d20" points="30.45,-29.1 30.45,-25 34.55,-25 34.55,-29.1"/>
<polygon id="0000011E6424C160" class="l66d44" points="26.65,-27.9 26.65,-26.2 28.35,-26.2 28.35,-27.9"/>
<polygon id="0000011E6424C390" class="l68d20" points="26.05,-28.5 26.05,-25.6 28.95,-25.6 28.95,-28.5"/>
<polygon id="0000011E6424BAD0" class="l67d20" points="25.85,-28.7 25.85,-25.4 29.15,-25.4 29.15,-28.7"/>
<polygon id="0000011E6424CD30" class="l67d44" points="26.65,-27.9 26.65,-26.2 28.35,-26.2 28.35,-27.9"/>
<polygon id="0000011E6424BE50" class="l65d20" points="25.45,-29.1 25.45,-25 29.55,-25 29.55,-29.1"/>
<polygon id="0000011E6424C470" class="l66d44" points="21.65,-27.9 21.65,-26.2 23.35,-26.2 23.35,-27.9"/>
<polygon id="0000011E6424C940" class="l68d20" points="21.05,-28.5 21.05,-25.6 23.95,-25.6 23.95,-28.5"/>
<polygon id="0000011E6424CB70" class="l67d20" points="20.85,-28.7 20.85,-25.4 24.15,-25.4 24.15,-28.7"/>
<polygon id="0000011E6424CE10" class="l67d44" points="21.65,-27.9 21.65,-26.2 23.35,-26.2 23.35,-27.9"/>
<polygon id="0000011E6424C1D0" class="l65d20" points="20.45,-29.1 20.45,-25 24.55,-25 24.55,-29.1"/>
<polygon id="0000011E6424BC20" class="l66d44" points="16.65,-27.9 16.65,-26.2 18.35,-26.2 18.35,-27.9"/>
<polygon id="0000011E6424B980" class="l68d20" points="16.05,-28.5 16.05,-25.6 18.95,-25.6 18.95,-28.5"/>
<polygon id="0000011E6424C240" class="l67d20" points="15.85,-28.7 15.85,-25.4 19.15,-25.4 19.15,-28.7"/>
<polygon id="0000011E6424C4E0" class="l67d44" points="16.65,-27.9 16.65,-26.2 18.35,-26.2 18.35,-27.9"/>
<polygon id="0000011E6424B9F0" class="l65d20" points="15.45,-29.1 15.45,-25 19.55,-25 19.55,-29.1"/>
<polygon id="0000011E6424BB40" class="l66d44" points="11.65,-27.9 11.65,-26.2 13.35,-26.2 13.35,-27.9"/>
<polygon id="0000011E6424BC90" class="l68d20" points="11.05,-28.5 11.05,-25.6 13.95,-25.6 13.95,-28.5"/>
<polygon id="0000011E6424C400" class="l67d20" points="10.85,-28.7 10.85,-25.4 14.15,-25.4 14.15,-28.7"/>
<polygon id="0000011E6424CDA0" class="l67d44" points="11.65,-27.9 11.65,-26.2 13.35,-26.2 13.35,-27.9"/>
<polygon id="0000011E6424B600" class="l65d20" points="10.45,-29.1 10.45,-25 14.55,-25 14.55,-29.1"/>
<polygon id="0000011E6424CBE0" class="l66d44" points="6.65,-27.9 6.65,-26.2 8.35,-26.2 8.35,-27.9"/>
<polygon id="0000011E6424CC50" class="l68d20" points="6.05,-28.5 6.05,-25.6 8.95,-25.6 8.95,-28.5"/>
<polygon id="0000011E6424C2B0" class="l67d20" points="5.85,-28.7 5.85,-25.4 9.15,-25.4 9.15,-28.7"/>
<polygon id="0000011E6424BD00" class="l67d44" points="6.65,-27.9 6.65,-26.2 8.35,-26.2 8.35,-27.9"/>
<polygon id="0000011E6424C8D0" class="l65d20" points="5.45,-29.1 5.45,-25 9.55,-25 9.55,-29.1"/>
<polygon id="0000011E6424BD70" class="l66d44" points="1.65,-27.9 1.65,-26.2 3.35,-26.2 3.35,-27.9"/>
<polygon id="0000011E6424CF60" class="l68d20" points="1.05,-28.5 1.05,-25.6 3.95,-25.6 3.95,-28.5"/>
<polygon id="0000011E6424BDE0" class="l67d20" points="0.85,-28.7 0.85,-25.4 4.15,-25.4 4.15,-28.7"/>
<polygon id="0000011E6424BFA0" class="l67d44" points="1.65,-27.9 1.65,-26.2 3.35,-26.2 3.35,-27.9"/>
<polygon id="0000011E6424CA20" class="l65d20" points="0.45,-29.1 0.45,-25 4.55,-25 4.55,-29.1"/>
<polygon id="0000011E6424CFD0" class="l66d44" points="-3.35,-27.9 -3.35,-26.2 -1.65,-26.2 -1.65,-27.9"/>
<polygon id="0000011E6424C9B0" class="l68d20" points="-3.95,-28.5 -3.95,-25.6 -1.05,-25.6 -1.05,-28.5"/>
<polygon id="0000011E6424D040" class="l67d20" points="-4.15,-28.7 -4.15,-25.4 -0.85,-25.4 -0.85,-28.7"/>
<polygon id="0000011E6424C550" class="l67d44" points="-3.35,-27.9 -3.35,-26.2 -1.65,-26.2 -1.65,-27.9"/>
<polygon id="0000011E6424C6A0" class="l65d20" points="-4.55,-29.1 -4.55,-25 -0.45,-25 -0.45,-29.1"/>
<polygon id="0000011E6424C860" class="l66d44" points="-8.35,-27.9 -8.35,-26.2 -6.65,-26.2 -6.65,-27.9"/>
<polygon id="0000011E6424B4B0" class="l68d20" points="-8.95,-28.5 -8.95,-25.6 -6.05,-25.6 -6.05,-28.5"/>
<polygon id="0000011E6424CB00" class="l67d20" points="-9.15,-28.7 -9.15,-25.4 -5.85,-25.4 -5.85,-28.7"/>
<polygon id="0000011E6424B830" class="l67d44" points="-8.35,-27.9 -8.35,-26.2 -6.65,-26.2 -6.65,-27.9"/>
<polygon id="0000011E6424CCC0" class="l65d20" points="-9.55,-29.1 -9.55,-25 -5.45,-25 -5.45,-29.1"/>
<polygon id="0000011E6424B520" class="l66d44" points="-13.35,-27.9 -13.35,-26.2 -11.65,-26.2 -11.65,-27.9"/>
<polygon id="0000011E6424CA90" class="l68d20" points="-13.95,-28.5 -13.95,-25.6 -11.05,-25.6 -11.05,-28.5"/>
<polygon id="0000011E6424C710" class="l67d20" points="-14.15,-28.7 -14.15,-25.4 -10.85,-25.4 -10.85,-28.7"/>
<polygon id="0000011E6424BEC0" class="l67d44" points="-13.35,-27.9 -13.35,-26.2 -11.65,-26.2 -11.65,-27.9"/>
<polygon id="0000011E6424C780" class="l65d20" points="-14.55,-29.1 -14.55,-25 -10.45,-25 -10.45,-29.1"/>
<polygon id="0000011E6424B590" class="l66d44" points="-18.35,-27.9 -18.35,-26.2 -16.65,-26.2 -16.65,-27.9"/>
<polygon id="0000011E6424B670" class="l68d20" points="-18.95,-28.5 -18.95,-25.6 -16.05,-25.6 -16.05,-28.5"/>
<polygon id="0000011E6424C0F0" class="l67d20" points="-19.15,-28.7 -19.15,-25.4 -15.85,-25.4 -15.85,-28.7"/>
<polygon id="0000011E6424BF30" class="l67d44" points="-18.35,-27.9 -18.35,-26.2 -16.65,-26.2 -16.65,-27.9"/>
<polygon id="0000011E6424C080" class="l65d20" points="-19.55,-29.1 -19.55,-25 -15.45,-25 -15.45,-29.1"/>
<polygon id="0000011E6424B6E0" class="l66d44" points="-23.35,-27.9 -23.35,-26.2 -21.65,-26.2 -21.65,-27.9"/>
<polygon id="0000011E6424B750" class="l68d20" points="-23.95,-28.5 -23.95,-25.6 -21.05,-25.6 -21.05,-28.5"/>
<polygon id="0000011E6424B7C0" class="l67d20" points="-24.15,-28.7 -24.15,-25.4 -20.85,-25.4 -20.85,-28.7"/>
<polygon id="0000011E6424B8A0" class="l67d44" points="-23.35,-27.9 -23.35,-26.2 -21.65,-26.2 -21.65,-27.9"/>
<polygon id="0000011E6424C010" class="l65d20" points="-24.55,-29.1 -24.55,-25 -20.45,-25 -20.45,-29.1"/>
<polygon id="0000011E6424C5C0" class="l66d44" points="-28.35,-27.9 -28.35,-26.2 -26.65,-26.2 -26.65,-27.9"/>
<polygon id="0000011E6424C320" class="l68d20" points="-28.95,-28.5 -28.95,-25.6 -26.05,-25.6 -26.05,-28.5"/>
<polygon id="0000011E6424C7F0" class="l67d20" points="-29.15,-28.7 -29.15,-25.4 -25.85,-25.4 -25.85,-28.7"/>
<polygon id="0000011E6424C630" class="l67d44" points="-28.35,-27.9 -28.35,-26.2 -26.65,-26.2 -26.65,-27.9"/>
<polygon id="0000011E6424D190" class="l65d20" points="-29.55,-29.1 -29.55,-25 -25.45,-25 -25.45,-29.1"/>
<polygon id="0000011E6424E770" class="l66d44" points="-33.35,-27.9 -33.35,-26.2 -31.65,-26.2 -31.65,-27.9"/>
<polygon id="0000011E6424DCF0" class="l68d20" points="-33.95,-28.5 -33.95,-25.6 -31.05,-25.6 -31.05,-28.5"/>
<polygon id="0000011E6424E000" class="l67d20" points="-34.15,-28.7 -34.15,-25.4 -30.85,-25.4 -30.85,-28.7"/>
<polygon id="0000011E6424DBA0" class="l67d44" points="-33.35,-27.9 -33.35,-26.2 -31.65,-26.2 -31.65,-27.9"/>
<polygon id="0000011E6424D900" class="l65d20" points="-34.55,-29.1 -34.55,-25 -30.45,-25 -30.45,-29.1"/>
<polygon id="0000011E6424E5B0" class="l66d44" points="-38.35,-27.9 -38.35,-26.2 -36.65,-26.2 -36.65,-27.9"/>
<polygon id="0000011E6424D7B0" class="l68d20" points="-38.95,-28.5 -38.95,-25.6 -36.05,-25.6 -36.05,-28.5"/>
<polygon id="0000011E6424D820" class="l67d20" points="-39.15,-28.7 -39.15,-25.4 -35.85,-25.4 -35.85,-28.7"/>
<polygon id="0000011E6424E3F0" class="l67d44" points="-38.35,-27.9 -38.35,-26.2 -36.65,-26.2 -36.65,-27.9"/>
<polygon id="0000011E6424E7E0" class="l65d20" points="-39.55,-29.1 -39.55,-25 -35.45,-25 -35.45,-29.1"/>
<polygon id="0000011E6424E690" class="l67d20" points="-44.15,-28.7 -44.15,-25.4 44.15,-25.4 44.15,-28.7"/>
<polygon id="0000011E6424E620" class="l68d20" points="-50,-29.1 -50,-25 50,-25 50,-29.1"/>
<polygon id="0000011E6424DD60" class="l65d20" points="-44.55,-29.1 -44.55,-25 44.55,-25 44.55,-29.1"/>
<polygon id="0000011E6424D430" class="l66d44" points="51.2,-21.25 51.2,-19.55 52.9,-19.55 52.9,-21.25"/>
<polygon id="0000011E6424E850" class="l67d20" points="50.4,-22.05 50.4,-18.75 53.7,-18.75 53.7,-22.05"/>
<polygon id="0000011E6424DAC0" class="l65d20" points="50,-22.45 50,-18.35 54.1,-18.35 54.1,-22.45"/>
<polygon id="0000011E6424DB30" class="l66d44" points="51.2,19.55 51.2,21.25 52.9,21.25 52.9,19.55"/>
<polygon id="0000011E6424E150" class="l67d20" points="50.4,18.75 50.4,22.05 53.7,22.05 53.7,18.75"/>
<polygon id="0000011E6424DDD0" class="l65d20" points="50,18.35 50,22.45 54.1,22.45 54.1,18.35"/>
<polygon id="0000011E6424E310" class="l66d44" points="51.2,16.15 51.2,17.85 52.9,17.85 52.9,16.15"/>
<polygon id="0000011E6424D510" class="l67d20" points="50.4,15.35 50.4,18.65 53.7,18.65 53.7,15.35"/>
<polygon id="0000011E6424DC10" class="l65d20" points="50,14.95 50,19.05 54.1,19.05 54.1,14.95"/>
<polygon id="0000011E6424EAF0" class="l66d44" points="51.2,12.75 51.2,14.45 52.9,14.45 52.9,12.75"/>
<polygon id="0000011E6424D2E0" class="l67d20" points="50.4,11.95 50.4,15.25 53.7,15.25 53.7,11.95"/>
<polygon id="0000011E6424D4A0" class="l65d20" points="50,11.55 50,15.65 54.1,15.65 54.1,11.55"/>
<polygon id="0000011E6424E0E0" class="l66d44" points="51.2,9.35 51.2,11.05 52.9,11.05 52.9,9.35"/>
<polygon id="0000011E6424D120" class="l67d20" points="50.4,8.55 50.4,11.85 53.7,11.85 53.7,8.55"/>
<polygon id="0000011E6424E070" class="l65d20" points="50,8.15 50,12.25 54.1,12.25 54.1,8.15"/>
<polygon id="0000011E6424D270" class="l66d44" points="51.2,5.95 51.2,7.65 52.9,7.65 52.9,5.95"/>
<polygon id="0000011E6424D580" class="l67d20" points="50.4,5.15 50.4,8.45 53.7,8.45 53.7,5.15"/>
<polygon id="0000011E6424D970" class="l65d20" points="50,4.75 50,8.85 54.1,8.85 54.1,4.75"/>
<polygon id="0000011E6424D350" class="l66d44" points="51.2,2.55 51.2,4.25 52.9,4.25 52.9,2.55"/>
<polygon id="0000011E6424D3C0" class="l67d20" points="50.4,1.75 50.4,5.05 53.7,5.05 53.7,1.75"/>
<polygon id="0000011E6424D5F0" class="l65d20" points="50,1.35 50,5.45 54.1,5.45 54.1,1.35"/>
<polygon id="0000011E6424E230" class="l66d44" points="51.2,-0.85 51.2,0.85 52.9,0.85 52.9,-0.85"/>
<polygon id="0000011E6424E2A0" class="l67d20" points="50.4,-1.65 50.4,1.65 53.7,1.65 53.7,-1.65"/>
<polygon id="0000011E6424D890" class="l65d20" points="50,-2.05 50,2.05 54.1,2.05 54.1,-2.05"/>
<polygon id="0000011E6424D660" class="l66d44" points="51.2,-4.25 51.2,-2.55 52.9,-2.55 52.9,-4.25"/>
<polygon id="0000011E6424DC80" class="l67d20" points="50.4,-5.05 50.4,-1.75 53.7,-1.75 53.7,-5.05"/>
<polygon id="0000011E6424EB60" class="l65d20" points="50,-5.45 50,-1.35 54.1,-1.35 54.1,-5.45"/>
<polygon id="0000011E6424E700" class="l66d44" points="51.2,-7.65 51.2,-5.95 52.9,-5.95 52.9,-7.65"/>
<polygon id="0000011E6424DE40" class="l67d20" points="50.4,-8.45 50.4,-5.15 53.7,-5.15 53.7,-8.45"/>
<polygon id="0000011E6424DEB0" class="l65d20" points="50,-8.85 50,-4.75 54.1,-4.75 54.1,-8.85"/>
<polygon id="0000011E6424E8C0" class="l66d44" points="51.2,-11.05 51.2,-9.35 52.9,-9.35 52.9,-11.05"/>
<polygon id="0000011E6424D6D0" class="l67d20" points="50.4,-11.85 50.4,-8.55 53.7,-8.55 53.7,-11.85"/>
<polygon id="0000011E6424DF20" class="l65d20" points="50,-12.25 50,-8.15 54.1,-8.15 54.1,-12.25"/>
<polygon id="0000011E6424D9E0" class="l66d44" points="51.2,-14.45 51.2,-12.75 52.9,-12.75 52.9,-14.45"/>
<polygon id="0000011E6424DA50" class="l67d20" points="50.4,-15.25 50.4,-11.95 53.7,-11.95 53.7,-15.25"/>
<polygon id="0000011E6424E380" class="l65d20" points="50,-15.65 50,-11.55 54.1,-11.55 54.1,-15.65"/>
<polygon id="0000011E6424E930" class="l66d44" points="51.2,-17.85 51.2,-16.15 52.9,-16.15 52.9,-17.85"/>
<polygon id="0000011E6424EC40" class="l67d20" points="50.4,-18.65 50.4,-15.35 53.7,-15.35 53.7,-18.65"/>
<polygon id="0000011E6424E460" class="l65d20" points="50,-19.05 50,-14.95 54.1,-14.95 54.1,-19.05"/>
<polygon id="0000011E6424D740" class="l67d20" points="50,-25 50,25 54.1,25 54.1,-25"/>
<polygon id="0000011E6424DF90" class="l65d20" points="50,-22.45 50,22.45 54.1,22.45 54.1,-22.45"/>
<polygon id="0000011E6424EA10" class="l66d44" points="-43.35,26.2 -43.35,27.9 -41.65,27.9 -41.65,26.2"/>
<polygon id="0000011E6424E9A0" class="l68d20" points="-43.95,25.6 -43.95,28.5 -41.05,28.5 -41.05,25.6"/>
<polygon id="0000011E6424D0B0" class="l67d20" points="-44.15,25.4 -44.15,28.7 -40.85,28.7 -40.85,25.4"/>
<polygon id="0000011E6424EA80" class="l67d44" points="-43.35,26.2 -43.35,27.9 -41.65,27.9 -41.65,26.2"/>
<polygon id="0000011E6424E4D0" class="l65d20" points="-44.55,25 -44.55,29.1 -40.45,29.1 -40.45,25"/>
<polygon id="0000011E6424E1C0" class="l66d44" points="41.65,26.2 41.65,27.9 43.35,27.9 43.35,26.2"/>
<polygon id="0000011E6424E540" class="l68d20" points="41.05,25.6 41.05,28.5 43.95,28.5 43.95,25.6"/>
<polygon id="0000011E6424EBD0" class="l67d20" points="40.85,25.4 40.85,28.7 44.15,28.7 44.15,25.4"/>
<polygon id="0000011E6424D200" class="l67d44" points="41.65,26.2 41.65,27.9 43.35,27.9 43.35,26.2"/>
<polygon id="0000011E6424F1F0" class="l65d20" points="40.45,25 40.45,29.1 44.55,29.1 44.55,25"/>
<polygon id="0000011E64250140" class="l66d44" points="36.65,26.2 36.65,27.9 38.35,27.9 38.35,26.2"/>
<polygon id="0000011E64250450" class="l68d20" points="36.05,25.6 36.05,28.5 38.95,28.5 38.95,25.6"/>
<polygon id="0000011E6424F960" class="l67d20" points="35.85,25.4 35.85,28.7 39.15,28.7 39.15,25.4"/>
<polygon id="0000011E6424FD50" class="l67d44" points="36.65,26.2 36.65,27.9 38.35,27.9 38.35,26.2"/>
<polygon id="0000011E6424FA40" class="l65d20" points="35.45,25 35.45,29.1 39.55,29.1 39.55,25"/>
<polygon id="0000011E6424F650" class="l66d44" points="31.65,26.2 31.65,27.9 33.35,27.9 33.35,26.2"/>
<polygon id="0000011E642506F0" class="l68d20" points="31.05,25.6 31.05,28.5 33.95,28.5 33.95,25.6"/>
<polygon id="0000011E6424F180" class="l67d20" points="30.85,25.4 30.85,28.7 34.15,28.7 34.15,25.4"/>
<polygon id="0000011E6424F260" class="l67d44" points="31.65,26.2 31.65,27.9 33.35,27.9 33.35,26.2"/>
<polygon id="0000011E6424F8F0" class="l65d20" points="30.45,25 30.45,29.1 34.55,29.1 34.55,25"/>
<polygon id="0000011E6424F9D0" class="l66d44" points="26.65,26.2 26.65,27.9 28.35,27.9 28.35,26.2"/>
<polygon id="0000011E6424F5E0" class="l68d20" points="26.05,25.6 26.05,28.5 28.95,28.5 28.95,25.6"/>
<polygon id="0000011E6424EEE0" class="l67d20" points="25.85,25.4 25.85,28.7 29.15,28.7 29.15,25.4"/>
<polygon id="0000011E6424FDC0" class="l67d44" points="26.65,26.2 26.65,27.9 28.35,27.9 28.35,26.2"/>
<polygon id="0000011E6424FE30" class="l65d20" points="25.45,25 25.45,29.1 29.55,29.1 29.55,25"/>
<polygon id="0000011E64250060" class="l66d44" points="21.65,26.2 21.65,27.9 23.35,27.9 23.35,26.2"/>
<polygon id="0000011E6424FAB0" class="l68d20" points="21.05,25.6 21.05,28.5 23.95,28.5 23.95,25.6"/>
<polygon id="0000011E642500D0" class="l67d20" points="20.85,25.4 20.85,28.7 24.15,28.7 24.15,25.4"/>
<polygon id="0000011E6424EE00" class="l67d44" points="21.65,26.2 21.65,27.9 23.35,27.9 23.35,26.2"/>
<polygon id="0000011E64250300" class="l65d20" points="20.45,25 20.45,29.1 24.55,29.1 24.55,25"/>
<polygon id="0000011E64250370" class="l66d44" points="16.65,26.2 16.65,27.9 18.35,27.9 18.35,26.2"/>
<polygon id="0000011E6424F6C0" class="l68d20" points="16.05,25.6 16.05,28.5 18.95,28.5 18.95,25.6"/>
<polygon id="0000011E6424FB90" class="l67d20" points="15.85,25.4 15.85,28.7 19.15,28.7 19.15,25.4"/>
<polygon id="0000011E642501B0" class="l67d44" points="16.65,26.2 16.65,27.9 18.35,27.9 18.35,26.2"/>
<polygon id="0000011E6424F0A0" class="l65d20" points="15.45,25 15.45,29.1 19.55,29.1 19.55,25"/>
<polygon id="0000011E6424F730" class="l66d44" points="11.65,26.2 11.65,27.9 13.35,27.9 13.35,26.2"/>
<polygon id="0000011E6424ED90" class="l68d20" points="11.05,25.6 11.05,28.5 13.95,28.5 13.95,25.6"/>
<polygon id="0000011E6424F7A0" class="l67d20" points="10.85,25.4 10.85,28.7 14.15,28.7 14.15,25.4"/>
<polygon id="0000011E6424F2D0" class="l67d44" points="11.65,26.2 11.65,27.9 13.35,27.9 13.35,26.2"/>
<polygon id="0000011E6424FB20" class="l65d20" points="10.45,25 10.45,29.1 14.55,29.1 14.55,25"/>
<polygon id="0000011E642503E0" class="l66d44" points="6.65,26.2 6.65,27.9 8.35,27.9 8.35,26.2"/>
<polygon id="0000011E6424F3B0" class="l68d20" points="6.05,25.6 6.05,28.5 8.95,28.5 8.95,25.6"/>
<polygon id="0000011E6424F810" class="l67d20" points="5.85,25.4 5.85,28.7 9.15,28.7 9.15,25.4"/>
<polygon id="0000011E642505A0" class="l67d44" points="6.65,26.2 6.65,27.9 8.35,27.9 8.35,26.2"/>
<polygon id="0000011E6424F880" class="l65d20" points="5.45,25 5.45,29.1 9.55,29.1 9.55,25"/>
<polygon id="0000011E6424FC00" class="l66d44" points="1.65,26.2 1.65,27.9 3.35,27.9 3.35,26.2"/>
<polygon id="0000011E6424F340" class="l68d20" points="1.05,25.6 1.05,28.5 3.95,28.5 3.95,25.6"/>
<polygon id="0000011E6424FC70" class="l67d20" points="0.85,25.4 0.85,28.7 4.15,28.7 4.15,25.4"/>
<polygon id="0000011E6424F420" class="l67d44" points="1.65,26.2 1.65,27.9 3.35,27.9 3.35,26.2"/>
<polygon id="0000011E64250760" class="l65d20" points="0.45,25 0.45,29.1 4.55,29.1 4.55,25"/>
<polygon id="0000011E6424EF50" class="l66d44" points="-3.35,26.2 -3.35,27.9 -1.65,27.9 -1.65,26.2"/>
<polygon id="0000011E6424FEA0" class="l68d20" points="-3.95,25.6 -3.95,28.5 -1.05,28.5 -1.05,25.6"/>
<polygon id="0000011E6424FCE0" class="l67d20" points="-4.15,25.4 -4.15,28.7 -0.85,28.7 -0.85,25.4"/>
<polygon id="0000011E6424F490" class="l67d44" points="-3.35,26.2 -3.35,27.9 -1.65,27.9 -1.65,26.2"/>
<polygon id="0000011E642504C0" class="l65d20" points="-4.55,25 -4.55,29.1 -0.45,29.1 -0.45,25"/>
<polygon id="0000011E6424FF10" class="l66d44" points="-8.35,26.2 -8.35,27.9 -6.65,27.9 -6.65,26.2"/>
<polygon id="0000011E6424FF80" class="l68d20" points="-8.95,25.6 -8.95,28.5 -6.05,28.5 -6.05,25.6"/>
<polygon id="0000011E6424FFF0" class="l67d20" points="-9.15,25.4 -9.15,28.7 -5.85,28.7 -5.85,25.4"/>
<polygon id="0000011E6424F110" class="l67d44" points="-8.35,26.2 -8.35,27.9 -6.65,27.9 -6.65,26.2"/>
<polygon id="0000011E6424F500" class="l65d20" points="-9.55,25 -9.55,29.1 -5.45,29.1 -5.45,25"/>
<polygon id="0000011E6424F570" class="l66d44" points="-13.35,26.2 -13.35,27.9 -11.65,27.9 -11.65,26.2"/>
<polygon id="0000011E64250220" class="l68d20" points="-13.95,25.6 -13.95,28.5 -11.05,28.5 -11.05,25.6"/>
<polygon id="0000011E6424EE70" class="l67d20" points="-14.15,25.4 -14.15,28.7 -10.85,28.7 -10.85,25.4"/>
<polygon id="0000011E6424EFC0" class="l67d44" points="-13.35,26.2 -13.35,27.9 -11.65,27.9 -11.65,26.2"/>
<polygon id="0000011E64250290" class="l65d20" points="-14.55,25 -14.55,29.1 -10.45,29.1 -10.45,25"/>
<polygon id="0000011E64250530" class="l66d44" points="-18.35,26.2 -18.35,27.9 -16.65,27.9 -16.65,26.2"/>
<polygon id="0000011E64250610" class="l68d20" points="-18.95,25.6 -18.95,28.5 -16.05,28.5 -16.05,25.6"/>
<polygon id="0000011E64250680" class="l67d20" points="-19.15,25.4 -19.15,28.7 -15.85,28.7 -15.85,25.4"/>
<polygon id="0000011E6424F030" class="l67d44" points="-18.35,26.2 -18.35,27.9 -16.65,27.9 -16.65,26.2"/>
<polygon id="0000011E642507D0" class="l65d20" points="-19.55,25 -19.55,29.1 -15.45,29.1 -15.45,25"/>
<polygon id="0000011E64250840" class="l66d44" points="-23.35,26.2 -23.35,27.9 -21.65,27.9 -21.65,26.2"/>
<polygon id="0000011E6424ECB0" class="l68d20" points="-23.95,25.6 -23.95,28.5 -21.05,28.5 -21.05,25.6"/>
<polygon id="0000011E6424ED20" class="l67d20" points="-24.15,25.4 -24.15,28.7 -20.85,28.7 -20.85,25.4"/>
<polygon id="0000011E64251560" class="l67d44" points="-23.35,26.2 -23.35,27.9 -21.65,27.9 -21.65,26.2"/>
<polygon id="0000011E64251DB0" class="l65d20" points="-24.55,25 -24.55,29.1 -20.45,29.1 -20.45,25"/>
<polygon id="0000011E64250ED0" class="l66d44" points="-28.35,26.2 -28.35,27.9 -26.65,27.9 -26.65,26.2"/>
<polygon id="0000011E642512C0" class="l68d20" points="-28.95,25.6 -28.95,28.5 -26.05,28.5 -26.05,25.6"/>
<polygon id="0000011E64251020" class="l67d20" points="-29.15,25.4 -29.15,28.7 -25.85,28.7 -25.85,25.4"/>
<polygon id="0000011E64251090" class="l67d44" points="-28.35,26.2 -28.35,27.9 -26.65,27.9 -26.65,26.2"/>
<polygon id="0000011E64251AA0" class="l65d20" points="-29.55,25 -29.55,29.1 -25.45,29.1 -25.45,25"/>
<polygon id="0000011E64251F00" class="l66d44" points="-33.35,26.2 -33.35,27.9 -31.65,27.9 -31.65,26.2"/>
<polygon id="0000011E64252440" class="l68d20" points="-33.95,25.6 -33.95,28.5 -31.05,28.5 -31.05,25.6"/>
<polygon id="0000011E64251C60" class="l67d20" points="-34.15,25.4 -34.15,28.7 -30.85,28.7 -30.85,25.4"/>
<polygon id="0000011E64250E60" class="l67d44" points="-33.35,26.2 -33.35,27.9 -31.65,27.9 -31.65,26.2"/>
<polygon id="0000011E64250FB0" class="l65d20" points="-34.55,25 -34.55,29.1 -30.45,29.1 -30.45,25"/>
<polygon id="0000011E64252210" class="l66d44" points="-38.35,26.2 -38.35,27.9 -36.65,27.9 -36.65,26.2"/>
<polygon id="0000011E64251FE0" class="l68d20" points="-38.95,25.6 -38.95,28.5 -36.05,28.5 -36.05,25.6"/>
<polygon id="0000011E642508B0" class="l67d20" points="-39.15,25.4 -39.15,28.7 -35.85,28.7 -35.85,25.4"/>
<polygon id="0000011E64251E20" class="l67d44" points="-38.35,26.2 -38.35,27.9 -36.65,27.9 -36.65,26.2"/>
<polygon id="0000011E64251B10" class="l65d20" points="-39.55,25 -39.55,29.1 -35.45,29.1 -35.45,25"/>
<polygon id="0000011E64251100" class="l67d20" points="-44.15,25.4 -44.15,28.7 44.15,28.7 44.15,25.4"/>
<polygon id="0000011E64251B80" class="l68d20" points="-50,25 -50,29.1 50,29.1 50,25"/>
<polygon id="0000011E64252130" class="l65d20" points="-44.55,25 -44.55,29.1 44.55,29.1 44.55,25"/>
<polygon id="0000011E64251F70" class="l94d20" points="55.4,30.4 -55.4,30.4 -55.4,-23.7 -48.7,-23.7 -48.7,23.7 48.7,23.7 48.7,-23.7 -48.7,-23.7 -55.4,-23.7 -55.4,-30.4 55.4,-30.4"/>
</g>
</svg>
